<svg width="1024" height="1024" viewBox="0 0 1024 1024" fill="none" xmlns="http://www.w3.org/2000/svg">
<path d="M902.42 1024H121.58C54.6133 1024 0 969.387 0 902.42V121.58C0 54.6133 54.6133 0 121.58 0H902.42C969.387 0 1024 54.6133 1024 121.58V902.42C1024 969.387 969.387 1024 902.42 1024Z" fill="#F5EBE2"/>
<path d="M499.974 156.038C301.675 156.038 141.086 316.627 141.086 514.926C141.086 713.224 301.675 873.813 499.974 873.813C698.272 873.813 858.861 713.224 858.861 514.926C858.861 316.627 698.272 156.038 499.974 156.038ZM499.974 726.552C382.945 726.552 288.347 631.629 288.347 514.926C288.347 398.222 383.27 303.299 499.974 303.299C616.677 303.299 711.6 398.222 711.6 514.926C711.6 631.629 617.002 726.552 499.974 726.552Z" fill="#333333"/>
<path d="M716.8 458.362C638.688 458.362 575.391 395.064 575.391 316.952C575.391 238.84 638.688 175.543 716.8 175.543H858.21V316.952C858.21 395.064 794.912 458.362 716.8 458.362Z" fill="#FF7556" stroke="#FF7556" stroke-width="8.0545" stroke-miterlimit="10" stroke-linecap="round"/>
</svg>
