<svg width="375" height="667" viewBox="0 0 375 667" fill="none" xmlns="http://www.w3.org/2000/svg">
<g clip-path="url(#clip0)">
<rect width="375" height="667" fill="white"/>
<path d="M23.175 150.75C21.725 150.75 20.775 149.225 20.775 145.925C20.775 142.625 21.725 141.1 23.175 141.1C24.65 141.1 25.6 142.625 25.6 145.925C25.6 149.225 24.65 150.75 23.175 150.75ZM23.175 137.425C19.575 137.425 16.875 140.675 16.875 145.925C16.875 151.175 19.575 154.425 23.175 154.425C26.8 154.425 29.5 151.175 29.5 145.925C29.5 140.675 26.8 137.425 23.175 137.425ZM38.6 144.475H35.45V135.9H31.4V159.375H35.45V147.775H38.6V144.475ZM50.498 139.1C53.448 139.1 54.948 139.55 54.948 140.575C54.948 141.625 53.448 142.075 50.498 142.075C47.573 142.075 46.048 141.625 46.048 140.575C46.048 139.55 47.573 139.1 50.498 139.1ZM50.498 145.1C55.723 145.1 59.123 143.4 59.123 140.575C59.123 137.8 55.723 136.075 50.498 136.075C45.273 136.075 41.873 137.8 41.873 140.575C41.873 143.4 45.273 145.1 50.498 145.1ZM52.523 152.025H48.348V152.275C48.348 153.7 46.748 155.85 41.148 156.3L42.448 159.3C46.448 158.975 48.998 157.7 50.423 156.025C51.823 157.725 54.398 158.95 58.423 159.3L59.723 156.3C53.998 155.875 52.523 153.85 52.523 152.275V152.025ZM39.873 146V149.175H48.423V151.175H52.473V149.175H61.098V146H39.873ZM75.5711 142.25H71.3711V139.575H75.5711V142.25ZM67.3461 142.25H64.8711V145.4H82.0461V142.25H79.5961V139.575H82.2961V136.425H64.6461V139.575H67.3461V142.25ZM75.5211 152.425H71.3461V152.7C71.3461 154 69.7461 155.95 64.1711 156.35L65.3961 159.3C69.4211 159.025 71.9961 157.825 73.4211 156.225C74.8211 157.85 77.4211 159 81.4711 159.3L82.6961 156.35C77.0211 155.975 75.5211 154.125 75.5211 152.7V152.425ZM62.8711 146.525V149.7H71.4211V151.65H75.4711V149.7H84.1211V146.525H62.8711ZM91.3441 151.7C89.7941 151.7 88.8441 149.675 88.8441 146.1C88.8441 142.525 89.7941 140.525 91.3441 140.525C92.8941 140.525 93.8441 142.525 93.8441 146.1C93.8441 149.675 92.8941 151.7 91.3441 151.7ZM98.5691 144.9H96.1441C95.8691 140.675 94.0441 138.1 91.3441 138.1C88.4191 138.1 86.4941 141.15 86.4941 146.1C86.4941 151.05 88.4191 154.125 91.3441 154.125C94.0941 154.125 95.9441 151.425 96.1691 147.025H98.5691V157.85H100.969V136.775H98.5691V144.9ZM103.094 136.35V158.9H105.544V136.35H103.094ZM18.375 174.725V176.825H26.275C25.75 182.025 22.775 186 17.25 188.825L18.675 190.8C26.05 187.075 28.85 181.275 28.85 174.725H18.375ZM38.175 181.25H34.75V172.325H32.175V194.9H34.75V183.4H38.175V181.25ZM40.873 174.725V176.85H44.548C44.323 181.375 43.223 185.125 39.998 188.55L42.048 189.975C46.073 185.6 46.973 180.525 46.973 174.725H40.873ZM47.748 174.725V176.85H50.748C50.573 181.725 49.648 186.125 46.398 190.025L48.473 191.475C52.498 186.55 53.173 180.65 53.173 174.725H47.748ZM61.273 181.45H58.098V172.35H55.523V194.9H58.098V183.575H61.273V181.45ZM70.5211 175.35C72.4461 175.35 73.7961 176.35 73.7961 177.9C73.7961 179.475 72.4461 180.45 70.5211 180.45C68.5711 180.45 67.2211 179.475 67.2211 177.9C67.2211 176.35 68.5711 175.35 70.5211 175.35ZM70.5211 182.45C73.8461 182.45 76.2211 180.625 76.2211 177.9C76.2211 175.225 73.8461 173.4 70.5211 173.4C67.1711 173.4 64.7961 175.225 64.7961 177.9C64.7961 180.625 67.1711 182.45 70.5211 182.45ZM77.8961 183.325C73.0211 184 67.4211 184.05 63.1711 184.05L63.4961 186.175C65.1961 186.175 67.0961 186.15 69.0961 186.075V194.225H71.6711V185.95C73.7961 185.825 75.9461 185.6 78.0461 185.225L77.8961 183.325ZM79.4711 172.35V187.65H74.6461V189.625H79.4711V194.925H82.0711V172.35H79.4711ZM94.5941 176.725H99.6191V174.6H86.9691V176.725H91.9941V178.875C91.9941 182.75 89.6691 186.95 86.1691 188.575L87.6441 190.625C90.2941 189.35 92.3191 186.675 93.3191 183.525C94.3691 186.45 96.3941 188.9 99.0191 190.05L100.444 188.025C96.9191 186.525 94.5941 182.625 94.5941 178.875V176.725ZM102.244 172.35V194.925H104.844V172.35H102.244ZM110.542 174.725V176.825H118.592C118.142 182.025 115.342 186 109.417 188.85L110.792 190.9C118.542 187.15 121.242 181.45 121.242 174.725H110.542ZM125.317 172.35V194.925H127.892V172.35H125.317ZM145.23 175.45C147.205 175.45 148.58 176.475 148.58 178.05C148.58 179.65 147.205 180.675 145.23 180.675C143.28 180.675 141.88 179.65 141.88 178.05C141.88 176.475 143.28 175.45 145.23 175.45ZM145.23 182.8C148.605 182.8 151.055 180.85 151.055 178.05C151.055 175.275 148.605 173.325 145.23 173.325C141.855 173.325 139.405 175.275 139.405 178.05C139.405 180.85 141.855 182.8 145.23 182.8ZM152.505 183.65C147.63 184.375 141.955 184.45 137.88 184.45L138.18 186.575C139.93 186.575 141.93 186.55 144.055 186.475V194.25H146.63V186.325C148.63 186.175 150.705 185.95 152.68 185.55L152.505 183.65ZM153.98 172.35V194.95H156.555V172.35H153.98ZM174.229 174.925H168.854V172.35H166.279V174.925H160.904V176.975H174.229V174.925ZM164.554 182.3C164.554 180.875 165.779 180.025 167.554 180.025C169.354 180.025 170.579 180.875 170.579 182.3C170.579 183.725 169.354 184.575 167.554 184.575C165.779 184.575 164.554 183.725 164.554 182.3ZM173.029 182.3C173.029 179.75 170.804 178.025 167.554 178.025C164.329 178.025 162.079 179.75 162.079 182.3C162.079 184.875 164.329 186.575 167.554 186.575C170.804 186.575 173.029 184.875 173.029 182.3ZM166.804 187.975H164.204V194.5H179.404V192.4H166.804V187.975ZM178.504 179.55V172.35H175.929V189.275H178.504V181.675H181.704V179.55H178.504ZM191.767 189.75H204.817V194.925H207.392V187.675H191.767V189.75ZM194.592 175.3H204.767V179.025H194.592V175.3ZM200.967 183.6V181.075H207.292V173.25H192.067V181.075H198.367V183.6H189.467V185.675H209.917V183.6H200.967ZM220.44 185.35H224.89V190.2H220.44V185.35ZM220.065 176.375H225.265V183.275H220.065V176.375ZM227.44 190.2V185.35H231.065V183.275H227.815V176.375H231.14V174.3H214.165V176.375H217.49V183.275H214.24V185.35H217.865V190.2H212.49V192.325H232.965V190.2H227.44Z" fill="#333333"/>
<rect x="16" y="241" width="343" height="79" rx="15" fill="#F2F2F2"/>
<path d="M317.693 350H322.517V349.088H320.753V341.192H319.913C319.433 341.48 318.869 341.684 318.089 341.828V342.524H319.649V349.088H317.693V350ZM326.641 350.156C328.297 350.156 329.401 349.16 329.401 347.876C329.401 346.676 328.681 346.016 327.913 345.572V345.512C328.441 345.104 329.089 344.312 329.089 343.388C329.089 342.032 328.177 341.072 326.677 341.072C325.309 341.072 324.265 341.96 324.265 343.304C324.265 344.228 324.805 344.888 325.453 345.332V345.392C324.649 345.824 323.833 346.64 323.833 347.816C323.833 349.172 325.021 350.156 326.641 350.156ZM327.241 345.224C326.209 344.816 325.261 344.36 325.261 343.304C325.261 342.452 325.849 341.876 326.665 341.876C327.613 341.876 328.153 342.584 328.153 343.448C328.153 344.096 327.841 344.696 327.241 345.224ZM326.665 349.34C325.609 349.34 324.829 348.656 324.829 347.72C324.829 346.88 325.321 346.184 326.029 345.728C327.277 346.232 328.357 346.676 328.357 347.852C328.357 348.728 327.673 349.34 326.665 349.34Z" fill="#FF7556"/>
<path d="M330.081 352.148H330.885L334.473 340.472H333.681L330.081 352.148ZM335.176 350H340.708V349.052H338.272C337.828 349.052 337.288 349.1 336.832 349.136C338.896 347.18 340.276 345.392 340.276 343.64C340.276 342.068 339.292 341.036 337.72 341.036C336.604 341.036 335.848 341.552 335.128 342.332L335.764 342.956C336.244 342.38 336.868 341.936 337.588 341.936C338.68 341.936 339.208 342.668 339.208 343.676C339.208 345.188 337.936 346.94 335.176 349.352V350ZM344.437 350.156C345.925 350.156 347.317 349.064 347.317 347.132C347.317 345.2 346.129 344.336 344.665 344.336C344.137 344.336 343.753 344.468 343.357 344.684L343.573 342.14H346.897V341.192H342.613L342.337 345.32L342.925 345.68C343.429 345.344 343.801 345.164 344.389 345.164C345.493 345.164 346.213 345.908 346.213 347.168C346.213 348.452 345.373 349.244 344.341 349.244C343.321 349.244 342.685 348.776 342.181 348.272L341.641 348.992C342.229 349.58 343.069 350.156 344.437 350.156ZM352.221 342.044H354.609V341.228H348.789V342.044H351.249V343.412C351.249 345.236 349.953 347.276 348.417 348.044L348.993 348.824C350.205 348.2 351.249 346.832 351.741 345.26C352.233 346.7 353.241 347.96 354.441 348.56L355.005 347.768C353.445 347.036 352.221 345.128 352.221 343.412V342.044ZM358.653 344.468H356.877V340.136H355.893V350.888H356.877V345.296H358.653V344.468Z" fill="#C9C9C9"/>
<rect x="16" y="591" width="343" height="60" rx="15" fill="#C9C9C9"/>
<path d="M153.354 616.264H156.882V614.752H147.972V616.264H151.482V617.578C151.482 620.512 149.844 623.608 147.342 624.814L148.44 626.29C150.33 625.318 151.734 623.338 152.454 621.034C153.174 623.212 154.56 625.048 156.414 625.948L157.494 624.49C154.974 623.32 153.354 620.332 153.354 617.578V616.264ZM159.15 613.114V618.928H155.946V620.458H159.15V629.404H161.004V613.114H159.15ZM173.62 620.782C171.136 619.99 169.786 618.1 169.786 616.084V615.778H173.188V614.284H164.458V615.778H167.914V616.102C167.914 618.316 166.492 620.404 163.936 621.286L164.872 622.744C166.816 622.078 168.184 620.692 168.904 618.964C169.606 620.476 170.902 621.646 172.72 622.222L173.62 620.782ZM171.532 627.928C169.264 627.928 167.95 627.352 167.95 626.308C167.95 625.246 169.264 624.688 171.532 624.688C173.8 624.688 175.114 625.246 175.114 626.308C175.114 627.352 173.8 627.928 171.532 627.928ZM171.532 623.23C168.184 623.23 166.114 624.364 166.114 626.308C166.114 628.234 168.184 629.386 171.532 629.386C174.88 629.386 176.95 628.234 176.95 626.308C176.95 624.364 174.88 623.23 171.532 623.23ZM176.77 617.092V613.132H174.916V622.852H176.77V618.622H179.074V617.092H176.77ZM190.251 614.5H186.381V612.97H184.527V614.5H180.657V615.904H190.251V614.5ZM183.285 619.144C183.285 618.298 184.131 617.812 185.445 617.812C186.777 617.812 187.623 618.298 187.623 619.144C187.623 619.972 186.777 620.458 185.445 620.458C184.131 620.458 183.285 619.972 183.285 619.144ZM189.387 619.144C189.387 617.488 187.839 616.462 185.445 616.462C183.069 616.462 181.503 617.488 181.503 619.144C181.503 620.782 183.069 621.79 185.445 621.79C187.839 621.79 189.387 620.782 189.387 619.144ZM184.689 626.578H193.329V622.744H182.835V624.112H191.493V625.282H182.871V629.242H193.869V627.856H184.689V626.578ZM193.329 616.804V613.096H191.475V622.006H193.329V618.334H195.633V616.804H193.329ZM199.483 620.782H203.767V614.806H197.665V616.318H201.985V619.288H197.701V625.624H198.799C200.797 625.624 202.597 625.57 204.775 625.192L204.613 623.68C202.759 623.986 201.175 624.076 199.483 624.094V620.782ZM209.293 613.132V619.414H207.367V613.456H205.621V628.576H207.367V620.926H209.293V629.368H211.057V613.132H209.293ZM219.048 622.348C219.678 622.492 220.38 622.564 221.1 622.564C221.82 622.564 222.522 622.492 223.152 622.33V625.876H219.048V622.348ZM221.1 615.526C223.548 615.526 225.258 616.606 225.258 618.316C225.258 620.044 223.548 621.124 221.1 621.124C218.634 621.124 216.924 620.044 216.924 618.316C216.924 616.606 218.634 615.526 221.1 615.526ZM225.006 625.876V621.646C226.302 620.908 227.076 619.756 227.076 618.316C227.076 615.724 224.556 614.068 221.1 614.068C217.626 614.068 215.124 615.724 215.124 618.316C215.124 619.756 215.898 620.926 217.194 621.646V625.876H213.756V627.388H228.48V625.876H225.006Z" fill="white"/>
<path d="M42.832 265.816H35.856V264.44H42.832V265.816ZM44.128 262.088H42.832V263.448H35.856V262.088H34.56V266.824H44.128V262.088ZM35.728 273.592H44.16V270.392H34.4V271.384H42.864V272.648H34.448V276.024H44.592V275.016H35.728V273.592ZM32.832 268.04V269.08H45.824V268.04H32.832ZM54.7188 273.336V270.632H59.3108V269.576H50.4788V267.256H58.9748V262.888H49.1508V263.96H57.6948V266.2H49.1828V270.632H53.3908V273.336H47.5508V274.408H60.5908V273.336H54.7188ZM72.2375 264.792C72.2375 266.568 72.2375 268.712 71.6615 271.64L72.9735 271.784C73.5335 268.68 73.5335 266.616 73.5335 264.792V263.352H63.6935V264.424H72.2375V264.792ZM62.3015 273V274.088H75.2775V273H62.3015ZM80.2523 271.816C79.1003 271.816 78.3803 270.36 78.3803 268.008C78.3803 265.704 79.1003 264.248 80.2523 264.248C81.3723 264.248 82.1083 265.704 82.1083 268.008C82.1083 270.36 81.3723 271.816 80.2523 271.816ZM85.1003 267.416H83.2923C83.1323 264.712 81.9803 263.032 80.2523 263.032C78.3803 263.032 77.1803 264.952 77.1803 268.008C77.1803 271.112 78.3803 273.032 80.2523 273.032C82.0123 273.032 83.1803 271.304 83.2923 268.488H85.1003V275.48H86.3483V262.152H85.1003V267.416ZM87.9483 261.832V276.184H89.1963V261.832H87.9483ZM95.8611 275H102.293V273.784H99.9411V263.256H98.8211C98.1811 263.64 97.4291 263.912 96.3891 264.104V265.032H98.4691V273.784H95.8611V275ZM104.72 263.688V264.76H109.024C108.832 267.736 107.472 270.328 104.176 272.168L104.944 273.112C109.024 270.808 110.32 267.384 110.32 263.688H104.72ZM115.088 261.832V267.608H113.136V262.216H111.904V275.464H113.136V268.68H115.088V276.184H116.352V261.832H115.088ZM132.905 261.832V276.216H134.217V261.832H132.905ZM126.649 262.936C124.521 262.936 123.001 264.888 123.001 267.944C123.001 271 124.521 272.952 126.649 272.952C128.777 272.952 130.297 271 130.297 267.944C130.297 264.888 128.777 262.936 126.649 262.936ZM126.649 264.12C128.041 264.12 129.033 265.624 129.033 267.944C129.033 270.28 128.041 271.784 126.649 271.784C125.241 271.784 124.249 270.28 124.249 267.944C124.249 265.624 125.241 264.12 126.649 264.12ZM145.48 268.584C143.416 267.88 142.008 266.088 142.008 264.152V262.568H140.696V264.04C140.696 266.232 139.304 268.184 137.128 268.968L137.816 270.008C139.496 269.368 140.776 268.056 141.368 266.376C142.008 267.848 143.24 269.032 144.792 269.608L145.48 268.584ZM143.768 275.144C141.64 275.144 140.344 274.552 140.344 273.56C140.344 272.552 141.64 271.96 143.768 271.96C145.88 271.96 147.176 272.552 147.176 273.56C147.176 274.552 145.88 275.144 143.768 275.144ZM143.768 270.936C140.84 270.936 139.032 271.88 139.032 273.56C139.032 275.224 140.84 276.168 143.768 276.168C146.68 276.168 148.488 275.224 148.488 273.56C148.488 271.88 146.68 270.936 143.768 270.936ZM148.328 265.544V261.848H147.016V270.536H148.328V266.632H150.456V265.544H148.328ZM158.545 264.408H160.865V271.416C160.081 271.464 159.297 271.496 158.545 271.512V264.408ZM162.145 264.408H163.745V263.336H155.825V264.408H157.265V271.528C156.609 271.544 155.953 271.544 155.377 271.544L155.521 272.648C158.017 272.648 161.377 272.568 164.289 272.12L164.193 271.16C163.521 271.24 162.849 271.304 162.145 271.336V264.408ZM166.001 261.848V267.24H163.265V268.328H166.001V276.184H167.313V261.848H166.001ZM180.191 265.816H173.215V264.44H180.191V265.816ZM181.487 262.088H180.191V263.448H173.215V262.088H171.919V266.824H181.487V262.088ZM173.087 273.592H181.519V270.392H171.759V271.384H180.223V272.648H171.807V276.024H181.951V275.016H173.087V273.592ZM170.191 268.04V269.08H183.183V268.04H170.191ZM187.07 268.28H192.366V263.16H185.71V264.232H191.038V267.224H185.758V272.728H186.942C189.406 272.728 191.582 272.632 194.174 272.2L194.046 271.128C191.534 271.528 189.422 271.64 187.07 271.64V268.28ZM195.39 261.816V276.2H196.702V261.816H195.39ZM211.421 261.848H210.109V270.408H211.421V261.848ZM208.317 268.488C206.189 267.768 204.701 265.928 204.701 263.88V262.472H203.389V263.88C203.389 266.04 201.933 268.056 199.773 268.856L200.445 269.896C202.141 269.256 203.453 267.88 204.061 266.168C204.717 267.72 206.013 268.936 207.661 269.528L208.317 268.488ZM206.685 275.112C204.493 275.112 203.165 274.488 203.165 273.448C203.165 272.392 204.493 271.768 206.685 271.768C208.861 271.768 210.173 272.392 210.173 273.448C210.173 274.488 208.861 275.112 206.685 275.112ZM206.685 270.744C203.693 270.744 201.869 271.72 201.869 273.448C201.869 275.16 203.693 276.152 206.685 276.152C209.645 276.152 211.485 275.16 211.485 273.448C211.485 271.72 209.645 270.744 206.685 270.744ZM222.15 271.896C220.854 271.896 219.91 270.968 219.91 269.688C219.91 268.392 220.854 267.464 222.15 267.464C223.462 267.464 224.406 268.392 224.406 269.688C224.406 270.968 223.462 271.896 222.15 271.896ZM222.15 266.376C220.134 266.376 218.678 267.752 218.678 269.688C218.678 271.64 220.134 272.984 222.15 272.984C224.198 272.984 225.654 271.64 225.654 269.688C225.654 267.752 224.198 266.376 222.15 266.376ZM222.79 262.008H221.478V264.136H217.862V265.192H226.326V264.136H222.79V262.008ZM231.35 267.736H228.998V261.848H227.686V276.184H228.998V268.84H231.35V267.736ZM233.509 263.384V264.44H238.901C238.629 267.848 236.709 270.6 232.853 272.44L233.557 273.512C238.325 271.176 240.229 267.528 240.229 263.384H233.509ZM243.125 261.832V276.184H244.437V261.832H243.125ZM248.179 279.464H249.203V261.592H248.179V279.464Z" fill="#333333"/>
<g filter="url(#filter0_d)">
<rect y="20" width="375" height="60" fill="white"/>
</g>
<path d="M173.442 56.4H183.882V60.54H185.942V54.74H173.442V56.4ZM175.702 44.84H183.842V47.82H175.702V44.84ZM180.802 51.48V49.46H185.862V43.2H173.682V49.46H178.722V51.48H171.602V53.14H187.962V51.48H180.802ZM196.38 52.88H199.94V56.76H196.38V52.88ZM196.08 45.7H200.24V51.22H196.08V45.7ZM201.98 56.76V52.88H204.88V51.22H202.28V45.7H204.94V44.04H191.36V45.7H194.02V51.22H191.42V52.88H194.32V56.76H190.02V58.46H206.4V56.76H201.98Z" fill="#333333"/>
<path d="M354 44H340" stroke="#FF7556" stroke-linecap="round"/>
<path d="M349 43H345" stroke="#FF7556" stroke-linecap="round"/>
<path d="M341 48V59H353C353 58 353 48 353 48" stroke="#FF7556" stroke-linecap="round"/>
<path d="M37 50H19" stroke="#333333" stroke-linecap="round"/>
<path d="M25 44L19 50L25 56" stroke="#333333" stroke-linecap="round"/>
<path d="M167.279 5.33398C165.445 5.33398 164.139 6.58789 164.139 8.30469V8.31641C164.139 9.92188 165.275 11.1055 166.898 11.1055C168.059 11.1055 168.797 10.5137 169.107 9.8457H169.225C169.225 9.91016 169.219 9.97461 169.219 10.0391C169.154 11.6562 168.586 12.9688 167.244 12.9688C166.5 12.9688 165.979 12.582 165.756 11.9902L165.738 11.9316H164.25L164.262 11.9961C164.531 13.291 165.691 14.2109 167.244 14.2109C169.371 14.2109 170.654 12.5234 170.654 9.67578V9.66406C170.654 6.61719 169.084 5.33398 167.279 5.33398ZM167.273 9.94531C166.312 9.94531 165.615 9.24219 165.615 8.26367V8.25195C165.615 7.30859 166.359 6.56445 167.291 6.56445C168.229 6.56445 168.961 7.32031 168.961 8.28711V8.29883C168.961 9.25391 168.229 9.94531 167.273 9.94531ZM173.314 8.52148C173.854 8.52148 174.246 8.11133 174.246 7.5957C174.246 7.07422 173.854 6.66992 173.314 6.66992C172.781 6.66992 172.383 7.07422 172.383 7.5957C172.383 8.11133 172.781 8.52148 173.314 8.52148ZM173.314 12.8691C173.854 12.8691 174.246 12.4648 174.246 11.9434C174.246 11.4219 173.854 11.0176 173.314 11.0176C172.781 11.0176 172.383 11.4219 172.383 11.9434C172.383 12.4648 172.781 12.8691 173.314 12.8691ZM180.076 14H181.523V12.377H182.66V11.1289H181.523V5.54492H179.385C178.236 7.29102 177.035 9.23633 175.939 11.1406V12.377H180.076V14ZM177.346 11.1641V11.0762C178.166 9.64062 179.145 8.07617 180.012 6.75195H180.1V11.1641H177.346ZM186.164 14H187.676V5.54492H186.17L183.961 7.09766V8.52148L186.064 7.0332H186.164V14ZM192.756 14H194.338L195.041 11.8145H198.17L198.879 14H200.461L197.461 5.54492H195.756L192.756 14ZM196.559 7.11523H196.658L197.795 10.6484H195.422L196.559 7.11523ZM201.914 14H203.279V7.98828H203.379L205.723 14H206.754L209.098 7.98828H209.203V14H210.562V5.54492H208.828L206.291 12.0488H206.191L203.648 5.54492H201.914V14Z" fill="black"/>
<path opacity="0.35" fill-rule="evenodd" clip-rule="evenodd" d="M345.5 4.5H364.5C365.881 4.5 367 5.61929 367 7V13.5C367 14.8807 365.881 16 364.5 16H345.5C344.119 16 343 14.8807 343 13.5V7C343 5.61929 344.119 4.5 345.5 4.5ZM345.5 5.5C344.672 5.5 344 6.17157 344 7V13.5C344 14.3284 344.672 15 345.5 15H364.5C365.328 15 366 14.3284 366 13.5V7C366 6.17157 365.328 5.5 364.5 5.5H345.5Z" fill="black"/>
<path opacity="0.4" fill-rule="evenodd" clip-rule="evenodd" d="M368 7.7998C368.89 8.25498 369.5 9.18128 369.5 10.2499C369.5 11.3186 368.89 12.2449 368 12.7001V7.7998Z" fill="black"/>
<path fill-rule="evenodd" clip-rule="evenodd" d="M346 6.5H364C364.552 6.5 365 6.94772 365 7.5V13C365 13.5523 364.552 14 364 14H346C345.448 14 345 13.5523 345 13V7.5C345 6.94772 345.448 6.5 346 6.5Z" fill="black"/>
<path d="M311.219 14.3H312.273V5.84491H311.225L308.975 7.4621V8.57538L311.125 7.01678H311.219V14.3ZM317.547 14.4992C319.416 14.4992 320.541 12.7941 320.541 10.0754V10.0637C320.541 7.34491 319.416 5.64569 317.547 5.64569C315.678 5.64569 314.564 7.34491 314.564 10.0637V10.0754C314.564 12.7941 315.678 14.4992 317.547 14.4992ZM317.547 13.5793C316.334 13.5793 315.625 12.2316 315.625 10.0754V10.0637C315.625 7.90741 316.334 6.57147 317.547 6.57147C318.76 6.57147 319.48 7.90741 319.48 10.0637V10.0754C319.48 12.2316 318.76 13.5793 317.547 13.5793ZM325.105 14.4992C326.975 14.4992 328.1 12.7941 328.1 10.0754V10.0637C328.1 7.34491 326.975 5.64569 325.105 5.64569C323.236 5.64569 322.123 7.34491 322.123 10.0637V10.0754C322.123 12.7941 323.236 14.4992 325.105 14.4992ZM325.105 13.5793C323.893 13.5793 323.184 12.2316 323.184 10.0754V10.0637C323.184 7.90741 323.893 6.57147 325.105 6.57147C326.318 6.57147 327.039 7.90741 327.039 10.0637V10.0754C327.039 12.2316 326.318 13.5793 325.105 13.5793ZM331.41 10.2922C332.488 10.2922 333.145 9.41327 333.145 8.01288V8.00702C333.145 6.60663 332.488 5.73358 331.41 5.73358C330.332 5.73358 329.682 6.60663 329.682 8.00702V8.01288C329.682 9.41327 330.332 10.2922 331.41 10.2922ZM332.043 14.3L337.797 5.84491H336.848L331.094 14.3H332.043ZM331.41 9.59491C330.83 9.59491 330.496 9.00311 330.496 8.01288V8.00702C330.496 7.01678 330.83 6.43085 331.41 6.43085C331.99 6.43085 332.33 7.01678 332.33 8.00702V8.01288C332.33 9.00311 331.99 9.59491 331.41 9.59491ZM337.469 14.4113C338.547 14.4113 339.203 13.5324 339.203 12.132V12.1262C339.203 10.7258 338.547 9.85272 337.469 9.85272C336.391 9.85272 335.74 10.7258 335.74 12.1262V12.132C335.74 13.5324 336.391 14.4113 337.469 14.4113ZM337.469 13.7141C336.889 13.7141 336.555 13.1223 336.555 12.132V12.1262C336.555 11.1359 336.889 10.55 337.469 10.55C338.049 10.55 338.389 11.1359 338.389 12.1262V12.132C338.389 13.1223 338.049 13.7141 337.469 13.7141Z" fill="black"/>
<path fill-rule="evenodd" clip-rule="evenodd" d="M281.269 7.69225C281.1 7.46378 281 7.18107 281 6.875C281 6.11561 281.616 5.5 282.375 5.5C282.647 5.5 282.901 5.57923 283.115 5.7159C282.344 6.20596 281.707 6.88693 281.269 7.69225ZM290.37 10.255C290.37 12.6712 288.411 14.63 285.995 14.63C283.579 14.63 281.62 12.6712 281.62 10.255C281.62 7.83875 283.579 5.88 285.995 5.88C288.411 5.88 290.37 7.83875 290.37 10.255ZM286.38 10.875H284.25V10.12H285.63V7.5H286.38V10.875ZM289.625 5.5C289.35 5.5 289.095 5.58046 288.88 5.71909C289.651 6.21049 290.288 6.89306 290.725 7.70001C290.898 7.4702 291 7.18455 291 6.875C291 6.11561 290.384 5.5 289.625 5.5Z" fill="black"/>
<path fill-rule="evenodd" clip-rule="evenodd" d="M300 9.98336V9.97118L297.044 7.28363L297.717 6.54369L300 8.61972V4.11972L303.994 7.75L301.519 10L303.994 12.25L300 15.8803V11.3348L297.717 13.4108L297.044 12.6709L300 9.98336ZM301 9.11972L302.507 7.75L301 6.38027V9.11972ZM302.507 12.25L301 13.6197V10.8803L302.507 12.25Z" fill="black"/>
<path opacity="0.25" fill-rule="evenodd" clip-rule="evenodd" d="M20.5 5H21.5C22.0523 5 22.5 5.44772 22.5 6V14C22.5 14.5523 22.0523 15 21.5 15H20.5C19.9477 15 19.5 14.5523 19.5 14V6C19.5 5.44772 19.9477 5 20.5 5Z" fill="black"/>
<path fill-rule="evenodd" clip-rule="evenodd" d="M17 7H16C15.4477 7 15 7.44772 15 8V14C15 14.5523 15.4477 15 16 15H17C17.5523 15 18 14.5523 18 14V8C18 7.44772 17.5523 7 17 7ZM11.5 9H12.5C13.0523 9 13.5 9.44772 13.5 10V14C13.5 14.5523 13.0523 15 12.5 15H11.5C10.9477 15 10.5 14.5523 10.5 14V10C10.5 9.44772 10.9477 9 11.5 9ZM7 10.5H8C8.55228 10.5 9 10.9477 9 11.5V14C9 14.5523 8.55228 15 8 15H7C6.44772 15 6 14.5523 6 14V11.5C6 10.9477 6.44772 10.5 7 10.5Z" fill="black"/>
<path d="M30.0781 14H31.1328V10.3379H34.877V9.40039H31.1328V6.49414H35.2109V5.54492H30.0781V14ZM37.3055 6.46484C37.6922 6.46484 38.0086 6.14844 38.0086 5.76172C38.0086 5.375 37.6922 5.05859 37.3055 5.05859C36.9187 5.05859 36.6023 5.375 36.6023 5.76172C36.6023 6.14844 36.9187 6.46484 37.3055 6.46484ZM36.7898 14H37.8094V7.68359H36.7898V14ZM42.2828 16.2266C44.0055 16.2266 45.0953 15.3242 45.0953 13.9121V7.68359H44.0758V8.72656H44.0055C43.6187 8.01172 42.9273 7.57227 42.0367 7.57227C40.3844 7.57227 39.3648 8.85547 39.3648 10.625V10.6367C39.3648 12.4062 40.3785 13.6719 42.0133 13.6719C42.8805 13.6719 43.5953 13.2793 43.9937 12.582H44.0875V13.8594C44.0875 14.791 43.4137 15.3242 42.2828 15.3242C41.3746 15.3242 40.8121 14.9844 40.7008 14.5039L40.6949 14.498H39.6402L39.6285 14.5039C39.7867 15.541 40.7594 16.2266 42.2828 16.2266ZM42.2359 12.7695C41.0641 12.7695 40.4078 11.8906 40.4078 10.6367V10.625C40.4078 9.37109 41.0641 8.47461 42.2359 8.47461C43.402 8.47461 44.1109 9.37109 44.1109 10.625V10.6367C44.1109 11.8906 43.4078 12.7695 42.2359 12.7695ZM46.9438 14H47.9633V10.0859C47.9633 9.19531 48.5902 8.47461 49.4164 8.47461C50.2133 8.47461 50.7289 8.96094 50.7289 9.71094V14H51.7484V9.93945C51.7484 9.13672 52.3285 8.47461 53.2074 8.47461C54.098 8.47461 54.5258 8.9375 54.5258 9.86914V14H55.5453V9.63477C55.5453 8.31055 54.8246 7.57227 53.5355 7.57227C52.6625 7.57227 51.9418 8.01172 51.602 8.67969H51.5082C51.2152 8.02344 50.6176 7.57227 49.7621 7.57227C48.9359 7.57227 48.3383 7.96484 48.057 8.64453H47.9633V7.68359H46.9438V14ZM59.0695 14.1113C59.9191 14.1113 60.5812 13.7422 60.9797 13.0684H61.0734V14H62.093V9.67578C62.093 8.36328 61.2316 7.57227 59.6906 7.57227C58.343 7.57227 57.382 8.24023 57.218 9.23047L57.2121 9.26562H58.2316L58.2375 9.24805C58.4016 8.75586 58.8996 8.47461 59.6555 8.47461C60.5988 8.47461 61.0734 8.89648 61.0734 9.67578V10.25L59.2629 10.3613C57.7922 10.4492 56.9602 11.0996 56.9602 12.2246V12.2363C56.9602 13.3848 57.8684 14.1113 59.0695 14.1113ZM58.0031 12.2129V12.2012C58.0031 11.5742 58.425 11.2344 59.3859 11.1758L61.0734 11.0703V11.6445C61.0734 12.5469 60.3176 13.2266 59.2805 13.2266C58.548 13.2266 58.0031 12.8516 58.0031 12.2129Z" fill="black"/>
<path fill-rule="evenodd" clip-rule="evenodd" d="M80.9828 7.52294C79.0717 5.89057 76.6574 5 74.1327 5C71.6006 5 69.1795 5.89589 67.2661 7.53708L67.1036 7.67646C66.9722 7.78918 66.9647 7.98954 67.0873 8.11176L68.2142 9.23557C68.3236 9.34466 68.4985 9.3521 68.6168 9.2527L68.7564 9.13541C70.2633 7.86943 72.1552 7.18035 74.1327 7.18035C76.1035 7.18035 77.9894 7.86472 79.494 9.12283L79.6336 9.23952C79.7519 9.33847 79.9264 9.33084 80.0356 9.22195L81.1627 8.09797C81.2855 7.97558 81.2777 7.77488 81.1459 7.66228L80.9828 7.52294ZM74.1327 8.46979C75.7236 8.46979 77.251 8.99754 78.4953 9.97486L78.6711 10.113C78.8113 10.2231 78.8236 10.4306 78.6974 10.5564L77.5667 11.6841C77.4621 11.7884 77.2966 11.8003 77.178 11.7122L77.0401 11.6098C76.1997 10.9852 75.1864 10.6501 74.1327 10.6501C73.0726 10.6501 72.0533 10.9893 71.2101 11.6211L71.0721 11.7245C70.9535 11.8133 70.7874 11.8016 70.6825 11.697L69.5522 10.5698C69.4262 10.4442 69.4382 10.2373 69.5777 10.1269L69.7526 9.98871C70.9998 9.00267 72.5342 8.46979 74.1327 8.46979ZM74.1327 11.9396C74.7722 11.9396 75.3936 12.1076 75.9411 12.4281L76.163 12.5579C76.3311 12.6563 76.3607 12.8867 76.2228 13.0242L74.3287 14.913C74.2124 15.029 74.0238 15.029 73.9074 14.913L72.0255 13.0363C71.8882 12.8994 71.9169 12.6702 72.0836 12.5711L72.303 12.4406C72.8555 12.1121 73.4848 11.9396 74.1327 11.9396Z" fill="black"/>
<path d="M0 0H376V667H0V0Z" fill="#333333" fill-opacity="0.5"/>
<mask id="mask0" mask-type="alpha" maskUnits="userSpaceOnUse" x="52" y="200" width="271" height="101">
<rect x="52" y="200" width="271" height="101" rx="14" fill="#C4C4C4"/>
</mask>
<g mask="url(#mask0)">
<g filter="url(#filter1_b)">
<rect x="52" y="200" width="271" height="101" fill="#F8F8F8" fill-opacity="0.82"/>
</g>
<path d="M102.471 234.113H111.107V237.479H113.351V232.328H102.471V234.113ZM104.851 224.168H111.056V226.191H104.851V224.168ZM109.084 229.421V227.959H113.266V222.417H102.641V227.959H106.84V229.421H100.907V231.206H115.051V229.421H109.084ZM122.257 231.002H124.96V233.943H122.257V231.002ZM122.002 224.831H125.198V229.234H122.002V224.831ZM127.187 233.943V231.002H129.516V229.234H127.425V224.831H129.55V223.046H117.65V224.831H119.775V229.234H117.735V231.002H120.03V233.943H116.528V235.745H130.723V233.943H127.187ZM142.418 224.355H133.952V228.095H144.9V226.582H136.162V225.766H144.628V222.077H133.918V223.59H142.418V224.355ZM136.026 234.963H144.679V231.24H133.782V232.753H142.452V233.552H133.799V237.326H145.104V235.813H136.026V234.963ZM132.184 228.843V230.458H146.362V228.843H132.184ZM161.637 228.724C159.189 227.959 158.135 226.106 158.135 224.236V222.587H155.857V224.032C155.857 226.055 154.769 228.078 152.185 228.894L153.307 230.662C155.092 230.084 156.299 228.911 156.996 227.449C157.659 228.843 158.832 229.931 160.549 230.492L161.637 228.724ZM154.225 233.722H162.436V237.479H164.68V231.937H154.225V233.722ZM166.754 225.613H164.68V221.805H162.436V231.257H164.68V227.449H166.754V225.613ZM172.958 225.188H175.236V223.369H168.266V225.188H170.782V225.953C170.782 228.639 169.966 231.444 167.688 232.889L169.014 234.538C170.425 233.654 171.343 232.124 171.887 230.339C172.397 231.988 173.298 233.331 174.675 234.164L175.984 232.532C173.723 231.206 172.958 228.571 172.958 225.953V225.188ZM176.137 227.143H174.148V228.962H176.137V236.748H178.228V222.06H176.137V227.143ZM179.299 221.788V237.445H181.424V221.788H179.299ZM192.687 232.43C191.633 232.43 190.851 231.716 190.851 230.526C190.851 229.336 191.633 228.605 192.687 228.605C193.741 228.605 194.506 229.336 194.506 230.509C194.506 231.716 193.741 232.43 192.687 232.43ZM192.687 226.786C190.409 226.786 188.709 228.333 188.709 230.509C188.709 232.719 190.409 234.266 192.687 234.266C194.948 234.266 196.631 232.719 196.631 230.509C196.631 228.333 194.948 226.786 192.687 226.786ZM193.792 222.077H191.548V224.117H188.08V225.902H197.192V224.117H193.792V222.077ZM202.7 227.925H200.456V221.805H198.212V237.462H200.456V229.778H202.7V227.925ZM209.872 223.012H207.628V225.29C207.628 228.333 206.336 231.359 203.599 232.532L204.942 234.385C206.812 233.501 208.087 231.818 208.784 229.727C209.481 231.648 210.688 233.195 212.49 234.011L213.765 232.192C211.113 231.053 209.872 228.197 209.872 225.29V223.012ZM214.53 221.788V237.496H216.774V221.788H214.53ZM232.787 221.805H230.662V230.713H232.787V221.805ZM220.547 231.172C222.638 230.288 224.134 229.132 225.052 227.67H227.466V230.509H229.557V222.094H227.466V225.885H225.885C226.157 224.984 226.293 223.981 226.293 222.876H220.241V224.678H223.947C223.641 226.82 222.264 228.418 219.442 229.54L220.547 231.172ZM230.951 231.206H228.724V231.886C228.724 233.042 228.214 234.402 226.956 235.32C225.715 234.453 225.222 233.144 225.222 231.886V231.206H223.046V231.886C223.046 233.433 222.196 234.997 220.139 235.694L221.227 237.343C222.655 236.833 223.59 235.898 224.134 234.725C224.644 235.932 225.528 236.952 226.973 237.479C228.367 236.918 229.268 235.881 229.812 234.674C230.339 235.881 231.291 236.833 232.77 237.343L233.875 235.694C231.784 235.065 230.951 233.518 230.951 231.886V231.206ZM239.365 232.039C238.226 232.039 237.461 230.798 237.461 228.469C237.461 226.157 238.226 224.916 239.365 224.916C240.521 224.916 241.286 226.157 241.286 228.469C241.286 230.798 240.521 232.039 239.365 232.039ZM245.978 221.788V227.432H243.36C243.054 224.61 241.473 222.893 239.365 222.893C237.036 222.893 235.319 225.035 235.319 228.469C235.319 231.92 237.036 234.079 239.365 234.079C241.541 234.079 243.139 232.243 243.377 229.251H245.978V237.496H248.222V221.788H245.978ZM256.074 230.832C256.618 230.934 257.179 230.985 257.791 230.985C258.403 230.985 258.981 230.934 259.525 230.832V233.824H256.074V230.832ZM257.791 224.338C259.967 224.338 261.429 225.222 261.429 226.786C261.429 228.333 259.967 229.234 257.791 229.234C255.615 229.234 254.17 228.333 254.17 226.786C254.17 225.222 255.615 224.338 257.791 224.338ZM261.752 233.824V229.999C262.925 229.268 263.639 228.146 263.639 226.786C263.639 224.219 261.174 222.57 257.791 222.57C254.425 222.57 251.96 224.219 251.96 226.786C251.943 228.146 252.657 229.268 253.847 229.999V233.824H250.719V235.643H264.897V233.824H261.752ZM268.873 232.265H270.798V231.783C270.798 230.953 271.105 230.521 272.193 229.891C273.322 229.218 273.953 228.33 273.953 227.068V227.052C273.953 225.234 272.434 223.922 270.159 223.922C267.694 223.922 266.341 225.35 266.283 227.292V227.309L268.217 227.301L268.233 227.292C268.292 226.271 268.98 225.616 270.051 225.616C271.097 225.616 271.794 226.255 271.794 227.126V227.143C271.794 227.957 271.446 228.405 270.417 229.027C269.271 229.7 268.79 230.447 268.864 231.675L268.873 232.265ZM269.927 236.208C270.773 236.208 271.305 235.693 271.305 234.904C271.305 234.107 270.773 233.593 269.927 233.593C269.097 233.593 268.549 234.107 268.549 234.904C268.549 235.693 269.097 236.208 269.927 236.208Z" fill="black"/>
<g clip-path="url(#clip1)">
<rect x="52" y="257" width="271" height="0.5" fill="#000050" fill-opacity="0.05"/>
<rect x="52" y="257" width="271" height="0.5" fill="#3F3F3F" style="mix-blend-mode:color-burn"/>
</g>
<g clip-path="url(#clip2)">
<rect x="52" y="257" width="270" height="0.5" fill="#000050" fill-opacity="0.05"/>
<rect x="52" y="257" width="270" height="0.5" fill="#3F3F3F" style="mix-blend-mode:color-burn"/>
</g>
<g clip-path="url(#clip3)">
<rect x="186.5" y="257" width="0.5" height="44" fill="#000050" fill-opacity="0.05"/>
<rect x="186.5" y="257" width="0.5" height="44" fill="#3F3F3F" style="mix-blend-mode:color-burn"/>
</g>
<path d="M90.3987 278.523C92.1837 278.081 93.5437 277.061 94.1897 275.718C94.8527 276.959 96.1787 277.877 97.9297 278.302L98.4907 277.214C96.3317 276.721 94.8527 275.412 94.8527 273.882V273.848H98.2187V272.743H94.8527V271.043H93.4587V272.743H90.1097V273.848H93.4757V273.882C93.4757 275.514 91.9967 276.908 89.8037 277.418L90.3987 278.523ZM99.1537 279.084C95.8217 279.56 91.9967 279.577 89.0897 279.577L89.2767 280.75C90.5517 280.75 91.9967 280.733 93.4927 280.682V285.816H94.8867V280.597C96.3317 280.512 97.8277 280.359 99.2557 280.121L99.1537 279.084ZM100.242 271.026V286.275H101.636V271.026H100.242ZM117.92 278.455C115.251 277.979 112.344 275.735 112.344 273.202V272.029H110.882V273.202C110.882 275.735 107.992 277.979 105.323 278.455L105.901 279.611C108.247 279.118 110.627 277.537 111.613 275.361C112.599 277.537 114.996 279.118 117.325 279.611L117.92 278.455ZM112.31 283.13V279.424H110.916V283.13H104.762V284.269H118.6V283.13H112.31ZM124.872 281.702C123.495 281.702 122.492 280.716 122.492 279.356C122.492 277.979 123.495 276.993 124.872 276.993C126.266 276.993 127.269 277.979 127.269 279.356C127.269 280.716 126.266 281.702 124.872 281.702ZM124.872 275.837C122.73 275.837 121.183 277.299 121.183 279.356C121.183 281.43 122.73 282.858 124.872 282.858C127.048 282.858 128.595 281.43 128.595 279.356C128.595 277.299 127.048 275.837 124.872 275.837ZM125.552 271.196H124.158V273.457H120.316V274.579H129.309V273.457H125.552V271.196ZM134.647 277.282H132.148V271.026H130.754V286.258H132.148V278.455H134.647V277.282ZM136.941 272.658V273.78H142.67C142.381 277.401 140.341 280.325 136.244 282.28L136.992 283.419C142.058 280.937 144.081 277.061 144.081 272.658H136.941ZM147.158 271.009V286.258H148.552V271.009H147.158Z" fill="#007AFF"/>
<path d="M233.236 277.724C230.788 276.959 229.734 275.106 229.734 273.236V271.587H227.456V273.032C227.456 275.055 226.368 277.078 223.784 277.894L224.906 279.662C226.691 279.084 227.898 277.911 228.595 276.449C229.258 277.843 230.431 278.931 232.148 279.492L233.236 277.724ZM225.824 282.722H234.035V286.479H236.279V280.937H225.824V282.722ZM238.353 274.613H236.279V270.805H234.035V280.257H236.279V276.449H238.353V274.613ZM244.556 274.188H246.834V272.369H239.864V274.188H242.38V274.953C242.38 277.639 241.564 280.444 239.286 281.889L240.612 283.538C242.023 282.654 242.941 281.124 243.485 279.339C243.995 280.988 244.896 282.331 246.273 283.164L247.582 281.532C245.321 280.206 244.556 277.571 244.556 274.953V274.188ZM247.735 276.143H245.746V277.962H247.735V285.748H249.826V271.06H247.735V276.143ZM250.897 270.788V286.445H253.022V270.788H250.897ZM259.753 281.43C258.699 281.43 257.917 280.716 257.917 279.526C257.917 278.336 258.699 277.605 259.753 277.605C260.807 277.605 261.572 278.336 261.572 279.509C261.572 280.716 260.807 281.43 259.753 281.43ZM259.753 275.786C257.475 275.786 255.775 277.333 255.775 279.509C255.775 281.719 257.475 283.266 259.753 283.266C262.014 283.266 263.697 281.719 263.697 279.509C263.697 277.333 262.014 275.786 259.753 275.786ZM260.858 271.077H258.614V273.117H255.146V274.902H264.258V273.117H260.858V271.077ZM269.766 276.925H267.522V270.805H265.278V286.462H267.522V278.778H269.766V276.925ZM271.737 272.42V274.205H276.956C276.633 277.673 274.899 280.121 270.904 282.042L272.077 283.81C277.636 281.124 279.251 277.214 279.251 272.42H271.737ZM281.648 270.788V286.445H283.909V270.788H281.648Z" fill="#007AFF"/>
</g>
</g>
<defs>
<filter id="filter0_d" x="-4" y="20" width="383" height="68" filterUnits="userSpaceOnUse" color-interpolation-filters="sRGB">
<feFlood flood-opacity="0" result="BackgroundImageFix"/>
<feColorMatrix in="SourceAlpha" type="matrix" values="0 0 0 0 0 0 0 0 0 0 0 0 0 0 0 0 0 0 127 0"/>
<feOffset dy="4"/>
<feGaussianBlur stdDeviation="2"/>
<feColorMatrix type="matrix" values="0 0 0 0 0.788235 0 0 0 0 0.788235 0 0 0 0 0.788235 0 0 0 0.2 0"/>
<feBlend mode="normal" in2="BackgroundImageFix" result="effect1_dropShadow"/>
<feBlend mode="normal" in="SourceGraphic" in2="effect1_dropShadow" result="shape"/>
</filter>
<filter id="filter1_b" x="42" y="190" width="291" height="121" filterUnits="userSpaceOnUse" color-interpolation-filters="sRGB">
<feFlood flood-opacity="0" result="BackgroundImageFix"/>
<feGaussianBlur in="BackgroundImage" stdDeviation="5"/>
<feComposite in2="SourceAlpha" operator="in" result="effect1_backgroundBlur"/>
<feBlend mode="normal" in="SourceGraphic" in2="effect1_backgroundBlur" result="shape"/>
</filter>
<clipPath id="clip0">
<rect width="375" height="667" fill="white"/>
</clipPath>
<clipPath id="clip1">
<rect width="271" height="0.5" fill="white" transform="translate(52 257)"/>
</clipPath>
<clipPath id="clip2">
<rect width="270" height="0.5" fill="white" transform="translate(52 257)"/>
</clipPath>
<clipPath id="clip3">
<rect width="0.5" height="44" fill="white" transform="translate(186.5 257)"/>
</clipPath>
</defs>
</svg>
