<svg width="375" height="668" viewBox="0 0 375 668" fill="none" xmlns="http://www.w3.org/2000/svg">
<g clip-path="url(#clip0)">
<rect width="375" height="667" transform="translate(0 0.610352)" fill="white"/>
<rect y="0.610352" width="375" height="80" fill="#FF7556"/>
<path fill-rule="evenodd" clip-rule="evenodd" d="M89.9958 9.13123C91.9355 9.13123 93.7034 9.8458 95.0589 11.0175L96 9.97846C94.3946 8.58482 92.2979 7.61035 89.9958 7.61035C87.6971 7.61035 85.6034 8.58186 84 9.97106L84.9391 11.0116C86.2936 9.84334 88.0585 9.13123 89.9958 9.13123V9.13123Z" fill="#FCFCFC"/>
<path fill-rule="evenodd" clip-rule="evenodd" d="M89.9954 12.1307C91.158 12.1307 92.2201 12.5529 93.0393 13.2482L94.0349 12.1485C92.9513 11.2184 91.5418 10.6108 89.9954 10.6108C88.452 10.6108 87.0435 11.2169 85.9609 12.144L86.9551 13.2453C87.7738 12.5514 88.8344 12.1307 89.9954 12.1307V12.1307Z" fill="#FCFCFC"/>
<path fill-rule="evenodd" clip-rule="evenodd" d="M92.0432 14.348C91.4889 13.8879 90.7752 13.5693 89.995 13.5693C89.2162 13.5693 88.5035 13.8874 87.9492 14.3456L89.995 16.6106L92.0432 14.348V14.348Z" fill="#FCFCFC"/>
<path fill-rule="evenodd" clip-rule="evenodd" d="M8.75 15.1104C10.2688 15.1104 11.5 13.8791 11.5 12.3604C11.5 10.8416 10.2688 9.61035 8.75 9.61035C7.23122 9.61035 6 10.8416 6 12.3604C6 13.8791 7.23122 15.1104 8.75 15.1104Z" fill="white"/>
<path fill-rule="evenodd" clip-rule="evenodd" d="M15.75 15.1104C17.2688 15.1104 18.5 13.8791 18.5 12.3604C18.5 10.8416 17.2688 9.61035 15.75 9.61035C14.2312 9.61035 13 10.8416 13 12.3604C13 13.8791 14.2312 15.1104 15.75 15.1104Z" fill="white"/>
<path fill-rule="evenodd" clip-rule="evenodd" d="M22.75 15.1104C24.2688 15.1104 25.5 13.8791 25.5 12.3604C25.5 10.8416 24.2688 9.61035 22.75 9.61035C21.2312 9.61035 20 10.8416 20 12.3604C20 13.8791 21.2312 15.1104 22.75 15.1104Z" fill="white"/>
<path fill-rule="evenodd" clip-rule="evenodd" d="M29.75 14.6104V14.6104C30.9926 14.6104 32 13.603 32 12.3604C32 11.1177 30.9926 10.1104 29.75 10.1104C28.5074 10.1104 27.5 11.1177 27.5 12.3604C27.5 13.603 28.5074 14.6104 29.75 14.6104V14.6104ZM29.75 15.1104V15.1104C28.2312 15.1104 27 13.8791 27 12.3604C27 10.8416 28.2312 9.61035 29.75 9.61035C31.2688 9.61035 32.5 10.8416 32.5 12.3604C32.5 13.8791 31.2688 15.1104 29.75 15.1104V15.1104Z" fill="white"/>
<path fill-rule="evenodd" clip-rule="evenodd" d="M36.75 14.6104V14.6104C37.9926 14.6104 39 13.603 39 12.3604C39 11.1177 37.9926 10.1104 36.75 10.1104C35.5074 10.1104 34.5 11.1177 34.5 12.3604C34.5 13.603 35.5074 14.6104 36.75 14.6104V14.6104ZM36.75 15.1104V15.1104C35.2312 15.1104 34 13.8791 34 12.3604C34 10.8416 35.2312 9.61035 36.75 9.61035C38.2688 9.61035 39.5 10.8416 39.5 12.3604C39.5 13.8791 38.2688 15.1104 36.75 15.1104V15.1104Z" fill="white"/>
<path d="M43.5254 7.50293H49.4961V8.55762H44.6914V11.1709H48.916V12.1963H44.6914V16.1104H43.5254V7.50293ZM50.6094 9.86426H51.6816V16.1104H50.6094V9.86426ZM50.6094 7.50293H51.6816V8.69824H50.6094V7.50293ZM55.4961 9.72363C55.9883 9.72363 56.418 9.84473 56.7852 10.0869C56.9844 10.2236 57.1875 10.4229 57.3945 10.6846V9.89355H58.3672V15.6006C58.3672 16.3975 58.25 17.0264 58.0156 17.4873C57.5781 18.3389 56.752 18.7646 55.5371 18.7646C54.8613 18.7646 54.293 18.6123 53.832 18.3076C53.3711 18.0068 53.1133 17.5342 53.0586 16.8896H54.1309C54.1816 17.1709 54.2832 17.3877 54.4355 17.54C54.6738 17.7744 55.0488 17.8916 55.5605 17.8916C56.3691 17.8916 56.8984 17.6064 57.1484 17.0361C57.2969 16.7002 57.3652 16.1006 57.3535 15.2373C57.1426 15.5576 56.8887 15.7959 56.5918 15.9521C56.2949 16.1084 55.9023 16.1865 55.4141 16.1865C54.7344 16.1865 54.1387 15.9463 53.627 15.4658C53.1191 14.9814 52.8652 14.1826 52.8652 13.0693C52.8652 12.0186 53.1211 11.1982 53.6328 10.6084C54.1484 10.0186 54.7695 9.72363 55.4961 9.72363ZM57.3945 12.9463C57.3945 12.1689 57.2344 11.5928 56.9141 11.2178C56.5938 10.8428 56.1855 10.6553 55.6895 10.6553C54.9473 10.6553 54.4395 11.0029 54.166 11.6982C54.0215 12.0693 53.9492 12.5557 53.9492 13.1572C53.9492 13.8643 54.0918 14.4033 54.377 14.7744C54.666 15.1416 55.0527 15.3252 55.5371 15.3252C56.2949 15.3252 56.8281 14.9834 57.1367 14.2998C57.3086 13.9131 57.3945 13.4619 57.3945 12.9463ZM59.9609 9.83496H61.0039V10.7256C61.2539 10.417 61.4805 10.1924 61.6836 10.0518C62.0312 9.81348 62.4258 9.69434 62.8672 9.69434C63.3672 9.69434 63.7695 9.81738 64.0742 10.0635C64.2461 10.2041 64.4023 10.4111 64.543 10.6846C64.7773 10.3486 65.0527 10.1006 65.3691 9.94043C65.6855 9.77637 66.041 9.69434 66.4355 9.69434C67.2793 9.69434 67.8535 9.99902 68.1582 10.6084C68.3223 10.9365 68.4043 11.3779 68.4043 11.9326V16.1104H67.3086V11.751C67.3086 11.333 67.2031 11.0459 66.9922 10.8896C66.7852 10.7334 66.5312 10.6553 66.2305 10.6553C65.8164 10.6553 65.459 10.7939 65.1582 11.0713C64.8613 11.3486 64.7129 11.8115 64.7129 12.46V16.1104H63.6406V12.0146C63.6406 11.5889 63.5898 11.2783 63.4883 11.083C63.3281 10.79 63.0293 10.6436 62.5918 10.6436C62.1934 10.6436 61.8301 10.7979 61.502 11.1064C61.1777 11.415 61.0156 11.9736 61.0156 12.7822V16.1104H59.9609V9.83496ZM70.7656 14.4404C70.7656 14.7451 70.877 14.9854 71.0996 15.1611C71.3223 15.3369 71.5859 15.4248 71.8906 15.4248C72.2617 15.4248 72.6211 15.3389 72.9688 15.167C73.5547 14.8818 73.8477 14.415 73.8477 13.7666V12.917C73.7188 12.999 73.5527 13.0674 73.3496 13.1221C73.1465 13.1768 72.9473 13.2158 72.752 13.2393L72.1133 13.3213C71.7305 13.3721 71.4434 13.4521 71.252 13.5615C70.9277 13.7451 70.7656 14.0381 70.7656 14.4404ZM73.3203 12.3076C73.5625 12.2764 73.7246 12.1748 73.8066 12.0029C73.8535 11.9092 73.877 11.7744 73.877 11.5986C73.877 11.2393 73.748 10.9795 73.4902 10.8193C73.2363 10.6553 72.8711 10.5732 72.3945 10.5732C71.8438 10.5732 71.4531 10.7217 71.2227 11.0186C71.0938 11.1826 71.0098 11.4268 70.9707 11.751H69.9863C70.0059 10.9775 70.2559 10.4404 70.7363 10.1396C71.2207 9.83496 71.7812 9.68262 72.418 9.68262C73.1562 9.68262 73.7559 9.82324 74.2168 10.1045C74.6738 10.3857 74.9023 10.8232 74.9023 11.417V15.0322C74.9023 15.1416 74.9238 15.2295 74.9668 15.2959C75.0137 15.3623 75.1094 15.3955 75.2539 15.3955C75.3008 15.3955 75.3535 15.3936 75.4121 15.3896C75.4707 15.3818 75.5332 15.3721 75.5996 15.3604V16.1396C75.4355 16.1865 75.3105 16.2158 75.2246 16.2275C75.1387 16.2393 75.0215 16.2451 74.873 16.2451C74.5098 16.2451 74.2461 16.1162 74.082 15.8584C73.9961 15.7217 73.9355 15.5283 73.9004 15.2783C73.6855 15.5596 73.377 15.8037 72.9746 16.0107C72.5723 16.2178 72.1289 16.3213 71.6445 16.3213C71.0625 16.3213 70.5859 16.1455 70.2148 15.7939C69.8477 15.4385 69.6641 14.9951 69.6641 14.4639C69.6641 13.8818 69.8457 13.4307 70.209 13.1104C70.5723 12.79 71.0488 12.5928 71.6387 12.5186L73.3203 12.3076Z" fill="white"/>
<path fill-rule="evenodd" clip-rule="evenodd" d="M346.002 7.63667V7.63667C345.447 7.63667 345 8.10589 345 8.68936V15.5313C345 16.1122 345.449 16.584 346.002 16.584H365.498C366.053 16.584 366.5 16.1148 366.5 15.5313V8.68936C366.5 8.10846 366.051 7.63667 365.498 7.63667H346.002ZM346.002 7.11035V7.11035H365.498C366.327 7.11035 367 7.8173 367 8.68936V15.5313C367 16.4072 366.327 17.1104 365.498 17.1104H346.002C345.173 17.1104 344.5 16.4034 344.5 15.5313V8.68936C344.5 7.81353 345.173 7.11035 346.002 7.11035V7.11035Z" fill="white"/>
<path fill-rule="evenodd" clip-rule="evenodd" d="M346 8.11035C345.724 8.11035 345.5 8.33421 345.5 8.61035V15.6104C345.5 15.8865 345.724 16.1104 346 16.1104H354.5V8.11035H346Z" fill="white"/>
<path fill-rule="evenodd" clip-rule="evenodd" d="M369 12.3426C369 13.2242 368.348 13.9536 367.5 14.0749V10.6104C368.348 10.7317 369 11.461 369 12.3426Z" fill="white"/>
<path d="M318.467 13.1396V9.33691L315.777 13.1396H318.467ZM318.484 16.1104V14.0596H314.805V13.0283L318.648 7.69629H319.539V13.1396H320.775V14.0596H319.539V16.1104H318.484ZM321.555 16.1104C321.594 15.3877 321.742 14.7588 322 14.2236C322.262 13.6885 322.77 13.2021 323.523 12.7646L324.648 12.1143C325.152 11.8213 325.506 11.5713 325.709 11.3643C326.029 11.04 326.189 10.6689 326.189 10.251C326.189 9.7627 326.043 9.37598 325.75 9.09082C325.457 8.80176 325.066 8.65723 324.578 8.65723C323.855 8.65723 323.355 8.93066 323.078 9.47754C322.93 9.77051 322.848 10.1768 322.832 10.6963H321.76C321.771 9.96582 321.906 9.37012 322.164 8.90918C322.621 8.09668 323.428 7.69043 324.584 7.69043C325.545 7.69043 326.246 7.9502 326.688 8.46973C327.133 8.98926 327.355 9.56738 327.355 10.2041C327.355 10.876 327.119 11.4502 326.646 11.9268C326.373 12.2041 325.883 12.54 325.176 12.9346L324.373 13.3799C323.99 13.5908 323.689 13.792 323.471 13.9834C323.08 14.3232 322.834 14.7002 322.732 15.1143H327.314V16.1104H321.555ZM336.039 12.0322C336.602 12.0322 337.082 12.2314 337.48 12.6299C337.879 13.0283 338.078 13.5088 338.078 14.0713C338.078 14.6338 337.879 15.1143 337.48 15.5127C337.082 15.9111 336.602 16.1104 336.039 16.1104C335.473 16.1104 334.99 15.9111 334.592 15.5127C334.193 15.1143 333.994 14.6338 333.994 14.0713C333.994 13.5088 334.193 13.0283 334.592 12.6299C334.99 12.2314 335.473 12.0322 336.039 12.0322ZM335.189 7.75488H335.84L331.146 16.333H330.496L335.189 7.75488ZM330.285 11.2236C330.621 11.2236 330.906 11.1064 331.141 10.8721C331.379 10.6338 331.498 10.3486 331.498 10.0166C331.498 9.68457 331.379 9.40137 331.141 9.16699C330.906 8.92871 330.621 8.80957 330.285 8.80957C329.953 8.80957 329.668 8.92676 329.43 9.16113C329.195 9.39551 329.078 9.68066 329.078 10.0166C329.078 10.3486 329.195 10.6338 329.43 10.8721C329.668 11.1064 329.953 11.2236 330.285 11.2236ZM330.285 7.97168C330.852 7.97168 331.334 8.17285 331.732 8.5752C332.131 8.97363 332.33 9.4541 332.33 10.0166C332.33 10.5791 332.131 11.0596 331.732 11.458C331.334 11.8564 330.852 12.0557 330.285 12.0557C329.723 12.0557 329.242 11.8564 328.844 11.458C328.445 11.0596 328.246 10.5791 328.246 10.0166C328.246 9.4541 328.445 8.97363 328.844 8.5752C329.242 8.17285 329.723 7.97168 330.285 7.97168ZM336.039 15.2783C336.371 15.2783 336.654 15.1611 336.889 14.9268C337.127 14.6885 337.246 14.4033 337.246 14.0713C337.246 13.7393 337.127 13.4561 336.889 13.2217C336.654 12.9834 336.371 12.8643 336.039 12.8643C335.703 12.8643 335.416 12.9834 335.178 13.2217C334.943 13.4561 334.826 13.7393 334.826 14.0713C334.826 14.4033 334.943 14.6885 335.178 14.9268C335.416 15.1611 335.703 15.2783 336.039 15.2783Z" fill="white"/>
<path d="M304.5 9.61035L309.5 14.6104L307.357 17.1104V7.11035L309.5 9.61035L304.5 14.6104" stroke="#FCFCFC" stroke-linecap="square"/>
<path d="M165.094 14.083C165.125 14.665 165.35 15.0674 165.768 15.29C165.982 15.4072 166.225 15.4658 166.494 15.4658C166.998 15.4658 167.428 15.2568 167.783 14.8389C168.139 14.417 168.391 13.5635 168.539 12.2783C168.305 12.6494 168.014 12.9111 167.666 13.0635C167.322 13.2119 166.951 13.2861 166.553 13.2861C165.744 13.2861 165.104 13.0342 164.631 12.5303C164.162 12.0264 163.928 11.3779 163.928 10.585C163.928 9.82324 164.16 9.15332 164.625 8.5752C165.09 7.99707 165.775 7.70801 166.682 7.70801C167.904 7.70801 168.748 8.25879 169.213 9.36035C169.471 9.96582 169.6 10.7236 169.6 11.6338C169.6 12.6611 169.445 13.5713 169.137 14.3643C168.625 15.6846 167.758 16.3447 166.535 16.3447C165.715 16.3447 165.092 16.1299 164.666 15.7002C164.24 15.2705 164.027 14.7314 164.027 14.083H165.094ZM166.693 12.3604C167.111 12.3604 167.492 12.2236 167.836 11.9502C168.184 11.6729 168.357 11.1904 168.357 10.5029C168.357 9.88574 168.201 9.42676 167.889 9.12598C167.58 8.82129 167.186 8.66895 166.705 8.66895C166.189 8.66895 165.779 8.84277 165.475 9.19043C165.174 9.53418 165.023 9.99512 165.023 10.5732C165.023 11.1201 165.156 11.5557 165.422 11.8799C165.688 12.2002 166.111 12.3604 166.693 12.3604ZM171.51 9.91699H172.734V11.1943H171.51V9.91699ZM171.51 14.833H172.734V16.1104H171.51V14.833ZM177.486 13.1396V9.33691L174.797 13.1396H177.486ZM177.504 16.1104V14.0596H173.824V13.0283L177.668 7.69629H178.559V13.1396H179.795V14.0596H178.559V16.1104H177.504ZM180.574 16.1104C180.613 15.3877 180.762 14.7588 181.02 14.2236C181.281 13.6885 181.789 13.2021 182.543 12.7646L183.668 12.1143C184.172 11.8213 184.525 11.5713 184.729 11.3643C185.049 11.04 185.209 10.6689 185.209 10.251C185.209 9.7627 185.062 9.37598 184.77 9.09082C184.477 8.80176 184.086 8.65723 183.598 8.65723C182.875 8.65723 182.375 8.93066 182.098 9.47754C181.949 9.77051 181.867 10.1768 181.852 10.6963H180.779C180.791 9.96582 180.926 9.37012 181.184 8.90918C181.641 8.09668 182.447 7.69043 183.604 7.69043C184.564 7.69043 185.266 7.9502 185.707 8.46973C186.152 8.98926 186.375 9.56738 186.375 10.2041C186.375 10.876 186.139 11.4502 185.666 11.9268C185.393 12.2041 184.902 12.54 184.195 12.9346L183.393 13.3799C183.01 13.5908 182.709 13.792 182.49 13.9834C182.1 14.3232 181.854 14.7002 181.752 15.1143H186.334V16.1104H180.574ZM195.551 12.583L194.244 8.78027L192.855 12.583H195.551ZM193.635 7.50293H194.953L198.076 16.1104H196.799L195.926 13.5322H192.521L191.59 16.1104H190.395L193.635 7.50293ZM199.107 7.50293H200.777L203.25 14.7803L205.705 7.50293H207.357V16.1104H206.25V11.0303C206.25 10.8545 206.254 10.5635 206.262 10.1572C206.27 9.75098 206.273 9.31543 206.273 8.85059L203.818 16.1104H202.664L200.191 8.85059V9.11426C200.191 9.3252 200.195 9.64746 200.203 10.0811C200.215 10.5107 200.221 10.8271 200.221 11.0303V16.1104H199.107V7.50293Z" fill="white"/>
<path d="M164.603 45.1904H160.183V43.1304H158.123V45.1904H153.683V46.8504H164.603V45.1904ZM156.703 51.0904C156.703 49.9904 157.703 49.3104 159.163 49.3104C160.603 49.3104 161.603 49.9904 161.603 51.0904C161.603 52.2104 160.603 52.8904 159.163 52.8904C157.703 52.8904 156.703 52.2104 156.703 51.0904ZM160.183 54.3904C162.223 54.0704 163.563 52.8504 163.563 51.0904C163.563 49.0704 161.763 47.7304 159.163 47.7304C156.543 47.7304 154.743 49.0704 154.743 51.0904C154.743 52.8304 156.083 54.0704 158.123 54.3904V56.1504C156.423 56.2104 154.763 56.2104 153.323 56.2104L153.583 57.9104C156.863 57.9104 161.143 57.8504 165.123 57.1704L164.983 55.6704C163.443 55.8904 161.803 55.9904 160.183 56.0904V54.3904ZM166.003 43.0704V61.1504H168.083V43.0704H166.003ZM180.982 53.6904V55.1304H184.522V56.8104H186.582V43.0704H184.522V53.6904H180.982ZM177.382 45.2904C178.862 45.2904 179.882 45.9304 179.882 46.9504C179.882 47.9704 178.862 48.6104 177.382 48.6104C175.882 48.6104 174.862 47.9704 174.862 46.9504C174.862 45.9304 175.882 45.2904 177.382 45.2904ZM177.382 50.1304C180.022 50.1304 181.842 48.8704 181.842 46.9504C181.842 45.0304 180.022 43.7704 177.382 43.7704C174.722 43.7704 172.902 45.0304 172.902 46.9504C172.902 48.8704 174.722 50.1304 177.382 50.1304ZM176.562 56.2304H178.622V52.7504C180.162 52.6504 181.742 52.4904 183.262 52.2304L183.102 50.7504C179.282 51.2304 174.842 51.2704 171.522 51.2904L171.782 52.9704C173.222 52.9704 174.842 52.9504 176.562 52.8704V56.2304ZM176.022 59.1304V55.4704H173.962V60.8104H187.002V59.1304H176.022ZM200.28 49.9104C198 50.2704 196.08 50.3504 192.82 50.3504V48.6704H198.78V47.0904H192.82V45.5304H199.12V43.9104H190.76V51.9904H192.18C195.92 51.9904 198 51.9304 200.46 51.5304L200.28 49.9104ZM194.52 57.7704H204.12V53.2704H192.46V54.8704H202.08V56.2904H192.5V60.9904H204.72V59.3904H194.52V57.7704ZM204.12 46.8504V43.0904H202.06V52.4504H204.12V48.5504H206.66V46.8504H204.12ZM215.418 53.2504H219.198V51.5904H211.878V49.7104H218.758V48.0904H211.878V46.3104H219.158V44.6504H209.818V53.2504H213.358V55.9304C211.618 55.9904 209.918 55.9904 208.498 55.9904L208.758 57.6904C211.958 57.6704 216.278 57.6504 220.258 56.8904L220.098 55.3704C218.598 55.6104 216.998 55.7704 215.418 55.8304V53.2504ZM221.198 43.0504V61.1704H223.278V43.0504H221.198Z" fill="white"/>
<path d="M352.656 56.2674L341.343 44.9537" stroke="white" stroke-linecap="round"/>
<path d="M352.657 44.9537L341.344 56.2674" stroke="white" stroke-linecap="round"/>
<path d="M23.875 139.023H27.382V144.168H23.875V139.023ZM27.34 149.796V146.814H33.157V144.168H30.763V139.023H33.241V136.356H18.016V139.023H20.494V144.168H18.142V146.814H23.938V149.796H16.756V152.505H34.606V149.796H27.34ZM41.1564 138.918H48.7374V143.496H41.1564V138.918ZM46.6794 149.712V146.142H52.0764V136.272H37.8174V146.142H43.2774V149.712H36.0744V152.421H53.9034V149.712H46.6794ZM72.7387 143.853C67.7197 143.013 66.0187 139.905 66.0187 137.301V135.915H62.3857V137.301C62.3857 139.842 60.6217 143.013 55.6657 143.853L57.0727 146.667C60.6427 146.016 62.9317 144.21 64.1917 141.921C65.4307 144.21 67.7407 146.016 71.3317 146.667L72.7387 143.853ZM55.3927 149.607V152.337H73.2217V149.607H55.3927ZM90.7341 144.777H80.1501V143.076H90.1251V140.493H80.1501V138.876H90.6081V136.209H76.6851V147.423H90.7341V144.777ZM74.7111 149.775V152.484H92.5611V149.775H74.7111ZM106.398 137.973H96.1714V142.95H110.115V140.703H99.5314V140.052H109.758V135.096H96.1714V137.343H106.398V137.973ZM99.3424 151.581H109.8V146.646H95.9614V148.893H106.44V149.502H95.9824V154.5H110.304V152.253H99.3424V151.581ZM94.0294 143.559V145.974H111.858V143.559H94.0294ZM121.822 139.275H123.67V136.608H118.483V149.838H119.554C121.696 149.838 122.662 149.817 123.88 149.565L123.565 146.835C122.998 146.961 122.452 147.024 121.822 147.066V139.275ZM127.849 139.275H129.865V136.608H124.51V149.838H125.665C128.206 149.838 129.256 149.817 130.558 149.502L130.306 146.793C129.529 146.961 128.857 147.045 127.849 147.066V139.275ZM131.608 134.907V141.543H129.151V144.252H131.608V154.584H135.01V134.907H131.608ZM148.322 140.682C145.97 141.144 143.66 141.354 141.539 141.417V135.747H138.158V144.189H139.859C142.547 144.189 145.571 144.021 148.7 143.412L148.322 140.682ZM143.219 151.035H153.089V145.239H139.796V147.864H149.687V148.557H139.817V154.395H153.593V151.77H143.219V151.035ZM153.089 138.33V134.865H149.687V144.525H153.089V141.06H155.546V138.33H153.089ZM160.521 144.693H164.742V136.692H157.224V139.359H161.466V142.047H157.245V150.426H158.673C161.025 150.426 163.125 150.384 165.519 149.985L165.288 147.276C163.608 147.528 162.075 147.633 160.521 147.654V144.693ZM170.58 134.886V142.152H169.341V135.18H166.191V153.702H169.341V144.84H170.58V154.563H173.793V134.886H170.58ZM183.158 146.373C183.746 146.478 184.376 146.52 185.006 146.52C185.636 146.52 186.266 146.478 186.854 146.373V149.712H183.158V146.373ZM185.006 138.33C187.526 138.33 189.122 139.296 189.122 141.123C189.122 142.929 187.526 143.916 185.006 143.916C182.486 143.916 180.89 142.929 180.89 141.123C180.89 139.296 182.486 138.33 185.006 138.33ZM190.235 149.712V145.134C191.642 144.189 192.482 142.803 192.482 141.123C192.482 137.826 189.29 135.705 185.006 135.705C180.722 135.705 177.53 137.826 177.53 141.123C177.53 142.803 178.37 144.189 179.777 145.134V149.712H176.102V152.421H193.931V149.712H190.235ZM198.36 152.904C199.641 152.904 200.586 151.875 200.586 150.573C200.586 149.271 199.641 148.263 198.36 148.263C197.058 148.263 196.134 149.271 196.134 150.573C196.134 151.875 197.058 152.904 198.36 152.904Z" fill="#333333"/>
<path d="M25.952 170.202H22.256V168.442H20.944V170.202H17.232V171.258H25.952V170.202ZM19.392 174.73C19.392 173.722 20.288 173.082 21.6 173.082C22.896 173.082 23.792 173.722 23.792 174.73C23.792 175.722 22.896 176.362 21.6 176.362C20.288 176.362 19.392 175.722 19.392 174.73ZM22.256 177.354C23.952 177.146 25.04 176.154 25.04 174.73C25.04 173.114 23.648 172.074 21.6 172.074C19.552 172.074 18.144 173.114 18.144 174.73C18.144 176.17 19.248 177.162 20.944 177.37V178.906C19.52 178.954 18.144 178.97 16.928 178.97L17.12 180.074C19.76 180.074 23.216 180.026 26.416 179.498L26.32 178.522C25.008 178.698 23.616 178.794 22.256 178.858V177.354ZM27.232 168.442V182.794H28.544V168.442H27.232ZM39.0868 176.922V177.898H41.9988V179.37H43.3108V168.442H41.9988V176.922H39.0868ZM36.1588 169.994C37.5188 169.994 38.4468 170.602 38.4468 171.514C38.4468 172.442 37.5188 173.05 36.1588 173.05C34.7988 173.05 33.8708 172.442 33.8708 171.514C33.8708 170.602 34.7988 169.994 36.1588 169.994ZM36.1588 174.026C38.2548 174.026 39.6948 173.05 39.6948 171.514C39.6948 170.01 38.2548 169.018 36.1588 169.018C34.0628 169.018 32.6228 170.01 32.6228 171.514C32.6228 173.05 34.0628 174.026 36.1588 174.026ZM35.6468 178.858H36.9588V176.026C38.2548 175.946 39.5828 175.802 40.8468 175.61L40.7348 174.666C37.6948 175.05 34.1428 175.082 31.4868 175.082L31.6628 176.17C32.8468 176.17 34.2228 176.154 35.6468 176.09V178.858ZM34.8468 181.402V178.298H33.5348V182.474H43.6788V181.402H34.8468ZM53.9495 172.17V173.242H56.7815V177.002H58.1095V168.458H56.7815V172.17H53.9495ZM54.7495 175.434C52.6695 174.698 51.2615 172.89 51.2615 171.05V170.554H54.4135V169.498H46.7495V170.554H49.9495V171.05C49.9495 173.114 48.4775 175.05 46.3335 175.834L47.0215 176.874C48.7015 176.234 50.0295 174.89 50.6375 173.226C51.2615 174.698 52.4935 175.882 54.0935 176.458L54.7495 175.434ZM53.3735 181.77C51.2135 181.77 49.9015 181.162 49.9015 180.122C49.9015 179.082 51.2135 178.458 53.3735 178.458C55.5335 178.458 56.8455 179.082 56.8455 180.122C56.8455 181.162 55.5335 181.77 53.3735 181.77ZM53.3735 177.45C50.4295 177.45 48.5895 178.426 48.5895 180.122C48.5895 181.818 50.4295 182.794 53.3735 182.794C56.3175 182.794 58.1575 181.818 58.1575 180.122C58.1575 178.426 56.3175 177.45 53.3735 177.45ZM63.8363 173.098H71.1643V175.738H63.8363V173.098ZM68.1562 179.882V176.794H72.4443V169.466H71.1643V172.026H63.8363V169.466H62.5403V176.794H66.8283V179.882H61.0043V180.954H74.0123V179.882H68.1562ZM87.8291 169.754H84.3731V168.346H83.0611V169.754H79.5891V170.746H87.8291V169.754ZM81.6051 173.402C81.6051 172.65 82.4211 172.186 83.7171 172.186C84.9811 172.186 85.8131 172.65 85.8131 173.402C85.8131 174.154 84.9811 174.634 83.7171 174.634C82.4211 174.634 81.6051 174.154 81.6051 173.402ZM88.2611 176.154C87.0131 176.346 85.6851 176.442 84.3731 176.506V175.514C86.0211 175.338 87.0611 174.57 87.0611 173.402C87.0611 172.09 85.7171 171.274 83.7171 171.274C81.6851 171.274 80.3571 172.09 80.3571 173.402C80.3571 174.586 81.3971 175.354 83.0611 175.514V176.554C81.6851 176.602 80.3731 176.602 79.2371 176.602L79.3811 177.658C81.8931 177.642 85.2851 177.626 88.3571 177.098L88.2611 176.154ZM80.9811 179.834H89.1091V182.794H90.4211V178.794H80.9811V179.834ZM92.5171 172.794H90.4211V168.458H89.1091V178.074H90.4211V173.882H92.5171V172.794ZM105.796 168.458H104.484V178.938H105.796V168.458ZM95.6359 172.97C95.6359 171.578 96.6919 170.586 98.0839 170.586C99.5079 170.586 100.564 171.578 100.564 172.97C100.564 174.394 99.5079 175.386 98.0839 175.386C96.6919 175.386 95.6359 174.394 95.6359 172.97ZM101.844 172.97C101.844 170.906 100.228 169.45 98.0839 169.45C95.9559 169.45 94.3559 170.906 94.3559 172.97C94.3559 175.05 95.9559 176.522 98.0839 176.522C100.228 176.522 101.844 175.05 101.844 172.97ZM97.8759 181.402V177.866H96.5639V182.474H106.228V181.402H97.8759ZM124.525 170.09H119.469V168.362H118.141V170.09H112.989V171.146H124.525V170.09ZM122.093 174.362C122.093 175.242 120.909 175.754 118.813 175.754C116.717 175.754 115.501 175.242 115.501 174.362C115.501 173.482 116.717 172.97 118.813 172.97C120.909 172.97 122.093 173.482 122.093 174.362ZM114.141 174.362C114.141 175.898 115.885 176.746 118.813 176.746C121.709 176.746 123.453 175.898 123.453 174.362C123.453 172.826 121.709 171.962 118.813 171.962C115.885 171.962 114.141 172.826 114.141 174.362ZM125.325 177.754H112.317V178.826H118.141V182.81H119.469V178.826H125.325V177.754ZM138.79 174.026C136.918 174.33 135.382 174.394 132.582 174.394V172.746H137.574V171.738H132.582V170.202H137.83V169.162H131.27V175.434H132.358C135.334 175.434 136.966 175.386 138.934 175.066L138.79 174.026ZM133.958 180.01H141.75V176.634H132.63V177.658H140.454V179.034H132.678V182.634H142.278V181.61H133.958V180.01ZM141.75 171.578V168.458H140.438V175.946H141.75V172.65H143.878V171.578H141.75ZM150.772 176.394H153.972V175.338H147.812V173.546H153.604V172.506H147.812V170.794H153.908V169.738H146.5V176.394H149.46V178.778C148.004 178.826 146.612 178.826 145.428 178.826L145.588 179.914C148.164 179.914 151.668 179.898 154.884 179.29L154.772 178.314C153.492 178.522 152.116 178.634 150.772 178.714V176.394ZM155.716 168.426V182.826H157.028V168.426H155.716ZM160.819 169.978V171.066H166.083C165.779 174.458 163.811 177.21 160.147 179.05L160.867 180.074C165.507 177.754 167.379 174.058 167.379 169.978H160.819ZM173.395 174.266H171.091V168.442H169.779V182.794H171.091V175.354H173.395V174.266ZM180.38 171.93C180.38 170.842 181.324 170.106 182.7 170.106C184.044 170.106 185.004 170.842 185.004 171.93C185.004 173.034 184.044 173.754 182.7 173.754C181.324 173.754 180.38 173.034 180.38 171.93ZM187.276 175.754C186.028 175.946 184.7 176.042 183.372 176.122V174.714C185.084 174.506 186.236 173.45 186.236 171.93C186.236 170.25 184.78 169.114 182.7 169.114C180.604 169.114 179.164 170.25 179.164 171.93C179.164 173.466 180.316 174.522 182.06 174.73V176.17C180.716 176.218 179.436 176.234 178.332 176.234L178.508 177.306C180.956 177.306 184.364 177.258 187.356 176.714L187.276 175.754ZM181.708 178.506H180.396V182.458H189.98V181.386H181.708V178.506ZM189.468 173.306V168.458H188.156V179.434H189.468V174.394H191.564V173.306H189.468ZM197.995 177.226H201.275V179.946H197.995V177.226ZM202.571 179.946V177.226H204.811V176.154H195.979V173.85H204.475V169.498H194.651V170.57H203.195V172.794H194.683V177.226H196.699V179.946H193.051V181.018H206.091V179.946H202.571ZM217.082 174.826C215.834 175.018 214.522 175.114 213.194 175.194V173.706H216.026V172.634H210.426V170.234H215.882V169.162H209.13V173.706H211.882V175.242C210.442 175.306 209.034 175.306 207.834 175.306L208.026 176.362C210.602 176.346 214.042 176.298 217.162 175.77L217.082 174.826ZM218.266 181.546H211.466V179.882H218.266V181.546ZM218.266 178.858H211.466V177.354H210.154V182.602H219.562V177.354H218.266V178.858ZM218.25 168.458V176.714H219.562V168.458H218.25ZM224.712 169.834H223.4V179.082H224.584C226.872 179.082 229.128 178.922 231.624 178.41L231.48 177.29C229.096 177.77 226.872 177.962 224.712 177.962V169.834ZM232.952 168.442V182.778H234.264V168.442H232.952ZM239.143 170.906H244.503V169.818H237.831V179.242H238.967C241.671 179.242 243.559 179.146 245.751 178.73L245.607 177.642C243.527 178.01 241.687 178.122 239.143 178.122V170.906ZM250.631 174.106H248.263V168.442H246.951V182.826H248.263V175.194H250.631V174.106ZM253.318 181.818C253.894 181.818 254.374 181.37 254.374 180.714C254.374 180.042 253.894 179.578 253.318 179.578C252.742 179.578 252.262 180.042 252.262 180.714C252.262 181.37 252.742 181.818 253.318 181.818Z" fill="#333333"/>
<path d="M20.608 374.798H23.02V373.778H16.948V374.798H19.36V375.83C19.36 377.69 18.244 379.706 16.564 380.486L17.272 381.47C18.544 380.858 19.516 379.574 19.996 378.062C20.5 379.466 21.472 380.642 22.732 381.194L23.416 380.222C21.724 379.502 20.608 377.63 20.608 375.83V374.798ZM24.28 372.698V383.534H25.528V372.698H24.28ZM30.0511 380.474H35.0311V382.418H30.0511V380.474ZM28.8391 383.402H36.2431V379.49H28.8391V383.402ZM35.9671 377.174C36.2431 375.878 36.2431 374.918 36.2431 374.066V373.226H28.8871V374.234H35.0311C35.0311 375.05 35.0071 375.962 34.7311 377.174H27.6511V378.182H37.4671V377.174H35.9671ZM48.2134 373.958H45.5614V372.722H44.3254V373.958H41.6614V374.954H48.2134V373.958ZM43.4734 377.498C43.4734 376.838 44.0734 376.43 44.9494 376.43C45.8134 376.43 46.4134 376.838 46.4134 377.498C46.4134 378.17 45.8134 378.578 44.9494 378.578C44.0734 378.578 43.4734 378.17 43.4734 377.498ZM45.5614 379.478C46.7854 379.286 47.5894 378.554 47.5894 377.498C47.5894 376.286 46.5094 375.482 44.9494 375.482C43.3774 375.482 42.2974 376.286 42.2974 377.498C42.2974 378.542 43.1014 379.286 44.3254 379.478V380.534C43.3054 380.57 42.3094 380.57 41.4454 380.57L41.6014 381.59C43.5694 381.59 46.1374 381.554 48.5254 381.146L48.4414 380.246C47.5174 380.378 46.5334 380.438 45.5614 380.498V379.478ZM49.0534 372.686V383.534H50.3014V372.686H49.0534ZM58.0405 379.058V379.922H60.1645V380.93H61.4005V372.686H60.1645V379.058H58.0405ZM55.8805 374.018C56.7685 374.018 57.3805 374.402 57.3805 375.014C57.3805 375.626 56.7685 376.01 55.8805 376.01C54.9805 376.01 54.3685 375.626 54.3685 375.014C54.3685 374.402 54.9805 374.018 55.8805 374.018ZM55.8805 376.922C57.4645 376.922 58.5565 376.166 58.5565 375.014C58.5565 373.862 57.4645 373.106 55.8805 373.106C54.2845 373.106 53.1925 373.862 53.1925 375.014C53.1925 376.166 54.2845 376.922 55.8805 376.922ZM55.3885 380.582H56.6245V378.494C57.5485 378.434 58.4965 378.338 59.4085 378.182L59.3125 377.294C57.0205 377.582 54.3565 377.606 52.3645 377.618L52.5205 378.626C53.3845 378.626 54.3565 378.614 55.3885 378.566V380.582ZM55.0645 382.322V380.126H53.8285V383.33H61.6525V382.322H55.0645ZM72.3149 376.79C70.9469 377.006 69.7949 377.054 67.8389 377.054V376.046H71.4149V375.098H67.8389V374.162H71.6189V373.19H66.6029V378.038H67.4549C69.6989 378.038 70.9469 378.002 72.4229 377.762L72.3149 376.79ZM68.8589 381.506H74.6189V378.806H67.6229V379.766H73.3949V380.618H67.6469V383.438H74.9789V382.478H68.8589V381.506ZM74.6189 374.954V372.698H73.3829V378.314H74.6189V375.974H76.1429V374.954H74.6189ZM81.3979 378.794H83.6659V377.798H79.2739V376.67H83.4019V375.698H79.2739V374.63H83.6419V373.634H78.0379V378.794H80.1619V380.402C79.1179 380.438 78.0979 380.438 77.2459 380.438L77.4019 381.458C79.3219 381.446 81.9139 381.434 84.3019 380.978L84.2059 380.066C83.3059 380.21 82.3459 380.306 81.3979 380.342V378.794ZM84.8659 372.674V383.546H86.1139V372.674H84.8659ZM95.593 374.546H89.485V376.982H97.009V376.118H90.697V375.35H96.817V372.962H89.461V373.814H95.593V374.546ZM90.613 381.734H96.853V379.31H89.365V380.162H95.629V380.93H89.389V383.414H97.177V382.562H90.613V381.734ZM88.225 377.666V378.578H98.053V377.666H88.225ZM105.127 380.186C104.251 380.186 103.615 379.586 103.615 378.674C103.615 377.762 104.251 377.162 105.127 377.162C106.003 377.162 106.639 377.762 106.639 378.674C106.639 379.586 106.003 380.186 105.127 380.186ZM105.127 376.142C103.567 376.142 102.439 377.198 102.439 378.674C102.439 380.162 103.567 381.206 105.127 381.206C106.675 381.206 107.815 380.162 107.815 378.674C107.815 377.198 106.675 376.142 105.127 376.142ZM105.727 372.866H104.491V374.366H101.911V375.374H108.259V374.366H105.727V372.866ZM112.051 377.054H110.383V372.698H109.135V383.546H110.383V378.086H112.051V377.054ZM117.006 373.598H115.77V375.374C115.77 377.462 114.642 379.538 112.914 380.318L113.646 381.35C114.954 380.714 115.914 379.43 116.406 377.858C116.898 379.322 117.846 380.522 119.094 381.11L119.814 380.126C118.11 379.358 117.006 377.366 117.006 375.374V373.598ZM120.678 372.686V383.558H121.926V372.686H120.678ZM128.334 377.798H125.73V374.582H128.334V377.798ZM131.79 375.518V376.838H129.534V375.518H131.79ZM129.534 377.834H131.79V380.606H133.026V372.698H131.79V374.51H129.534V373.598H124.518V378.782H129.534V377.834ZM127.218 382.322V379.886H125.97V383.33H133.278V382.322H127.218ZM141.42 374.666H143.916V378.002H141.42V374.666ZM143.28 381.23V378.998H146.712V378.002H145.14V374.666H146.736V373.67H138.588V374.666H140.184V378.002H138.624V378.998H142.044V381.23H137.772V382.25H147.612V381.23H143.28ZM151.127 374.546H156.287V377.762H151.127V374.546ZM154.331 381.194V378.746H157.499V373.562H149.915V378.746H153.095V381.194H148.823V382.202H158.639V381.194H154.331ZM169.258 377.99C167.122 377.606 165.382 375.938 165.382 374.21V373.394H164.074V374.21C164.074 375.926 162.334 377.594 160.198 377.99L160.726 379.01C162.49 378.65 164.014 377.522 164.722 376.034C165.43 377.522 166.954 378.65 168.718 379.01L169.258 377.99ZM159.862 381.122V382.142H169.678V381.122H159.862ZM179.625 378.422H173.373V376.934H179.301V375.962H173.373V374.57H179.541V373.574H172.113V379.418H179.625V378.422ZM170.901 381.194V382.202H180.729V381.194H170.901ZM189.296 374.546H183.188V376.982H190.712V376.118H184.4V375.35H190.52V372.962H183.164V373.814H189.296V374.546ZM184.316 381.734H190.556V379.31H183.068V380.162H189.332V380.93H183.092V383.414H190.88V382.562H184.316V381.734ZM181.928 377.666V378.578H191.756V377.666H181.928ZM197.439 374.702H201.122V373.694H196.203V380.906H197.055C199.071 380.906 200.391 380.834 201.891 380.546L201.771 379.55C200.391 379.802 199.203 379.862 197.439 379.874V374.702ZM203.439 372.686V376.538H200.535V377.558H203.439V383.558H204.675V372.686H203.439ZM214.382 372.686V383.558H215.63V372.686H214.382ZM209.858 373.49C208.25 373.49 207.074 374.978 207.074 377.306C207.074 379.658 208.25 381.134 209.858 381.134C211.478 381.134 212.654 379.658 212.654 377.306C212.654 374.978 211.478 373.49 209.858 373.49ZM209.858 374.606C210.806 374.606 211.466 375.626 211.466 377.306C211.466 379.01 210.806 380.03 209.858 380.03C208.922 380.03 208.262 379.01 208.262 377.306C208.262 375.626 208.922 374.606 209.858 374.606ZM224.053 377.654C222.445 377.126 221.521 375.806 221.521 374.414V373.25H220.273V374.318C220.273 375.878 219.349 377.354 217.645 377.942L218.305 378.926C219.553 378.47 220.441 377.534 220.921 376.358C221.377 377.378 222.241 378.206 223.405 378.626L224.053 377.654ZM222.721 382.562C221.209 382.562 220.333 382.19 220.333 381.494C220.333 380.822 221.209 380.438 222.721 380.438C224.233 380.438 225.109 380.822 225.109 381.494C225.109 382.19 224.233 382.562 222.721 382.562ZM222.721 379.466C220.489 379.466 219.109 380.222 219.109 381.494C219.109 382.778 220.489 383.534 222.721 383.534C224.965 383.534 226.333 382.778 226.333 381.494C226.333 380.222 224.965 379.466 222.721 379.466ZM226.213 375.374V372.686H224.977V379.202H226.213V376.394H227.749V375.374H226.213ZM239.155 372.686V383.558H240.403V372.686H239.155ZM234.631 373.49C233.023 373.49 231.847 374.978 231.847 377.306C231.847 379.658 233.023 381.134 234.631 381.134C236.251 381.134 237.427 379.658 237.427 377.306C237.427 374.978 236.251 373.49 234.631 373.49ZM234.631 374.606C235.579 374.606 236.239 375.626 236.239 377.306C236.239 379.01 235.579 380.03 234.631 380.03C233.695 380.03 233.035 379.01 233.035 377.306C233.035 375.626 233.695 374.606 234.631 374.606ZM247.398 382.586C245.814 382.586 244.926 382.25 244.926 381.59C244.926 380.942 245.814 380.594 247.398 380.594C248.982 380.594 249.882 380.942 249.882 381.59C249.882 382.25 248.982 382.586 247.398 382.586ZM247.398 379.646C245.07 379.646 243.666 380.354 243.666 381.59C243.666 382.838 245.07 383.534 247.398 383.534C249.738 383.534 251.13 382.838 251.13 381.59C251.13 380.354 249.738 379.646 247.398 379.646ZM246.078 376.862C246.474 376.922 246.942 376.958 247.422 376.958C247.902 376.958 248.346 376.922 248.742 376.862V377.966H246.078V376.862ZM247.422 373.838C249.03 373.838 250.002 374.222 250.002 374.918C250.002 375.614 249.03 376.01 247.422 376.01C245.802 376.01 244.83 375.614 244.83 374.918C244.83 374.222 245.802 373.838 247.422 373.838ZM249.978 377.966V376.538C250.806 376.178 251.286 375.626 251.286 374.918C251.286 373.646 249.786 372.878 247.422 372.878C245.046 372.878 243.558 373.646 243.558 374.918C243.558 375.626 244.026 376.178 244.842 376.526V377.966H242.514V378.95H252.318V377.966H249.978ZM256.721 380.186C255.845 380.186 255.209 379.586 255.209 378.674C255.209 377.762 255.845 377.162 256.721 377.162C257.597 377.162 258.233 377.762 258.233 378.674C258.233 379.586 257.597 380.186 256.721 380.186ZM256.721 376.142C255.161 376.142 254.033 377.198 254.033 378.674C254.033 380.162 255.161 381.206 256.721 381.206C258.269 381.206 259.409 380.162 259.409 378.674C259.409 377.198 258.269 376.142 256.721 376.142ZM257.321 372.866H256.085V374.366H253.505V375.374H259.853V374.366H257.321V372.866ZM263.645 377.054H261.977V372.698H260.729V383.546H261.977V378.086H263.645V377.054ZM273.532 372.698H272.284V378.254H273.532V372.698ZM271.192 377.042C269.524 376.526 268.552 375.206 268.552 373.802V372.986H267.292V373.802C267.292 375.266 266.32 376.67 264.604 377.234L265.216 378.218C266.524 377.774 267.448 376.874 267.94 375.71C268.432 376.778 269.344 377.606 270.592 378.014L271.192 377.042ZM267.664 382.466V381.518H273.532V378.77H266.428V379.73H272.308V380.618H266.452V383.438H273.856V382.466H267.664ZM287.711 376.694C285.527 376.382 283.895 375.026 283.895 373.622V373.046H282.587V373.622C282.587 375.05 280.979 376.382 278.771 376.694L279.251 377.69C281.051 377.402 282.551 376.502 283.247 375.242C283.955 376.49 285.431 377.402 287.231 377.69L287.711 376.694ZM288.131 378.71H278.339V379.718H282.587V383.546H283.823V379.718H288.131V378.71ZM293.405 375.662C293.405 374.762 294.089 374.174 295.037 374.174C295.985 374.174 296.681 374.762 296.681 375.662C296.681 376.574 295.985 377.174 295.037 377.174C294.089 377.174 293.405 376.574 293.405 375.662ZM299.813 376.154V378.434H301.049V372.71H299.813V375.134H297.797C297.557 373.946 296.465 373.154 295.037 373.154C293.417 373.154 292.217 374.186 292.217 375.662C292.217 377.162 293.417 378.194 295.037 378.194C296.477 378.194 297.569 377.378 297.809 376.154H299.813ZM295.985 382.454H294.437V381.194H295.985V382.454ZM295.985 379.058V380.282H294.437V379.058H293.285V383.402H297.125V379.058H295.985ZM300.257 378.974H299.033V379.838C299.033 380.906 298.421 382.034 297.125 382.574L297.749 383.51C298.661 383.126 299.273 382.43 299.633 381.614C299.969 382.442 300.593 383.138 301.553 383.51L302.165 382.574C300.857 382.094 300.257 380.99 300.257 379.838V378.974ZM312.388 375.938C310.24 375.662 308.644 374.474 308.644 373.226V372.806H307.372V373.226C307.372 374.486 305.8 375.662 303.628 375.938L304.084 376.898C305.848 376.658 307.312 375.842 308.008 374.714C308.716 375.842 310.18 376.658 311.944 376.898L312.388 375.938ZM310.42 382.418H305.536V381.254H310.42V382.418ZM310.42 380.306H305.536V379.202H304.312V383.402H311.656V379.202H310.42V380.306ZM303.1 377.546V378.53H312.916V377.546H303.1ZM316.011 373.754H314.787V380.798H315.711C317.391 380.798 319.143 380.666 321.003 380.282L320.871 379.25C319.167 379.598 317.547 379.73 316.011 379.742V373.754ZM321.867 372.698V383.534H323.103V372.698H321.867ZM326.858 374.726H330.662V373.718H325.622V380.882H326.51C328.466 380.882 329.93 380.822 331.574 380.522L331.442 379.502C329.93 379.766 328.61 379.838 326.858 379.85V374.726ZM335.27 376.862H333.578V372.686H332.342V383.546H333.578V377.882H335.27V376.862ZM337.405 382.766C337.921 382.766 338.329 382.37 338.329 381.806C338.329 381.23 337.921 380.822 337.405 380.822C336.889 380.822 336.481 381.23 336.481 381.806C336.481 382.37 336.889 382.766 337.405 382.766Z" fill="#333333"/>
<path d="M27.28 298.442V312.81H28.592V298.442H27.28ZM17.664 299.658V309.338H24.416V299.658H23.12V303.45H18.96V299.658H17.664ZM18.96 304.49H23.12V308.266H18.96V304.49ZM43.3268 298.458H42.0148V305.834H43.3268V298.458ZM37.7428 304.058H33.5988V300.282H37.7428V304.058ZM39.0228 299.242H32.3188V305.098H39.0228V299.242ZM35.3588 311.594V310.01H43.3268V306.554H34.0308V307.578H42.0308V309.034H34.0788V312.634H43.8228V311.594H35.3588ZM52.1735 305.562H48.3015V302.97H52.1735V305.562ZM53.4695 303.562H56.7815V309.066H58.1095V298.442H56.7815V302.49H53.4695V299.402H52.1735V301.93H48.3015V299.402H47.0055V306.618H53.4695V303.562ZM50.1895 311.402V308.026H48.8775V312.474H58.4455V311.402H50.1895ZM73.2923 300.538H68.1562V298.666H66.8443V300.538H61.6443V301.61H73.2923V300.538ZM64.1083 305.306C64.1083 304.25 65.4043 303.61 67.5003 303.61C69.5642 303.61 70.8443 304.25 70.8443 305.306C70.8443 306.378 69.5642 307.018 67.5003 307.018C65.4043 307.018 64.1083 306.378 64.1083 305.306ZM68.1562 310.042V308.026C70.6523 307.866 72.1723 306.906 72.1723 305.306C72.1723 303.578 70.3643 302.586 67.5003 302.586C64.5883 302.586 62.7803 303.578 62.7803 305.306C62.7803 306.906 64.3163 307.882 66.8443 308.026V310.042H61.0043V311.114H74.0123V310.042H68.1562Z" fill="#333333"/>
<path d="M25.648 407.714H22.756V404.534H25.516V403.742H21.772V408.518H25.648V407.714ZM21.22 407.414C20.248 407.63 19.36 407.69 18.46 407.702V404.558H21.112V403.754H17.488V408.518H18.076C19.168 408.518 20.14 408.482 21.316 408.218L21.22 407.414ZM21.988 411.314V409.046H21.004V411.314H16.636V412.118H26.404V411.314H21.988ZM34.0591 404.054H31.3711V402.734H30.3871V404.054H27.7111V404.846H34.0591V404.054ZM29.2471 407.438C29.2471 406.694 29.9071 406.214 30.8791 406.214C31.8511 406.214 32.5231 406.694 32.5231 407.438C32.5231 408.194 31.8511 408.674 30.8791 408.674C29.9071 408.674 29.2471 408.194 29.2471 407.438ZM33.4591 407.438C33.4591 406.238 32.4031 405.446 30.8791 405.446C29.3551 405.446 28.3111 406.238 28.3111 407.438C28.3111 408.65 29.3551 409.442 30.8791 409.442C32.4031 409.442 33.4591 408.65 33.4591 407.438ZM30.3151 410.174H29.3311V413.258H36.5071V412.454H30.3151V410.174ZM36.0271 406.286V402.734H35.0431V410.81H36.0271V407.114H37.6111V406.286H36.0271ZM44.9137 404.558H47.5897V408.086H44.9137V404.558ZM46.7497 411.35V408.878H50.2177V408.086H48.5737V404.558H50.2417V403.766H42.2617V404.558H43.9297V408.086H42.2857V408.878H45.7537V411.35H41.3977V412.154H51.1537V411.35H46.7497ZM54.5368 404.414H60.0448V407.906H54.5368V404.414ZM57.8008 411.302V408.686H61.0048V403.634H53.5888V408.686H56.8048V411.302H52.4368V412.118H62.1928V411.302H57.8008ZM72.7518 408.146C70.8678 407.786 68.8278 406.154 68.8278 404.318V403.49H67.7958V404.318C67.7958 406.154 65.7678 407.774 63.8838 408.146L64.3278 408.962C65.9478 408.578 67.6278 407.426 68.3118 405.854C68.9958 407.438 70.6758 408.59 72.3078 408.962L72.7518 408.146ZM63.4758 411.242V412.058H73.2318V411.242H63.4758ZM83.1549 408.542H76.7589V406.838H82.8069V406.058H76.7589V404.462H83.0469V403.67H75.7629V409.334H83.1549V408.542ZM74.5029 411.302V412.106H84.2709V411.302H74.5029ZM93.09 404.618H86.802V406.922H94.254V406.214H87.774V405.29H94.062V403.046H86.778V403.742H93.09V404.618ZM87.714 411.65H94.098V409.358H86.718V410.066H93.126V410.966H86.742V413.354H94.434V412.646H87.714V411.65ZM85.554 407.738V408.482H95.31V407.738H85.554ZM99.8526 403.886V404.702H103.801C103.573 407.246 102.097 409.31 99.3486 410.69L99.8886 411.458C103.369 409.718 104.773 406.946 104.773 403.886H99.8526ZM109.285 407.102H107.557V402.734H106.573V413.498H107.557V407.918H109.285V407.102ZM118.164 402.746V408.518H119.148V402.746H118.164ZM112.212 409.046V413.354H119.148V409.046H118.176V410.366H113.184V409.046H112.212ZM113.184 411.134H118.176V412.562H113.184V411.134ZM113.364 403.25C111.744 403.25 110.568 404.258 110.568 405.722C110.568 407.21 111.744 408.206 113.364 408.206C114.996 408.206 116.184 407.21 116.184 405.722C116.184 404.258 114.996 403.25 113.364 403.25ZM113.364 404.066C114.456 404.066 115.224 404.75 115.224 405.722C115.224 406.706 114.456 407.39 113.364 407.39C112.296 407.39 111.528 406.706 111.528 405.722C111.528 404.75 112.296 404.066 113.364 404.066ZM120.851 414.758H121.655L125.243 403.082H124.451L120.851 414.758ZM129.666 403.67H128.694V405.602C128.694 407.558 127.47 409.622 125.922 410.414L126.51 411.206C127.722 410.558 128.718 409.214 129.186 407.642C129.678 409.118 130.65 410.378 131.79 410.99L132.402 410.21C130.89 409.454 129.666 407.498 129.666 405.602V403.67ZM136.11 407.102H134.334V402.746H133.35V413.498H134.334V407.918H136.11V407.102ZM141.953 412.73C140.261 412.73 139.265 412.31 139.265 411.578C139.265 410.846 140.261 410.426 141.953 410.426C143.633 410.426 144.641 410.846 144.641 411.578C144.641 412.31 143.633 412.73 141.953 412.73ZM141.953 409.658C139.649 409.658 138.269 410.342 138.269 411.578C138.269 412.814 139.649 413.486 141.953 413.486C144.269 413.486 145.637 412.814 145.637 411.578C145.637 410.342 144.269 409.658 141.953 409.658ZM140.465 406.802C140.909 406.874 141.413 406.922 141.953 406.922C142.505 406.922 143.009 406.874 143.453 406.802V408.062H140.465V406.802ZM139.181 404.93C139.181 404.15 140.237 403.694 141.953 403.694C143.669 403.694 144.725 404.15 144.725 404.93C144.725 405.698 143.669 406.166 141.953 406.166C140.237 406.166 139.181 405.698 139.181 404.93ZM144.425 408.062V406.538C145.253 406.202 145.733 405.65 145.733 404.93C145.733 403.67 144.293 402.926 141.953 402.926C139.625 402.926 138.173 403.67 138.173 404.93C138.173 405.662 138.641 406.202 139.493 406.55V408.062H137.081V408.854H146.825V408.062H144.425ZM153.972 410.282C153 410.282 152.292 409.586 152.292 408.626C152.292 407.654 153 406.958 153.972 406.958C154.956 406.958 155.664 407.654 155.664 408.626C155.664 409.586 154.956 410.282 153.972 410.282ZM153.972 406.142C152.46 406.142 151.368 407.174 151.368 408.626C151.368 410.09 152.46 411.098 153.972 411.098C155.508 411.098 156.6 410.09 156.6 408.626C156.6 407.174 155.508 406.142 153.972 406.142ZM154.452 402.866H153.468V404.462H150.756V405.254H157.104V404.462H154.452V402.866ZM160.872 407.162H159.108V402.746H158.124V413.498H159.108V407.99H160.872V407.162ZM166.295 407.918H163.319V404.462H166.295V407.918ZM169.727 405.434V406.934H167.255V405.434H169.727ZM167.255 407.738H169.727V410.594H170.723V402.746H169.727V404.63H167.255V403.682H162.347V408.698H167.255V407.738ZM164.783 412.454V409.898H163.799V413.258H170.975V412.454H164.783ZM176.662 403.658H175.678V405.59C175.678 407.582 174.454 409.658 172.894 410.438L173.494 411.218C174.706 410.57 175.702 409.214 176.17 407.618C176.662 409.13 177.646 410.414 178.87 411.026L179.446 410.246C177.886 409.502 176.662 407.546 176.662 405.59V403.658ZM180.778 402.734V406.382H178.282V407.186H180.778V413.51H181.762V402.734H180.778ZM187.504 407.546C189.268 407.366 190.84 406.718 191.488 405.638C192.136 406.718 193.696 407.366 195.46 407.546L195.772 406.802C193.732 406.598 192.1 405.77 192.016 404.57H195.352V403.79H191.98V402.674H190.996V403.79H187.624V404.57H190.948C190.864 405.77 189.232 406.598 187.204 406.802L187.504 407.546ZM196.348 408.938V408.146H186.616V408.938H190.996V410.174H187.696V410.954H194.164V413.462H195.148V410.174H191.98V408.938H196.348ZM204.004 407.99C202.444 407.438 201.388 406.082 201.388 404.702V404.27H203.752V403.466H198.004V404.27H200.404V404.702C200.404 406.226 199.288 407.666 197.692 408.23L198.208 409.01C199.468 408.542 200.452 407.558 200.908 406.322C201.388 407.438 202.312 408.326 203.512 408.758L204.004 407.99ZM199.324 410.558H205.528V413.51H206.524V409.766H199.324V410.558ZM205.528 402.734V405.542H203.428V406.346H205.528V409.178H206.524V402.734H205.528ZM217.503 402.734H216.519V410.786H217.503V402.734ZM215.655 408.326C214.731 408.434 213.759 408.494 212.763 408.542V407.054H214.899V406.262H210.687V404.234H214.827V403.43H209.703V407.054H211.779V408.578C210.723 408.614 209.679 408.626 208.743 408.626L208.887 409.43C210.891 409.43 213.447 409.358 215.727 409.034L215.655 408.326ZM211.527 412.454V410.258H210.543V413.258H217.863V412.454H211.527ZM228.165 405.53V406.334H230.289V409.154H231.285V402.746H230.289V405.53H228.165ZM228.765 407.978C227.205 407.426 226.149 406.07 226.149 404.69V404.318H228.513V403.526H222.765V404.318H225.165V404.69C225.165 406.238 224.061 407.69 222.453 408.278L222.969 409.058C224.229 408.578 225.225 407.57 225.681 406.322C226.149 407.426 227.073 408.314 228.273 408.746L228.765 407.978ZM227.733 412.73C226.113 412.73 225.129 412.274 225.129 411.494C225.129 410.714 226.113 410.246 227.733 410.246C229.353 410.246 230.337 410.714 230.337 411.494C230.337 412.274 229.353 412.73 227.733 412.73ZM227.733 409.49C225.525 409.49 224.145 410.222 224.145 411.494C224.145 412.766 225.525 413.498 227.733 413.498C229.941 413.498 231.321 412.766 231.321 411.494C231.321 410.222 229.941 409.49 227.733 409.49ZM235.58 406.226H241.076V408.206H235.58V406.226ZM238.82 411.314V408.998H242.036V403.502H241.076V405.422H235.58V403.502H234.608V408.998H237.824V411.314H233.456V412.118H243.212V411.314H238.82ZM245.815 405.962C245.815 404.954 246.607 404.258 247.711 404.258C248.803 404.258 249.595 404.954 249.595 405.962C249.595 406.982 248.803 407.654 247.711 407.654C246.607 407.654 245.815 406.982 245.815 405.962ZM248.203 408.458C249.583 408.278 250.555 407.306 250.555 405.962C250.555 404.45 249.355 403.43 247.711 403.43C246.043 403.43 244.855 404.45 244.855 405.962C244.855 407.306 245.815 408.29 247.219 408.458V410.318C246.211 410.342 245.227 410.354 244.375 410.354L244.507 411.182C246.403 411.182 248.911 411.146 251.191 410.762L251.107 410.042C250.183 410.174 249.187 410.234 248.203 410.282V408.458ZM254.479 407.174H252.775V402.722H251.791V413.498H252.775V408.002H254.479V407.174ZM258.854 403.898V404.69H262.898C262.694 407.246 261.254 409.31 258.362 410.69L258.89 411.494C262.466 409.742 263.894 407.006 263.894 403.898H258.854ZM266.066 402.734V413.498H267.05V402.734H266.066ZM270.337 411.086H276.841V413.402H277.825V410.282H270.337V411.086ZM274.633 408.65V407.522H277.993V406.754H271.477V405.626H277.765V403.01H270.481V403.778H276.793V404.894H270.505V407.522H273.637V408.65H269.245V409.454H279.013V408.65H274.633ZM285.156 403.898C286.848 403.898 287.928 404.402 287.928 405.254C287.928 406.106 286.848 406.598 285.156 406.598C283.464 406.598 282.384 406.106 282.384 405.254C282.384 404.402 283.464 403.898 285.156 403.898ZM285.156 407.39C287.46 407.39 288.936 406.598 288.936 405.254C288.936 403.91 287.46 403.106 285.156 403.106C282.852 403.106 281.376 403.91 281.376 405.254C281.376 406.598 282.852 407.39 285.156 407.39ZM282.528 410.138H281.544V413.258H288.948V412.454H282.528V410.138ZM280.284 408.398V409.19H290.016V408.398H280.284ZM296.119 404.414H301.627V407.906H296.119V404.414ZM299.383 411.302V408.686H302.587V403.634H295.171V408.686H298.387V411.302H294.019V412.118H303.775V411.302H299.383ZM313.59 406.742H307.398V404.174H313.458V403.37H306.39V407.534H313.59V406.742ZM314.814 408.938H305.058V409.742H309.414V413.45H310.398V409.742H314.814V408.938ZM325.021 407.798C323.473 407.258 322.405 405.914 322.405 404.462V403.274H321.421V404.39C321.421 405.998 320.377 407.426 318.757 408.002L319.249 408.794C320.521 408.326 321.469 407.354 321.925 406.13C322.393 407.246 323.329 408.134 324.529 408.578L325.021 407.798ZM320.125 410.594H326.149V413.51H327.133V409.802H320.125V410.594ZM328.729 405.578H327.133V402.746H326.149V409.262H327.133V406.394H328.729V405.578ZM332.976 404.798H334.896V403.994H329.988V404.798H332.028V405.77C332.028 407.75 331.188 409.706 329.688 410.606L330.288 411.338C331.356 410.666 332.136 409.406 332.508 407.93C332.88 409.298 333.624 410.45 334.668 411.074L335.268 410.354C333.78 409.514 332.976 407.642 332.976 405.77V404.798ZM335.856 406.598H334.08V407.402H335.856V412.934H336.792V402.974H335.856V406.598ZM338.016 402.722V413.486H338.964V402.722H338.016ZM20.68 423.182H22.996V422.378H18.472V419.558H22.948V418.742H17.5V423.182H19.696V425.318C18.652 425.354 17.632 425.354 16.708 425.354L16.828 426.182C18.868 426.182 21.448 426.134 23.8 425.774L23.716 425.054C22.756 425.174 21.712 425.234 20.68 425.282V423.182ZM24.424 417.722V428.522H25.408V417.722H24.424ZM33.0031 423.278V421.118H35.5591V423.278H33.0031ZM32.0311 424.994H29.0671V419.57H32.0311V424.994ZM35.5591 417.734V420.314H33.0031V418.79H28.1071V425.774H33.0031V424.082H35.5591V428.522H36.5431V417.734H35.5591ZM38.9781 429.89C40.0581 429.434 40.7301 428.534 40.7301 427.382C40.7301 426.578 40.3821 426.086 39.8061 426.086C39.3621 426.086 38.9781 426.386 38.9781 426.854C38.9781 427.358 39.3621 427.622 39.7821 427.622C39.8301 427.622 39.8661 427.622 39.9141 427.61C39.9141 428.318 39.4701 428.906 38.7141 429.242L38.9781 429.89ZM45.8176 425.93H52.2856V428.498H53.2696V425.138H45.8176V425.93ZM46.9936 419.978H52.2256V421.226H46.9936V419.978ZM50.1016 423.29V422.006H53.1976V417.986H52.2256V419.21H46.9936V417.986H46.0216V422.006H49.1176V423.29H44.7256V424.094H54.4696V423.29H50.1016ZM65.5206 423.062H63.9246C64.2246 421.514 64.2246 420.374 64.2246 419.366V418.43H57.0006V419.222H63.2646V419.366C63.2646 420.374 63.2646 421.514 62.9286 423.062H55.7886V423.866H60.1326V428.51H61.1286V423.866H65.5206V423.062ZM67.3917 418.886V419.702H71.3397C71.1117 422.246 69.6357 424.31 66.8877 425.69L67.4277 426.458C70.9077 424.718 72.3117 421.946 72.3117 418.886H67.3917ZM76.8237 422.102H75.0957V417.734H74.1117V428.498H75.0957V422.918H76.8237V422.102ZM88.0263 420.698H82.7943V419.666H88.0263V420.698ZM88.9983 417.902H88.0263V418.922H82.7943V417.902H81.8223V421.454H88.9983V417.902ZM90.2703 423.122V422.33H80.5263V423.122H84.9063V424.178H81.7023V424.922H88.0503V425.858H81.7383V428.378H89.3463V427.622H82.6983V426.578H89.0223V424.178H85.8903V423.122H90.2703ZM92.1534 418.886V419.702H96.1014C95.8734 422.246 94.3974 424.31 91.6494 425.69L92.1894 426.458C95.6694 424.718 97.0734 421.946 97.0734 418.886H92.1534ZM101.585 422.102H99.8574V417.734H98.8734V428.498H99.8574V422.918H101.585V422.102ZM111.244 420.734H104.92V417.962H103.936V421.526H111.244V420.734ZM107.476 427.694C105.784 427.694 104.788 427.25 104.788 426.506C104.788 425.738 105.784 425.306 107.476 425.306C109.168 425.306 110.164 425.738 110.164 426.506C110.164 427.25 109.156 427.694 107.476 427.694ZM107.476 424.538C105.184 424.538 103.792 425.246 103.792 426.506C103.792 427.754 105.184 428.462 107.476 428.462C109.768 428.462 111.16 427.754 111.16 426.506C111.16 425.246 109.768 424.538 107.476 424.538ZM102.628 422.774V423.578H112.36V422.774H102.628ZM122.723 418.838H120.035V417.626H119.051V418.838H116.375V419.63H122.723V418.838ZM117.911 422.018C117.911 421.322 118.559 420.878 119.543 420.878C120.527 420.878 121.187 421.322 121.187 422.018C121.187 422.726 120.527 423.158 119.543 423.158C118.559 423.158 117.911 422.726 117.911 422.018ZM122.123 422.018C122.123 420.878 121.079 420.146 119.543 420.146C118.007 420.146 116.975 420.878 116.975 422.018C116.975 423.17 118.007 423.902 119.543 423.902C121.079 423.902 122.123 423.17 122.123 422.018ZM123.719 427.562H118.895V426.374H123.719V427.562ZM123.719 425.606H118.895V424.466H117.923V428.354H124.691V424.466H123.719V425.606ZM126.287 420.47H124.691V417.734H123.707V423.986H124.691V421.298H126.287V420.47ZM129.034 418.778H128.05V425.714H128.938C130.654 425.714 132.346 425.594 134.218 425.21L134.11 424.37C132.322 424.73 130.654 424.874 129.034 424.874V418.778ZM135.214 417.734V428.486H136.198V417.734H135.214ZM139.857 419.582H143.877V418.766H138.873V425.834H139.725C141.753 425.834 143.169 425.762 144.813 425.45L144.705 424.634C143.145 424.91 141.765 424.994 139.857 424.994V419.582ZM148.473 421.982H146.697V417.734H145.713V428.522H146.697V422.798H148.473V421.982ZM150.488 427.766C150.92 427.766 151.28 427.43 151.28 426.938C151.28 426.434 150.92 426.086 150.488 426.086C150.056 426.086 149.696 426.434 149.696 426.938C149.696 427.43 150.056 427.766 150.488 427.766Z" fill="#C9C9C9"/>
<path d="M19.3 454.186C18.46 454.186 17.872 453.502 17.872 452.542C17.872 451.606 18.46 450.922 19.3 450.922C20.128 450.922 20.728 451.606 20.728 452.542C20.728 453.502 20.128 454.186 19.3 454.186ZM19.3 450.094C17.968 450.094 16.996 451.102 16.996 452.542C16.996 454.006 17.968 455.002 19.3 455.002C20.632 455.002 21.604 454.006 21.604 452.542C21.604 451.102 20.632 450.094 19.3 450.094ZM19.78 447.046H18.808V448.57H16.624V449.374H21.964V448.57H19.78V447.046ZM24.808 446.722V451.27H23.428V446.974H22.504V456.97H23.428V452.074H24.808V457.486H25.756V446.722H24.808ZM33.9151 451.102C32.4991 451.402 31.2631 451.474 29.1271 451.474V448.354H32.9071V447.562H28.1551V452.278H28.9951C31.2631 452.278 32.5471 452.206 34.0231 451.906L33.9151 451.102ZM32.6071 456.694C31.0111 456.694 30.0271 456.214 30.0271 455.422C30.0271 454.63 31.0111 454.15 32.6071 454.15C34.1911 454.15 35.1751 454.63 35.1751 455.422C35.1751 456.214 34.1911 456.694 32.6071 456.694ZM32.6071 453.358C30.4231 453.358 29.0551 454.126 29.0551 455.422C29.0551 456.718 30.4231 457.486 32.6071 457.486C34.7791 457.486 36.1471 456.718 36.1471 455.422C36.1471 454.126 34.7791 453.358 32.6071 453.358ZM36.0391 449.53V446.734H35.0431V453.142H36.0391V450.346H37.6231V449.53H36.0391ZM44.2657 454.198C43.2217 454.198 42.4897 453.07 42.4897 451.318C42.4897 449.578 43.2217 448.45 44.2657 448.45C45.2977 448.45 46.0297 449.578 46.0297 451.318C46.0297 453.07 45.2977 454.198 44.2657 454.198ZM44.2657 447.562C42.6817 447.562 41.5537 449.026 41.5537 451.318C41.5537 453.61 42.6817 455.074 44.2657 455.074C45.8497 455.074 46.9657 453.61 46.9657 451.318C46.9657 449.026 45.8497 447.562 44.2657 447.562ZM51.4537 451.03H49.6777V446.746H48.6937V457.498H49.6777V451.858H51.4537V451.03ZM60.2608 446.734V457.522H61.2448V446.734H60.2608ZM55.5688 447.562C53.9728 447.562 52.8328 449.026 52.8328 451.318C52.8328 453.61 53.9728 455.074 55.5688 455.074C57.1648 455.074 58.3048 453.61 58.3048 451.318C58.3048 449.026 57.1648 447.562 55.5688 447.562ZM55.5688 448.45C56.6128 448.45 57.3568 449.578 57.3568 451.318C57.3568 453.07 56.6128 454.198 55.5688 454.198C54.5128 454.198 53.7688 453.07 53.7688 451.318C53.7688 449.578 54.5128 448.45 55.5688 448.45ZM65.1438 448.582H69.2598V447.754H64.1718V454.846H65.0358C67.2078 454.846 68.6118 454.774 70.2678 454.474L70.1598 453.646C68.5758 453.946 67.2198 454.006 65.1438 454.006V448.582ZM71.2998 446.734V457.522H72.2838V446.734H71.2998ZM79.8789 455.362V453.334H83.3229V452.542H76.6989V450.802H83.0709V447.526H75.7029V448.33H82.1109V450.01H75.7269V453.334H78.8829V455.362H74.5029V456.166H84.2829V455.362H79.8789ZM94.4896 452.002C92.9056 451.462 91.8736 450.13 91.8736 448.702V448.282H94.2496V447.49H88.4776V448.282H90.8896V448.714C90.8896 450.25 89.8096 451.642 88.1896 452.206L88.7056 452.986C89.9656 452.518 90.9376 451.57 91.3936 450.37C91.8616 451.474 92.7856 452.35 93.9856 452.77L94.4896 452.002ZM89.5816 454.594H95.6056V457.51H96.5896V453.802H89.5816V454.594ZM98.1856 449.566H96.5896V446.746H95.6056V453.226H96.5896V450.382H98.1856V449.566ZM107.149 453.106H108.145V446.746H107.149V449.026H104.809V449.83H107.149V453.106ZM105.589 451.834C104.017 451.282 102.973 449.95 102.973 448.414V447.346H101.989V448.45C101.989 450.094 100.921 451.534 99.2646 452.122L99.7806 452.926C101.077 452.434 102.049 451.462 102.505 450.19C102.973 451.306 103.885 452.158 105.061 452.602L105.589 451.834ZM104.593 456.706C102.973 456.706 101.989 456.238 101.989 455.458C101.989 454.666 102.973 454.198 104.593 454.198C106.213 454.198 107.197 454.666 107.197 455.458C107.197 456.238 106.213 456.706 104.593 456.706ZM104.593 453.43C102.385 453.43 101.005 454.162 101.005 455.458C101.005 456.742 102.385 457.486 104.593 457.486C106.801 457.486 108.181 456.742 108.181 455.458C108.181 454.162 106.801 453.43 104.593 453.43ZM116.7 448.054H114.012V446.734H113.028V448.054H110.352V448.846H116.7V448.054ZM111.888 451.438C111.888 450.694 112.548 450.214 113.52 450.214C114.492 450.214 115.164 450.694 115.164 451.438C115.164 452.194 114.492 452.674 113.52 452.674C112.548 452.674 111.888 452.194 111.888 451.438ZM116.1 451.438C116.1 450.238 115.044 449.446 113.52 449.446C111.996 449.446 110.952 450.238 110.952 451.438C110.952 452.65 111.996 453.442 113.52 453.442C115.044 453.442 116.1 452.65 116.1 451.438ZM112.956 454.174H111.972V457.258H119.148V456.454H112.956V454.174ZM118.668 450.286V446.734H117.684V454.81H118.668V451.114H120.252V450.286H118.668ZM124.674 447.898V448.69H128.718C128.514 451.246 127.074 453.31 124.182 454.69L124.71 455.494C128.286 453.742 129.714 451.006 129.714 447.898H124.674ZM131.886 446.734V457.498H132.87V446.734H131.886ZM136.157 455.086H142.661V457.402H143.645V454.282H136.157V455.086ZM140.453 452.65V451.522H143.813V450.754H137.297V449.626H143.585V447.01H136.301V447.778H142.613V448.894H136.325V451.522H139.457V452.65H135.065V453.454H144.833V452.65H140.453ZM151.732 452.77C152.032 450.766 152.032 449.362 152.032 448.498V447.91H146.596V448.714H151.072C151.072 449.578 151.048 450.886 150.748 452.674L151.732 452.77ZM149.26 450.982H148.288V454.294C147.484 454.318 146.692 454.33 146.008 454.33L146.116 455.146C148.024 455.146 150.556 455.098 152.788 454.738L152.728 454.018C151.636 454.15 150.436 454.222 149.26 454.27V450.982ZM156.088 451.234H154.372V446.734H153.388V457.498H154.372V452.062H156.088V451.234ZM166.667 448.054H163.895V446.734H162.911V448.054H160.127V448.846H166.667V448.054ZM161.747 451.45C161.747 450.694 162.419 450.214 163.403 450.214C164.375 450.214 165.047 450.694 165.047 451.45C165.047 452.194 164.375 452.674 163.403 452.674C162.419 452.674 161.747 452.194 161.747 451.45ZM163.895 453.418C165.167 453.262 165.983 452.518 165.983 451.45C165.983 450.238 164.939 449.458 163.403 449.458C161.867 449.458 160.811 450.238 160.811 451.45C160.811 452.53 161.639 453.274 162.911 453.43V454.582C161.843 454.618 160.811 454.63 159.899 454.63L160.043 455.458C162.023 455.458 164.615 455.422 167.015 455.026L166.943 454.294C165.959 454.426 164.915 454.498 163.895 454.546V453.418ZM167.627 446.734V457.498H168.611V446.734H167.627ZM178.474 448.882C178.474 450.178 178.474 451.69 178.066 453.754L179.05 453.862C179.458 451.69 179.458 450.214 179.458 448.882V447.814H171.91V448.618H178.474V448.882ZM175.654 455.182V451.33H174.67V455.182H170.89V455.986H180.622V455.182H175.654ZM190.521 450.034H184.125V447.958H190.449V447.166H183.141V450.826H190.521V450.034ZM186.777 456.718C185.085 456.718 184.089 456.298 184.089 455.542C184.089 454.786 185.085 454.366 186.777 454.366C188.469 454.366 189.465 454.786 189.465 455.542C189.465 456.298 188.457 456.718 186.777 456.718ZM186.777 453.598C184.485 453.598 183.093 454.294 183.093 455.542C183.093 456.79 184.485 457.486 186.777 457.486C189.069 457.486 190.461 456.79 190.461 455.542C190.461 454.294 189.069 453.598 186.777 453.598ZM181.917 451.858V452.674H191.661V451.858H181.917ZM197.816 447.898C199.508 447.898 200.588 448.402 200.588 449.254C200.588 450.106 199.508 450.598 197.816 450.598C196.124 450.598 195.044 450.106 195.044 449.254C195.044 448.402 196.124 447.898 197.816 447.898ZM197.816 451.39C200.12 451.39 201.596 450.598 201.596 449.254C201.596 447.91 200.12 447.106 197.816 447.106C195.512 447.106 194.036 447.91 194.036 449.254C194.036 450.598 195.512 451.39 197.816 451.39ZM195.188 454.138H194.204V457.258H201.608V456.454H195.188V454.138ZM192.944 452.398V453.19H202.676V452.398H192.944ZM207.783 449.926C207.783 448.93 208.575 448.21 209.619 448.21C210.675 448.21 211.443 448.93 211.443 449.926C211.443 450.934 210.675 451.654 209.619 451.654C208.575 451.654 207.783 450.934 207.783 449.926ZM214.551 449.086V450.766H212.235C212.331 450.502 212.379 450.226 212.379 449.926C212.379 449.614 212.331 449.338 212.247 449.086H214.551ZM214.551 451.57V453.106H215.547V446.734H214.551V448.282H211.791C211.299 447.73 210.531 447.382 209.619 447.382C208.023 447.382 206.847 448.426 206.847 449.926C206.847 451.438 208.023 452.494 209.619 452.494C210.531 452.494 211.299 452.146 211.791 451.57H214.551ZM211.983 456.706C210.363 456.706 209.379 456.226 209.379 455.422C209.379 454.606 210.363 454.126 211.983 454.126C213.627 454.126 214.611 454.606 214.611 455.422C214.611 456.226 213.627 456.706 211.983 456.706ZM211.983 453.358C209.775 453.358 208.407 454.114 208.407 455.422C208.407 456.73 209.775 457.486 211.983 457.486C214.203 457.486 215.583 456.73 215.583 455.422C215.583 454.114 214.203 453.358 211.983 453.358ZM227.462 452.062H225.866C226.166 450.514 226.166 449.374 226.166 448.366V447.43H218.942V448.222H225.206V448.366C225.206 449.374 225.206 450.514 224.87 452.062H217.73V452.866H222.074V457.51H223.07V452.866H227.462V452.062ZM240.729 451.99C238.845 451.654 236.793 450.07 236.793 448.282V447.454H235.761V448.282C235.761 450.07 233.721 451.654 231.837 451.99L232.245 452.806C233.901 452.458 235.581 451.342 236.277 449.806C236.973 451.342 238.665 452.458 240.309 452.806L240.729 451.99ZM236.769 455.29V452.674H235.785V455.29H231.441V456.094H241.209V455.29H236.769ZM246.992 450.91H243.944V448.09H246.992V450.91ZM250.352 448.93V450.094H247.952V448.93H250.352ZM247.952 450.874H250.352V452.254H251.336V446.746H250.352V448.162H247.952V447.31H242.984V451.702H247.952V450.874ZM245.396 456.574V455.398H251.336V452.806H244.4V453.586H250.364V454.654H244.424V457.354H251.744V456.574H245.396ZM257.563 452.182H259.879V451.378H255.355V448.558H259.831V447.742H254.383V452.182H256.579V454.318C255.535 454.354 254.515 454.354 253.591 454.354L253.711 455.182C255.751 455.182 258.331 455.134 260.683 454.774L260.599 454.054C259.639 454.174 258.595 454.234 257.563 454.282V452.182ZM261.307 446.722V457.522H262.291V446.722H261.307ZM264.558 455.254V456.07H274.314V455.254H264.558ZM265.71 447.682V452.782H273.126V447.682H265.71ZM272.166 448.462V452.002H266.658V448.462H272.166ZM280.961 455.362V453.334H284.405V452.542H277.781V450.802H284.153V447.526H276.785V448.33H283.193V450.01H276.809V453.334H279.965V455.362H275.585V456.166H285.365V455.362H280.961ZM286.9 458.89C287.98 458.434 288.652 457.534 288.652 456.382C288.652 455.578 288.304 455.086 287.728 455.086C287.284 455.086 286.9 455.386 286.9 455.854C286.9 456.358 287.284 456.622 287.704 456.622C287.752 456.622 287.788 456.622 287.836 456.61C287.836 457.318 287.392 457.906 286.636 458.242L286.9 458.89ZM293.283 447.79V454.786H298.227V447.79H293.283ZM297.267 448.582V454.006H294.243V448.582H297.267ZM300.483 446.734V457.522H301.467V446.734H300.483ZM305.307 451.57H309.279V447.73H304.287V448.534H308.283V450.778H304.323V454.906H305.211C307.059 454.906 308.691 454.834 310.635 454.51L310.539 453.706C308.655 454.006 307.071 454.09 305.307 454.09V451.57ZM311.547 446.722V457.51H312.531V446.722H311.547ZM323.817 447.718H321.225V446.662H320.241V447.718H317.637V448.462H323.817V447.718ZM319.149 450.454C319.149 449.89 319.761 449.542 320.733 449.542C321.681 449.542 322.305 449.89 322.305 450.454C322.305 451.018 321.681 451.378 320.733 451.378C319.761 451.378 319.149 451.018 319.149 450.454ZM324.141 452.518C323.205 452.662 322.209 452.734 321.225 452.782V452.038C322.461 451.906 323.241 451.33 323.241 450.454C323.241 449.47 322.233 448.858 320.733 448.858C319.209 448.858 318.213 449.47 318.213 450.454C318.213 451.342 318.993 451.918 320.241 452.038V452.818C319.209 452.854 318.225 452.854 317.373 452.854L317.481 453.646C319.365 453.634 321.909 453.622 324.213 453.226L324.141 452.518ZM318.681 455.278H324.777V457.498H325.761V454.498H318.681V455.278ZM327.333 449.998H325.761V446.746H324.777V453.958H325.761V450.814H327.333V449.998ZM337.292 446.746H336.308V454.606H337.292V446.746ZM329.672 450.13C329.672 449.086 330.464 448.342 331.508 448.342C332.576 448.342 333.368 449.086 333.368 450.13C333.368 451.198 332.576 451.942 331.508 451.942C330.464 451.942 329.672 451.198 329.672 450.13ZM334.328 450.13C334.328 448.582 333.116 447.49 331.508 447.49C329.912 447.49 328.712 448.582 328.712 450.13C328.712 451.69 329.912 452.794 331.508 452.794C333.116 452.794 334.328 451.69 334.328 450.13ZM331.352 456.454V453.802H330.368V457.258H337.616V456.454H331.352ZM19.792 469.282C18.82 469.282 18.112 468.586 18.112 467.626C18.112 466.654 18.82 465.958 19.792 465.958C20.776 465.958 21.484 466.654 21.484 467.626C21.484 468.586 20.776 469.282 19.792 469.282ZM19.792 465.142C18.28 465.142 17.188 466.174 17.188 467.626C17.188 469.09 18.28 470.098 19.792 470.098C21.328 470.098 22.42 469.09 22.42 467.626C22.42 466.174 21.328 465.142 19.792 465.142ZM20.272 461.866H19.288V463.462H16.576V464.254H22.924V463.462H20.272V461.866ZM26.692 466.162H24.928V461.746H23.944V472.498H24.928V466.99H26.692V466.162ZM31.4911 462.67H30.5191V464.602C30.5191 466.642 29.2111 468.706 27.6271 469.462L28.2271 470.266C29.4871 469.618 30.5191 468.274 31.0111 466.654C31.5271 468.19 32.5591 469.462 33.7831 470.062L34.3711 469.27C32.7751 468.55 31.4911 466.57 31.4911 464.602V462.67ZM35.4991 461.734V472.522H36.4831V461.734H35.4991ZM46.3101 463.882C46.3101 465.178 46.3101 466.69 45.9021 468.754L46.8861 468.862C47.2941 466.69 47.2941 465.214 47.2941 463.882V462.814H39.7461V463.618H46.3101V463.882ZM43.4901 470.182V466.33H42.5061V470.182H38.7261V470.986H48.4581V470.182H43.4901ZM58.5688 465.922C57.1648 466.15 56.0128 466.198 53.9128 466.198V464.962H57.6568V464.206H53.9128V463.054H57.8488V462.274H52.9288V466.978H53.7448C55.9768 466.978 57.2008 466.942 58.6768 466.702L58.5688 465.922ZM54.9448 470.41H60.7888V467.878H53.9488V468.646H59.8168V469.678H53.9848V472.378H61.1848V471.61H54.9448V470.41ZM60.7888 464.086V461.746H59.8048V467.362H60.7888V464.89H62.3848V464.086H60.7888ZM67.5558 467.698H69.9558V466.906H65.3358V465.562H69.6798V464.782H65.3358V463.498H69.9078V462.706H64.3518V467.698H66.5718V469.486C65.4798 469.522 64.4358 469.522 63.5478 469.522L63.6678 470.338C65.5998 470.338 68.2278 470.326 70.6398 469.87L70.5558 469.138C69.5958 469.294 68.5638 469.378 67.5558 469.438V467.698ZM71.2638 461.722V472.522H72.2478V461.722H71.2638ZM82.0509 463.618H75.7629V465.922H83.2149V465.214H76.7349V464.29H83.0229V462.046H75.7389V462.742H82.0509V463.618ZM76.6749 470.65H83.0589V468.358H75.6789V469.066H82.0869V469.966H75.7029V472.354H83.3949V471.646H76.6749V470.65ZM74.5149 466.738V467.482H84.2709V466.738H74.5149ZM97.0696 461.746H96.0856V469.618H97.0696V461.746ZM94.8136 467.302C93.2296 466.774 92.1136 465.466 92.1136 464.014V463.426H94.5496V462.634H88.6456V463.426H91.1056V464.014C91.1056 465.55 90.0136 466.954 88.3816 467.518L88.8976 468.286C90.1696 467.83 91.1656 466.858 91.6216 465.634C92.1136 466.762 93.0976 467.65 94.3336 468.082L94.8136 467.302ZM91.1296 471.454V468.874H90.1456V472.258H97.3936V471.454H91.1296ZM106.045 465.466H107.413V468.55H108.361V461.734H107.413V464.662H106.045V461.938H105.109V468.154H106.045V465.466ZM104.677 463.018H102.445V461.818H101.473V463.018H99.2166V463.798H104.689L104.677 463.018ZM100.549 466.198C100.549 465.538 101.113 465.094 101.965 465.094C102.805 465.094 103.381 465.538 103.381 466.198C103.381 466.87 102.805 467.314 101.965 467.314C101.113 467.314 100.549 466.87 100.549 466.198ZM104.257 466.198C104.257 465.094 103.321 464.362 101.965 464.362C100.609 464.362 99.6606 465.094 99.6606 466.198C99.6606 467.326 100.609 468.046 101.965 468.046C103.321 468.046 104.257 467.326 104.257 466.198ZM104.821 471.73C103.177 471.73 102.193 471.322 102.193 470.614C102.193 469.894 103.177 469.486 104.821 469.486C106.453 469.486 107.437 469.894 107.437 470.614C107.437 471.322 106.453 471.73 104.821 471.73ZM104.821 468.73C102.577 468.73 101.221 469.402 101.221 470.614C101.221 471.814 102.577 472.486 104.821 472.486C107.065 472.486 108.421 471.814 108.421 470.614C108.421 469.402 107.065 468.73 104.821 468.73ZM113.472 469.282C112.5 469.282 111.792 468.586 111.792 467.626C111.792 466.654 112.5 465.958 113.472 465.958C114.456 465.958 115.164 466.654 115.164 467.626C115.164 468.586 114.456 469.282 113.472 469.282ZM113.472 465.142C111.96 465.142 110.868 466.174 110.868 467.626C110.868 469.09 111.96 470.098 113.472 470.098C115.008 470.098 116.1 469.09 116.1 467.626C116.1 466.174 115.008 465.142 113.472 465.142ZM113.952 461.866H112.968V463.462H110.256V464.254H116.604V463.462H113.952V461.866ZM120.372 466.162H118.608V461.746H117.624V472.498H118.608V466.99H120.372V466.162ZM125.171 462.67H124.199V464.602C124.199 466.642 122.891 468.706 121.307 469.462L121.907 470.266C123.167 469.618 124.199 468.274 124.691 466.654C125.207 468.19 126.239 469.462 127.463 470.062L128.051 469.27C126.455 468.55 125.171 466.57 125.171 464.602V462.67ZM129.179 461.734V472.522H130.163V461.734H129.179ZM133.03 462.898V463.69H137.074C136.87 466.246 135.43 468.31 132.538 469.69L133.066 470.494C136.642 468.742 138.07 466.006 138.07 462.898H133.03ZM140.242 461.734V472.498H141.226V461.734H140.242ZM150.969 463.618H144.681V465.922H152.133V465.214H145.653V464.29H151.941V462.046H144.657V462.742H150.969V463.618ZM145.593 470.65H151.977V468.358H144.597V469.066H151.005V469.966H144.621V472.354H152.313V471.646H145.593V470.65ZM143.433 466.738V467.482H153.189V466.738H143.433ZM161.632 469.102H158.56V466.27H161.632V469.102ZM161.632 465.49H158.56V462.646H157.588V469.906H162.592V462.646H161.632V465.49ZM167.212 465.97H165.436V461.746H164.452V472.486H165.436V466.798H167.212V465.97ZM174.531 466.258C172.899 466.546 171.519 466.618 169.635 466.618V465.154H173.487V462.274H168.639V463.066H172.515V464.398H168.663V467.422H169.515C171.495 467.422 172.923 467.362 174.627 467.074L174.531 466.258ZM175.575 471.55H170.751V470.242H175.575V471.55ZM175.575 469.474H170.751V468.154H169.779V472.354H176.547V468.154H175.575V469.474ZM178.143 464.326H176.547V461.746H175.563V467.686H176.547V465.154H178.143V464.326ZM180.89 462.778H179.906V469.714H180.794C182.51 469.714 184.202 469.594 186.074 469.21L185.966 468.37C184.178 468.73 182.51 468.874 180.89 468.874V462.778ZM187.07 461.734V472.486H188.054V461.734H187.07ZM191.713 463.582H195.733V462.766H190.729V469.834H191.581C193.609 469.834 195.025 469.762 196.669 469.45L196.561 468.634C195.001 468.91 193.621 468.994 191.713 468.994V463.582ZM200.329 465.982H198.553V461.734H197.569V472.522H198.553V466.798H200.329V465.982ZM202.344 471.766C202.776 471.766 203.136 471.43 203.136 470.938C203.136 470.434 202.776 470.086 202.344 470.086C201.912 470.086 201.552 470.434 201.552 470.938C201.552 471.43 201.912 471.766 202.344 471.766Z" fill="#C9C9C9"/>
<path d="M27.28 256.442V270.826H28.592V256.442H27.28ZM21.024 257.546C18.896 257.546 17.376 259.498 17.376 262.554C17.376 265.61 18.896 267.562 21.024 267.562C23.152 267.562 24.672 265.61 24.672 262.554C24.672 259.498 23.152 257.546 21.024 257.546ZM21.024 258.73C22.416 258.73 23.408 260.234 23.408 262.554C23.408 264.89 22.416 266.394 21.024 266.394C19.616 266.394 18.624 264.89 18.624 262.554C18.624 260.234 19.616 258.73 21.024 258.73ZM36.3188 265.898H33.3108V259.146H36.3188V265.898ZM39.6628 261.85H37.5348V258.106H32.0788V266.938H37.5348V262.938H39.6628V270.074H40.9108V256.762H39.6628V261.85ZM42.5108 256.442V270.778H43.7588V256.442H42.5108ZM58.0615 256.442H56.7495V263.802H58.0615V256.442ZM47.8855 260.154C47.8855 258.906 48.9255 258.026 50.3175 258.026C51.7255 258.026 52.7495 258.906 52.7495 260.154C52.7495 261.386 51.7255 262.266 50.3175 262.266C48.9255 262.266 47.8855 261.386 47.8855 260.154ZM54.0295 260.154C54.0295 258.25 52.4615 256.954 50.3175 256.954C48.1735 256.954 46.6215 258.25 46.6215 260.154C46.6215 262.042 48.1735 263.322 50.3175 263.322C52.4615 263.322 54.0295 262.042 54.0295 260.154ZM50.0935 269.562V267.978H58.0615V264.506H48.7655V265.546H56.7655V267.002H48.7975V270.602H58.5415V269.562H50.0935Z" fill="#333333"/>
<path d="M125.725 267.56L128.23 263.885C128.545 263.36 128.845 262.895 129.115 262.385H129.175C129.145 262.955 129.1 263.87 129.1 264.425V267.56H125.725ZM129.1 271.61H130.39V268.655H131.845V267.56H130.39V260.915H128.875L124.3 267.755V268.655H129.1V271.61ZM133.7 271.61H135.065V265.7C135.815 264.86 136.505 264.455 137.12 264.455C138.155 264.455 138.635 265.1 138.635 266.63V271.61H140V265.7C140.765 264.86 141.425 264.455 142.055 264.455C143.09 264.455 143.57 265.1 143.57 266.63V271.61H144.935V266.45C144.935 264.365 144.14 263.255 142.46 263.255C141.47 263.255 140.615 263.9 139.775 264.815C139.445 263.855 138.77 263.255 137.525 263.255C136.55 263.255 135.695 263.87 134.99 264.65H134.945L134.825 263.465H133.7V271.61ZM150.752 271.805C152.747 271.805 154.532 270.245 154.532 267.545C154.532 264.83 152.747 263.255 150.752 263.255C148.757 263.255 146.972 264.83 146.972 267.545C146.972 270.245 148.757 271.805 150.752 271.805ZM150.752 270.665C149.342 270.665 148.397 269.42 148.397 267.545C148.397 265.67 149.342 264.395 150.752 264.395C152.162 264.395 153.122 265.67 153.122 267.545C153.122 269.42 152.162 270.665 150.752 270.665ZM158.814 271.805C160.734 271.805 161.784 270.71 161.784 269.39C161.784 267.845 160.479 267.365 159.294 266.915C158.379 266.57 157.539 266.285 157.539 265.505C157.539 264.875 158.019 264.335 159.054 264.335C159.774 264.335 160.344 264.635 160.899 265.055L161.559 264.17C160.929 263.675 160.044 263.255 159.039 263.255C157.269 263.255 156.219 264.275 156.219 265.565C156.219 266.945 157.464 267.5 158.604 267.92C159.504 268.265 160.464 268.625 160.464 269.465C160.464 270.17 159.939 270.74 158.859 270.74C157.884 270.74 157.149 270.35 156.444 269.78L155.769 270.68C156.549 271.325 157.659 271.805 158.814 271.805ZM165.928 271.805C166.423 271.805 166.963 271.655 167.428 271.505L167.158 270.485C166.888 270.59 166.513 270.695 166.228 270.695C165.283 270.695 164.968 270.125 164.968 269.12V264.575H167.173V263.465H164.968V261.17H163.828L163.663 263.465L162.388 263.54V264.575H163.603V269.09C163.603 270.71 164.188 271.805 165.928 271.805ZM168.298 271.61H175.213V270.425H172.108C171.538 270.425 170.878 270.485 170.308 270.53C172.843 267.86 174.673 265.865 174.673 263.855C174.673 261.965 173.443 260.72 171.478 260.72C170.083 260.72 169.138 261.365 168.238 262.34L169.033 263.105C169.633 262.4 170.413 261.83 171.313 261.83C172.678 261.83 173.338 262.7 173.338 263.915C173.338 265.67 171.523 267.59 168.298 270.8V271.61ZM180.128 271.805C182.258 271.805 183.548 269.81 183.548 266.225C183.548 262.655 182.258 260.72 180.128 260.72C177.998 260.72 176.693 262.64 176.693 266.225C176.693 269.81 177.998 271.805 180.128 271.805ZM180.128 270.71C178.868 270.71 178.028 269.36 178.028 266.225C178.028 263.09 178.868 261.815 180.128 261.815C181.373 261.815 182.213 263.09 182.213 266.225C182.213 269.36 181.373 270.71 180.128 270.71ZM185.598 271.61H191.628V270.47H189.423V260.915H188.373C187.773 261.275 187.068 261.53 186.093 261.695V262.58H188.043V270.47H185.598V271.61ZM193.259 271.61H200.174V270.425H197.069C196.499 270.425 195.839 270.485 195.269 270.53C197.804 267.86 199.634 265.865 199.634 263.855C199.634 261.965 198.404 260.72 196.439 260.72C195.044 260.72 194.099 261.365 193.199 262.34L193.994 263.105C194.594 262.4 195.374 261.83 196.274 261.83C197.639 261.83 198.299 262.7 198.299 263.915C198.299 265.67 196.484 267.59 193.259 270.8V271.61ZM201.579 271.61H208.494V270.425H205.389C204.819 270.425 204.159 270.485 203.589 270.53C206.124 267.86 207.954 265.865 207.954 263.855C207.954 261.965 206.724 260.72 204.759 260.72C203.364 260.72 202.419 261.365 201.519 262.34L202.314 263.105C202.914 262.4 203.694 261.83 204.594 261.83C205.959 261.83 206.619 262.7 206.619 263.915C206.619 265.67 204.804 267.59 201.579 270.8V271.61ZM213.619 266.105C214.939 266.105 215.599 266.99 215.599 268.37C215.599 269.795 214.789 270.74 213.724 270.74C212.374 270.74 211.549 269.615 211.369 267.53C212.089 266.48 212.929 266.105 213.619 266.105ZM213.739 271.805C215.449 271.805 216.889 270.425 216.889 268.37C216.889 266.195 215.689 265.085 213.844 265.085C212.974 265.085 212.029 265.595 211.339 266.42C211.399 263.015 212.659 261.86 214.174 261.86C214.834 261.86 215.494 262.175 215.929 262.7L216.694 261.845C216.094 261.2 215.269 260.72 214.129 260.72C211.984 260.72 210.049 262.37 210.049 266.675C210.049 270.095 211.624 271.805 213.739 271.805ZM224.31 274.205C225.465 274.205 226.515 273.935 227.49 273.35L227.13 272.54C226.38 272.975 225.42 273.29 224.4 273.29C221.55 273.29 219.42 271.43 219.42 268.16C219.42 264.245 222.3 261.695 225.285 261.695C228.33 261.695 229.935 263.675 229.935 266.39C229.935 268.565 228.735 269.84 227.67 269.84C226.755 269.84 226.44 269.225 226.755 267.875L227.415 264.53H226.515L226.32 265.22H226.29C225.99 264.665 225.525 264.395 224.955 264.395C222.99 264.395 221.73 266.51 221.73 268.28C221.73 269.81 222.6 270.665 223.74 270.665C224.475 270.665 225.24 270.155 225.78 269.51H225.825C225.93 270.365 226.635 270.785 227.55 270.785C229.065 270.785 230.895 269.255 230.895 266.33C230.895 263.03 228.765 260.78 225.39 260.78C221.655 260.78 218.4 263.72 218.4 268.205C218.4 272.105 221.025 274.205 224.31 274.205ZM224.01 269.72C223.335 269.72 222.825 269.285 222.825 268.205C222.825 266.945 223.635 265.355 224.955 265.355C225.42 265.355 225.72 265.535 226.035 266.06L225.57 268.73C224.985 269.42 224.475 269.72 224.01 269.72ZM235.879 275.36C238.399 275.36 240.004 274.055 240.004 272.54C240.004 271.205 239.044 270.605 237.154 270.605H235.564C234.469 270.605 234.139 270.245 234.139 269.72C234.139 269.27 234.364 269 234.664 268.745C235.024 268.925 235.474 269.03 235.879 269.03C237.529 269.03 238.849 267.935 238.849 266.195C238.849 265.49 238.579 264.89 238.189 264.515H239.854V263.465H237.019C236.734 263.36 236.329 263.255 235.879 263.255C234.229 263.255 232.819 264.38 232.819 266.165C232.819 267.14 233.344 267.92 233.884 268.355V268.415C233.464 268.715 232.969 269.255 232.969 269.93C232.969 270.575 233.284 271.01 233.719 271.265V271.325C232.954 271.82 232.519 272.48 232.519 273.17C232.519 274.58 233.884 275.36 235.879 275.36ZM235.879 268.1C234.934 268.1 234.139 267.35 234.139 266.165C234.139 264.965 234.919 264.26 235.879 264.26C236.839 264.26 237.619 264.98 237.619 266.165C237.619 267.35 236.809 268.1 235.879 268.1ZM236.074 274.43C234.604 274.43 233.719 273.86 233.719 272.99C233.719 272.51 233.959 272.03 234.544 271.61C234.904 271.7 235.294 271.745 235.594 271.745H237.004C238.084 271.745 238.669 272 238.669 272.75C238.669 273.605 237.634 274.43 236.074 274.43ZM241.586 271.61H242.951V265.7C243.701 264.86 244.391 264.455 245.006 264.455C246.041 264.455 246.521 265.1 246.521 266.63V271.61H247.886V265.7C248.651 264.86 249.311 264.455 249.941 264.455C250.976 264.455 251.456 265.1 251.456 266.63V271.61H252.821V266.45C252.821 264.365 252.026 263.255 250.346 263.255C249.356 263.255 248.501 263.9 247.661 264.815C247.331 263.855 246.656 263.255 245.411 263.255C244.436 263.255 243.581 263.87 242.876 264.65H242.831L242.711 263.465H241.586V271.61ZM257.348 271.805C258.353 271.805 259.268 271.28 260.048 270.635H260.093L260.213 271.61H261.338V266.6C261.338 264.59 260.498 263.255 258.518 263.255C257.213 263.255 256.058 263.84 255.308 264.32L255.848 265.265C256.493 264.83 257.348 264.395 258.293 264.395C259.628 264.395 259.973 265.4 259.973 266.45C256.508 266.84 254.963 267.725 254.963 269.495C254.963 270.965 255.983 271.805 257.348 271.805ZM257.738 270.71C256.928 270.71 256.298 270.335 256.298 269.405C256.298 268.355 257.228 267.68 259.973 267.35V269.63C259.178 270.335 258.533 270.71 257.738 270.71ZM263.94 271.61H265.305V263.465H263.94V271.61ZM264.63 261.785C265.17 261.785 265.545 261.425 265.545 260.87C265.545 260.345 265.17 259.985 264.63 259.985C264.09 259.985 263.715 260.345 263.715 260.87C263.715 261.425 264.09 261.785 264.63 261.785ZM269.51 271.805C269.885 271.805 270.11 271.76 270.305 271.685L270.11 270.635C269.96 270.665 269.9 270.665 269.825 270.665C269.615 270.665 269.435 270.5 269.435 270.08V259.67H268.07V269.99C268.07 271.145 268.49 271.805 269.51 271.805ZM273.053 271.805C273.593 271.805 274.043 271.385 274.043 270.77C274.043 270.14 273.593 269.705 273.053 269.705C272.513 269.705 272.063 270.14 272.063 270.77C272.063 271.385 272.513 271.805 273.053 271.805ZM279.542 271.805C280.517 271.805 281.447 271.43 282.182 270.77L281.582 269.855C281.072 270.32 280.412 270.665 279.662 270.665C278.162 270.665 277.142 269.42 277.142 267.545C277.142 265.67 278.222 264.395 279.707 264.395C280.352 264.395 280.847 264.695 281.327 265.115L282.032 264.215C281.447 263.705 280.712 263.255 279.647 263.255C277.562 263.255 275.717 264.83 275.717 267.545C275.717 270.245 277.382 271.805 279.542 271.805ZM286.763 271.805C288.758 271.805 290.543 270.245 290.543 267.545C290.543 264.83 288.758 263.255 286.763 263.255C284.768 263.255 282.983 264.83 282.983 267.545C282.983 270.245 284.768 271.805 286.763 271.805ZM286.763 270.665C285.353 270.665 284.408 269.42 284.408 267.545C284.408 265.67 285.353 264.395 286.763 264.395C288.173 264.395 289.133 265.67 289.133 267.545C289.133 269.42 288.173 270.665 286.763 270.665ZM292.694 271.61H294.059V265.7C294.809 264.86 295.499 264.455 296.114 264.455C297.149 264.455 297.629 265.1 297.629 266.63V271.61H298.994V265.7C299.759 264.86 300.419 264.455 301.049 264.455C302.084 264.455 302.564 265.1 302.564 266.63V271.61H303.929V266.45C303.929 264.365 303.134 263.255 301.454 263.255C300.464 263.255 299.609 263.9 298.769 264.815C298.439 263.855 297.764 263.255 296.519 263.255C295.544 263.255 294.689 263.87 293.984 264.65H293.939L293.819 263.465H292.694V271.61Z" fill="#FF7556"/>
<rect x="108" y="320.61" width="251" height="1" fill="#C9C9C9"/>
<rect x="16" y="591.61" width="343" height="60" rx="15" fill="#FF7556"/>
<path d="M157.569 617.82H159.819V616.308H155.733V626.892H156.489C157.749 626.892 158.775 626.874 160.053 626.604L159.855 625.092C159.063 625.272 158.307 625.326 157.569 625.344V617.82ZM162.483 617.82H165.057V616.308H160.665V626.892H161.511C163.329 626.892 164.427 626.856 165.795 626.532L165.633 625.038C164.607 625.272 163.689 625.344 162.483 625.362V617.82ZM167.091 614.742V620.556H164.319V622.068H167.091V631.014H168.963V614.742H167.091ZM181.165 620.016C178.771 620.484 176.539 620.646 174.433 620.682V615.444H172.579V622.212H173.893C176.251 622.212 178.681 622.05 181.381 621.528L181.165 620.016ZM175.945 627.81H184.549V623.58H174.055V625.056H182.695V626.424H174.091V630.798H185.089V629.322H175.945V627.81ZM184.549 617.946V614.724H182.695V622.86H184.549V619.476H186.853V617.946H184.549ZM190.704 622.392H194.988V616.416H188.886V617.928H193.206V620.898H188.922V627.234H190.02C192.018 627.234 193.818 627.18 195.996 626.802L195.834 625.29C193.98 625.596 192.396 625.686 190.704 625.704V622.392ZM200.514 614.742V621.024H198.588V615.066H196.842V630.186H198.588V622.536H200.514V630.978H202.278V614.742H200.514ZM210.269 623.958C210.899 624.102 211.601 624.174 212.321 624.174C213.041 624.174 213.743 624.102 214.373 623.94V627.486H210.269V623.958ZM212.321 617.136C214.769 617.136 216.479 618.216 216.479 619.926C216.479 621.654 214.769 622.734 212.321 622.734C209.855 622.734 208.145 621.654 208.145 619.926C208.145 618.216 209.855 617.136 212.321 617.136ZM216.227 627.486V623.256C217.523 622.518 218.297 621.366 218.297 619.926C218.297 617.334 215.777 615.678 212.321 615.678C208.847 615.678 206.345 617.334 206.345 619.926C206.345 621.366 207.119 622.536 208.415 623.256V627.486H204.977V628.998H219.701V627.486H216.227Z" fill="white"/>
<circle cx="127" cy="304.61" r="3" fill="#333333"/>
<circle cx="183" cy="304.61" r="3" fill="#333333"/>
<circle cx="155" cy="304.61" r="3" fill="#333333"/>
<circle cx="211" cy="304.61" r="3" fill="#333333"/>
<circle cx="253" cy="304.61" r="3" fill="#333333"/>
<circle cx="141" cy="304.61" r="3" fill="#333333"/>
<circle cx="197" cy="304.61" r="3" fill="#333333"/>
<circle cx="239" cy="304.61" r="3" fill="#333333"/>
<circle cx="169" cy="304.61" r="3" fill="#333333"/>
<circle cx="225" cy="304.61" r="3" fill="#333333"/>
<circle cx="267" cy="304.61" r="3" fill="#333333"/>
</g>
<defs>
<clipPath id="clip0">
<rect width="375" height="667" fill="white" transform="translate(0 0.610352)"/>
</clipPath>
</defs>
</svg>
