<svg width="782" height="668" viewBox="0 0 782 668" fill="none" xmlns="http://www.w3.org/2000/svg">
<g clip-path="url(#clip0)">
<rect width="375" height="667" transform="translate(0 0.423828)" fill="white"/>
<g filter="url(#filter0_d)">
<rect y="20.4238" width="375" height="60" fill="white"/>
</g>
<path d="M37 50.4238H19" stroke="#333333" stroke-linecap="round"/>
<path d="M25 44.4238L19 50.4238L25 56.4238" stroke="#333333" stroke-linecap="round"/>
<path d="M167.279 5.75781C165.445 5.75781 164.139 7.01172 164.139 8.72852V8.74023C164.139 10.3457 165.275 11.5293 166.898 11.5293C168.059 11.5293 168.797 10.9375 169.107 10.2695H169.225C169.225 10.334 169.219 10.3984 169.219 10.4629C169.154 12.0801 168.586 13.3926 167.244 13.3926C166.5 13.3926 165.979 13.0059 165.756 12.4141L165.738 12.3555H164.25L164.262 12.4199C164.531 13.7148 165.691 14.6348 167.244 14.6348C169.371 14.6348 170.654 12.9473 170.654 10.0996V10.0879C170.654 7.04102 169.084 5.75781 167.279 5.75781ZM167.273 10.3691C166.312 10.3691 165.615 9.66602 165.615 8.6875V8.67578C165.615 7.73242 166.359 6.98828 167.291 6.98828C168.229 6.98828 168.961 7.74414 168.961 8.71094V8.72266C168.961 9.67773 168.229 10.3691 167.273 10.3691ZM173.314 8.94531C173.854 8.94531 174.246 8.53516 174.246 8.01953C174.246 7.49805 173.854 7.09375 173.314 7.09375C172.781 7.09375 172.383 7.49805 172.383 8.01953C172.383 8.53516 172.781 8.94531 173.314 8.94531ZM173.314 13.293C173.854 13.293 174.246 12.8887 174.246 12.3672C174.246 11.8457 173.854 11.4414 173.314 11.4414C172.781 11.4414 172.383 11.8457 172.383 12.3672C172.383 12.8887 172.781 13.293 173.314 13.293ZM180.076 14.4238H181.523V12.8008H182.66V11.5527H181.523V5.96875H179.385C178.236 7.71484 177.035 9.66016 175.939 11.5645V12.8008H180.076V14.4238ZM177.346 11.5879V11.5C178.166 10.0645 179.145 8.5 180.012 7.17578H180.1V11.5879H177.346ZM186.164 14.4238H187.676V5.96875H186.17L183.961 7.52148V8.94531L186.064 7.45703H186.164V14.4238ZM192.756 14.4238H194.338L195.041 12.2383H198.17L198.879 14.4238H200.461L197.461 5.96875H195.756L192.756 14.4238ZM196.559 7.53906H196.658L197.795 11.0723H195.422L196.559 7.53906ZM201.914 14.4238H203.279V8.41211H203.379L205.723 14.4238H206.754L209.098 8.41211H209.203V14.4238H210.562V5.96875H208.828L206.291 12.4727H206.191L203.648 5.96875H201.914V14.4238Z" fill="black"/>
<path opacity="0.35" fill-rule="evenodd" clip-rule="evenodd" d="M345.5 4.92383H364.5C365.881 4.92383 367 6.04312 367 7.42383V13.9238C367 15.3045 365.881 16.4238 364.5 16.4238H345.5C344.119 16.4238 343 15.3045 343 13.9238V7.42383C343 6.04312 344.119 4.92383 345.5 4.92383ZM345.5 5.92383C344.672 5.92383 344 6.5954 344 7.42383V13.9238C344 14.7523 344.672 15.4238 345.5 15.4238H364.5C365.328 15.4238 366 14.7523 366 13.9238V7.42383C366 6.5954 365.328 5.92383 364.5 5.92383H345.5Z" fill="black"/>
<path opacity="0.4" fill-rule="evenodd" clip-rule="evenodd" d="M368 8.22363C368.89 8.67881 369.5 9.60511 369.5 10.6738C369.5 11.7424 368.89 12.6687 368 13.1239V8.22363Z" fill="black"/>
<path fill-rule="evenodd" clip-rule="evenodd" d="M346 6.92383H364C364.552 6.92383 365 7.37154 365 7.92383V13.4238C365 13.9761 364.552 14.4238 364 14.4238H346C345.448 14.4238 345 13.9761 345 13.4238V7.92383C345 7.37154 345.448 6.92383 346 6.92383Z" fill="black"/>
<path d="M311.219 14.7239H312.273V6.2688H311.225L308.975 7.88599V8.99927L311.125 7.44067H311.219V14.7239ZM317.547 14.9231C319.416 14.9231 320.541 13.218 320.541 10.4993V10.4875C320.541 7.7688 319.416 6.06958 317.547 6.06958C315.678 6.06958 314.564 7.7688 314.564 10.4875V10.4993C314.564 13.218 315.678 14.9231 317.547 14.9231ZM317.547 14.0032C316.334 14.0032 315.625 12.6555 315.625 10.4993V10.4875C315.625 8.3313 316.334 6.99536 317.547 6.99536C318.76 6.99536 319.48 8.3313 319.48 10.4875V10.4993C319.48 12.6555 318.76 14.0032 317.547 14.0032ZM325.105 14.9231C326.975 14.9231 328.1 13.218 328.1 10.4993V10.4875C328.1 7.7688 326.975 6.06958 325.105 6.06958C323.236 6.06958 322.123 7.7688 322.123 10.4875V10.4993C322.123 13.218 323.236 14.9231 325.105 14.9231ZM325.105 14.0032C323.893 14.0032 323.184 12.6555 323.184 10.4993V10.4875C323.184 8.3313 323.893 6.99536 325.105 6.99536C326.318 6.99536 327.039 8.3313 327.039 10.4875V10.4993C327.039 12.6555 326.318 14.0032 325.105 14.0032ZM331.41 10.7161C332.488 10.7161 333.145 9.83716 333.145 8.43677V8.43091C333.145 7.03052 332.488 6.15747 331.41 6.15747C330.332 6.15747 329.682 7.03052 329.682 8.43091V8.43677C329.682 9.83716 330.332 10.7161 331.41 10.7161ZM332.043 14.7239L337.797 6.2688H336.848L331.094 14.7239H332.043ZM331.41 10.0188C330.83 10.0188 330.496 9.427 330.496 8.43677V8.43091C330.496 7.44067 330.83 6.85474 331.41 6.85474C331.99 6.85474 332.33 7.44067 332.33 8.43091V8.43677C332.33 9.427 331.99 10.0188 331.41 10.0188ZM337.469 14.8352C338.547 14.8352 339.203 13.9563 339.203 12.5559V12.55C339.203 11.1497 338.547 10.2766 337.469 10.2766C336.391 10.2766 335.74 11.1497 335.74 12.55V12.5559C335.74 13.9563 336.391 14.8352 337.469 14.8352ZM337.469 14.1379C336.889 14.1379 336.555 13.5461 336.555 12.5559V12.55C336.555 11.5598 336.889 10.9739 337.469 10.9739C338.049 10.9739 338.389 11.5598 338.389 12.55V12.5559C338.389 13.5461 338.049 14.1379 337.469 14.1379Z" fill="black"/>
<path fill-rule="evenodd" clip-rule="evenodd" d="M281.269 8.11608C281.1 7.88761 281 7.6049 281 7.29883C281 6.53944 281.616 5.92383 282.375 5.92383C282.647 5.92383 282.901 6.00305 283.115 6.13972C282.344 6.62978 281.707 7.31076 281.269 8.11608ZM290.37 10.6788C290.37 13.0951 288.411 15.0538 285.995 15.0538C283.579 15.0538 281.62 13.0951 281.62 10.6788C281.62 8.26258 283.579 6.30383 285.995 6.30383C288.411 6.30383 290.37 8.26258 290.37 10.6788ZM286.38 11.2988H284.25V10.5438H285.63V7.92383H286.38V11.2988ZM289.625 5.92383C289.35 5.92383 289.095 6.00429 288.88 6.14292C289.651 6.63432 290.288 7.31688 290.725 8.12384C290.898 7.89403 291 7.60837 291 7.29883C291 6.53944 290.384 5.92383 289.625 5.92383Z" fill="black"/>
<path fill-rule="evenodd" clip-rule="evenodd" d="M300 10.4071V10.3949L297.044 7.70737L297.717 6.96743L300 9.04346V4.54346L303.994 8.17373L301.519 10.4237L303.994 12.6737L300 16.304V11.7586L297.717 13.8346L297.044 13.0946L300 10.4071ZM301 9.54346L302.507 8.17373L301 6.80401V9.54346ZM302.507 12.6737L301 14.0435V11.304L302.507 12.6737Z" fill="black"/>
<g clip-path="url(#clip1)">
<path opacity="0.25" fill-rule="evenodd" clip-rule="evenodd" d="M20.5 5.42383H21.5C22.0523 5.42383 22.5 5.87154 22.5 6.42383V14.4238C22.5 14.9761 22.0523 15.4238 21.5 15.4238H20.5C19.9477 15.4238 19.5 14.9761 19.5 14.4238V6.42383C19.5 5.87154 19.9477 5.42383 20.5 5.42383Z" fill="black"/>
<path fill-rule="evenodd" clip-rule="evenodd" d="M17 7.42383H16C15.4477 7.42383 15 7.87154 15 8.42383V14.4238C15 14.9761 15.4477 15.4238 16 15.4238H17C17.5523 15.4238 18 14.9761 18 14.4238V8.42383C18 7.87154 17.5523 7.42383 17 7.42383ZM11.5 9.42383H12.5C13.0523 9.42383 13.5 9.87154 13.5 10.4238V14.4238C13.5 14.9761 13.0523 15.4238 12.5 15.4238H11.5C10.9477 15.4238 10.5 14.9761 10.5 14.4238V10.4238C10.5 9.87154 10.9477 9.42383 11.5 9.42383ZM7 10.9238H8C8.55228 10.9238 9 11.3715 9 11.9238V14.4238C9 14.9761 8.55228 15.4238 8 15.4238H7C6.44772 15.4238 6 14.9761 6 14.4238V11.9238C6 11.3715 6.44772 10.9238 7 10.9238Z" fill="black"/>
<path d="M30.0781 14.4238H31.1328V10.7617H34.877V9.82422H31.1328V6.91797H35.2109V5.96875H30.0781V14.4238ZM37.3055 6.88867C37.6922 6.88867 38.0086 6.57227 38.0086 6.18555C38.0086 5.79883 37.6922 5.48242 37.3055 5.48242C36.9187 5.48242 36.6023 5.79883 36.6023 6.18555C36.6023 6.57227 36.9187 6.88867 37.3055 6.88867ZM36.7898 14.4238H37.8094V8.10742H36.7898V14.4238ZM42.2828 16.6504C44.0055 16.6504 45.0953 15.748 45.0953 14.3359V8.10742H44.0758V9.15039H44.0055C43.6187 8.43555 42.9273 7.99609 42.0367 7.99609C40.3844 7.99609 39.3648 9.2793 39.3648 11.0488V11.0605C39.3648 12.8301 40.3785 14.0957 42.0133 14.0957C42.8805 14.0957 43.5953 13.7031 43.9937 13.0059H44.0875V14.2832C44.0875 15.2148 43.4137 15.748 42.2828 15.748C41.3746 15.748 40.8121 15.4082 40.7008 14.9277L40.6949 14.9219H39.6402L39.6285 14.9277C39.7867 15.9648 40.7594 16.6504 42.2828 16.6504ZM42.2359 13.1934C41.0641 13.1934 40.4078 12.3145 40.4078 11.0605V11.0488C40.4078 9.79492 41.0641 8.89844 42.2359 8.89844C43.402 8.89844 44.1109 9.79492 44.1109 11.0488V11.0605C44.1109 12.3145 43.4078 13.1934 42.2359 13.1934ZM46.9438 14.4238H47.9633V10.5098C47.9633 9.61914 48.5902 8.89844 49.4164 8.89844C50.2133 8.89844 50.7289 9.38477 50.7289 10.1348V14.4238H51.7484V10.3633C51.7484 9.56055 52.3285 8.89844 53.2074 8.89844C54.098 8.89844 54.5258 9.36133 54.5258 10.293V14.4238H55.5453V10.0586C55.5453 8.73438 54.8246 7.99609 53.5355 7.99609C52.6625 7.99609 51.9418 8.43555 51.602 9.10352H51.5082C51.2152 8.44727 50.6176 7.99609 49.7621 7.99609C48.9359 7.99609 48.3383 8.38867 48.057 9.06836H47.9633V8.10742H46.9438V14.4238ZM59.0695 14.5352C59.9191 14.5352 60.5812 14.166 60.9797 13.4922H61.0734V14.4238H62.093V10.0996C62.093 8.78711 61.2316 7.99609 59.6906 7.99609C58.343 7.99609 57.382 8.66406 57.218 9.6543L57.2121 9.68945H58.2316L58.2375 9.67188C58.4016 9.17969 58.8996 8.89844 59.6555 8.89844C60.5988 8.89844 61.0734 9.32031 61.0734 10.0996V10.6738L59.2629 10.7852C57.7922 10.873 56.9602 11.5234 56.9602 12.6484V12.6602C56.9602 13.8086 57.8684 14.5352 59.0695 14.5352ZM58.0031 12.6367V12.625C58.0031 11.998 58.425 11.6582 59.3859 11.5996L61.0734 11.4941V12.0684C61.0734 12.9707 60.3176 13.6504 59.2805 13.6504C58.548 13.6504 58.0031 13.2754 58.0031 12.6367Z" fill="black"/>
<path fill-rule="evenodd" clip-rule="evenodd" d="M80.9828 7.94677C79.0717 6.3144 76.6574 5.42383 74.1327 5.42383C71.6006 5.42383 69.1795 6.31972 67.2661 7.96091L67.1036 8.10029C66.9722 8.21301 66.9647 8.41336 67.0873 8.53559L68.2142 9.6594C68.3236 9.76848 68.4985 9.77593 68.6168 9.67653L68.7564 9.55924C70.2633 8.29326 72.1552 7.60418 74.1327 7.60418C76.1035 7.60418 77.9894 8.28855 79.494 9.54666L79.6336 9.66335C79.7519 9.7623 79.9264 9.75467 80.0356 9.64578L81.1627 8.5218C81.2855 8.39941 81.2777 8.19871 81.1459 8.08611L80.9828 7.94677ZM74.1327 8.89362C75.7236 8.89362 77.251 9.42136 78.4953 10.3987L78.6711 10.5368C78.8113 10.6469 78.8236 10.8544 78.6974 10.9803L77.5667 12.1079C77.4621 12.2122 77.2966 12.2242 77.178 12.136L77.0401 12.0336C76.1997 11.409 75.1864 11.074 74.1327 11.074C73.0726 11.074 72.0533 11.4132 71.2101 12.0449L71.0721 12.1483C70.9535 12.2372 70.7874 12.2255 70.6825 12.1209L69.5522 10.9936C69.4262 10.8681 69.4382 10.6611 69.5777 10.5508L69.7526 10.4125C70.9998 9.4265 72.5342 8.89362 74.1327 8.89362ZM74.1327 12.3634C74.7722 12.3634 75.3936 12.5315 75.9411 12.8519L76.163 12.9817C76.3311 13.0801 76.3607 13.3105 76.2228 13.448L74.3287 15.3368C74.2124 15.4528 74.0238 15.4528 73.9074 15.3368L72.0255 13.4601C71.8882 13.3232 71.9169 13.094 72.0836 12.9949L72.303 12.8645C72.8555 12.5359 73.4848 12.3634 74.1327 12.3634Z" fill="black"/>
</g>
<path d="M139.761 44.9678V46.7318H146.418C146.334 47.7818 146.166 48.7688 145.893 49.6928L138.795 50.1338L139.089 52.0028L145.221 51.4358C144.066 53.7668 142.008 55.7408 138.669 57.3998L139.845 59.1008C146.775 55.6358 148.581 50.6168 148.581 44.9678H139.761ZM151.899 43.0778V62.0408H154.062V43.0778H151.899ZM163.825 45.5978C165.442 45.5978 166.576 46.4378 166.576 47.7398C166.576 49.0628 165.442 49.8818 163.825 49.8818C162.187 49.8818 161.053 49.0628 161.053 47.7398C161.053 46.4378 162.187 45.5978 163.825 45.5978ZM163.825 51.5618C166.618 51.5618 168.613 50.0288 168.613 47.7398C168.613 45.4928 166.618 43.9598 163.825 43.9598C161.011 43.9598 159.016 45.4928 159.016 47.7398C159.016 50.0288 161.011 51.5618 163.825 51.5618ZM170.02 52.2968C165.925 52.8638 161.221 52.9058 157.651 52.9058L157.924 54.6908C159.352 54.6908 160.948 54.6698 162.628 54.6068V61.4528H164.791V54.5018C166.576 54.3968 168.382 54.2078 170.146 53.8928L170.02 52.2968ZM171.343 43.0778V55.9298H167.29V57.5888H171.343V62.0408H173.527V43.0778H171.343ZM192.299 52.0238H181.316V46.5008H192.152V44.7368H179.153V53.7668H192.299V52.0238ZM177.053 57.8198V59.6048H194.252V57.8198H177.053ZM211.274 47.8448V49.6088H214.634V54.3758H216.797V43.0778H214.634V47.8448H211.274ZM212.366 52.0658C209.531 51.0788 207.914 48.7268 207.914 46.3538V46.1018H211.862V44.3588H201.719V46.1018H205.73V46.3748C205.73 48.9788 204.029 51.4988 201.089 52.5488L202.202 54.2708C204.449 53.4728 206.045 51.7928 206.885 49.7138C207.683 51.5408 209.195 53.0318 211.295 53.7668L212.366 52.0658ZM210.497 60.3818C207.788 60.3818 206.255 59.7098 206.255 58.4708C206.255 57.2318 207.788 56.5598 210.497 56.5598C213.164 56.5598 214.718 57.2318 214.718 58.4708C214.718 59.7098 213.164 60.3818 210.497 60.3818ZM210.497 54.8798C206.528 54.8798 204.092 56.2238 204.092 58.4708C204.092 60.7388 206.528 62.0618 210.497 62.0618C214.445 62.0618 216.881 60.7388 216.881 58.4708C216.881 56.2238 214.445 54.8798 210.497 54.8798ZM226.518 44.4008C223.557 44.4008 221.373 46.2698 221.373 48.9578C221.373 51.6458 223.557 53.5148 226.518 53.5148C229.479 53.5148 231.684 51.6458 231.684 48.9578C231.684 46.2698 229.479 44.4008 226.518 44.4008ZM226.518 46.2488C228.282 46.2488 229.563 47.2988 229.563 48.9578C229.563 50.5958 228.282 51.6668 226.518 51.6668C224.775 51.6668 223.494 50.5958 223.494 48.9578C223.494 47.2988 224.775 46.2488 226.518 46.2488ZM233.826 43.0568V62.0618H236.01V43.0568H233.826ZM220.764 58.0508C224.124 58.0508 228.66 58.0088 232.839 57.2108L232.692 55.6358C228.618 56.2448 223.893 56.2658 220.491 56.2658L220.764 58.0508Z" fill="#333333"/>
<path d="M116.12 228.16C116.12 225.848 117.752 224.522 120.098 224.522C122.444 224.522 124.11 225.848 124.11 228.16C124.11 230.404 122.444 231.764 120.098 231.764C117.752 231.764 116.12 230.404 116.12 228.16ZM133.154 229.554H128.224C128.326 229.112 128.36 228.636 128.36 228.16C128.36 227.616 128.292 227.14 128.19 226.664H133.154V229.554ZM133.154 233.022V235.708H137.642V220.034H133.154V223.196H126.32C124.824 221.734 122.648 220.85 120.098 220.85C115.406 220.85 111.87 223.91 111.87 228.16C111.87 232.376 115.406 235.402 120.098 235.402C122.682 235.402 124.858 234.518 126.354 233.022H133.154ZM121.458 247.506V245.534H137.642V237.034H116.97V240.468H133.188V242.304H117.038V250.974H138.526V247.506H121.458ZM159.739 227.582V231.22H164.431V238.666H168.919V220.034H164.431V227.582H159.739ZM161.609 234.314C156.849 232.75 154.673 229.078 154.537 225.508H160.623V221.904H143.793V225.508H149.947C149.811 229.418 147.533 233.396 142.569 235.13L144.847 238.666C148.485 237.442 150.967 234.892 152.327 231.73C153.687 234.484 156.033 236.694 159.433 237.816L161.609 234.314ZM158.345 247.982C154.231 247.982 152.089 247.132 152.089 245.364C152.089 243.596 154.231 242.746 158.345 242.746C162.425 242.746 164.567 243.596 164.567 245.364C164.567 247.132 162.425 247.982 158.345 247.982ZM158.345 239.346C151.681 239.346 147.601 241.556 147.601 245.364C147.601 249.172 151.681 251.382 158.345 251.382C164.975 251.382 169.055 249.172 169.055 245.364C169.055 241.556 164.975 239.346 158.345 239.346Z" fill="#333333"/>
<path d="M133.154 333.154H137.642V310.034H133.154V316.698H127.408V320.336H133.154V333.154ZM130.162 325.13C125.266 323.396 123.158 319.418 123.158 315.338V311.938H118.602V315.304C118.602 319.758 116.426 324.11 111.258 325.844L113.604 329.346C117.242 328.02 119.656 325.47 120.982 322.24C122.274 325.13 124.518 327.408 127.782 328.598L130.162 325.13ZM121.458 337.234V330.842H116.97V340.804H138.322V337.234H121.458ZM161.201 313.332H154.197V310H149.675V313.332H142.739V316.834H161.167L161.201 313.332ZM148.553 323.974C148.553 322.274 149.947 321.356 151.953 321.356C153.925 321.356 155.353 322.274 155.353 323.974C155.353 325.708 153.925 326.626 151.953 326.626C149.947 326.626 148.553 325.708 148.553 323.974ZM159.637 323.974C159.637 320.438 156.441 317.956 151.953 317.956C147.465 317.956 144.269 320.438 144.269 323.974C144.269 327.578 147.465 330.026 151.953 330.026C156.441 330.026 159.637 327.578 159.637 323.974ZM151.681 331.726H147.193V340.804H168.511V337.234H151.681V331.726ZM167.389 319.588V310.034H162.901V333.46H167.389V323.294H171.537V319.588H167.389ZM178.675 319.384C178.675 316.936 180.341 315.508 182.653 315.508C184.965 315.508 186.665 316.936 186.665 319.384C186.665 321.798 184.965 323.26 182.653 323.26C180.341 323.26 178.675 321.798 178.675 319.384ZM195.709 317.684V321.084H190.711C190.847 320.506 190.915 319.962 190.915 319.384C190.915 318.772 190.847 318.228 190.745 317.684H195.709ZM195.709 324.654V328.394H200.197V310.034H195.709V314.114H188.807C187.311 312.618 185.169 311.7 182.653 311.7C178.029 311.7 174.425 314.93 174.425 319.384C174.425 323.804 178.029 327.034 182.653 327.034C185.101 327.034 187.243 326.15 188.739 324.654H195.709ZM189.589 337.914C185.475 337.914 183.299 337.03 183.299 335.194C183.299 333.358 185.475 332.474 189.589 332.474C193.703 332.474 195.913 333.358 195.913 335.194C195.913 337.03 193.703 337.914 189.589 337.914ZM189.589 329.006C182.993 329.006 178.879 331.284 178.879 335.194C178.879 339.07 182.993 341.348 189.589 341.348C196.219 341.348 200.333 339.07 200.333 335.194C200.333 331.284 196.219 329.006 189.589 329.006ZM223.722 313.026H216.752V309.83H212.23V313.026H205.294V316.528H223.722V313.026ZM211.108 323.158C211.108 321.628 212.502 320.812 214.508 320.812C216.514 320.812 217.908 321.628 217.908 323.158C217.908 324.688 216.514 325.504 214.508 325.504C212.502 325.504 211.108 324.688 211.108 323.158ZM222.192 323.158C222.192 319.826 219.03 317.548 214.508 317.548C209.986 317.548 206.824 319.826 206.824 323.158C206.824 326.49 209.986 328.734 214.508 328.734C219.03 328.734 222.192 326.49 222.192 323.158ZM219.744 338.016C215.8 338.016 213.692 337.302 213.692 335.806C213.692 334.276 215.8 333.596 219.744 333.596C223.688 333.596 225.796 334.276 225.796 335.806C225.796 337.302 223.688 338.016 219.744 338.016ZM219.744 330.23C213.284 330.23 209.238 332.304 209.238 335.806C209.238 339.274 213.284 341.348 219.744 341.348C226.204 341.348 230.25 339.274 230.25 335.806C230.25 332.304 226.204 330.23 219.744 330.23ZM233.956 318.194V314.522H229.944V310.068H225.456V329.89H229.944V324.994H233.956V321.356H229.944V318.194H233.956ZM252.551 324.212C249.457 324.79 246.703 324.926 242.215 324.96V321.696H251.429V311.802H237.727V315.406H247.009V318.364H237.761V328.564H240.175C246.125 328.564 249.355 328.462 252.993 327.782L252.551 324.212ZM241.331 334.31H258.263V341.382H262.751V330.74H241.331V334.31ZM258.263 310.068V314.352H253.231V317.956H258.263V321.05H253.231V324.62H258.263V329.346H262.751V310.034L258.263 310.068Z" fill="#333333"/>
<path d="M119.86 420.502C117.514 420.502 115.95 418.02 115.95 413.362C115.95 408.738 117.514 406.256 119.86 406.256C122.172 406.256 123.77 408.738 123.77 413.362C123.77 418.02 122.172 420.502 119.86 420.502ZM119.86 402.21C115.1 402.21 111.632 406.494 111.632 413.362C111.632 420.264 115.1 424.582 119.86 424.582C124.586 424.582 128.088 420.264 128.088 413.362C128.088 406.494 124.586 402.21 119.86 402.21ZM140.532 411.832H135.976V400.034H131.488V431.348H135.976V415.538H140.532V411.832ZM156.883 403.74C161.201 403.74 163.615 404.556 163.615 406.29C163.615 407.956 161.201 408.806 156.883 408.806C152.599 408.806 150.185 407.956 150.185 406.29C150.185 404.556 152.599 403.74 156.883 403.74ZM156.883 412.172C163.819 412.172 168.239 409.996 168.239 406.29C168.239 402.584 163.819 400.34 156.883 400.34C149.947 400.34 145.561 402.584 145.561 406.29C145.561 409.996 149.947 412.172 156.883 412.172ZM159.127 421.556H154.503V422.134C154.503 424.548 151.375 427.302 144.541 427.88L146.003 431.246C151.239 430.804 154.911 429.002 156.781 426.554C158.685 429.002 162.391 430.77 167.661 431.246L169.089 427.88C162.153 427.302 159.127 424.684 159.127 422.134V421.556ZM142.739 413.804V417.374H154.571V420.332H159.059V417.374H171.061V413.804H142.739ZM191.357 408.908H184.931V404.318H191.357V408.908ZM180.477 408.908H176.703V412.478H199.551V408.908H195.811V404.318H199.789V400.782H176.499V404.318H180.477V408.908ZM190.405 422.032H185.781V422.576C185.781 424.854 182.653 427.438 175.853 427.948L177.213 431.246C182.483 430.804 186.155 429.104 188.059 426.758C189.929 429.172 193.635 430.77 198.939 431.246L200.333 427.948C193.431 427.438 190.405 424.99 190.405 422.576V422.032ZM174.017 414.484V418.054H185.849V420.944H190.337V418.054H202.339V414.484H174.017Z" fill="#333333"/>
<path d="M133.154 498.568V501.458H126.252V505.062H133.154V508.054H137.642V490.034H133.154V494.998H127.544C127.68 494.08 127.748 493.128 127.748 492.142H113.4V495.746H122.852C122.274 499.996 118.84 503.362 111.7 505.266L113.434 508.802C120.336 506.864 124.722 503.498 126.66 498.568H133.154ZM127.306 517.71C123.43 517.71 121.152 516.724 121.152 514.82C121.152 512.916 123.43 511.93 127.306 511.93C131.148 511.93 133.426 512.916 133.426 514.82C133.426 516.724 131.148 517.71 127.306 517.71ZM127.306 508.462C120.914 508.462 116.732 510.91 116.732 514.82C116.732 518.73 120.914 521.178 127.306 521.178C133.664 521.178 137.846 518.73 137.846 514.82C137.846 510.91 133.664 508.462 127.306 508.462ZM159.569 498.398V502.002H164.431V508.938H168.919V490.034H164.431V498.398H159.569ZM161.541 504.518C156.543 503.192 154.299 500.03 154.231 496.8H160.419V493.264H154.231V489.932H149.743V493.264H143.623V496.8H149.743C149.675 500.302 147.499 503.838 142.535 505.266L144.643 508.734C148.281 507.68 150.729 505.47 152.123 502.614C153.551 505.096 155.999 507.034 159.501 507.952L161.541 504.518ZM158.345 517.914C154.197 517.914 152.089 517.132 152.089 515.432C152.089 513.732 154.197 512.916 158.345 512.916C162.425 512.916 164.567 513.732 164.567 515.432C164.567 517.132 162.425 517.914 158.345 517.914ZM158.345 509.482C151.681 509.482 147.601 511.658 147.601 515.432C147.601 519.172 151.681 521.348 158.345 521.348C164.975 521.348 169.055 519.172 169.055 515.432C169.055 511.658 164.975 509.482 158.345 509.482Z" fill="#333333"/>
<rect x="102" y="256.424" width="280" height="3" rx="1.5" fill="#F2F2F2"/>
<rect x="102" y="346.424" width="280" height="3" rx="1.5" fill="#F2F2F2"/>
<rect x="102" y="436.424" width="280" height="3" rx="1.5" fill="#F2F2F2"/>
<rect x="102" y="526.424" width="280" height="3" rx="1.5" fill="#F2F2F2"/>
<path d="M31.475 115.774H26.475V113.474H22.425V115.774H17.425V118.899H31.475V115.774ZM24.475 122.599C25.725 122.599 26.575 123.049 26.575 124.024C26.575 125.024 25.725 125.474 24.475 125.474C23.2 125.474 22.35 125.024 22.35 124.024C22.35 123.049 23.2 122.599 24.475 122.599ZM26.45 128.249C28.85 127.699 30.425 126.099 30.425 124.024C30.425 121.399 27.95 119.574 24.475 119.574C20.975 119.574 18.5 121.399 18.5 124.024C18.5 126.099 20.05 127.674 22.425 128.249V129.924C20.5 129.974 18.625 129.974 16.975 129.974L17.45 133.199C21.525 133.199 26.85 133.174 31.925 132.199L31.625 129.324C29.95 129.524 28.2 129.674 26.45 129.774V128.249ZM32.675 113.349V136.774H36.725V113.349H32.675ZM58.398 128.774C59.373 123.624 59.373 120.249 59.373 117.324V115.124H42.023V118.299H55.323C55.323 120.924 55.223 124.099 54.373 128.349L58.398 128.774ZM51.048 130.974V123.074H46.998V130.974H39.898V134.199H61.148V130.974H51.048ZM70.084 115.474V118.649H77.384C77.309 119.549 77.159 120.424 76.959 121.224L68.859 121.649L69.334 124.999L75.684 124.424C74.334 126.724 72.134 128.624 68.584 130.399L70.684 133.549C79.684 129.049 81.409 122.924 81.409 115.474H70.084ZM84.259 113.324V136.749H88.309V113.324H84.259ZM99.057 117.224C100.407 117.224 101.307 117.849 101.307 119.099C101.307 120.374 100.407 120.974 99.057 120.974C97.732 120.974 96.832 120.374 96.832 119.099C96.832 117.849 97.732 117.224 99.057 117.224ZM99.057 124.024C102.532 124.024 105.082 121.974 105.082 119.099C105.082 116.249 102.532 114.199 99.057 114.199C95.607 114.199 93.057 116.249 93.057 119.099C93.057 121.974 95.607 124.024 99.057 124.024ZM106.432 124.324C101.507 124.974 95.832 124.999 91.507 124.999L91.982 128.224C93.507 128.224 95.132 128.224 96.882 128.149V136.124H100.932V127.974C102.807 127.799 104.757 127.574 106.657 127.224L106.432 124.324ZM107.757 113.324V128.974H103.407V131.999H107.757V136.774H111.807V113.324H107.757ZM133.68 123.924H120.98V118.349H133.53V115.124H116.955V127.099H133.68V123.924ZM114.605 130.899V134.149H135.855V130.899H114.605ZM142.853 128.424C141.878 128.424 141.378 126.999 141.378 123.524C141.378 120.049 141.878 118.624 142.853 118.624C143.853 118.624 144.353 120.049 144.353 123.524C144.353 126.999 143.853 128.424 142.853 128.424ZM149.178 121.699H147.928C147.503 117.349 145.628 114.799 142.853 114.799C139.728 114.799 137.728 118.049 137.728 123.524C137.728 128.999 139.728 132.249 142.853 132.249C145.728 132.249 147.628 129.524 147.953 124.924H149.178V135.799H152.928V113.624H149.178V121.699ZM154.028 113.299V136.749H157.853V113.299H154.028ZM170.839 119.199H175.489V115.974H166.864V131.749H168.564C171.289 131.749 173.814 131.674 176.714 131.174L176.414 127.924C174.439 128.249 172.614 128.399 170.839 128.449V119.199ZM182.739 113.324V122.174H181.264V113.699H177.514V135.724H181.264V125.374H182.739V136.749H186.564V113.324H182.739ZM203.062 115.574H198.187V113.299H194.137V115.574H189.262V118.699H203.062V115.574ZM194.187 123.899C194.187 122.849 195.012 122.349 196.162 122.349C197.312 122.349 198.137 122.849 198.137 123.899C198.137 124.974 197.312 125.474 196.162 125.474C195.012 125.474 194.187 124.974 194.187 123.899ZM202.012 123.899C202.012 121.224 199.562 119.299 196.162 119.299C192.762 119.299 190.312 121.224 190.312 123.899C190.312 126.624 192.762 128.524 196.162 128.524C199.562 128.524 202.012 126.624 202.012 123.899ZM196.537 129.599H192.487V136.449H208.612V133.274H196.537V129.599ZM207.912 120.199V113.324H203.862V130.874H207.912V123.499H210.837V120.199H207.912ZM21.5 151.524H17.475V167.149H19.575C22.975 167.149 26.825 166.949 30.675 166.149L30.25 162.874C27.225 163.449 24.25 163.724 21.5 163.799V151.524ZM38.475 157.924H35.45V149.299H31.4V172.724H35.45V161.224H38.475V157.924ZM47.823 159.599H44.373V154.299H47.823V159.599ZM51.798 151.149H40.398V162.749H51.798V151.149ZM47.123 164.699H43.073V172.449H59.198V169.274H47.123V164.699ZM58.498 155.899V149.324H54.448V166.399H58.498V159.174H61.423V155.899H58.498ZM70.3711 150.824C66.6961 150.824 63.8211 153.324 63.8211 156.724C63.8211 160.149 66.6961 162.649 70.3711 162.649C74.0711 162.649 76.9461 160.149 76.9461 156.724C76.9461 153.324 74.0711 150.824 70.3711 150.824ZM70.3711 154.249C71.8461 154.249 72.9961 155.074 72.9961 156.724C72.9961 158.399 71.8461 159.224 70.3711 159.224C68.9211 159.224 67.7711 158.399 67.7711 156.724C67.7711 155.074 68.9211 154.249 70.3711 154.249ZM78.6711 149.299V172.849H82.7211V149.299H78.6711ZM63.4211 168.299C67.4211 168.299 72.7961 168.224 77.7961 167.224L77.5211 164.349C72.6461 165.024 67.0211 165.074 62.9711 165.074L63.4211 168.299ZM104.407 154.774V157.999H107.357V163.249H111.407V149.349H107.357V154.774H104.407ZM105.907 159.649C102.457 158.524 101.107 156.124 100.857 153.774H105.032V150.599H92.382V153.774H96.632C96.382 156.349 94.982 158.949 91.332 160.174L93.382 163.374C96.057 162.524 97.807 160.774 98.807 158.599C99.832 160.474 101.457 161.999 103.932 162.799L105.907 159.649ZM103.332 169.824C100.557 169.824 99.232 169.374 99.232 168.274C99.232 167.149 100.557 166.699 103.332 166.699C106.132 166.699 107.457 167.149 107.457 168.274C107.457 169.374 106.132 169.824 103.332 169.824ZM103.332 163.649C98.332 163.649 95.182 165.374 95.182 168.274C95.182 171.174 98.332 172.874 103.332 172.874C108.357 172.874 111.507 171.174 111.507 168.274C111.507 165.374 108.357 163.649 103.332 163.649ZM122.08 150.824C118.405 150.824 115.53 153.324 115.53 156.724C115.53 160.149 118.405 162.649 122.08 162.649C125.78 162.649 128.655 160.149 128.655 156.724C128.655 153.324 125.78 150.824 122.08 150.824ZM122.08 154.249C123.555 154.249 124.705 155.074 124.705 156.724C124.705 158.399 123.555 159.224 122.08 159.224C120.63 159.224 119.48 158.399 119.48 156.724C119.48 155.074 120.63 154.249 122.08 154.249ZM130.38 149.299V172.849H134.43V149.299H130.38ZM115.13 168.299C119.13 168.299 124.505 168.224 129.505 167.224L129.23 164.349C124.355 165.024 118.73 165.074 114.68 165.074L115.13 168.299ZM152.328 152.999H140.153V158.924H156.753V156.249H144.153V155.474H156.328V149.574H140.153V152.249H152.328V152.999ZM143.928 169.199H156.378V163.324H139.903V165.999H152.378V166.724H139.928V172.674H156.978V169.999H143.928V169.199ZM137.603 159.649V162.524H158.828V159.649H137.603ZM180.539 159.649C176.964 158.524 175.589 156.099 175.364 153.749H179.589V150.574H166.839V153.749H171.164C170.914 156.274 169.514 158.849 165.789 160.024L167.889 163.174C170.539 162.324 172.264 160.674 173.289 158.599C174.339 160.474 176.014 161.999 178.489 162.774L180.539 159.649ZM169.014 167.574H180.864V172.824H184.914V164.399H169.014V167.574ZM187.839 154.724H184.914V149.349H180.864V163.499H184.914V157.999H187.839V154.724ZM205.062 162.999H209.112V149.349H205.062V153.249H201.237V156.474H205.062V162.999ZM203.587 159.299C199.712 158.099 198.612 155.249 198.612 152.249V150.499H194.487V152.449C194.487 155.449 193.212 158.624 188.987 159.924L191.087 163.149C193.812 162.274 195.587 160.574 196.612 158.374C197.587 160.249 199.162 161.674 201.537 162.449L203.587 159.299ZM201.062 169.749C198.262 169.749 196.937 169.299 196.937 168.174C196.937 167.074 198.262 166.624 201.062 166.624C203.837 166.624 205.162 167.074 205.162 168.174C205.162 169.299 203.837 169.749 201.062 169.749ZM201.062 163.549C196.037 163.549 192.887 165.249 192.887 168.174C192.887 171.124 196.037 172.824 201.062 172.824C206.062 172.824 209.212 171.124 209.212 168.174C209.212 165.249 206.062 163.549 201.062 163.549ZM217.835 164.624C216.86 164.624 216.185 163.874 216.185 162.249C216.185 160.649 216.86 159.874 217.835 159.874C218.81 159.874 219.485 160.649 219.485 162.249C219.485 163.874 218.81 164.624 217.835 164.624ZM217.835 156.549C214.81 156.549 212.635 158.899 212.635 162.249C212.635 165.599 214.81 167.949 217.835 167.949C220.86 167.949 223.035 165.599 223.035 162.249C223.035 158.899 220.86 156.549 217.835 156.549ZM219.835 149.924H215.86V152.599H212.285V155.774H223.285V152.599H219.835V149.924ZM228.785 149.324V158.674H227.66V149.699H223.91V171.874H227.66V161.899H228.785V172.749H232.61V149.324H228.785ZM241.408 157.149H250.358V159.874H241.408V157.149ZM247.933 166.974V163.049H254.358V150.724H250.358V154.024H241.408V150.724H237.408V163.049H243.883V166.974H235.308V170.199H256.533V166.974H247.933ZM266.081 151.299H262.156V154.949C262.156 158.899 261.331 163.099 257.756 165.299L260.156 168.324C262.081 167.124 263.331 165.224 264.106 162.924C264.831 164.974 265.956 166.699 267.756 167.799L269.906 164.649C266.656 162.449 266.081 158.599 266.081 154.749V151.299ZM269.956 156.974H267.531V160.199H269.956V171.824H273.706V149.649H269.956V156.974ZM274.731 149.324V172.774H278.556V149.324H274.731ZM289.704 162.999C290.404 163.124 291.154 163.174 291.904 163.174C292.654 163.174 293.404 163.124 294.104 162.999V166.974H289.704V162.999ZM291.904 153.424C294.904 153.424 296.804 154.574 296.804 156.749C296.804 158.899 294.904 160.074 291.904 160.074C288.904 160.074 287.004 158.899 287.004 156.749C287.004 154.574 288.904 153.424 291.904 153.424ZM298.129 166.974V161.524C299.804 160.399 300.804 158.749 300.804 156.749C300.804 152.824 297.004 150.299 291.904 150.299C286.804 150.299 283.004 152.824 283.004 156.749C283.004 158.749 284.004 160.399 285.679 161.524V166.974H281.304V170.199H302.529V166.974H298.129ZM306.927 163.674H309.802L310.452 155.224L310.602 151.249H306.127L306.277 155.224L306.927 163.674ZM308.352 170.774C309.902 170.774 311.002 169.549 311.002 167.999C311.002 166.449 309.902 165.249 308.352 165.249C306.827 165.249 305.727 166.449 305.727 167.999C305.727 169.549 306.827 170.774 308.352 170.774Z" fill="#333333"/>
<rect x="16" y="591.424" width="343" height="60" rx="15" fill="#FF7556"/>
<path d="M146.451 618.642V620.154H149.331V624.24H151.185V614.556H149.331V618.642H146.451ZM147.387 622.26C144.957 621.414 143.571 619.398 143.571 617.364V617.148H146.955V615.654H138.261V617.148H141.699V617.382C141.699 619.614 140.241 621.774 137.721 622.674L138.675 624.15C140.601 623.466 141.969 622.026 142.689 620.244C143.373 621.81 144.669 623.088 146.469 623.718L147.387 622.26ZM145.785 629.388C143.463 629.388 142.149 628.812 142.149 627.75C142.149 626.688 143.463 626.112 145.785 626.112C148.071 626.112 149.403 626.688 149.403 627.75C149.403 628.812 148.071 629.388 145.785 629.388ZM145.785 624.672C142.383 624.672 140.295 625.824 140.295 627.75C140.295 629.694 142.383 630.828 145.785 630.828C149.169 630.828 151.257 629.694 151.257 627.75C151.257 625.824 149.169 624.672 145.785 624.672ZM159.517 615.69C156.979 615.69 155.107 617.292 155.107 619.596C155.107 621.9 156.979 623.502 159.517 623.502C162.055 623.502 163.945 621.9 163.945 619.596C163.945 617.292 162.055 615.69 159.517 615.69ZM159.517 617.274C161.029 617.274 162.127 618.174 162.127 619.596C162.127 621 161.029 621.918 159.517 621.918C158.023 621.918 156.925 621 156.925 619.596C156.925 618.174 158.023 617.274 159.517 617.274ZM165.781 614.538V630.828H167.653V614.538H165.781ZM154.585 627.39C157.465 627.39 161.353 627.354 164.935 626.67L164.809 625.32C161.317 625.842 157.267 625.86 154.351 625.86L154.585 627.39ZM184.439 622.278C181.955 621.45 180.587 619.452 180.587 617.4V617.112H183.989V615.6H175.259V617.112H178.715V617.4C178.715 619.632 177.293 621.702 174.719 622.566L175.691 624.024C177.599 623.358 178.949 622.026 179.669 620.316C180.371 621.864 181.667 623.106 183.485 623.7L184.439 622.278ZM176.879 626.634H185.717V630.81H187.571V625.14H176.879V626.634ZM189.875 618.696H187.571V614.538H185.717V624.348H187.571V620.226H189.875V618.696ZM203.049 624.132H204.903V614.538H203.049V617.796H199.755V619.308H203.049V624.132ZM201.087 622.026C198.621 621.216 197.271 619.182 197.271 616.932V615.42H195.399V617.022C195.399 619.398 193.977 621.594 191.367 622.476L192.339 623.97C194.301 623.268 195.669 621.846 196.389 620.046C197.091 621.63 198.351 622.854 200.097 623.484L201.087 622.026ZM199.485 629.352C197.181 629.352 195.867 628.758 195.867 627.696C195.867 626.634 197.181 626.04 199.485 626.04C201.789 626.04 203.121 626.634 203.121 627.696C203.121 628.758 201.789 629.352 199.485 629.352ZM199.485 624.582C196.101 624.582 194.013 625.734 194.013 627.696C194.013 629.658 196.101 630.81 199.485 630.81C202.887 630.81 204.975 629.658 204.975 627.696C204.975 625.734 202.887 624.582 199.485 624.582ZM210.572 618.498C210.572 617.382 211.526 616.662 212.876 616.662C214.244 616.662 215.162 617.382 215.162 618.498C215.162 619.632 214.244 620.352 212.876 620.352C211.526 620.352 210.572 619.632 210.572 618.498ZM217.916 622.692C216.62 622.89 215.216 622.998 213.83 623.088V621.684C215.666 621.378 216.89 620.154 216.89 618.498C216.89 616.572 215.234 615.258 212.876 615.258C210.518 615.258 208.844 616.572 208.844 618.498C208.844 620.172 210.104 621.396 211.976 621.684V623.16C210.518 623.214 209.132 623.214 207.962 623.214L208.196 624.726C210.914 624.726 214.694 624.672 218.042 624.042L217.916 622.692ZM212.066 625.932H210.212V630.486H221.282V628.992H212.066V625.932ZM220.724 619.884V614.574H218.87V626.994H220.724V621.414H222.956V619.884H220.724ZM230.335 624.564H233.665V627.372H230.335V624.564ZM235.501 627.372V624.564H237.895V623.07H228.157V620.82H237.535V615.69H226.303V617.184H235.699V619.344H226.339V624.564H228.499V627.372H224.557V628.902H239.281V627.372H235.501Z" fill="white"/>
<path d="M2.5 210.324H0V218.524H1.6C4.7 218.524 7.3 221.124 7.3 224.324V242.624C7.3 245.824 4.8 248.424 1.6 248.424H0V256.624H2.5C9.4 256.624 15.1 251.024 15.1 244.024V222.924C15.1 215.924 9.4 210.324 2.5 210.324Z" fill="#FEC7BA"/>
<path d="M37.3 210.624H31.8C31 210.624 30.3 211.024 29.8 211.724L27.5 215.424C26.5 216.924 27.6 219.024 29.5 219.024C30.8 219.024 31.8 220.024 31.8 221.324V252.624V252.724C31.8 254.924 33.6 256.624 35.7 256.624C37.9 256.624 39.6 254.924 39.6 252.724V212.924C39.6 211.624 38.6 210.624 37.3 210.624Z" fill="#FEC7BA"/>
<path d="M2.59961 390.424H0.0996094V398.624H1.69961C4.79961 398.624 7.39961 401.224 7.39961 404.424V422.724C7.39961 425.924 4.89961 428.524 1.69961 428.524H0.0996094V436.724H2.59961C9.49961 436.724 15.1996 431.124 15.1996 424.124V403.024C15.1996 396.024 9.49961 390.424 2.59961 390.424Z" fill="#FEC7BA"/>
<path d="M18.7992 428.124C18.7992 428.024 18.7992 427.924 18.6992 427.824C18.7992 427.924 18.7992 428.024 18.7992 428.124Z" fill="#FEC7BA"/>
<path d="M19.0996 397.824C19.0996 397.724 19.1996 397.724 19.1996 397.624C19.0996 397.724 19.0996 397.724 19.0996 397.824Z" fill="#FEC7BA"/>
<path d="M48.8994 416.624C48.2994 415.024 47.3994 413.724 46.1994 412.524L45.7994 412.124L46.1994 411.624C49.9994 408.124 50.6994 403.324 49.1994 398.624C48.4994 396.524 47.0994 394.624 45.3994 393.124C43.7994 391.724 41.6994 390.824 39.6994 390.324C38.5994 390.124 37.4994 390.024 36.3994 389.924C36.2994 389.924 35.8994 389.824 32.4994 389.824C26.9994 389.824 21.2994 392.524 19.2994 397.524C19.2994 397.624 19.1994 397.624 19.1994 397.724C18.9994 398.124 18.8994 398.624 18.8994 399.124C18.8994 401.224 20.5994 403.024 22.7994 403.024C22.9994 403.024 23.1994 403.024 23.2994 402.924C24.5994 402.724 25.4994 401.924 26.1994 400.924C26.2994 400.824 26.3994 400.624 26.4994 400.524C28.9994 396.624 37.0994 396.824 39.5994 399.024C42.1994 401.324 41.7994 405.024 39.5994 406.824C38.7994 407.424 37.6994 407.824 36.4994 408.024C35.5994 408.224 34.5994 408.324 33.3994 408.424C31.4994 408.424 29.8994 410.024 29.8994 411.924C29.8994 413.824 31.4994 415.424 33.3994 415.424C34.5994 415.424 35.5994 415.624 36.4994 415.824C39.1994 416.324 40.8994 417.724 41.4994 420.124C42.1994 422.824 41.6994 425.924 39.6994 427.424C38.0994 428.624 36.0994 428.924 34.1994 429.024C31.5994 429.224 27.8994 428.624 26.4994 426.124C25.9994 424.524 24.5994 423.324 22.7994 423.324C22.3994 423.324 21.9994 423.424 21.5994 423.524C20.0994 424.024 18.8994 425.424 18.8994 427.224C18.8994 427.424 18.8994 427.724 18.9994 427.924C18.9994 428.024 18.9994 428.124 19.0994 428.224C20.4994 433.224 25.0994 437.024 30.4994 437.024C34.8994 437.024 38.7994 437.424 42.9994 435.524C45.7994 434.224 47.9994 431.824 49.1994 428.924C50.4994 424.824 50.4994 420.724 48.8994 416.624Z" fill="#FEC7BA"/>
<path d="M15.1 514.424V493.424C15.1 486.424 9.4 480.824 2.5 480.824H0V489.024H1.6C4.7 489.024 7.3 491.624 7.3 494.824V513.124C7.3 516.324 4.8 518.924 1.6 518.924H0V527.124H2.5C9.4 527.024 15.1 521.424 15.1 514.424Z" fill="#F2F2F2"/>
<path d="M42.4998 527.024H43.3998C45.2998 527.024 46.8998 525.424 46.8998 523.524V519.024C46.8998 518.424 47.3998 517.924 47.9998 517.924H50.3998C52.2998 517.924 53.8998 516.324 53.8998 514.424C53.8998 512.524 52.2998 510.924 50.3998 510.924H47.9998C47.3998 510.924 46.8998 510.424 46.8998 509.824V487.824C46.8998 484.124 43.8998 481.024 40.0998 481.024H37.2998C34.6998 481.024 32.3998 482.424 31.1998 484.724L18.8998 509.624C18.4998 510.424 18.2998 511.324 18.2998 512.224C18.2998 515.424 20.8998 518.024 24.0998 518.024H37.8998C38.4998 518.024 38.9998 518.524 38.9998 519.124V523.524C38.9998 525.424 40.5998 527.024 42.4998 527.024ZM27.7998 509.224L36.8998 491.424C37.3998 490.424 38.9998 490.724 38.9998 491.924V509.624C38.9998 510.224 38.4998 510.724 37.8998 510.724H28.7998C27.8998 510.824 27.3998 509.924 27.7998 509.224Z" fill="#F2F2F2"/>
<path d="M2.5 300.524H0V308.724H1.6C4.7 308.724 7.3 311.324 7.3 314.524V332.824C7.3 336.024 4.8 338.624 1.6 338.624H0V346.824H2.5C9.4 346.824 15.1 341.224 15.1 334.224V313.124C15.1 306.124 9.4 300.524 2.5 300.524Z" fill="#F2F2F2"/>
<path d="M26.3998 311.724C26.2998 311.924 26.2998 312.024 26.2998 312.224C26.2998 312.124 26.2998 311.924 26.3998 311.724Z" fill="white"/>
<path d="M43.5998 325.824C47.9998 321.624 48.6998 318.524 48.6998 313.024V312.024C48.6998 305.424 43.2998 300.024 36.6998 300.024H30.7998C24.7998 300.024 19.7998 304.524 18.8998 310.224C18.8998 310.324 18.8998 310.424 18.8998 310.524C18.8998 310.724 18.7998 310.924 18.7998 311.124C18.7998 313.224 20.4998 314.924 22.5998 314.924C24.2998 314.924 25.6998 313.824 26.1998 312.224C26.1998 312.024 26.2998 311.824 26.2998 311.724C26.9998 309.524 29.0998 307.824 31.4998 307.824H35.2998C38.2998 307.824 40.7998 310.324 40.7998 313.424C40.7998 317.424 39.5998 318.724 36.6998 321.524C32.0998 325.824 26.9998 330.424 21.5998 334.524C19.9998 335.724 19.0998 337.724 19.0998 339.724V339.824C19.0998 343.624 22.1998 346.724 25.9998 346.724C31.7998 346.724 39.8998 346.724 44.3998 346.724C46.2998 346.724 47.7998 345.224 47.7998 343.324C47.7998 341.424 46.2998 339.924 44.3998 339.924H28.9998C28.2998 339.924 28.0998 339.124 28.5998 338.724C33.6998 334.824 38.8998 330.224 43.5998 325.824Z" fill="#F2F2F2"/>
</g>
<g clip-path="url(#clip2)">
<rect width="375" height="667" transform="translate(407)" fill="white"/>
<g filter="url(#filter1_d)">
<rect x="407" y="20" width="375" height="60" fill="white"/>
</g>
<path d="M444 50H426" stroke="#333333" stroke-linecap="round"/>
<path d="M432 44L426 50L432 56" stroke="#333333" stroke-linecap="round"/>
<path d="M575.279 5.33398C573.445 5.33398 572.139 6.58789 572.139 8.30469V8.31641C572.139 9.92188 573.275 11.1055 574.898 11.1055C576.059 11.1055 576.797 10.5137 577.107 9.8457H577.225C577.225 9.91016 577.219 9.97461 577.219 10.0391C577.154 11.6562 576.586 12.9688 575.244 12.9688C574.5 12.9688 573.979 12.582 573.756 11.9902L573.738 11.9316H572.25L572.262 11.9961C572.531 13.291 573.691 14.2109 575.244 14.2109C577.371 14.2109 578.654 12.5234 578.654 9.67578V9.66406C578.654 6.61719 577.084 5.33398 575.279 5.33398ZM575.273 9.94531C574.312 9.94531 573.615 9.24219 573.615 8.26367V8.25195C573.615 7.30859 574.359 6.56445 575.291 6.56445C576.229 6.56445 576.961 7.32031 576.961 8.28711V8.29883C576.961 9.25391 576.229 9.94531 575.273 9.94531ZM581.314 8.52148C581.854 8.52148 582.246 8.11133 582.246 7.5957C582.246 7.07422 581.854 6.66992 581.314 6.66992C580.781 6.66992 580.383 7.07422 580.383 7.5957C580.383 8.11133 580.781 8.52148 581.314 8.52148ZM581.314 12.8691C581.854 12.8691 582.246 12.4648 582.246 11.9434C582.246 11.4219 581.854 11.0176 581.314 11.0176C580.781 11.0176 580.383 11.4219 580.383 11.9434C580.383 12.4648 580.781 12.8691 581.314 12.8691ZM588.076 14H589.523V12.377H590.66V11.1289H589.523V5.54492H587.385C586.236 7.29102 585.035 9.23633 583.939 11.1406V12.377H588.076V14ZM585.346 11.1641V11.0762C586.166 9.64062 587.145 8.07617 588.012 6.75195H588.1V11.1641H585.346ZM594.164 14H595.676V5.54492H594.17L591.961 7.09766V8.52148L594.064 7.0332H594.164V14ZM600.756 14H602.338L603.041 11.8145H606.17L606.879 14H608.461L605.461 5.54492H603.756L600.756 14ZM604.559 7.11523H604.658L605.795 10.6484H603.422L604.559 7.11523ZM609.914 14H611.279V7.98828H611.379L613.723 14H614.754L617.098 7.98828H617.203V14H618.562V5.54492H616.828L614.291 12.0488H614.191L611.648 5.54492H609.914V14Z" fill="black"/>
<path opacity="0.35" fill-rule="evenodd" clip-rule="evenodd" d="M753.5 4.5H772.5C773.881 4.5 775 5.61929 775 7V13.5C775 14.8807 773.881 16 772.5 16H753.5C752.119 16 751 14.8807 751 13.5V7C751 5.61929 752.119 4.5 753.5 4.5ZM753.5 5.5C752.672 5.5 752 6.17157 752 7V13.5C752 14.3284 752.672 15 753.5 15H772.5C773.328 15 774 14.3284 774 13.5V7C774 6.17157 773.328 5.5 772.5 5.5H753.5Z" fill="black"/>
<path opacity="0.4" fill-rule="evenodd" clip-rule="evenodd" d="M776 7.7998C776.89 8.25498 777.5 9.18128 777.5 10.2499C777.5 11.3186 776.89 12.2449 776 12.7001V7.7998Z" fill="black"/>
<path fill-rule="evenodd" clip-rule="evenodd" d="M754 6.5H772C772.552 6.5 773 6.94772 773 7.5V13C773 13.5523 772.552 14 772 14H754C753.448 14 753 13.5523 753 13V7.5C753 6.94772 753.448 6.5 754 6.5Z" fill="black"/>
<path d="M719.219 14.3H720.273V5.84497H719.225L716.975 7.46216V8.57544L719.125 7.01685H719.219V14.3ZM725.547 14.4993C727.416 14.4993 728.541 12.7942 728.541 10.0754V10.0637C728.541 7.34497 727.416 5.64575 725.547 5.64575C723.678 5.64575 722.564 7.34497 722.564 10.0637V10.0754C722.564 12.7942 723.678 14.4993 725.547 14.4993ZM725.547 13.5793C724.334 13.5793 723.625 12.2317 723.625 10.0754V10.0637C723.625 7.90747 724.334 6.57153 725.547 6.57153C726.76 6.57153 727.48 7.90747 727.48 10.0637V10.0754C727.48 12.2317 726.76 13.5793 725.547 13.5793ZM733.105 14.4993C734.975 14.4993 736.1 12.7942 736.1 10.0754V10.0637C736.1 7.34497 734.975 5.64575 733.105 5.64575C731.236 5.64575 730.123 7.34497 730.123 10.0637V10.0754C730.123 12.7942 731.236 14.4993 733.105 14.4993ZM733.105 13.5793C731.893 13.5793 731.184 12.2317 731.184 10.0754V10.0637C731.184 7.90747 731.893 6.57153 733.105 6.57153C734.318 6.57153 735.039 7.90747 735.039 10.0637V10.0754C735.039 12.2317 734.318 13.5793 733.105 13.5793ZM739.41 10.2922C740.488 10.2922 741.145 9.41333 741.145 8.01294V8.00708C741.145 6.60669 740.488 5.73364 739.41 5.73364C738.332 5.73364 737.682 6.60669 737.682 8.00708V8.01294C737.682 9.41333 738.332 10.2922 739.41 10.2922ZM740.043 14.3L745.797 5.84497H744.848L739.094 14.3H740.043ZM739.41 9.59497C738.83 9.59497 738.496 9.00317 738.496 8.01294V8.00708C738.496 7.01685 738.83 6.43091 739.41 6.43091C739.99 6.43091 740.33 7.01685 740.33 8.00708V8.01294C740.33 9.00317 739.99 9.59497 739.41 9.59497ZM745.469 14.4114C746.547 14.4114 747.203 13.5325 747.203 12.1321V12.1262C747.203 10.7258 746.547 9.85278 745.469 9.85278C744.391 9.85278 743.74 10.7258 743.74 12.1262V12.1321C743.74 13.5325 744.391 14.4114 745.469 14.4114ZM745.469 13.7141C744.889 13.7141 744.555 13.1223 744.555 12.1321V12.1262C744.555 11.136 744.889 10.55 745.469 10.55C746.049 10.55 746.389 11.136 746.389 12.1262V12.1321C746.389 13.1223 746.049 13.7141 745.469 13.7141Z" fill="black"/>
<path fill-rule="evenodd" clip-rule="evenodd" d="M689.269 7.69225C689.1 7.46378 689 7.18107 689 6.875C689 6.11561 689.616 5.5 690.375 5.5C690.647 5.5 690.901 5.57923 691.115 5.7159C690.344 6.20596 689.707 6.88693 689.269 7.69225ZM698.37 10.255C698.37 12.6712 696.411 14.63 693.995 14.63C691.579 14.63 689.62 12.6712 689.62 10.255C689.62 7.83875 691.579 5.88 693.995 5.88C696.411 5.88 698.37 7.83875 698.37 10.255ZM694.38 10.875H692.25V10.12H693.63V7.5H694.38V10.875ZM697.625 5.5C697.35 5.5 697.095 5.58046 696.88 5.71909C697.651 6.21049 698.288 6.89306 698.725 7.70001C698.898 7.4702 699 7.18455 699 6.875C699 6.11561 698.384 5.5 697.625 5.5Z" fill="black"/>
<path fill-rule="evenodd" clip-rule="evenodd" d="M708 9.98327V9.97109L705.044 7.28354L705.717 6.5436L708 8.61963V4.11963L711.994 7.7499L709.519 9.9999L711.994 12.2499L708 15.8802V11.3347L705.717 13.4108L705.044 12.6708L708 9.98327ZM709 9.11963L710.507 7.7499L709 6.38018V9.11963ZM710.507 12.2499L709 13.6196V10.8802L710.507 12.2499Z" fill="black"/>
<path opacity="0.25" fill-rule="evenodd" clip-rule="evenodd" d="M428.5 5H429.5C430.052 5 430.5 5.44772 430.5 6V14C430.5 14.5523 430.052 15 429.5 15H428.5C427.948 15 427.5 14.5523 427.5 14V6C427.5 5.44772 427.948 5 428.5 5Z" fill="black"/>
<path fill-rule="evenodd" clip-rule="evenodd" d="M425 7H424C423.448 7 423 7.44772 423 8V14C423 14.5523 423.448 15 424 15H425C425.552 15 426 14.5523 426 14V8C426 7.44772 425.552 7 425 7ZM419.5 9H420.5C421.052 9 421.5 9.44772 421.5 10V14C421.5 14.5523 421.052 15 420.5 15H419.5C418.948 15 418.5 14.5523 418.5 14V10C418.5 9.44772 418.948 9 419.5 9ZM415 10.5H416C416.552 10.5 417 10.9477 417 11.5V14C417 14.5523 416.552 15 416 15H415C414.448 15 414 14.5523 414 14V11.5C414 10.9477 414.448 10.5 415 10.5Z" fill="black"/>
<path d="M438.078 14H439.133V10.3379H442.877V9.40039H439.133V6.49414H443.211V5.54492H438.078V14ZM445.305 6.46484C445.692 6.46484 446.009 6.14844 446.009 5.76172C446.009 5.375 445.692 5.05859 445.305 5.05859C444.919 5.05859 444.602 5.375 444.602 5.76172C444.602 6.14844 444.919 6.46484 445.305 6.46484ZM444.79 14H445.809V7.68359H444.79V14ZM450.283 16.2266C452.005 16.2266 453.095 15.3242 453.095 13.9121V7.68359H452.076V8.72656H452.005C451.619 8.01172 450.927 7.57227 450.037 7.57227C448.384 7.57227 447.365 8.85547 447.365 10.625V10.6367C447.365 12.4062 448.379 13.6719 450.013 13.6719C450.88 13.6719 451.595 13.2793 451.994 12.582H452.087V13.8594C452.087 14.791 451.414 15.3242 450.283 15.3242C449.375 15.3242 448.812 14.9844 448.701 14.5039L448.695 14.498H447.64L447.629 14.5039C447.787 15.541 448.759 16.2266 450.283 16.2266ZM450.236 12.7695C449.064 12.7695 448.408 11.8906 448.408 10.6367V10.625C448.408 9.37109 449.064 8.47461 450.236 8.47461C451.402 8.47461 452.111 9.37109 452.111 10.625V10.6367C452.111 11.8906 451.408 12.7695 450.236 12.7695ZM454.944 14H455.963V10.0859C455.963 9.19531 456.59 8.47461 457.416 8.47461C458.213 8.47461 458.729 8.96094 458.729 9.71094V14H459.748V9.93945C459.748 9.13672 460.329 8.47461 461.207 8.47461C462.098 8.47461 462.526 8.9375 462.526 9.86914V14H463.545V9.63477C463.545 8.31055 462.825 7.57227 461.536 7.57227C460.663 7.57227 459.942 8.01172 459.602 8.67969H459.508C459.215 8.02344 458.618 7.57227 457.762 7.57227C456.936 7.57227 456.338 7.96484 456.057 8.64453H455.963V7.68359H454.944V14ZM467.07 14.1113C467.919 14.1113 468.581 13.7422 468.98 13.0684H469.073V14H470.093V9.67578C470.093 8.36328 469.232 7.57227 467.691 7.57227C466.343 7.57227 465.382 8.24023 465.218 9.23047L465.212 9.26562H466.232L466.237 9.24805C466.402 8.75586 466.9 8.47461 467.655 8.47461C468.599 8.47461 469.073 8.89648 469.073 9.67578V10.25L467.263 10.3613C465.792 10.4492 464.96 11.0996 464.96 12.2246V12.2363C464.96 13.3848 465.868 14.1113 467.07 14.1113ZM466.003 12.2129V12.2012C466.003 11.5742 466.425 11.2344 467.386 11.1758L469.073 11.0703V11.6445C469.073 12.5469 468.318 13.2266 467.28 13.2266C466.548 13.2266 466.003 12.8516 466.003 12.2129Z" fill="black"/>
<path fill-rule="evenodd" clip-rule="evenodd" d="M488.983 7.52294C487.072 5.89057 484.657 5 482.133 5C479.601 5 477.18 5.89589 475.266 7.53708L475.104 7.67646C474.972 7.78918 474.965 7.98954 475.087 8.11176L476.214 9.23557C476.324 9.34466 476.498 9.3521 476.617 9.2527L476.756 9.13541C478.263 7.86943 480.155 7.18035 482.133 7.18035C484.104 7.18035 485.989 7.86472 487.494 9.12283L487.634 9.23952C487.752 9.33847 487.926 9.33084 488.036 9.22195L489.163 8.09797C489.285 7.97558 489.278 7.77488 489.146 7.66228L488.983 7.52294ZM482.133 8.46979C483.724 8.46979 485.251 8.99754 486.495 9.97486L486.671 10.113C486.811 10.2231 486.824 10.4306 486.697 10.5564L485.567 11.6841C485.462 11.7884 485.297 11.8003 485.178 11.7122L485.04 11.6098C484.2 10.9852 483.186 10.6501 482.133 10.6501C481.073 10.6501 480.053 10.9893 479.21 11.6211L479.072 11.7245C478.954 11.8133 478.787 11.8016 478.683 11.697L477.552 10.5698C477.426 10.4442 477.438 10.2373 477.578 10.1269L477.753 9.98871C479 9.00267 480.534 8.46979 482.133 8.46979ZM482.133 11.9396C482.772 11.9396 483.394 12.1076 483.941 12.4281L484.163 12.5579C484.331 12.6563 484.361 12.8867 484.223 13.0242L482.329 14.913C482.212 15.029 482.024 15.029 481.907 14.913L480.026 13.0363C479.888 12.8994 479.917 12.6702 480.084 12.5711L480.303 12.4406C480.856 12.1121 481.485 11.9396 482.133 11.9396Z" fill="black"/>
<path d="M546.761 44.544V46.308H553.418C553.334 47.358 553.166 48.345 552.893 49.269L545.795 49.71L546.089 51.579L552.221 51.012C551.066 53.343 549.008 55.317 545.669 56.976L546.845 58.677C553.775 55.212 555.581 50.193 555.581 44.544H546.761ZM558.899 42.654V61.617H561.062V42.654H558.899ZM570.825 45.174C572.442 45.174 573.576 46.014 573.576 47.316C573.576 48.639 572.442 49.458 570.825 49.458C569.187 49.458 568.053 48.639 568.053 47.316C568.053 46.014 569.187 45.174 570.825 45.174ZM570.825 51.138C573.618 51.138 575.613 49.605 575.613 47.316C575.613 45.069 573.618 43.536 570.825 43.536C568.011 43.536 566.016 45.069 566.016 47.316C566.016 49.605 568.011 51.138 570.825 51.138ZM577.02 51.873C572.925 52.44 568.221 52.482 564.651 52.482L564.924 54.267C566.352 54.267 567.948 54.246 569.628 54.183V61.029H571.791V54.078C573.576 53.973 575.382 53.784 577.146 53.469L577.02 51.873ZM578.343 42.654V55.506H574.29V57.165H578.343V61.617H580.527V42.654H578.343ZM599.299 51.6H588.316V46.077H599.152V44.313H586.153V53.343H599.299V51.6ZM584.053 57.396V59.181H601.252V57.396H584.053ZM618.274 47.421V49.185H621.634V53.952H623.797V42.654H621.634V47.421H618.274ZM619.366 51.642C616.531 50.655 614.914 48.303 614.914 45.93V45.678H618.862V43.935H608.719V45.678H612.73V45.951C612.73 48.555 611.029 51.075 608.089 52.125L609.202 53.847C611.449 53.049 613.045 51.369 613.885 49.29C614.683 51.117 616.195 52.608 618.295 53.343L619.366 51.642ZM617.497 59.958C614.788 59.958 613.255 59.286 613.255 58.047C613.255 56.808 614.788 56.136 617.497 56.136C620.164 56.136 621.718 56.808 621.718 58.047C621.718 59.286 620.164 59.958 617.497 59.958ZM617.497 54.456C613.528 54.456 611.092 55.8 611.092 58.047C611.092 60.315 613.528 61.638 617.497 61.638C621.445 61.638 623.881 60.315 623.881 58.047C623.881 55.8 621.445 54.456 617.497 54.456ZM633.518 43.977C630.557 43.977 628.373 45.846 628.373 48.534C628.373 51.222 630.557 53.091 633.518 53.091C636.479 53.091 638.684 51.222 638.684 48.534C638.684 45.846 636.479 43.977 633.518 43.977ZM633.518 45.825C635.282 45.825 636.563 46.875 636.563 48.534C636.563 50.172 635.282 51.243 633.518 51.243C631.775 51.243 630.494 50.172 630.494 48.534C630.494 46.875 631.775 45.825 633.518 45.825ZM640.826 42.633V61.638H643.01V42.633H640.826ZM627.764 57.627C631.124 57.627 635.66 57.585 639.839 56.787L639.692 55.212C635.618 55.821 630.893 55.842 627.491 55.842L627.764 57.627Z" fill="#333333"/>
<rect x="423.5" y="258.5" width="342" height="249" rx="14.5" fill="white" stroke="#FEC7BA"/>
<path d="M704.328 497.156C705.984 497.156 707.088 496.16 707.088 494.876C707.088 493.676 706.368 493.016 705.6 492.572V492.512C706.128 492.104 706.776 491.312 706.776 490.388C706.776 489.032 705.864 488.072 704.364 488.072C702.996 488.072 701.952 488.96 701.952 490.304C701.952 491.228 702.492 491.888 703.14 492.332V492.392C702.336 492.824 701.52 493.64 701.52 494.816C701.52 496.172 702.708 497.156 704.328 497.156ZM704.928 492.224C703.896 491.816 702.948 491.36 702.948 490.304C702.948 489.452 703.536 488.876 704.352 488.876C705.3 488.876 705.84 489.584 705.84 490.448C705.84 491.096 705.528 491.696 704.928 492.224ZM704.352 496.34C703.296 496.34 702.516 495.656 702.516 494.72C702.516 493.88 703.008 493.184 703.716 492.728C704.964 493.232 706.044 493.676 706.044 494.852C706.044 495.728 705.36 496.34 704.352 496.34ZM710.973 497.156C712.641 497.156 713.709 495.632 713.709 492.572C713.709 489.524 712.641 488.036 710.973 488.036C709.293 488.036 708.225 489.512 708.225 492.572C708.225 495.632 709.293 497.156 710.973 497.156ZM710.973 496.28C709.965 496.28 709.293 495.164 709.293 492.572C709.293 490.004 709.965 488.912 710.973 488.912C711.969 488.912 712.641 490.004 712.641 492.572C712.641 495.164 711.969 496.28 710.973 496.28Z" fill="#FF7556"/>
<path d="M714.425 499.148H715.229L718.817 487.472H718.025L714.425 499.148ZM719.52 497H725.052V496.052H722.616C722.172 496.052 721.632 496.1 721.176 496.136C723.24 494.18 724.62 492.392 724.62 490.64C724.62 489.068 723.636 488.036 722.064 488.036C720.948 488.036 720.192 488.552 719.472 489.332L720.108 489.956C720.588 489.38 721.212 488.936 721.932 488.936C723.024 488.936 723.552 489.668 723.552 490.676C723.552 492.188 722.28 493.94 719.52 496.352V497ZM728.984 497.156C730.652 497.156 731.72 495.632 731.72 492.572C731.72 489.524 730.652 488.036 728.984 488.036C727.304 488.036 726.236 489.512 726.236 492.572C726.236 495.632 727.304 497.156 728.984 497.156ZM728.984 496.28C727.976 496.28 727.304 495.164 727.304 492.572C727.304 490.004 727.976 488.912 728.984 488.912C729.98 488.912 730.652 490.004 730.652 492.572C730.652 495.164 729.98 496.28 728.984 496.28ZM735.641 497.156C737.309 497.156 738.377 495.632 738.377 492.572C738.377 489.524 737.309 488.036 735.641 488.036C733.961 488.036 732.893 489.512 732.893 492.572C732.893 495.632 733.961 497.156 735.641 497.156ZM735.641 496.28C734.633 496.28 733.961 495.164 733.961 492.572C733.961 490.004 734.633 488.912 735.641 488.912C736.637 488.912 737.309 490.004 737.309 492.572C737.309 495.164 736.637 496.28 735.641 496.28ZM743.221 489.044H745.609V488.228H739.789V489.044H742.249V490.412C742.249 492.236 740.953 494.276 739.417 495.044L739.993 495.824C741.205 495.2 742.249 493.832 742.741 492.26C743.233 493.7 744.241 494.96 745.441 495.56L746.005 494.768C744.445 494.036 743.221 492.128 743.221 490.412V489.044ZM749.653 491.468H747.877V487.136H746.893V497.888H747.877V492.296H749.653V491.468Z" fill="#C9C9C9"/>
<path d="M449.905 284.475V286.335H446.095V286.995H449.905V288.6H450.7V281.73H449.905V283.815H446.515C446.62 283.395 446.68 282.945 446.68 282.48H440.74V283.155H445.825C445.645 285.6 443.455 287.385 440.11 288.225L440.41 288.885C443.35 288.135 445.51 286.62 446.32 284.475H449.905ZM443.08 294.255V292.29H450.7V289.275H442.255V289.95H449.92V291.645H442.3V294.915H451.24V294.255H443.08ZM460.509 289.155C460.914 286.515 460.914 284.7 460.914 283.755V283.26H454.254V283.92H460.134C460.134 284.895 460.104 286.65 459.714 289.08L460.509 289.155ZM457.359 287.07H456.579V291.255C455.484 291.285 454.434 291.285 453.489 291.285L453.624 291.99C456.024 291.975 459.204 291.915 462.039 291.495L461.979 290.895C460.524 291.075 458.919 291.18 457.359 291.225V287.07ZM466.029 287.415H463.704V281.715H462.909V295.05H463.704V288.135H466.029V287.415ZM477.128 285.51H469.823V282.84H477.128V285.51ZM477.908 282.195H469.058V286.17H477.908V282.195ZM479.483 288.21V287.55H467.438V288.21H473.063V289.785H468.953V290.43H477.113V291.915H468.983V294.855H478.328V294.195H469.763V292.53H477.893V289.785H473.858V288.21H479.483ZM489.842 294.18H486.887V292.05H489.842V294.18ZM489.842 291.435H486.887V289.545H486.122V294.84H490.592V289.545H489.842V291.435ZM488.177 287.73C486.662 287.73 485.567 286.725 485.567 285.39C485.567 284.025 486.662 283.035 488.177 283.035C489.692 283.035 490.787 284.025 490.787 285.39C490.787 286.725 489.692 287.73 488.177 287.73ZM494.627 285.705V288.78H495.422V281.73H494.627V285.015H491.537C491.342 283.41 490.022 282.375 488.177 282.375C486.197 282.375 484.802 283.59 484.802 285.39C484.802 287.205 486.197 288.405 488.177 288.405C490.037 288.405 491.372 287.34 491.537 285.705H494.627ZM494.267 289.47H493.487V290.655C493.487 292.08 492.557 293.64 490.952 294.33L491.387 294.945C492.617 294.375 493.472 293.325 493.877 292.155C494.267 293.34 495.122 294.39 496.367 294.945L496.802 294.33C495.212 293.67 494.267 292.11 494.267 290.655V289.47ZM508.381 281.73V295.05H509.176V281.73H508.381ZM502.246 282.81C500.296 282.81 498.931 284.61 498.931 287.385C498.931 290.175 500.296 291.96 502.246 291.96C504.181 291.96 505.546 290.175 505.546 287.385C505.546 284.61 504.181 282.81 502.246 282.81ZM502.246 283.515C503.731 283.515 504.781 285.105 504.781 287.385C504.781 289.665 503.731 291.27 502.246 291.27C500.746 291.27 499.696 289.665 499.696 287.385C499.696 285.105 500.746 283.515 502.246 283.515ZM522.824 285.975H514.664V282.21H513.869V286.65H522.824V285.975ZM514.604 290.85H513.809V294.705H522.899V294.03H514.604V290.85ZM512.159 288.675V289.35H524.249V288.675H512.159ZM532.823 291.27C531.353 291.27 530.318 289.65 530.318 287.385C530.318 285.105 531.353 283.515 532.823 283.515C534.293 283.515 535.328 285.105 535.328 287.385C535.328 289.65 534.293 291.27 532.823 291.27ZM532.823 282.81C530.903 282.81 529.568 284.61 529.568 287.385C529.568 290.175 530.903 291.96 532.823 291.96C534.743 291.96 536.078 290.175 536.078 287.385C536.078 284.61 534.743 282.81 532.823 282.81ZM541.748 287.22H539.423V281.73H538.628V295.05H539.423V287.895H541.748V287.22ZM552.772 286.935H545.482V283.17H552.772V286.935ZM553.552 282.51H544.702V287.595H553.552V282.51ZM555.172 289.635H543.067V290.31H548.692V295.035H549.487V290.31H555.172V289.635ZM566.946 291.495H567.741V281.745H566.946V285.375H564.201V286.065H566.946V291.495ZM564.456 288.54C562.611 288.87 561.096 288.93 558.441 288.93H558.261V286.365H563.271V282.69H557.436V283.35H562.476V285.705H557.466V289.605H558.441C561.126 289.605 562.641 289.545 564.546 289.215L564.456 288.54ZM560.106 294.045V290.79H559.311V294.72H568.191V294.045H560.106ZM584.07 290.85H584.865V281.745H584.07V285.63H580.86V286.305H584.07V290.85ZM574.89 282.81V283.485H579.99C579.78 286.11 577.515 288.135 574.29 289.185L574.635 289.83C578.34 288.615 580.83 286.125 580.83 282.81H574.89ZM581.07 289.605H580.275V290.31C580.275 292.515 577.74 293.955 575.655 294.375L576 295.005C577.845 294.585 579.915 293.505 580.68 291.75C581.43 293.475 583.485 294.555 585.315 294.975L585.66 294.345C583.575 293.91 581.07 292.47 581.07 290.31V289.605ZM594.224 292.59V288.795H598.424V288.12H590.219V283.545H598.289V282.87H589.424V288.795H593.429V292.59H587.804V293.265H599.894V292.59H594.224ZM615.773 281.745H614.978V291.57H615.773V281.745ZM606.083 285.915C606.083 284.49 607.208 283.41 608.693 283.41C610.178 283.41 611.303 284.49 611.303 285.915C611.303 287.355 610.178 288.45 608.693 288.45C607.208 288.45 606.083 287.355 606.083 285.915ZM612.068 285.915C612.068 284.025 610.643 282.705 608.693 282.705C606.743 282.705 605.318 284.025 605.318 285.915C605.318 287.82 606.743 289.155 608.693 289.155C610.643 289.155 612.068 287.82 612.068 285.915ZM608.198 294.045V290.535H607.403V294.72H616.223V294.045H608.198ZM625.792 285.33V286.005H628.792V289.665H629.587V281.73H628.792V285.33H625.792ZM626.482 288.45C624.667 287.79 623.122 286.11 623.122 284.295V283.47H626.242V282.795H619.162V283.47H622.342V284.31C622.342 286.335 620.722 288.135 618.877 288.84L619.282 289.485C620.857 288.855 622.222 287.52 622.762 285.84C623.302 287.31 624.577 288.51 626.077 289.08L626.482 288.45ZM625.282 294.375C623.107 294.375 621.712 293.7 621.712 292.59C621.712 291.48 623.107 290.805 625.282 290.805C627.457 290.805 628.867 291.48 628.867 292.59C628.867 293.7 627.457 294.375 625.282 294.375ZM625.282 290.16C622.567 290.16 620.917 291.03 620.917 292.59C620.917 294.15 622.567 295.02 625.282 295.02C627.982 295.02 629.647 294.15 629.647 292.59C629.647 291.03 627.982 290.16 625.282 290.16ZM641.761 287.91H637.306V285.345H641.761V287.91ZM642.541 282.435H641.761V284.685H637.306V282.435H636.511V288.585H642.541V282.435ZM638.791 291.015H646.246V290.34H637.996V294.84H646.486V294.165H638.791V291.015ZM646.126 285.03V281.715H645.331V289.53H646.126V285.72H648.211V285.03H646.126ZM654.165 283.83H657.525V283.14H650.085V283.83H653.385V286.08C653.385 288.405 651.435 290.94 649.71 291.81L650.205 292.455C651.66 291.66 653.19 289.845 653.775 287.835C654.39 289.77 655.935 291.405 657.42 292.125L657.9 291.495C656.1 290.685 654.165 288.39 654.165 286.08V283.83ZM659.67 281.73V295.05H660.465V281.73H659.67ZM673.209 290.13H672.399V290.67C672.399 292.65 669.894 293.97 667.794 294.315L668.124 294.96C669.999 294.585 672.054 293.595 672.804 291.96C673.539 293.595 675.609 294.585 677.484 294.96L677.814 294.315C675.699 293.97 673.209 292.65 673.209 290.67V290.13ZM669.144 282.945H676.494V286.02H669.144V282.945ZM673.209 288.48V286.695H677.259V282.285H668.364V286.695H672.414V288.48H666.774V289.155H678.819V288.48H673.209ZM688.522 283.5H684.982V281.745H684.187V283.5H680.632V284.16H688.522V283.5ZM682.177 287.49C682.177 286.425 683.152 285.69 684.577 285.69C686.002 285.69 686.962 286.425 686.962 287.49C686.962 288.525 686.002 289.275 684.577 289.275C683.152 289.275 682.177 288.525 682.177 287.49ZM687.712 287.49C687.712 286.005 686.467 285.045 684.577 285.045C682.687 285.045 681.427 286.005 681.427 287.49C681.427 288.96 682.687 289.92 684.577 289.92C686.467 289.92 687.712 288.96 687.712 287.49ZM683.512 290.925H682.717V294.72H691.507V294.045H683.512V290.925ZM690.847 286.305V281.745H690.052V291.75H690.847V286.98H692.932V286.305H690.847ZM695.781 290.97V283.725H701.151V283.05H694.986V291.66H695.991C698.601 291.66 700.311 291.57 702.381 291.18L702.276 290.49C700.281 290.865 698.571 290.97 695.991 290.97H695.781ZM706.836 287.19H704.511V281.73H703.716V295.065H704.511V287.865H706.836V287.19ZM709.205 294.195C709.61 294.195 709.97 293.88 709.97 293.385C709.97 292.875 709.61 292.56 709.205 292.56C708.8 292.56 708.44 292.875 708.44 293.385C708.44 293.88 708.8 294.195 709.205 294.195ZM449.41 310.43C449.41 311.975 449.41 314.03 448.87 316.85L449.665 316.955C450.205 313.985 450.205 312.02 450.205 310.43V309.245H441.205V309.92H449.41V310.43ZM439.84 318.29V318.965H451.885V318.29H439.84ZM454.914 317.03V313.64H459.054V309.245H454.104V309.935H458.289V312.965H454.134V317.72H454.974C456.654 317.72 458.184 317.645 460.134 317.3L460.044 316.625C458.154 316.97 456.624 317.03 454.974 317.03H454.914ZM464.109 307.715V313.13H461.814V308.045H461.049V320.33H461.814V313.805H464.109V321.05H464.889V307.715H464.109ZM471.893 308.96H471.098V311.615C471.098 314.045 469.283 316.58 467.528 317.525L468.038 318.155C469.508 317.315 470.948 315.485 471.503 313.385C472.073 315.38 473.543 317.12 475.028 317.915L475.493 317.27C473.738 316.385 471.893 313.97 471.893 311.615V308.96ZM477.503 307.73V312.47H474.068V313.13H477.503V321.065H478.298V307.73H477.503ZM494.582 307.73V321.05H495.377V307.73H494.582ZM488.447 308.81C486.497 308.81 485.132 310.61 485.132 313.385C485.132 316.175 486.497 317.96 488.447 317.96C490.382 317.96 491.747 316.175 491.747 313.385C491.747 310.61 490.382 308.81 488.447 308.81ZM488.447 309.515C489.932 309.515 490.982 311.105 490.982 313.385C490.982 315.665 489.932 317.27 488.447 317.27C486.947 317.27 485.897 315.665 485.897 313.385C485.897 311.105 486.947 309.515 488.447 309.515ZM504.151 314.555H499.891V311.825H504.151V314.555ZM504.931 312.29H508.426V317.615H509.221V307.745H508.426V311.615H504.931V308.615H504.151V311.165H499.891V308.615H499.096V315.23H504.931V312.29ZM501.616 320.045V316.655H500.821V320.72H509.551V320.045H501.616ZM520.109 309.275H516.569V307.64H515.774V309.275H512.219V309.935H520.109V309.275ZM513.764 313.175C513.764 312.14 514.739 311.435 516.164 311.435C517.589 311.435 518.549 312.14 518.549 313.175C518.549 314.195 517.589 314.9 516.164 314.9C514.739 314.9 513.764 314.195 513.764 313.175ZM519.299 313.175C519.299 311.705 518.054 310.805 516.164 310.805C514.274 310.805 513.014 311.705 513.014 313.175C513.014 314.63 514.274 315.545 516.164 315.545C518.054 315.545 519.299 314.63 519.299 313.175ZM513.914 317.54H521.639V321.035H522.434V316.865H513.914V317.54ZM524.519 311.54H522.434V307.715H521.639V316.04H522.434V312.23H524.519V311.54ZM526.783 309.2V309.875H532.108C531.898 313.16 529.873 315.995 526.213 317.765L526.648 318.425C530.938 316.31 532.903 312.92 532.903 309.2H526.783ZM536.008 307.73V321.05H536.803V307.73H536.008ZM542.772 317.24C541.542 317.24 540.702 315.68 540.702 313.445C540.702 311.225 541.542 309.65 542.772 309.65C544.017 309.65 544.842 311.225 544.842 313.445C544.842 315.68 544.017 317.24 542.772 317.24ZM547.647 313.07H545.592C545.487 310.535 544.407 308.93 542.772 308.93C541.077 308.93 539.967 310.685 539.967 313.445C539.967 316.205 541.077 317.96 542.772 317.96C544.422 317.96 545.502 316.34 545.592 313.745H547.647V320.33H548.412V308.045H547.647V313.07ZM550.257 307.715V321.05H551.022V307.715H550.257ZM560.421 317.27C558.951 317.27 557.916 315.65 557.916 313.385C557.916 311.105 558.951 309.515 560.421 309.515C561.891 309.515 562.926 311.105 562.926 313.385C562.926 315.65 561.891 317.27 560.421 317.27ZM560.421 308.81C558.501 308.81 557.166 310.61 557.166 313.385C557.166 316.175 558.501 317.96 560.421 317.96C562.341 317.96 563.676 316.175 563.676 313.385C563.676 310.61 562.341 308.81 560.421 308.81ZM569.346 313.22H567.021V307.73H566.226V321.05H567.021V313.895H569.346V313.22ZM576.695 308.585C579.02 308.585 580.505 309.26 580.505 310.355C580.505 311.435 579.02 312.11 576.695 312.11C574.4 312.11 572.915 311.435 572.915 310.355C572.915 309.26 574.4 308.585 576.695 308.585ZM576.695 312.755C579.56 312.755 581.315 311.885 581.315 310.355C581.315 308.81 579.56 307.94 576.695 307.94C573.845 307.94 572.105 308.81 572.105 310.355C572.105 311.885 573.845 312.755 576.695 312.755ZM577.1 316.895H576.275V317.405C576.275 319.07 573.725 320.12 571.625 320.345L571.895 320.99C573.815 320.72 575.93 319.91 576.68 318.515C577.43 319.925 579.56 320.72 581.495 320.99L581.765 320.345C579.665 320.12 577.1 319.085 577.1 317.405V316.895ZM570.68 313.955V314.63H576.305V316.22H577.085V314.63H582.785V313.955H570.68ZM592.339 312.05H588.634V308.78H592.339V312.05ZM587.854 312.05H585.664V312.725H595.309V312.05H593.134V308.78H595.339V308.12H585.649V308.78H587.854V312.05ZM590.899 317.03H590.074V317.465C590.074 319.1 587.509 320.15 585.424 320.375L585.679 320.99C587.614 320.75 589.729 319.94 590.479 318.56C591.229 319.955 593.359 320.75 595.294 320.99L595.549 320.375C593.464 320.15 590.899 319.115 590.899 317.465V317.03ZM584.464 314.225V314.885H590.104V316.49H590.884V314.885H596.584V314.225H584.464ZM608.298 307.73V321.05H609.093V307.73H608.298ZM602.163 308.81C600.213 308.81 598.848 310.61 598.848 313.385C598.848 316.175 600.213 317.96 602.163 317.96C604.098 317.96 605.463 316.175 605.463 313.385C605.463 310.61 604.098 308.81 602.163 308.81ZM602.163 309.515C603.648 309.515 604.698 311.105 604.698 313.385C604.698 315.665 603.648 317.27 602.163 317.27C600.663 317.27 599.613 315.665 599.613 313.385C599.613 311.105 600.663 309.515 602.163 309.515ZM622.467 311.33V312.005H625.467V315.665H626.262V307.73H625.467V311.33H622.467ZM623.157 314.45C621.342 313.79 619.797 312.11 619.797 310.295V309.47H622.917V308.795H615.837V309.47H619.017V310.31C619.017 312.335 617.397 314.135 615.552 314.84L615.957 315.485C617.532 314.855 618.897 313.52 619.437 311.84C619.977 313.31 621.252 314.51 622.752 315.08L623.157 314.45ZM621.957 320.375C619.782 320.375 618.387 319.7 618.387 318.59C618.387 317.48 619.782 316.805 621.957 316.805C624.132 316.805 625.542 317.48 625.542 318.59C625.542 319.7 624.132 320.375 621.957 320.375ZM621.957 316.16C619.242 316.16 617.592 317.03 617.592 318.59C617.592 320.15 619.242 321.02 621.957 321.02C624.657 321.02 626.322 320.15 626.322 318.59C626.322 317.03 624.657 316.16 621.957 316.16ZM635.08 313.115H630.64V309.2H635.08V313.115ZM635.845 308.54H629.86V313.775H635.845V308.54ZM632.02 318.29H639.475V315.275H631.21V315.95H638.695V317.66H631.24V320.84H640.015V320.18H632.02V318.29ZM639.475 310.775V307.715H638.68V314.585H639.475V311.45H641.545V310.775H639.475ZM647.404 313.085C649.354 312.785 651.634 311.81 652.354 310.235C653.074 311.81 655.369 312.785 657.319 313.085L657.619 312.44C655.549 312.17 652.834 310.955 652.834 309.17V309.035H657.289V308.375H647.449V309.035H651.904V309.17C651.904 310.97 649.174 312.17 647.104 312.44L647.404 313.085ZM656.089 318.71C656.089 319.745 654.634 320.375 652.369 320.375C650.074 320.375 648.619 319.745 648.619 318.71C648.619 317.675 650.074 317.06 652.369 317.06C654.634 317.06 656.089 317.675 656.089 318.71ZM658.369 314.72V314.06H646.324V314.72H651.949V316.415C649.354 316.505 647.824 317.3 647.824 318.71C647.824 320.195 649.519 321.005 652.354 321.005C655.189 321.005 656.884 320.195 656.884 318.71C656.884 317.3 655.354 316.49 652.744 316.415V314.72H658.369ZM664.068 315.05C664.683 315.23 665.373 315.335 666.138 315.335C666.918 315.335 667.638 315.23 668.253 315.05V318.575H664.068V315.05ZM662.133 312.02C662.133 310.43 663.843 309.335 666.138 309.335C668.448 309.335 670.158 310.43 670.158 312.02C670.158 313.595 668.448 314.69 666.138 314.69C663.843 314.69 662.133 313.595 662.133 312.02ZM669.048 318.575V314.735C670.203 314.15 670.908 313.205 670.908 312.02C670.908 309.98 668.928 308.69 666.138 308.69C663.363 308.69 661.383 309.98 661.383 312.02C661.383 313.22 662.103 314.18 663.273 314.75V318.575H660.123V319.25H672.213V318.575H669.048ZM677.897 317.24C676.487 317.24 675.482 316.235 675.482 314.93C675.482 313.61 676.487 312.62 677.897 312.62C679.292 312.62 680.312 313.61 680.312 314.93C680.312 316.235 679.292 317.24 677.897 317.24ZM677.897 311.93C676.052 311.93 674.732 313.175 674.732 314.93C674.732 316.7 676.052 317.915 677.897 317.915C679.742 317.915 681.062 316.7 681.062 314.93C681.062 313.175 679.742 311.93 677.897 311.93ZM678.272 307.85H677.477V309.935H673.847V310.61H681.767V309.935H678.272V307.85ZM686.387 313.37H684.062V307.715H683.267V321.035H684.062V314.045H686.387V313.37ZM689.131 316.97V309.725H694.501V309.05H688.336V317.66H689.341C691.951 317.66 693.661 317.57 695.731 317.18L695.626 316.49C693.631 316.865 691.921 316.97 689.341 316.97H689.131ZM700.186 313.19H697.861V307.73H697.066V321.065H697.861V313.865H700.186V313.19ZM711.165 310.535C711.165 312.14 711.165 313.955 710.685 316.445L711.495 316.565C711.96 313.955 711.96 312.155 711.96 310.535V309.2H702.84V309.86H711.165V310.535ZM707.25 318.335V313.46H706.47V318.335H701.535V319.01H713.58V318.335H707.25ZM726.939 312.17H729.039V315.995H729.804V307.73H729.039V311.495H726.939V307.985H726.174V315.56H726.939V312.17ZM725.289 314.195C723.624 313.535 722.439 312.005 722.439 310.505V308.555H721.674V310.505C721.674 312.005 720.444 313.775 718.764 314.525L719.214 315.14C720.549 314.54 721.584 313.295 722.064 311.975C722.529 313.19 723.534 314.27 724.869 314.795L725.289 314.195ZM725.514 320.375C723.339 320.375 721.929 319.73 721.929 318.695C721.929 317.645 723.339 317.015 725.514 317.015C727.704 317.015 729.099 317.645 729.099 318.695C729.099 319.73 727.704 320.375 725.514 320.375ZM725.514 316.37C722.799 316.37 721.149 317.21 721.149 318.695C721.149 320.18 722.799 321.005 725.514 321.005C728.229 321.005 729.879 320.18 729.879 318.695C729.879 317.21 728.229 316.37 725.514 316.37ZM733.058 308.63V309.305H738.278C738.098 311.84 735.908 313.775 732.518 314.72L732.833 315.365C736.703 314.285 739.118 311.885 739.118 308.63H733.058ZM734.183 316.895H741.923V321.05H742.718V316.235H734.183V316.895ZM744.803 311.27H742.718V307.715H741.923V315.575H742.718V311.945H744.803V311.27ZM448.135 338.215H450.235V341.995H451V333.745H450.235V337.525H448.135V333.94H447.37V341.77H448.135V338.215ZM446.71 335.395H443.65V333.76H442.855V335.395H439.78V336.055H446.71V335.395ZM443.245 337.495C444.505 337.495 445.345 338.17 445.345 339.115C445.345 340.075 444.505 340.75 443.245 340.75C442 340.75 441.16 340.075 441.16 339.115C441.16 338.17 442 337.495 443.245 337.495ZM443.245 341.38C444.94 341.38 446.08 340.51 446.08 339.115C446.08 337.735 444.94 336.88 443.245 336.88C441.58 336.88 440.44 337.735 440.44 339.115C440.44 340.51 441.58 341.38 443.245 341.38ZM449.275 342.37H448.51V342.955C448.51 343.99 447.745 345.43 446.395 346.195C445.06 345.505 444.31 344.17 444.31 342.955V342.37H443.545V342.955C443.545 344.2 442.375 345.67 440.755 346.27L441.145 346.885C442.435 346.375 443.425 345.385 443.905 344.305C444.265 345.445 445.105 346.48 446.41 346.99C447.655 346.45 448.495 345.355 448.885 344.275C449.335 345.4 450.34 346.39 451.675 346.885L452.065 346.27C450.43 345.7 449.275 344.305 449.275 342.955V342.37ZM455.049 342.97V335.725H460.419V335.05H454.254V343.66H455.259C457.869 343.66 459.579 343.57 461.649 343.18L461.544 342.49C459.549 342.865 457.839 342.97 455.259 342.97H455.049ZM466.104 339.19H463.779V333.73H462.984V347.065H463.779V339.865H466.104V339.19ZM468.473 346.195C468.878 346.195 469.238 345.88 469.238 345.385C469.238 344.875 468.878 344.56 468.473 344.56C468.068 344.56 467.708 344.875 467.708 345.385C467.708 345.88 468.068 346.195 468.473 346.195ZM485.358 333.715H484.563V340.66H485.358V333.715ZM475.683 337.165C475.683 335.89 476.778 334.93 478.263 334.93C479.748 334.93 480.843 335.89 480.843 337.165C480.843 338.455 479.748 339.4 478.263 339.4C476.778 339.4 475.683 338.455 475.683 337.165ZM481.623 337.165C481.623 335.44 480.228 334.255 478.263 334.255C476.298 334.255 474.903 335.44 474.903 337.165C474.903 338.89 476.298 340.06 478.263 340.06C480.228 340.06 481.623 338.89 481.623 337.165ZM477.723 346.18V344.335H485.358V341.38H476.898V342.04H484.578V343.705H476.943V346.84H485.883V346.18H477.723ZM494.342 334.6C496.667 334.6 498.137 335.245 498.137 336.295C498.137 337.36 496.667 338.005 494.342 338.005C492.017 338.005 490.547 337.36 490.547 336.295C490.547 335.245 492.017 334.6 494.342 334.6ZM494.342 338.635C497.237 338.635 498.947 337.81 498.947 336.295C498.947 334.795 497.237 333.97 494.342 333.97C491.447 333.97 489.737 334.795 489.737 336.295C489.737 337.81 491.447 338.635 494.342 338.635ZM490.637 344.485H498.767V341.74H489.827V342.385H497.987V343.87H489.857V346.855H499.202V346.195H490.637V344.485ZM488.312 339.685V340.36H500.357V339.685H488.312ZM513.386 335.245H509.846V333.58H509.051V335.245H505.496V335.92H513.386V335.245ZM507.041 339.115C507.041 338.095 508.016 337.39 509.441 337.39C510.866 337.39 511.826 338.095 511.826 339.115C511.826 340.135 510.866 340.84 509.441 340.84C508.016 340.84 507.041 340.135 507.041 339.115ZM512.576 339.115C512.576 337.66 511.331 336.76 509.441 336.76C507.536 336.76 506.291 337.66 506.291 339.115C506.291 340.57 507.536 341.47 509.441 341.47C511.331 341.47 512.576 340.57 512.576 339.115ZM508.286 343.255H514.916V346.165H508.286V343.255ZM507.506 346.84H515.711V342.595H507.506V346.84ZM517.796 337.405H515.711V333.715H514.916V341.74H515.711V338.095H517.796V337.405ZM522.25 343.24C521.02 343.24 520.18 341.68 520.18 339.445C520.18 337.225 521.02 335.65 522.25 335.65C523.495 335.65 524.32 337.225 524.32 339.445C524.32 341.68 523.495 343.24 522.25 343.24ZM527.125 339.07H525.07C524.965 336.535 523.885 334.93 522.25 334.93C520.555 334.93 519.445 336.685 519.445 339.445C519.445 342.205 520.555 343.96 522.25 343.96C523.9 343.96 524.98 342.34 525.07 339.745H527.125V346.33H527.89V334.045H527.125V339.07ZM529.735 333.715V347.05H530.5V333.715H529.735ZM547.204 333.73H546.409V341.38H547.204V333.73ZM540.109 335.23C541.639 335.23 542.734 336.235 542.734 337.615C542.734 338.98 541.639 339.985 540.109 339.985C538.609 339.985 537.514 338.98 537.514 337.615C537.514 336.235 538.609 335.23 540.109 335.23ZM540.109 340.66C542.104 340.66 543.499 339.43 543.499 337.615C543.499 335.785 542.104 334.555 540.109 334.555C538.144 334.555 536.749 335.785 536.749 337.615C536.749 339.43 538.144 340.66 540.109 340.66ZM545.629 341.98H544.864V342.865C544.864 343.915 544.099 345.385 542.749 346.18C541.399 345.475 540.664 344.11 540.664 342.865V341.98H539.899V342.865C539.899 344.14 538.744 345.625 537.109 346.255L537.514 346.87C538.804 346.345 539.779 345.355 540.259 344.245C540.619 345.4 541.459 346.45 542.764 346.975C544.009 346.405 544.849 345.31 545.239 344.215C545.689 345.37 546.679 346.36 548.029 346.87L548.434 346.255C546.769 345.67 545.629 344.245 545.629 342.865V341.98ZM553.667 343.27C552.197 343.27 551.177 341.65 551.177 339.385C551.177 337.105 552.197 335.515 553.667 335.515C555.137 335.515 556.157 337.105 556.157 339.385C556.157 341.65 555.137 343.27 553.667 343.27ZM560.222 333.73V338.965H556.892C556.757 336.43 555.467 334.81 553.667 334.81C551.762 334.81 550.427 336.61 550.427 339.385C550.427 342.175 551.762 343.96 553.667 343.96C555.512 343.96 556.817 342.28 556.907 339.625H560.222V347.05H561.017V333.73H560.222ZM568.411 334.96H567.616V337.615C567.616 340.045 565.801 342.58 564.046 343.525L564.556 344.155C566.026 343.315 567.466 341.485 568.021 339.385C568.591 341.38 570.061 343.12 571.546 343.915L572.011 343.27C570.256 342.385 568.411 339.97 568.411 337.615V334.96ZM574.021 333.73V338.47H570.586V339.13H574.021V347.065H574.816V333.73H574.021ZM584.62 343.27C583.15 343.27 582.115 341.65 582.115 339.385C582.115 337.105 583.15 335.515 584.62 335.515C586.09 335.515 587.125 337.105 587.125 339.385C587.125 341.65 586.09 343.27 584.62 343.27ZM584.62 334.81C582.7 334.81 581.365 336.61 581.365 339.385C581.365 342.175 582.7 343.96 584.62 343.96C586.54 343.96 587.875 342.175 587.875 339.385C587.875 336.61 586.54 334.81 584.62 334.81ZM593.545 339.22H591.22V333.73H590.425V347.05H591.22V339.895H593.545V339.22ZM600.894 334.585C603.219 334.585 604.704 335.26 604.704 336.355C604.704 337.435 603.219 338.11 600.894 338.11C598.599 338.11 597.114 337.435 597.114 336.355C597.114 335.26 598.599 334.585 600.894 334.585ZM600.894 338.755C603.759 338.755 605.514 337.885 605.514 336.355C605.514 334.81 603.759 333.94 600.894 333.94C598.044 333.94 596.304 334.81 596.304 336.355C596.304 337.885 598.044 338.755 600.894 338.755ZM601.299 342.895H600.474V343.405C600.474 345.07 597.924 346.12 595.824 346.345L596.094 346.99C598.014 346.72 600.129 345.91 600.879 344.515C601.629 345.925 603.759 346.72 605.694 346.99L605.964 346.345C603.864 346.12 601.299 345.085 601.299 343.405V342.895ZM594.879 339.955V340.63H600.504V342.22H601.284V340.63H606.984V339.955H594.879ZM616.538 338.05H612.833V334.78H616.538V338.05ZM612.053 338.05H609.863V338.725H619.508V338.05H617.333V334.78H619.538V334.12H609.848V334.78H612.053V338.05ZM615.098 343.03H614.273V343.465C614.273 345.1 611.708 346.15 609.623 346.375L609.878 346.99C611.813 346.75 613.928 345.94 614.678 344.56C615.428 345.955 617.558 346.75 619.493 346.99L619.748 346.375C617.663 346.15 615.098 345.115 615.098 343.465V343.03ZM608.663 340.225V340.885H614.303V342.49H615.083V340.885H620.783V340.225H608.663ZM628.507 334.6C630.832 334.6 632.302 335.245 632.302 336.295C632.302 337.36 630.832 338.005 628.507 338.005C626.182 338.005 624.712 337.36 624.712 336.295C624.712 335.245 626.182 334.6 628.507 334.6ZM628.507 338.635C631.402 338.635 633.112 337.81 633.112 336.295C633.112 334.795 631.402 333.97 628.507 333.97C625.612 333.97 623.902 334.795 623.902 336.295C623.902 337.81 625.612 338.635 628.507 338.635ZM624.802 344.485H632.932V341.74H623.992V342.385H632.152V343.87H624.022V346.855H633.367V346.195H624.802V344.485ZM622.477 339.685V340.36H634.522V339.685H622.477ZM647.746 337.495H649.996V340.615H650.761V333.73H649.996V336.82H647.746V333.985H646.981V340.54H647.746V337.495ZM645.931 338.575C644.131 338.935 642.631 338.995 641.146 338.995V334.51H640.351V339.685H641.146C642.691 339.685 644.146 339.61 646.021 339.265L645.931 338.575ZM642.961 346.18V344.29H650.761V341.32H642.151V341.98H649.981V343.66H642.181V346.84H651.316V346.18H642.961ZM668.065 338.995C666.07 338.665 663.175 337.105 663.175 335.065V334.24H662.35V335.065C662.35 337.165 659.485 338.665 657.445 338.995L657.79 339.655C659.665 339.295 661.975 338.14 662.77 336.37C663.565 338.11 665.89 339.295 667.735 339.655L668.065 338.995ZM668.785 341.38H656.725V342.055H662.335V347.035H663.13V342.055H668.77L668.785 341.38ZM684.694 333.73H683.899V341.38H684.694V333.73ZM677.599 335.23C679.129 335.23 680.224 336.235 680.224 337.615C680.224 338.98 679.129 339.985 677.599 339.985C676.099 339.985 675.004 338.98 675.004 337.615C675.004 336.235 676.099 335.23 677.599 335.23ZM677.599 340.66C679.594 340.66 680.989 339.43 680.989 337.615C680.989 335.785 679.594 334.555 677.599 334.555C675.634 334.555 674.239 335.785 674.239 337.615C674.239 339.43 675.634 340.66 677.599 340.66ZM683.119 341.98H682.354V342.865C682.354 343.915 681.589 345.385 680.239 346.18C678.889 345.475 678.154 344.11 678.154 342.865V341.98H677.389V342.865C677.389 344.14 676.234 345.625 674.599 346.255L675.004 346.87C676.294 346.345 677.269 345.355 677.749 344.245C678.109 345.4 678.949 346.45 680.254 346.975C681.499 346.405 682.339 345.31 682.729 344.215C683.179 345.37 684.169 346.36 685.519 346.87L685.924 346.255C684.259 345.67 683.119 344.245 683.119 342.865V341.98ZM698.313 337.975H690.153V334.21H689.358V338.65H698.313V337.975ZM690.093 342.85H689.298V346.705H698.388V346.03H690.093V342.85ZM687.648 340.675V341.35H699.738V340.675H687.648ZM708.972 334.945H708.207V337.615C708.207 340.015 706.407 342.565 704.652 343.495L705.147 344.14C706.602 343.315 708.027 341.5 708.612 339.445C709.197 341.395 710.622 343.075 712.062 343.855L712.557 343.24C710.817 342.34 708.972 339.925 708.972 337.615V334.945ZM717.237 339.28H714.912V333.715H714.117V347.05H714.912V339.955H717.237V339.28ZM726.535 339.73C724.315 340.105 722.515 340.195 720.22 340.195H720.01V337.9H725.125V334.48H719.185V335.14H724.36V337.24H719.23V340.87H720.22C722.56 340.87 724.36 340.78 726.625 340.42L726.535 339.73ZM721.375 343.045H728.065V346.165H721.375V343.045ZM720.61 346.84H728.845V342.4H720.61V346.84ZM730.93 337.315H728.845V333.73H728.05V341.695H728.845V337.99H730.93V337.315ZM742.389 333.73V347.05H743.184V333.73H742.389ZM736.254 334.81C734.304 334.81 732.939 336.61 732.939 339.385C732.939 342.175 734.304 343.96 736.254 343.96C738.189 343.96 739.554 342.175 739.554 339.385C739.554 336.61 738.189 334.81 736.254 334.81ZM736.254 335.515C737.739 335.515 738.789 337.105 738.789 339.385C738.789 341.665 737.739 343.27 736.254 343.27C734.754 343.27 733.704 341.665 733.704 339.385C733.704 337.105 734.754 335.515 736.254 335.515ZM444.655 366.345H447.73V365.67H441.79V361.71H447.67V361.02H440.995V366.345H443.86V369.24C442.48 369.285 441.13 369.3 439.93 369.3L440.065 370.005C442.63 370.005 445.93 369.93 448.855 369.48L448.795 368.895C447.46 369.06 446.05 369.15 444.655 369.21V366.345ZM449.74 359.73V373.065H450.535V359.73H449.74ZM457.149 369.27C455.679 369.27 454.659 367.65 454.659 365.385C454.659 363.105 455.679 361.515 457.149 361.515C458.619 361.515 459.639 363.105 459.639 365.385C459.639 367.65 458.619 369.27 457.149 369.27ZM463.704 359.73V364.965H460.374C460.239 362.43 458.949 360.81 457.149 360.81C455.244 360.81 453.909 362.61 453.909 365.385C453.909 368.175 455.244 369.96 457.149 369.96C458.994 369.96 460.299 368.28 460.389 365.625H463.704V373.05H464.499V359.73H463.704ZM470.978 369.27C469.508 369.27 468.473 367.665 468.473 365.385C468.473 363.105 469.508 361.515 470.978 361.515C472.448 361.515 473.483 363.105 473.483 365.385C473.483 367.665 472.448 369.27 470.978 369.27ZM470.978 360.81C469.058 360.81 467.723 362.61 467.723 365.385C467.723 368.175 469.058 369.96 470.978 369.96C472.898 369.96 474.233 368.175 474.233 365.385C474.233 362.61 472.898 360.81 470.978 360.81ZM479.873 363.915V363.225H477.578V359.73H476.783V373.05H477.578V367.92H479.873V367.23H477.578V363.915H479.873ZM495.722 359.745H494.957V367.5H495.722V359.745ZM492.347 364.38V367.275H493.112V360.03H492.347V363.705H489.767C490.217 362.805 490.442 361.815 490.442 360.75H485.267V361.425H489.632C489.422 363.9 487.637 365.895 484.787 367.095L485.192 367.695C487.037 366.885 488.462 365.76 489.362 364.38H492.347ZM493.967 367.98H493.202V369.03C493.202 370.065 492.452 371.55 491.102 372.36C489.752 371.64 489.017 370.29 489.017 369.03V367.98H488.267V369.03C488.267 370.32 487.082 371.835 485.462 372.435L485.867 373.035C487.157 372.525 488.132 371.52 488.612 370.41C488.972 371.565 489.827 372.615 491.117 373.155C492.362 372.585 493.202 371.475 493.577 370.365C494.027 371.52 495.032 372.54 496.367 373.035L496.772 372.435C495.122 371.85 493.967 370.41 493.967 369.03V367.98ZM499.771 368.97V361.725H505.141V361.05H498.976V369.66H499.981C502.591 369.66 504.301 369.57 506.371 369.18L506.266 368.49C504.271 368.865 502.561 368.97 499.981 368.97H499.771ZM510.826 365.19H508.501V359.73H507.706V373.065H508.501V365.865H510.826V365.19ZM513.194 372.195C513.599 372.195 513.959 371.88 513.959 371.385C513.959 370.875 513.599 370.56 513.194 370.56C512.789 370.56 512.429 370.875 512.429 371.385C512.429 371.88 512.789 372.195 513.194 372.195Z" fill="#333333"/>
<g clip-path="url(#clip3)">
<path d="M761 51V59H745V41H755" stroke="#FF7556" stroke-linecap="round" stroke-linejoin="round"/>
<path fill-rule="evenodd" clip-rule="evenodd" d="M759.461 41.0392C760.242 40.2582 761.508 40.2582 762.289 41.0392L762.961 41.7108C763.742 42.4918 763.742 43.7582 762.961 44.5392L753.586 53.9142C753.211 54.2893 752.702 54.5 752.172 54.5L749.5 54.5L749.5 51.8284C749.5 51.298 749.711 50.7893 750.086 50.4142L759.461 41.0392Z" stroke="#FF7556"/>
<path d="M758.25 42.25L761.75 45.75" stroke="#FF7556"/>
</g>
<path d="M430.175 141.75C428.725 141.75 427.775 140.225 427.775 136.925C427.775 133.625 428.725 132.1 430.175 132.1C431.65 132.1 432.6 133.625 432.6 136.925C432.6 140.225 431.65 141.75 430.175 141.75ZM430.175 128.425C426.575 128.425 423.875 131.675 423.875 136.925C423.875 142.175 426.575 145.425 430.175 145.425C433.8 145.425 436.5 142.175 436.5 136.925C436.5 131.675 433.8 128.425 430.175 128.425ZM445.6 135.475H442.45V126.9H438.4V150.375H442.45V138.775H445.6V135.475ZM457.498 130.1C460.448 130.1 461.948 130.55 461.948 131.575C461.948 132.625 460.448 133.075 457.498 133.075C454.573 133.075 453.048 132.625 453.048 131.575C453.048 130.55 454.573 130.1 457.498 130.1ZM457.498 136.1C462.723 136.1 466.123 134.4 466.123 131.575C466.123 128.8 462.723 127.075 457.498 127.075C452.273 127.075 448.873 128.8 448.873 131.575C448.873 134.4 452.273 136.1 457.498 136.1ZM459.523 143.025H455.348V143.275C455.348 144.7 453.748 146.85 448.148 147.3L449.448 150.3C453.448 149.975 455.998 148.7 457.423 147.025C458.823 148.725 461.398 149.95 465.423 150.3L466.723 147.3C460.998 146.875 459.523 144.85 459.523 143.275V143.025ZM446.873 137V140.175H455.423V142.175H459.473V140.175H468.098V137H446.873ZM482.571 133.25H478.371V130.575H482.571V133.25ZM474.346 133.25H471.871V136.4H489.046V133.25H486.596V130.575H489.296V127.425H471.646V130.575H474.346V133.25ZM482.521 143.425H478.346V143.7C478.346 145 476.746 146.95 471.171 147.35L472.396 150.3C476.421 150.025 478.996 148.825 480.421 147.225C481.821 148.85 484.421 150 488.471 150.3L489.696 147.35C484.021 146.975 482.521 145.125 482.521 143.7V143.425ZM469.871 137.525V140.7H478.421V142.65H482.471V140.7H491.121V137.525H469.871ZM498.144 142C497.169 142 496.669 140.575 496.669 137.1C496.669 133.625 497.169 132.2 498.144 132.2C499.144 132.2 499.644 133.625 499.644 137.1C499.644 140.575 499.144 142 498.144 142ZM504.469 135.275H503.219C502.794 130.925 500.919 128.375 498.144 128.375C495.019 128.375 493.019 131.625 493.019 137.1C493.019 142.575 495.019 145.825 498.144 145.825C501.019 145.825 502.919 143.1 503.244 138.5H504.469V149.375H508.219V127.2H504.469V135.275ZM509.319 126.875V150.325H513.144V126.875H509.319ZM526.13 132.775H530.78V129.55H522.155V145.325H523.855C526.58 145.325 529.105 145.25 532.005 144.75L531.705 141.5C529.73 141.825 527.905 141.975 526.13 142.025V132.775ZM538.03 126.9V135.75H536.555V127.275H532.805V149.3H536.555V138.95H538.03V150.325H541.855V126.9H538.03ZM558.353 129.15H553.478V126.875H549.428V129.15H544.553V132.275H558.353V129.15ZM549.478 137.475C549.478 136.425 550.303 135.925 551.453 135.925C552.603 135.925 553.428 136.425 553.428 137.475C553.428 138.55 552.603 139.05 551.453 139.05C550.303 139.05 549.478 138.55 549.478 137.475ZM557.303 137.475C557.303 134.8 554.853 132.875 551.453 132.875C548.053 132.875 545.603 134.8 545.603 137.475C545.603 140.2 548.053 142.1 551.453 142.1C554.853 142.1 557.303 140.2 557.303 137.475ZM551.828 143.175H547.778V150.025H563.903V146.85H551.828V143.175ZM563.203 133.775V126.9H559.153V144.45H563.203V137.075H566.128V133.775H563.203ZM428.5 165.1H424.475V180.725H426.575C429.975 180.725 433.825 180.525 437.675 179.725L437.25 176.45C434.225 177.025 431.25 177.3 428.5 177.375V165.1ZM445.475 171.5H442.45V162.875H438.4V186.3H442.45V174.8H445.475V171.5ZM454.823 173.175H451.373V167.875H454.823V173.175ZM458.798 164.725H447.398V176.325H458.798V164.725ZM454.123 178.275H450.073V186.025H466.198V182.85H454.123V178.275ZM465.498 169.475V162.9H461.448V179.975H465.498V172.75H468.423V169.475H465.498ZM477.371 164.4C473.696 164.4 470.821 166.9 470.821 170.3C470.821 173.725 473.696 176.225 477.371 176.225C481.071 176.225 483.946 173.725 483.946 170.3C483.946 166.9 481.071 164.4 477.371 164.4ZM477.371 167.825C478.846 167.825 479.996 168.65 479.996 170.3C479.996 171.975 478.846 172.8 477.371 172.8C475.921 172.8 474.771 171.975 474.771 170.3C474.771 168.65 475.921 167.825 477.371 167.825ZM485.671 162.875V186.425H489.721V162.875H485.671ZM470.421 181.875C474.421 181.875 479.796 181.8 484.796 180.8L484.521 177.925C479.646 178.6 474.021 178.65 469.971 178.65L470.421 181.875ZM511.407 168.35V171.575H514.357V176.825H518.407V162.925H514.357V168.35H511.407ZM512.907 173.225C509.457 172.1 508.107 169.7 507.857 167.35H512.032V164.175H499.382V167.35H503.632C503.382 169.925 501.982 172.525 498.332 173.75L500.382 176.95C503.057 176.1 504.807 174.35 505.807 172.175C506.832 174.05 508.457 175.575 510.932 176.375L512.907 173.225ZM510.332 183.4C507.557 183.4 506.232 182.95 506.232 181.85C506.232 180.725 507.557 180.275 510.332 180.275C513.132 180.275 514.457 180.725 514.457 181.85C514.457 182.95 513.132 183.4 510.332 183.4ZM510.332 177.225C505.332 177.225 502.182 178.95 502.182 181.85C502.182 184.75 505.332 186.45 510.332 186.45C515.357 186.45 518.507 184.75 518.507 181.85C518.507 178.95 515.357 177.225 510.332 177.225ZM529.08 164.4C525.405 164.4 522.53 166.9 522.53 170.3C522.53 173.725 525.405 176.225 529.08 176.225C532.78 176.225 535.655 173.725 535.655 170.3C535.655 166.9 532.78 164.4 529.08 164.4ZM529.08 167.825C530.555 167.825 531.705 168.65 531.705 170.3C531.705 171.975 530.555 172.8 529.08 172.8C527.63 172.8 526.48 171.975 526.48 170.3C526.48 168.65 527.63 167.825 529.08 167.825ZM537.38 162.875V186.425H541.43V162.875H537.38ZM522.13 181.875C526.13 181.875 531.505 181.8 536.505 180.8L536.23 177.925C531.355 178.6 525.73 178.65 521.68 178.65L522.13 181.875Z" fill="#333333"/>
<path d="M426.685 205.29H425.455V213.615H426.31C427.765 213.615 429.31 213.54 431.125 213.195L431.005 212.13C429.4 212.445 427.975 212.535 426.685 212.55V205.29ZM435.025 203.655V209.13H433.12V203.955H431.965V216.42H433.12V210.15H435.025V217.095H436.21V203.655H435.025ZM439.314 205.095V206.115H444.249C443.964 209.295 442.119 211.875 438.684 213.6L439.359 214.56C443.709 212.385 445.464 208.92 445.464 205.095H439.314ZM451.104 209.115H448.944V203.655H447.714V217.11H448.944V210.135H451.104V209.115ZM456.962 210.765C459.047 210.45 460.982 209.415 461.837 207.96C462.692 209.415 464.612 210.45 466.697 210.765L467.132 209.775C464.732 209.445 462.452 207.96 462.452 206.31H466.742V205.32H462.452V203.655H461.222V205.32H456.932V206.31H461.207C461.207 207.975 458.942 209.445 456.512 209.775L456.962 210.765ZM467.927 211.785H455.762V212.79H461.222V217.125H462.452V212.79H467.927V211.785ZM481.726 210.315H479.731C480.106 208.38 480.106 206.955 480.106 205.695V204.525H471.076V205.515H478.906V205.695C478.906 206.955 478.906 208.38 478.486 210.315H469.561V211.32H474.991V217.125H476.236V211.32H481.726V210.315ZM487.29 213.09C486.075 213.09 485.19 212.22 485.19 211.02C485.19 209.805 486.075 208.935 487.29 208.935C488.52 208.935 489.405 209.805 489.405 211.02C489.405 212.22 488.52 213.09 487.29 213.09ZM487.29 207.915C485.4 207.915 484.035 209.205 484.035 211.02C484.035 212.85 485.4 214.11 487.29 214.11C489.21 214.11 490.575 212.85 490.575 211.02C490.575 209.205 489.21 207.915 487.29 207.915ZM487.89 203.82H486.66V205.815H483.27V206.805H491.205V205.815H487.89V203.82ZM495.915 209.19H493.71V203.67H492.48V217.11H493.71V210.225H495.915V209.19ZM507.929 207.705H500.009V204.15H498.779V208.71H507.929V207.705ZM499.919 212.85H498.689V216.78H508.004V215.775H499.919V212.85ZM497.129 210.51V211.5H509.324V210.51H497.129ZM515.017 205.095V206.115H519.952C519.667 209.295 517.822 211.875 514.387 213.6L515.062 214.56C519.412 212.385 521.167 208.92 521.167 205.095H515.017ZM526.807 209.115H524.647V203.655H523.417V217.11H524.647V210.135H526.807V209.115ZM533.046 206.97H536.121V205.98H533.061V203.895H531.816V205.98H528.711V206.97H531.831V208.005C531.831 210.36 530.346 212.625 528.351 213.57L529.041 214.5C530.586 213.75 531.861 212.22 532.461 210.345C533.076 212.115 534.351 213.57 535.896 214.275L536.571 213.315C534.576 212.445 533.046 210.255 533.046 208.005V206.97ZM537.876 203.64V217.095H539.121V203.64H537.876ZM546.26 204.645C544.175 204.645 542.66 205.92 542.66 207.81C542.66 209.685 544.175 210.975 546.26 210.975C548.36 210.975 549.86 209.685 549.86 207.81C549.86 205.92 548.36 204.645 546.26 204.645ZM546.26 205.695C547.655 205.695 548.66 206.55 548.66 207.81C548.66 209.055 547.655 209.925 546.26 209.925C544.88 209.925 543.86 209.055 543.86 207.81C543.86 206.55 544.88 205.695 546.26 205.695ZM551.63 203.655V217.14H552.86V203.655H551.63ZM542.135 214.185C544.565 214.185 547.82 214.155 550.85 213.6L550.745 212.685C547.805 213.135 544.43 213.15 541.985 213.15L542.135 214.185ZM563.413 204.645C561.328 204.645 559.813 205.92 559.813 207.81C559.813 209.685 561.328 210.975 563.413 210.975C565.513 210.975 567.013 209.685 567.013 207.81C567.013 205.92 565.513 204.645 563.413 204.645ZM563.413 205.695C564.808 205.695 565.813 206.55 565.813 207.81C565.813 209.055 564.808 209.925 563.413 209.925C562.033 209.925 561.013 209.055 561.013 207.81C561.013 206.55 562.033 205.695 563.413 205.695ZM568.783 203.655V217.14H570.013V203.655H568.783ZM559.288 214.185C561.718 214.185 564.973 214.155 568.003 213.6L567.898 212.685C564.958 213.135 561.583 213.15 559.138 213.15L559.288 214.185ZM573.627 204.975V213.72H579.807V204.975H573.627ZM578.607 205.965V212.745H574.827V205.965H578.607ZM582.627 203.655V217.14H583.857V203.655H582.627ZM589.691 213.015C588.611 213.015 587.936 211.65 587.936 209.445C587.936 207.285 588.611 205.92 589.691 205.92C590.741 205.92 591.431 207.285 591.431 209.445C591.431 211.65 590.741 213.015 589.691 213.015ZM594.236 208.89H592.541C592.391 206.355 591.311 204.78 589.691 204.78C587.936 204.78 586.811 206.58 586.811 209.445C586.811 212.355 587.936 214.155 589.691 214.155C591.341 214.155 592.436 212.535 592.541 209.895H594.236V216.45H595.406V203.955H594.236V208.89ZM596.906 203.655V217.11H598.076V203.655H596.906ZM604.659 211.2C605.214 211.335 605.859 211.41 606.519 211.41C607.194 211.41 607.839 211.335 608.409 211.2V214.365H604.659V211.2ZM606.519 205.47C608.679 205.47 610.239 206.46 610.239 207.96C610.239 209.46 608.679 210.45 606.519 210.45C604.359 210.45 602.814 209.46 602.814 207.96C602.814 206.46 604.359 205.47 606.519 205.47ZM609.639 214.365V210.72C610.749 210.135 611.409 209.175 611.409 207.96C611.409 205.86 609.384 204.51 606.519 204.51C603.669 204.51 601.629 205.86 601.629 207.96C601.629 209.175 602.304 210.15 603.429 210.735V214.365H600.429V215.385H612.654V214.365H609.639ZM615.398 212.685H616.343L616.523 206.325L616.568 204.765H615.173L615.218 206.325L615.398 212.685ZM615.863 216.195C616.418 216.195 616.853 215.775 616.853 215.16C616.853 214.53 616.418 214.095 615.863 214.095C615.323 214.095 614.873 214.53 614.873 215.16C614.873 215.775 615.323 216.195 615.863 216.195Z" fill="#FF7556"/>
</g>
<defs>
<filter id="filter0_d" x="-4" y="20.4238" width="383" height="68" filterUnits="userSpaceOnUse" color-interpolation-filters="sRGB">
<feFlood flood-opacity="0" result="BackgroundImageFix"/>
<feColorMatrix in="SourceAlpha" type="matrix" values="0 0 0 0 0 0 0 0 0 0 0 0 0 0 0 0 0 0 127 0"/>
<feOffset dy="4"/>
<feGaussianBlur stdDeviation="2"/>
<feColorMatrix type="matrix" values="0 0 0 0 0.788235 0 0 0 0 0.788235 0 0 0 0 0.788235 0 0 0 0.2 0"/>
<feBlend mode="normal" in2="BackgroundImageFix" result="effect1_dropShadow"/>
<feBlend mode="normal" in="SourceGraphic" in2="effect1_dropShadow" result="shape"/>
</filter>
<filter id="filter1_d" x="403" y="20" width="383" height="68" filterUnits="userSpaceOnUse" color-interpolation-filters="sRGB">
<feFlood flood-opacity="0" result="BackgroundImageFix"/>
<feColorMatrix in="SourceAlpha" type="matrix" values="0 0 0 0 0 0 0 0 0 0 0 0 0 0 0 0 0 0 127 0"/>
<feOffset dy="4"/>
<feGaussianBlur stdDeviation="2"/>
<feColorMatrix type="matrix" values="0 0 0 0 0.788235 0 0 0 0 0.788235 0 0 0 0 0.788235 0 0 0 0.2 0"/>
<feBlend mode="normal" in2="BackgroundImageFix" result="effect1_dropShadow"/>
<feBlend mode="normal" in="SourceGraphic" in2="effect1_dropShadow" result="shape"/>
</filter>
<clipPath id="clip0">
<rect width="375" height="667" fill="white" transform="translate(0 0.423828)"/>
</clipPath>
<clipPath id="clip1">
<rect width="78" height="16" fill="white" transform="translate(4 3.42383)"/>
</clipPath>
<clipPath id="clip2">
<rect width="375" height="667" fill="white" transform="translate(407)"/>
</clipPath>
<clipPath id="clip3">
<rect width="48" height="48" fill="white" transform="translate(718 26)"/>
</clipPath>
</defs>
</svg>
