<svg width="790" height="667" viewBox="0 0 790 667" fill="none" xmlns="http://www.w3.org/2000/svg">
<g clip-path="url(#clip0)">
<rect width="375" height="667" fill="white"/>
<path d="M168.279 7.33398C166.445 7.33398 165.139 8.58789 165.139 10.3047V10.3164C165.139 11.9219 166.275 13.1055 167.898 13.1055C169.059 13.1055 169.797 12.5137 170.107 11.8457H170.225C170.225 11.9102 170.219 11.9746 170.219 12.0391C170.154 13.6562 169.586 14.9688 168.244 14.9688C167.5 14.9688 166.979 14.582 166.756 13.9902L166.738 13.9316H165.25L165.262 13.9961C165.531 15.291 166.691 16.2109 168.244 16.2109C170.371 16.2109 171.654 14.5234 171.654 11.6758V11.6641C171.654 8.61719 170.084 7.33398 168.279 7.33398ZM168.273 11.9453C167.312 11.9453 166.615 11.2422 166.615 10.2637V10.252C166.615 9.30859 167.359 8.56445 168.291 8.56445C169.229 8.56445 169.961 9.32031 169.961 10.2871V10.2988C169.961 11.2539 169.229 11.9453 168.273 11.9453ZM174.314 10.5215C174.854 10.5215 175.246 10.1113 175.246 9.5957C175.246 9.07422 174.854 8.66992 174.314 8.66992C173.781 8.66992 173.383 9.07422 173.383 9.5957C173.383 10.1113 173.781 10.5215 174.314 10.5215ZM174.314 14.8691C174.854 14.8691 175.246 14.4648 175.246 13.9434C175.246 13.4219 174.854 13.0176 174.314 13.0176C173.781 13.0176 173.383 13.4219 173.383 13.9434C173.383 14.4648 173.781 14.8691 174.314 14.8691ZM181.076 16H182.523V14.377H183.66V13.1289H182.523V7.54492H180.385C179.236 9.29102 178.035 11.2363 176.939 13.1406V14.377H181.076V16ZM178.346 13.1641V13.0762C179.166 11.6406 180.145 10.0762 181.012 8.75195H181.1V13.1641H178.346ZM187.164 16H188.676V7.54492H187.17L184.961 9.09766V10.5215L187.064 9.0332H187.164V16ZM193.756 16H195.338L196.041 13.8145H199.17L199.879 16H201.461L198.461 7.54492H196.756L193.756 16ZM197.559 9.11523H197.658L198.795 12.6484H196.422L197.559 9.11523ZM202.914 16H204.279V9.98828H204.379L206.723 16H207.754L210.098 9.98828H210.203V16H211.562V7.54492H209.828L207.291 14.0488H207.191L204.648 7.54492H202.914V16Z" fill="black"/>
<path opacity="0.35" fill-rule="evenodd" clip-rule="evenodd" d="M346.5 6.5H365.5C366.881 6.5 368 7.61929 368 9V15.5C368 16.8807 366.881 18 365.5 18H346.5C345.119 18 344 16.8807 344 15.5V9C344 7.61929 345.119 6.5 346.5 6.5ZM346.5 7.5C345.672 7.5 345 8.17157 345 9V15.5C345 16.3284 345.672 17 346.5 17H365.5C366.328 17 367 16.3284 367 15.5V9C367 8.17157 366.328 7.5 365.5 7.5H346.5Z" fill="black"/>
<path opacity="0.4" fill-rule="evenodd" clip-rule="evenodd" d="M369 9.7998C369.89 10.255 370.5 11.1813 370.5 12.2499C370.5 13.3186 369.89 14.2449 369 14.7001V9.7998Z" fill="black"/>
<path fill-rule="evenodd" clip-rule="evenodd" d="M347 8.5H365C365.552 8.5 366 8.94772 366 9.5V15C366 15.5523 365.552 16 365 16H347C346.448 16 346 15.5523 346 15V9.5C346 8.94772 346.448 8.5 347 8.5Z" fill="black"/>
<path d="M312.219 16.2998H313.273V7.84473H312.225L309.975 9.46191V10.5752L312.125 9.0166H312.219V16.2998ZM318.547 16.499C320.416 16.499 321.541 14.7939 321.541 12.0752V12.0635C321.541 9.34473 320.416 7.64551 318.547 7.64551C316.678 7.64551 315.564 9.34473 315.564 12.0635V12.0752C315.564 14.7939 316.678 16.499 318.547 16.499ZM318.547 15.5791C317.334 15.5791 316.625 14.2314 316.625 12.0752V12.0635C316.625 9.90723 317.334 8.57129 318.547 8.57129C319.76 8.57129 320.48 9.90723 320.48 12.0635V12.0752C320.48 14.2314 319.76 15.5791 318.547 15.5791ZM326.105 16.499C327.975 16.499 329.1 14.7939 329.1 12.0752V12.0635C329.1 9.34473 327.975 7.64551 326.105 7.64551C324.236 7.64551 323.123 9.34473 323.123 12.0635V12.0752C323.123 14.7939 324.236 16.499 326.105 16.499ZM326.105 15.5791C324.893 15.5791 324.184 14.2314 324.184 12.0752V12.0635C324.184 9.90723 324.893 8.57129 326.105 8.57129C327.318 8.57129 328.039 9.90723 328.039 12.0635V12.0752C328.039 14.2314 327.318 15.5791 326.105 15.5791ZM332.41 12.292C333.488 12.292 334.145 11.4131 334.145 10.0127V10.0068C334.145 8.60645 333.488 7.7334 332.41 7.7334C331.332 7.7334 330.682 8.60645 330.682 10.0068V10.0127C330.682 11.4131 331.332 12.292 332.41 12.292ZM333.043 16.2998L338.797 7.84473H337.848L332.094 16.2998H333.043ZM332.41 11.5947C331.83 11.5947 331.496 11.0029 331.496 10.0127V10.0068C331.496 9.0166 331.83 8.43066 332.41 8.43066C332.99 8.43066 333.33 9.0166 333.33 10.0068V10.0127C333.33 11.0029 332.99 11.5947 332.41 11.5947ZM338.469 16.4111C339.547 16.4111 340.203 15.5322 340.203 14.1318V14.126C340.203 12.7256 339.547 11.8525 338.469 11.8525C337.391 11.8525 336.74 12.7256 336.74 14.126V14.1318C336.74 15.5322 337.391 16.4111 338.469 16.4111ZM338.469 15.7139C337.889 15.7139 337.555 15.1221 337.555 14.1318V14.126C337.555 13.1357 337.889 12.5498 338.469 12.5498C339.049 12.5498 339.389 13.1357 339.389 14.126V14.1318C339.389 15.1221 339.049 15.7139 338.469 15.7139Z" fill="black"/>
<path fill-rule="evenodd" clip-rule="evenodd" d="M282.269 9.69225C282.1 9.46378 282 9.18107 282 8.875C282 8.11561 282.616 7.5 283.375 7.5C283.647 7.5 283.901 7.57923 284.115 7.7159C283.344 8.20596 282.707 8.88693 282.269 9.69225ZM291.37 12.255C291.37 14.6712 289.411 16.63 286.995 16.63C284.579 16.63 282.62 14.6712 282.62 12.255C282.62 9.83875 284.579 7.88 286.995 7.88C289.411 7.88 291.37 9.83875 291.37 12.255ZM287.38 12.875H285.25V12.12H286.63V9.5H287.38V12.875ZM290.625 7.5C290.35 7.5 290.095 7.58046 289.88 7.71909C290.651 8.21049 291.288 8.89306 291.725 9.70001C291.898 9.4702 292 9.18455 292 8.875C292 8.11561 291.384 7.5 290.625 7.5Z" fill="black"/>
<path fill-rule="evenodd" clip-rule="evenodd" d="M301 11.9833V11.9711L298.044 9.28354L298.717 8.5436L301 10.6196V6.11963L304.994 9.7499L302.519 11.9999L304.994 14.2499L301 17.8802V13.3347L298.717 15.4108L298.044 14.6708L301 11.9833ZM302 11.1196L303.507 9.7499L302 8.38018V11.1196ZM303.507 14.2499L302 15.6196V12.8802L303.507 14.2499Z" fill="black"/>
<path opacity="0.25" fill-rule="evenodd" clip-rule="evenodd" d="M21.5 7H22.5C23.0523 7 23.5 7.44772 23.5 8V16C23.5 16.5523 23.0523 17 22.5 17H21.5C20.9477 17 20.5 16.5523 20.5 16V8C20.5 7.44772 20.9477 7 21.5 7Z" fill="black"/>
<path fill-rule="evenodd" clip-rule="evenodd" d="M18 9H17C16.4477 9 16 9.44772 16 10V16C16 16.5523 16.4477 17 17 17H18C18.5523 17 19 16.5523 19 16V10C19 9.44772 18.5523 9 18 9ZM12.5 11H13.5C14.0523 11 14.5 11.4477 14.5 12V16C14.5 16.5523 14.0523 17 13.5 17H12.5C11.9477 17 11.5 16.5523 11.5 16V12C11.5 11.4477 11.9477 11 12.5 11ZM8 12.5H9C9.55228 12.5 10 12.9477 10 13.5V16C10 16.5523 9.55228 17 9 17H8C7.44772 17 7 16.5523 7 16V13.5C7 12.9477 7.44772 12.5 8 12.5Z" fill="black"/>
<path d="M31.0781 16H32.1328V12.3379H35.877V11.4004H32.1328V8.49414H36.2109V7.54492H31.0781V16ZM38.3055 8.46484C38.6922 8.46484 39.0086 8.14844 39.0086 7.76172C39.0086 7.375 38.6922 7.05859 38.3055 7.05859C37.9187 7.05859 37.6023 7.375 37.6023 7.76172C37.6023 8.14844 37.9187 8.46484 38.3055 8.46484ZM37.7898 16H38.8094V9.68359H37.7898V16ZM43.2828 18.2266C45.0055 18.2266 46.0953 17.3242 46.0953 15.9121V9.68359H45.0758V10.7266H45.0055C44.6187 10.0117 43.9273 9.57227 43.0367 9.57227C41.3844 9.57227 40.3648 10.8555 40.3648 12.625V12.6367C40.3648 14.4062 41.3785 15.6719 43.0133 15.6719C43.8805 15.6719 44.5953 15.2793 44.9937 14.582H45.0875V15.8594C45.0875 16.791 44.4137 17.3242 43.2828 17.3242C42.3746 17.3242 41.8121 16.9844 41.7008 16.5039L41.6949 16.498H40.6402L40.6285 16.5039C40.7867 17.541 41.7594 18.2266 43.2828 18.2266ZM43.2359 14.7695C42.0641 14.7695 41.4078 13.8906 41.4078 12.6367V12.625C41.4078 11.3711 42.0641 10.4746 43.2359 10.4746C44.402 10.4746 45.1109 11.3711 45.1109 12.625V12.6367C45.1109 13.8906 44.4078 14.7695 43.2359 14.7695ZM47.9438 16H48.9633V12.0859C48.9633 11.1953 49.5902 10.4746 50.4164 10.4746C51.2133 10.4746 51.7289 10.9609 51.7289 11.7109V16H52.7484V11.9395C52.7484 11.1367 53.3285 10.4746 54.2074 10.4746C55.098 10.4746 55.5258 10.9375 55.5258 11.8691V16H56.5453V11.6348C56.5453 10.3105 55.8246 9.57227 54.5355 9.57227C53.6625 9.57227 52.9418 10.0117 52.602 10.6797H52.5082C52.2152 10.0234 51.6176 9.57227 50.7621 9.57227C49.9359 9.57227 49.3383 9.96484 49.057 10.6445H48.9633V9.68359H47.9438V16ZM60.0695 16.1113C60.9191 16.1113 61.5812 15.7422 61.9797 15.0684H62.0734V16H63.093V11.6758C63.093 10.3633 62.2316 9.57227 60.6906 9.57227C59.343 9.57227 58.382 10.2402 58.218 11.2305L58.2121 11.2656H59.2316L59.2375 11.248C59.4016 10.7559 59.8996 10.4746 60.6555 10.4746C61.5988 10.4746 62.0734 10.8965 62.0734 11.6758V12.25L60.2629 12.3613C58.7922 12.4492 57.9602 13.0996 57.9602 14.2246V14.2363C57.9602 15.3848 58.8684 16.1113 60.0695 16.1113ZM59.0031 14.2129V14.2012C59.0031 13.5742 59.425 13.2344 60.3859 13.1758L62.0734 13.0703V13.6445C62.0734 14.5469 61.3176 15.2266 60.2805 15.2266C59.548 15.2266 59.0031 14.8516 59.0031 14.2129Z" fill="black"/>
<path fill-rule="evenodd" clip-rule="evenodd" d="M81.9828 9.52294C80.0717 7.89057 77.6574 7 75.1327 7C72.6006 7 70.1795 7.89589 68.2661 9.53708L68.1036 9.67646C67.9722 9.78918 67.9647 9.98954 68.0873 10.1118L69.2142 11.2356C69.3236 11.3447 69.4985 11.3521 69.6168 11.2527L69.7564 11.1354C71.2633 9.86943 73.1552 9.18035 75.1327 9.18035C77.1035 9.18035 78.9894 9.86472 80.494 11.1228L80.6336 11.2395C80.7519 11.3385 80.9264 11.3308 81.0356 11.2219L82.1627 10.098C82.2855 9.97558 82.2777 9.77488 82.1459 9.66228L81.9828 9.52294ZM75.1327 10.4698C76.7236 10.4698 78.251 10.9975 79.4953 11.9749L79.6711 12.113C79.8113 12.2231 79.8236 12.4306 79.6974 12.5564L78.5667 13.6841C78.4621 13.7884 78.2966 13.8003 78.178 13.7122L78.0401 13.6098C77.1997 12.9852 76.1864 12.6501 75.1327 12.6501C74.0726 12.6501 73.0533 12.9893 72.2101 13.6211L72.0721 13.7245C71.9535 13.8133 71.7874 13.8016 71.6825 13.697L70.5522 12.5698C70.4262 12.4442 70.4382 12.2373 70.5777 12.1269L70.7526 11.9887C71.9998 11.0027 73.5342 10.4698 75.1327 10.4698ZM75.1327 13.9396C75.7722 13.9396 76.3936 14.1076 76.9411 14.4281L77.163 14.5579C77.3311 14.6563 77.3607 14.8867 77.2228 15.0242L75.3287 16.913C75.2124 17.029 75.0238 17.029 74.9074 16.913L73.0255 15.0363C72.8882 14.8994 72.9169 14.6702 73.0836 14.5711L73.303 14.4406C73.8555 14.1121 74.4848 13.9396 75.1327 13.9396Z" fill="black"/>
<path fill-rule="evenodd" clip-rule="evenodd" d="M330 368H48C40.268 368 34 374.268 34 382V392C34 399.732 40.268 406 48 406H330C337.732 406 344 399.732 344 392V382C344 374.268 337.732 368 330 368ZM48 367C39.7157 367 33 373.716 33 382V392C33 400.284 39.7157 407 48 407H330C338.284 407 345 400.284 345 392V382C345 373.716 338.284 367 330 367H48Z" fill="#C9C9C9"/>
<path fill-rule="evenodd" clip-rule="evenodd" d="M330 432H48C40.268 432 34 438.268 34 446V456C34 463.732 40.268 470 48 470H330C337.732 470 344 463.732 344 456V446C344 438.268 337.732 432 330 432ZM48 431C39.7157 431 33 437.716 33 446V456C33 464.284 39.7157 471 48 471H330C338.284 471 345 464.284 345 456V446C345 437.716 338.284 431 330 431H48Z" fill="#C9C9C9"/>
<path d="M57.46 382.124V392.912H58.444V382.124H57.46ZM52.768 382.952C51.172 382.952 50.032 384.416 50.032 386.708C50.032 389 51.172 390.464 52.768 390.464C54.364 390.464 55.504 389 55.504 386.708C55.504 384.416 54.364 382.952 52.768 382.952ZM52.768 383.84C53.812 383.84 54.556 384.968 54.556 386.708C54.556 388.46 53.812 389.588 52.768 389.588C51.712 389.588 50.968 388.46 50.968 386.708C50.968 384.968 51.712 383.84 52.768 383.84ZM64.2391 389.216H61.9831V384.152H64.2391V389.216ZM66.7471 386.18H65.1511V383.372H61.0591V389.996H65.1511V386.996H66.7471V392.348H67.6831V382.364H66.7471V386.18ZM68.8831 382.124V392.876H69.8191V382.124H68.8831ZM80.5461 382.124H79.5621V387.644H80.5461V382.124ZM72.9141 384.908C72.9141 383.972 73.6941 383.312 74.7381 383.312C75.7941 383.312 76.5621 383.972 76.5621 384.908C76.5621 385.832 75.7941 386.492 74.7381 386.492C73.6941 386.492 72.9141 385.832 72.9141 384.908ZM77.5221 384.908C77.5221 383.48 76.3461 382.508 74.7381 382.508C73.1301 382.508 71.9661 383.48 71.9661 384.908C71.9661 386.324 73.1301 387.284 74.7381 387.284C76.3461 387.284 77.5221 386.324 77.5221 384.908ZM74.5701 391.964V390.776H80.5461V388.172H73.5741V388.952H79.5741V390.044H73.5981V392.744H80.9061V391.964H74.5701Z" fill="#E5E5E5"/>
<path d="M291.26 344.044H293.648V343.228H287.828V344.044H290.288V345.412C290.288 347.236 288.992 349.276 287.456 350.044L288.032 350.824C289.244 350.2 290.288 348.832 290.78 347.26C291.272 348.7 292.28 349.96 293.48 350.56L294.044 349.768C292.484 349.036 291.26 347.128 291.26 345.412V344.044ZM297.692 346.468H295.916V342.136H294.932V352.888H295.916V347.296H297.692V346.468ZM303.547 352.12C301.843 352.12 300.847 351.7 300.847 350.944C300.847 350.188 301.843 349.768 303.547 349.768C305.227 349.768 306.223 350.188 306.223 350.944C306.223 351.7 305.227 352.12 303.547 352.12ZM303.547 349C301.243 349 299.851 349.696 299.851 350.944C299.851 352.192 301.243 352.888 303.547 352.888C305.827 352.888 307.219 352.192 307.219 350.944C307.219 349.696 305.827 349 303.547 349ZM304.039 347.44V346.192H307.279V345.4H300.883V343.408H307.207V342.616H299.899V346.192H303.055V347.44H298.675V348.232H308.419V347.44H304.039ZM315.078 350.752V348.724H318.522V347.932H311.898V346.192H318.27V342.916H310.902V343.72H317.31V345.4H310.926V348.724H314.082V350.752H309.702V351.556H319.482V350.752H315.078ZM328.217 344.344C328.217 345.676 328.217 347.284 327.785 349.48L328.769 349.588C329.189 347.26 329.189 345.712 329.189 344.344V343.264H321.809V344.068H328.217V344.344ZM320.765 350.5V351.316H330.497V350.5H320.765ZM340.624 342.136H339.64V349.996H340.624V342.136ZM333.004 345.52C333.004 344.476 333.796 343.732 334.84 343.732C335.908 343.732 336.7 344.476 336.7 345.52C336.7 346.588 335.908 347.332 334.84 347.332C333.796 347.332 333.004 346.588 333.004 345.52ZM337.66 345.52C337.66 343.972 336.448 342.88 334.84 342.88C333.244 342.88 332.044 343.972 332.044 345.52C332.044 347.08 333.244 348.184 334.84 348.184C336.448 348.184 337.66 347.08 337.66 345.52ZM334.684 351.844V349.192H333.7V352.648H340.948V351.844H334.684Z" fill="#C9C9C9"/>
<path d="M147.492 497.42C146.544 497.42 145.896 496.4 145.896 494.708C145.896 493.016 146.544 491.996 147.492 491.996C148.428 491.996 149.088 493.016 149.088 494.708C149.088 496.4 148.428 497.42 147.492 497.42ZM147.492 490.88C145.872 490.88 144.708 492.368 144.708 494.708C144.708 497.048 145.872 498.524 147.492 498.524C149.112 498.524 150.276 497.048 150.276 494.708C150.276 492.368 149.112 490.88 147.492 490.88ZM154.692 494.324H153V490.088H151.764V500.936H153V495.344H154.692V494.324ZM163.319 490.076V500.948H164.567V490.076H163.319ZM158.795 490.88C157.187 490.88 156.011 492.368 156.011 494.696C156.011 497.048 157.187 498.524 158.795 498.524C160.415 498.524 161.591 497.048 161.591 494.696C161.591 492.368 160.415 490.88 158.795 490.88ZM158.795 491.996C159.743 491.996 160.403 493.016 160.403 494.696C160.403 496.4 159.743 497.42 158.795 497.42C157.859 497.42 157.199 496.4 157.199 494.696C157.199 493.016 157.859 491.996 158.795 491.996ZM168.586 492.104H172.522V491.084H167.362V498.296H168.262C170.506 498.296 171.91 498.236 173.482 497.948L173.35 496.916C171.898 497.192 170.602 497.252 168.586 497.264V492.104ZM174.358 490.076V500.948H175.606V490.076H174.358ZM186.821 495.116C185.177 494.672 184.241 493.52 184.241 492.32V492.236H186.521V491.252H184.253V490.052H183.005V491.252H180.725V492.236H183.005V492.32C183.005 493.628 182.057 494.84 180.389 495.308L180.965 496.268C182.249 495.896 183.161 495.092 183.653 494.06C184.121 494.996 185.021 495.728 186.257 496.076L186.821 495.116ZM189.041 497.84V496.856H181.889V497.84H184.781C184.565 498.824 183.281 499.7 181.433 499.94L181.901 500.888C183.557 500.636 184.853 499.916 185.477 498.908C186.089 499.904 187.385 500.66 189.029 500.9L189.473 499.964C187.661 499.7 186.377 498.8 186.148 497.84H189.041ZM188.885 492.656V490.088H187.649V496.328H188.885V493.676H190.421V492.656H188.885ZM192.076 491.228V492.236H195.94C195.724 494.732 194.38 496.64 191.536 498.008L192.196 498.992C195.916 497.192 197.212 494.456 197.212 491.228H192.076ZM199.168 490.088V500.924H200.404V490.088H199.168Z" fill="#C9C9C9"/>
<path d="M89.44 491.348H86.788V490.112H85.552V491.348H82.888V492.344H89.44V491.348ZM84.7 494.888C84.7 494.228 85.3 493.82 86.176 493.82C87.04 493.82 87.64 494.228 87.64 494.888C87.64 495.56 87.04 495.968 86.176 495.968C85.3 495.968 84.7 495.56 84.7 494.888ZM86.788 496.868C88.012 496.676 88.816 495.944 88.816 494.888C88.816 493.676 87.736 492.872 86.176 492.872C84.604 492.872 83.524 493.676 83.524 494.888C83.524 495.932 84.328 496.676 85.552 496.868V497.924C84.532 497.96 83.536 497.96 82.672 497.96L82.828 498.98C84.796 498.98 87.364 498.944 89.752 498.536L89.668 497.636C88.744 497.768 87.76 497.828 86.788 497.888V496.868ZM90.28 490.076V500.924H91.528V490.076H90.28ZM99.2671 496.448V497.312H101.391V498.32H102.627V490.076H101.391V496.448H99.2671ZM97.1071 491.408C97.9951 491.408 98.6071 491.792 98.6071 492.404C98.6071 493.016 97.9951 493.4 97.1071 493.4C96.2071 493.4 95.5951 493.016 95.5951 492.404C95.5951 491.792 96.2071 491.408 97.1071 491.408ZM97.1071 494.312C98.6911 494.312 99.7831 493.556 99.7831 492.404C99.7831 491.252 98.6911 490.496 97.1071 490.496C95.5111 490.496 94.4191 491.252 94.4191 492.404C94.4191 493.556 95.5111 494.312 97.1071 494.312ZM96.6151 497.972H97.8511V495.884C98.7751 495.824 99.7231 495.728 100.635 495.572L100.539 494.684C98.2471 494.972 95.5831 494.996 93.5911 495.008L93.7471 496.016C94.6111 496.016 95.5831 496.004 96.6151 495.956V497.972ZM96.2911 499.712V497.516H95.0551V500.72H102.879V499.712H96.2911ZM105.218 491.228V492.236H109.01C108.758 494.732 107.33 496.64 104.678 497.996L105.362 498.944C108.902 497.156 110.246 494.372 110.246 491.228H105.218ZM114.722 494.36H113.078V490.076H111.842V500.912H113.078V495.392H114.722V494.36ZM123.421 490.088V495.908H124.657V490.088H123.421ZM117.577 496.412V500.792H124.657V496.412H123.433V497.612H118.801V496.412H117.577ZM118.801 498.572H123.433V499.796H118.801V498.572ZM118.813 490.58C117.157 490.58 115.933 491.612 115.933 493.1C115.933 494.588 117.157 495.62 118.813 495.62C120.469 495.62 121.681 494.588 121.681 493.1C121.681 491.612 120.469 490.58 118.813 490.58ZM118.813 491.6C119.785 491.6 120.481 492.2 120.481 493.1C120.481 494.012 119.785 494.6 118.813 494.6C117.829 494.6 117.145 494.012 117.145 493.1C117.145 492.2 117.829 491.6 118.813 491.6Z" fill="#C9C9C9"/>
<path d="M229.28 490.076V500.948H230.528V490.076H229.28ZM222.188 490.976V498.368H227.396V490.976H226.16V493.736H223.412V490.976H222.188ZM223.412 494.72H226.16V497.372H223.412V494.72ZM241.579 490.088H240.331V495.62H241.579V490.088ZM237.139 494.18H234.415V491.648H237.139V494.18ZM238.339 490.664H233.203V495.164H238.339V490.664ZM235.711 499.856V498.896H241.579V496.136H234.463V497.096H240.355V497.984H234.487V500.828H241.903V499.856H235.711ZM247.962 495.332H245.406V493.568H247.962V495.332ZM249.174 494.072H251.43V498.116H252.666V490.088H251.43V493.064H249.174V490.808H247.962V492.596H245.406V490.808H244.182V496.34H249.174V494.072ZM246.858 499.712V497.324H245.61V500.72H252.918V499.712H246.858ZM264.041 491.564H260.237V490.232H259.001V491.564H255.173V492.56H264.041V491.564ZM257.261 495.26C257.261 494.552 258.125 494.144 259.601 494.144C261.089 494.144 261.953 494.552 261.953 495.26C261.953 495.98 261.089 496.388 259.601 496.388C258.125 496.388 257.261 495.98 257.261 495.26ZM260.237 498.728V497.336C262.097 497.192 263.213 496.46 263.213 495.26C263.213 493.952 261.821 493.184 259.601 493.184C257.393 493.184 256.001 493.952 256.001 495.26C256.001 496.46 257.141 497.204 259.001 497.336V498.728H254.717V499.748H264.545V498.728H260.237ZM274.86 495.116C273.216 494.672 272.28 493.52 272.28 492.32V492.236H274.56V491.252H272.292V490.052H271.044V491.252H268.764V492.236H271.044V492.32C271.044 493.628 270.096 494.84 268.428 495.308L269.004 496.268C270.288 495.896 271.2 495.092 271.692 494.06C272.16 494.996 273.06 495.728 274.296 496.076L274.86 495.116ZM277.08 497.84V496.856H269.928V497.84H272.82C272.604 498.824 271.32 499.7 269.472 499.94L269.94 500.888C271.596 500.636 272.892 499.916 273.516 498.908C274.128 499.904 275.424 500.66 277.068 500.9L277.512 499.964C275.7 499.7 274.416 498.8 274.188 497.84H277.08ZM276.924 492.656V490.088H275.688V496.328H276.924V493.676H278.46V492.656H276.924ZM280.115 491.228V492.236H283.979C283.763 494.732 282.419 496.64 279.575 498.008L280.235 498.992C283.955 497.192 285.251 494.456 285.251 491.228H280.115ZM287.207 490.088V500.924H288.443V490.088H287.207Z" fill="#C9C9C9"/>
<path d="M57.46 446.124V456.9H58.444V446.124H57.46ZM50.248 447.036V454.296H55.312V447.036H54.34V449.88H51.22V447.036H50.248ZM51.22 450.66H54.34V453.492H51.22V450.66ZM69.4951 446.136H68.5111V451.668H69.4951V446.136ZM65.3071 450.336H62.1991V447.504H65.3071V450.336ZM66.2671 446.724H61.2391V451.116H66.2671V446.724ZM63.5191 455.988V454.8H69.4951V452.208H62.5231V452.976H68.5231V454.068H62.5591V456.768H69.8671V455.988H63.5191ZM76.1301 451.464H73.2261V449.52H76.1301V451.464ZM77.1021 449.964H79.5861V454.092H80.5821V446.124H79.5861V449.16H77.1021V446.844H76.1301V448.74H73.2261V446.844H72.2541V452.256H77.1021V449.964ZM74.6421 455.844V453.312H73.6581V456.648H80.8341V455.844H74.6421ZM91.9692 447.696H88.1172V446.292H87.1332V447.696H83.2332V448.5H91.9692V447.696ZM85.0812 451.272C85.0812 450.48 86.0532 450 87.6252 450C89.1732 450 90.1332 450.48 90.1332 451.272C90.1332 452.076 89.1732 452.556 87.6252 452.556C86.0532 452.556 85.0812 452.076 85.0812 451.272ZM88.1172 454.824V453.312C89.9892 453.192 91.1292 452.472 91.1292 451.272C91.1292 449.976 89.7732 449.232 87.6252 449.232C85.4412 449.232 84.0852 449.976 84.0852 451.272C84.0852 452.472 85.2372 453.204 87.1332 453.312V454.824H82.7532V455.628H92.5092V454.824H88.1172Z" fill="#E5E5E5"/>
<rect x="30" y="563" width="315" height="60" rx="15" fill="#C9C9C9"/>
<path d="M139.09 588.084H142.834V593.088H139.09V588.084ZM141.88 597.93V594.582H147.028V593.088H144.67V588.084H147.064V586.59H134.842V588.084H137.236V593.088H134.896V594.582H140.026V597.93H133.618V599.46H148.378V597.93H141.88ZM153.65 587.904H161.39V592.728H153.65V587.904ZM158.456 597.876V594.204H163.208V586.428H151.832V594.204H156.602V597.876H150.194V599.388H164.918V597.876H158.456ZM180.847 593.07C177.643 592.494 175.033 589.992 175.033 587.4V586.176H173.071V587.4C173.071 589.974 170.461 592.476 167.257 593.07L168.049 594.6C170.695 594.06 172.981 592.368 174.043 590.136C175.105 592.368 177.391 594.06 180.037 594.6L180.847 593.07ZM166.753 597.768V599.298H181.477V597.768H166.753ZM196.398 593.718H187.02V591.486H195.912V590.028H187.02V587.94H196.272V586.446H185.13V595.212H196.398V593.718ZM183.312 597.876V599.388H198.054V597.876H183.312ZM215.451 585.132V593.862H217.305V585.132H215.451ZM206.685 594.618V601.188H217.305V594.618H215.469V596.418H208.521V594.618H206.685ZM208.521 597.858H215.469V599.694H208.521V597.858ZM208.539 585.87C206.055 585.87 204.219 587.418 204.219 589.65C204.219 591.882 206.055 593.43 208.539 593.43C211.023 593.43 212.841 591.882 212.841 589.65C212.841 587.418 211.023 585.87 208.539 585.87ZM208.539 587.4C209.997 587.4 211.041 588.3 211.041 589.65C211.041 591.018 209.997 591.9 208.539 591.9C207.063 591.9 206.037 591.018 206.037 589.65C206.037 588.3 207.063 587.4 208.539 587.4ZM230.012 592.782C227.528 591.99 226.178 590.1 226.178 588.084V587.778H229.58V586.284H220.85V587.778H224.306V588.102C224.306 590.316 222.884 592.404 220.328 593.286L221.264 594.744C223.208 594.078 224.576 592.692 225.296 590.964C225.998 592.476 227.294 593.646 229.112 594.222L230.012 592.782ZM227.924 599.928C225.656 599.928 224.342 599.352 224.342 598.308C224.342 597.246 225.656 596.688 227.924 596.688C230.192 596.688 231.506 597.246 231.506 598.308C231.506 599.352 230.192 599.928 227.924 599.928ZM227.924 595.23C224.576 595.23 222.506 596.364 222.506 598.308C222.506 600.234 224.576 601.386 227.924 601.386C231.272 601.386 233.342 600.234 233.342 598.308C233.342 596.364 231.272 595.23 227.924 595.23ZM233.162 589.092V585.132H231.308V594.852H233.162V590.622H235.466V589.092H233.162ZM238.506 595.77H239.892L240.18 588.57L240.252 586.428H238.164L238.218 588.57L238.506 595.77ZM239.19 600.234C239.982 600.234 240.594 599.64 240.594 598.794C240.594 597.93 239.982 597.318 239.19 597.318C238.416 597.318 237.822 597.93 237.822 598.794C237.822 599.64 238.416 600.234 239.19 600.234Z" fill="white"/>
<rect x="212" y="487" width="1" height="16" fill="#C9C9C9"/>
<rect x="135" y="487" width="1" height="16" fill="#C9C9C9"/>
<path d="M267 357C272.5 357 277 352.5 277 347C277 341.5 272.5 337 267 337C261.5 337 257 341.5 257 347C257 352.5 261.5 357 267 357Z" fill="#C9C9C9"/>
<path d="M262 348L265 351L272 344" stroke="white" stroke-linecap="round"/>
<g clip-path="url(#clip1)">
<path d="M171.439 206.282V186.733C171.439 180.83 166.213 176 159.842 176C156.599 176 153.623 177.265 151.525 179.258C151.487 179.297 151.487 179.297 151.449 179.258C149.351 177.265 146.375 176 143.132 176C136.723 176 131.535 180.83 131.535 186.733V206.244C131.535 206.282 131.535 206.282 131.535 206.32C131.535 206.359 131.535 206.359 131.535 206.397C131.573 208.16 133.023 209.578 134.778 209.578C136.571 209.578 138.02 208.122 138.02 206.32C138.02 206.32 138.02 206.32 138.02 206.282C138.02 206.244 138.02 206.282 138.02 206.244V187.154C138.02 184.625 140.271 182.516 143.018 182.516H143.209C145.955 182.516 148.206 184.586 148.206 187.154V186.733V187.269V206.282V206.32V206.359C148.206 208.16 149.656 209.578 151.449 209.578C153.204 209.578 154.615 208.198 154.692 206.435C154.692 206.397 154.692 206.359 154.692 206.32V206.282V206.244V187.269C154.692 187.231 154.692 187.193 154.692 187.154C154.692 184.625 156.942 182.555 159.689 182.555H159.88C162.627 182.555 164.877 184.625 164.877 187.193V206.282C164.877 206.32 164.877 206.32 164.877 206.359C164.877 206.397 164.877 206.397 164.877 206.435C164.916 208.467 166.785 210.038 168.883 209.54C170.295 209.233 171.325 207.93 171.401 206.474L171.439 206.282C171.439 206.32 171.439 206.32 171.439 206.282Z" fill="#FF7556"/>
<path d="M194.863 176.153C183.914 174.773 174.72 184.011 176.093 195.012C177.047 202.525 182.998 208.505 190.476 209.463C201.424 210.843 210.618 201.605 209.245 190.604C208.291 183.091 202.34 177.073 194.863 176.153ZM194.252 202.909C187.386 203.943 181.587 198.079 182.617 191.217C183.265 186.809 186.737 183.321 191.124 182.669C197.991 181.635 203.79 187.499 202.76 194.361C202.111 198.769 198.639 202.257 194.252 202.909Z" fill="#FF7556"/>
<path d="M268.758 176.038H244.953C243.465 176.038 242.091 177.035 241.748 178.491C241.252 180.638 242.854 182.554 244.914 182.554H253.46C253.498 182.554 253.498 182.593 253.498 182.593V206.742C253.498 208.237 254.452 210 256.741 210C258.724 210 259.983 208.811 259.983 206.742V182.593C259.983 182.554 260.021 182.554 260.021 182.554H268.719C270.207 182.554 271.581 181.558 271.924 180.101C272.42 177.916 270.818 176.038 268.758 176.038Z" fill="#FF7556"/>
<path d="M240.451 196.085C240.451 196.047 240.451 196.047 240.451 196.085C240.451 196.047 240.413 196.009 240.413 196.009C240.336 195.855 240.26 195.664 240.184 195.51C240.145 195.434 240.145 195.395 240.107 195.319C240.031 195.165 239.955 195.012 239.878 194.859C239.84 194.782 239.802 194.706 239.764 194.667C239.688 194.514 239.611 194.361 239.497 194.246C239.459 194.169 239.421 194.092 239.344 194.054C239.268 193.939 239.154 193.786 239.077 193.671C239.039 193.594 238.963 193.517 238.925 193.479C238.81 193.364 238.734 193.249 238.62 193.096C238.581 193.019 238.505 192.981 238.467 192.904C238.352 192.789 238.238 192.674 238.124 192.559C238.047 192.482 238.009 192.444 237.933 192.367C237.818 192.252 237.704 192.137 237.589 192.022C237.513 191.984 237.475 191.907 237.399 191.869C237.284 191.754 237.132 191.639 236.979 191.562C236.903 191.524 236.865 191.486 236.788 191.409C236.636 191.294 236.521 191.217 236.369 191.141C236.292 191.102 236.254 191.064 236.178 191.026C236.025 190.949 235.873 190.834 235.72 190.757C235.644 190.719 235.606 190.681 235.529 190.642C235.377 190.566 235.224 190.489 235.072 190.412C234.995 190.374 234.919 190.336 234.881 190.336C234.728 190.259 234.538 190.221 234.385 190.144C234.309 190.106 234.232 190.106 234.156 190.067C234.003 190.029 233.813 189.952 233.66 189.914C233.584 189.876 233.508 189.876 233.431 189.876C233.241 189.837 233.088 189.799 232.897 189.761C232.821 189.761 232.745 189.722 232.668 189.722C232.478 189.684 232.287 189.684 232.134 189.646C232.058 189.646 231.982 189.646 231.905 189.607C231.715 189.607 231.524 189.569 231.333 189.569C231.295 189.569 231.257 189.569 231.219 189.569C231.142 189.569 231.104 189.569 231.028 189.569H224.199C222.025 189.531 220.346 187.499 220.88 185.199C221.262 183.628 222.711 182.554 224.276 182.554H235.644C235.682 182.554 235.72 182.554 235.796 182.554C235.835 182.554 235.911 182.554 235.949 182.554C237.666 182.554 239.077 181.06 239.077 179.296C239.077 177.495 237.666 176.038 235.873 176.038C235.835 176.038 235.835 176.038 235.796 176.038C235.758 176.038 235.758 176.038 235.72 176.038H224.199C218.706 176.038 214.28 180.523 214.28 186.004V186.043C214.28 187.269 214.509 188.457 214.891 189.531C216.302 193.326 219.927 196.047 224.199 196.085H224.237H231.028H231.066C232.439 196.085 233.736 196.929 234.232 198.232C235.148 200.724 233.355 203.062 230.99 203.062H215.692C215.654 203.062 215.616 203.062 215.616 203.062C215.578 203.062 215.578 203.062 215.539 203.062C213.785 203.1 212.373 204.557 212.373 206.358C212.373 208.16 213.823 209.616 215.578 209.655H215.616H215.654H230.875C235.758 209.655 240.031 206.205 240.832 201.375C241.252 199.459 241.061 197.657 240.451 196.085Z" fill="#FF7556"/>
<path d="M124.135 197.772H126.233C127.644 197.772 128.789 198.922 128.789 200.34C128.789 201.759 127.644 202.909 126.233 202.909H124.135C123.906 202.909 123.677 203.1 123.677 203.369V206.665C123.677 208.237 122.418 209.54 120.816 209.54C119.251 209.54 117.954 208.275 117.954 206.665V203.369C117.954 203.139 117.764 202.909 117.497 202.909H107.158C104.869 202.947 103 201.069 103 198.769C103 198.117 103.153 197.466 103.458 196.891L112.079 179.565C113.109 177.495 115.246 176.153 117.573 176.153C120.968 176.153 123.715 178.913 123.715 182.325V197.312C123.677 197.581 123.906 197.772 124.135 197.772ZM117.993 197.312V182.555C117.993 182.095 117.344 181.941 117.153 182.363L109.791 196.737C109.562 197.197 109.905 197.772 110.439 197.772H117.573C117.802 197.772 117.993 197.581 117.993 197.312Z" fill="#FF7556"/>
</g>
</g>
<g clip-path="url(#clip2)">
<rect width="375" height="667" transform="translate(415)" fill="white"/>
<path d="M583.279 7.33398C581.445 7.33398 580.139 8.58789 580.139 10.3047V10.3164C580.139 11.9219 581.275 13.1055 582.898 13.1055C584.059 13.1055 584.797 12.5137 585.107 11.8457H585.225C585.225 11.9102 585.219 11.9746 585.219 12.0391C585.154 13.6562 584.586 14.9688 583.244 14.9688C582.5 14.9688 581.979 14.582 581.756 13.9902L581.738 13.9316H580.25L580.262 13.9961C580.531 15.291 581.691 16.2109 583.244 16.2109C585.371 16.2109 586.654 14.5234 586.654 11.6758V11.6641C586.654 8.61719 585.084 7.33398 583.279 7.33398ZM583.273 11.9453C582.312 11.9453 581.615 11.2422 581.615 10.2637V10.252C581.615 9.30859 582.359 8.56445 583.291 8.56445C584.229 8.56445 584.961 9.32031 584.961 10.2871V10.2988C584.961 11.2539 584.229 11.9453 583.273 11.9453ZM589.314 10.5215C589.854 10.5215 590.246 10.1113 590.246 9.5957C590.246 9.07422 589.854 8.66992 589.314 8.66992C588.781 8.66992 588.383 9.07422 588.383 9.5957C588.383 10.1113 588.781 10.5215 589.314 10.5215ZM589.314 14.8691C589.854 14.8691 590.246 14.4648 590.246 13.9434C590.246 13.4219 589.854 13.0176 589.314 13.0176C588.781 13.0176 588.383 13.4219 588.383 13.9434C588.383 14.4648 588.781 14.8691 589.314 14.8691ZM596.076 16H597.523V14.377H598.66V13.1289H597.523V7.54492H595.385C594.236 9.29102 593.035 11.2363 591.939 13.1406V14.377H596.076V16ZM593.346 13.1641V13.0762C594.166 11.6406 595.145 10.0762 596.012 8.75195H596.1V13.1641H593.346ZM602.164 16H603.676V7.54492H602.17L599.961 9.09766V10.5215L602.064 9.0332H602.164V16ZM608.756 16H610.338L611.041 13.8145H614.17L614.879 16H616.461L613.461 7.54492H611.756L608.756 16ZM612.559 9.11523H612.658L613.795 12.6484H611.422L612.559 9.11523ZM617.914 16H619.279V9.98828H619.379L621.723 16H622.754L625.098 9.98828H625.203V16H626.562V7.54492H624.828L622.291 14.0488H622.191L619.648 7.54492H617.914V16Z" fill="black"/>
<path opacity="0.35" fill-rule="evenodd" clip-rule="evenodd" d="M761.5 6.5H780.5C781.881 6.5 783 7.61929 783 9V15.5C783 16.8807 781.881 18 780.5 18H761.5C760.119 18 759 16.8807 759 15.5V9C759 7.61929 760.119 6.5 761.5 6.5ZM761.5 7.5C760.672 7.5 760 8.17157 760 9V15.5C760 16.3284 760.672 17 761.5 17H780.5C781.328 17 782 16.3284 782 15.5V9C782 8.17157 781.328 7.5 780.5 7.5H761.5Z" fill="black"/>
<path opacity="0.4" fill-rule="evenodd" clip-rule="evenodd" d="M784 9.7998C784.89 10.255 785.5 11.1813 785.5 12.2499C785.5 13.3186 784.89 14.2449 784 14.7001V9.7998Z" fill="black"/>
<path fill-rule="evenodd" clip-rule="evenodd" d="M762 8.5H780C780.552 8.5 781 8.94772 781 9.5V15C781 15.5523 780.552 16 780 16H762C761.448 16 761 15.5523 761 15V9.5C761 8.94772 761.448 8.5 762 8.5Z" fill="black"/>
<path d="M727.219 16.2998H728.273V7.84473H727.225L724.975 9.46191V10.5752L727.125 9.0166H727.219V16.2998ZM733.547 16.499C735.416 16.499 736.541 14.7939 736.541 12.0752V12.0635C736.541 9.34473 735.416 7.64551 733.547 7.64551C731.678 7.64551 730.564 9.34473 730.564 12.0635V12.0752C730.564 14.7939 731.678 16.499 733.547 16.499ZM733.547 15.5791C732.334 15.5791 731.625 14.2314 731.625 12.0752V12.0635C731.625 9.90723 732.334 8.57129 733.547 8.57129C734.76 8.57129 735.48 9.90723 735.48 12.0635V12.0752C735.48 14.2314 734.76 15.5791 733.547 15.5791ZM741.105 16.499C742.975 16.499 744.1 14.7939 744.1 12.0752V12.0635C744.1 9.34473 742.975 7.64551 741.105 7.64551C739.236 7.64551 738.123 9.34473 738.123 12.0635V12.0752C738.123 14.7939 739.236 16.499 741.105 16.499ZM741.105 15.5791C739.893 15.5791 739.184 14.2314 739.184 12.0752V12.0635C739.184 9.90723 739.893 8.57129 741.105 8.57129C742.318 8.57129 743.039 9.90723 743.039 12.0635V12.0752C743.039 14.2314 742.318 15.5791 741.105 15.5791ZM747.41 12.292C748.488 12.292 749.145 11.4131 749.145 10.0127V10.0068C749.145 8.60645 748.488 7.7334 747.41 7.7334C746.332 7.7334 745.682 8.60645 745.682 10.0068V10.0127C745.682 11.4131 746.332 12.292 747.41 12.292ZM748.043 16.2998L753.797 7.84473H752.848L747.094 16.2998H748.043ZM747.41 11.5947C746.83 11.5947 746.496 11.0029 746.496 10.0127V10.0068C746.496 9.0166 746.83 8.43066 747.41 8.43066C747.99 8.43066 748.33 9.0166 748.33 10.0068V10.0127C748.33 11.0029 747.99 11.5947 747.41 11.5947ZM753.469 16.4111C754.547 16.4111 755.203 15.5322 755.203 14.1318V14.126C755.203 12.7256 754.547 11.8525 753.469 11.8525C752.391 11.8525 751.74 12.7256 751.74 14.126V14.1318C751.74 15.5322 752.391 16.4111 753.469 16.4111ZM753.469 15.7139C752.889 15.7139 752.555 15.1221 752.555 14.1318V14.126C752.555 13.1357 752.889 12.5498 753.469 12.5498C754.049 12.5498 754.389 13.1357 754.389 14.126V14.1318C754.389 15.1221 754.049 15.7139 753.469 15.7139Z" fill="black"/>
<path fill-rule="evenodd" clip-rule="evenodd" d="M697.269 9.69225C697.1 9.46378 697 9.18107 697 8.875C697 8.11561 697.616 7.5 698.375 7.5C698.647 7.5 698.901 7.57923 699.115 7.7159C698.344 8.20596 697.707 8.88693 697.269 9.69225ZM706.37 12.255C706.37 14.6712 704.411 16.63 701.995 16.63C699.579 16.63 697.62 14.6712 697.62 12.255C697.62 9.83875 699.579 7.88 701.995 7.88C704.411 7.88 706.37 9.83875 706.37 12.255ZM702.38 12.875H700.25V12.12H701.63V9.5H702.38V12.875ZM705.625 7.5C705.35 7.5 705.095 7.58046 704.88 7.71909C705.651 8.21049 706.288 8.89306 706.725 9.70001C706.898 9.4702 707 9.18455 707 8.875C707 8.11561 706.384 7.5 705.625 7.5Z" fill="black"/>
<path fill-rule="evenodd" clip-rule="evenodd" d="M716 11.9833V11.9711L713.044 9.28354L713.717 8.5436L716 10.6196V6.11963L719.994 9.7499L717.519 11.9999L719.994 14.2499L716 17.8802V13.3347L713.717 15.4108L713.044 14.6708L716 11.9833ZM717 11.1196L718.507 9.7499L717 8.38018V11.1196ZM718.507 14.2499L717 15.6196V12.8802L718.507 14.2499Z" fill="black"/>
<path opacity="0.25" fill-rule="evenodd" clip-rule="evenodd" d="M436.5 7H437.5C438.052 7 438.5 7.44772 438.5 8V16C438.5 16.5523 438.052 17 437.5 17H436.5C435.948 17 435.5 16.5523 435.5 16V8C435.5 7.44772 435.948 7 436.5 7Z" fill="black"/>
<path fill-rule="evenodd" clip-rule="evenodd" d="M433 9H432C431.448 9 431 9.44772 431 10V16C431 16.5523 431.448 17 432 17H433C433.552 17 434 16.5523 434 16V10C434 9.44772 433.552 9 433 9ZM427.5 11H428.5C429.052 11 429.5 11.4477 429.5 12V16C429.5 16.5523 429.052 17 428.5 17H427.5C426.948 17 426.5 16.5523 426.5 16V12C426.5 11.4477 426.948 11 427.5 11ZM423 12.5H424C424.552 12.5 425 12.9477 425 13.5V16C425 16.5523 424.552 17 424 17H423C422.448 17 422 16.5523 422 16V13.5C422 12.9477 422.448 12.5 423 12.5Z" fill="black"/>
<path d="M446.078 16H447.133V12.3379H450.877V11.4004H447.133V8.49414H451.211V7.54492H446.078V16ZM453.305 8.46484C453.692 8.46484 454.009 8.14844 454.009 7.76172C454.009 7.375 453.692 7.05859 453.305 7.05859C452.919 7.05859 452.602 7.375 452.602 7.76172C452.602 8.14844 452.919 8.46484 453.305 8.46484ZM452.79 16H453.809V9.68359H452.79V16ZM458.283 18.2266C460.005 18.2266 461.095 17.3242 461.095 15.9121V9.68359H460.076V10.7266H460.005C459.619 10.0117 458.927 9.57227 458.037 9.57227C456.384 9.57227 455.365 10.8555 455.365 12.625V12.6367C455.365 14.4062 456.379 15.6719 458.013 15.6719C458.88 15.6719 459.595 15.2793 459.994 14.582H460.087V15.8594C460.087 16.791 459.414 17.3242 458.283 17.3242C457.375 17.3242 456.812 16.9844 456.701 16.5039L456.695 16.498H455.64L455.629 16.5039C455.787 17.541 456.759 18.2266 458.283 18.2266ZM458.236 14.7695C457.064 14.7695 456.408 13.8906 456.408 12.6367V12.625C456.408 11.3711 457.064 10.4746 458.236 10.4746C459.402 10.4746 460.111 11.3711 460.111 12.625V12.6367C460.111 13.8906 459.408 14.7695 458.236 14.7695ZM462.944 16H463.963V12.0859C463.963 11.1953 464.59 10.4746 465.416 10.4746C466.213 10.4746 466.729 10.9609 466.729 11.7109V16H467.748V11.9395C467.748 11.1367 468.329 10.4746 469.207 10.4746C470.098 10.4746 470.526 10.9375 470.526 11.8691V16H471.545V11.6348C471.545 10.3105 470.825 9.57227 469.536 9.57227C468.663 9.57227 467.942 10.0117 467.602 10.6797H467.508C467.215 10.0234 466.618 9.57227 465.762 9.57227C464.936 9.57227 464.338 9.96484 464.057 10.6445H463.963V9.68359H462.944V16ZM475.07 16.1113C475.919 16.1113 476.581 15.7422 476.98 15.0684H477.073V16H478.093V11.6758C478.093 10.3633 477.232 9.57227 475.691 9.57227C474.343 9.57227 473.382 10.2402 473.218 11.2305L473.212 11.2656H474.232L474.237 11.248C474.402 10.7559 474.9 10.4746 475.655 10.4746C476.599 10.4746 477.073 10.8965 477.073 11.6758V12.25L475.263 12.3613C473.792 12.4492 472.96 13.0996 472.96 14.2246V14.2363C472.96 15.3848 473.868 16.1113 475.07 16.1113ZM474.003 14.2129V14.2012C474.003 13.5742 474.425 13.2344 475.386 13.1758L477.073 13.0703V13.6445C477.073 14.5469 476.318 15.2266 475.28 15.2266C474.548 15.2266 474.003 14.8516 474.003 14.2129Z" fill="black"/>
<path fill-rule="evenodd" clip-rule="evenodd" d="M496.983 9.52294C495.072 7.89057 492.657 7 490.133 7C487.601 7 485.18 7.89589 483.266 9.53708L483.104 9.67646C482.972 9.78918 482.965 9.98954 483.087 10.1118L484.214 11.2356C484.324 11.3447 484.498 11.3521 484.617 11.2527L484.756 11.1354C486.263 9.86943 488.155 9.18035 490.133 9.18035C492.104 9.18035 493.989 9.86472 495.494 11.1228L495.634 11.2395C495.752 11.3385 495.926 11.3308 496.036 11.2219L497.163 10.098C497.285 9.97558 497.278 9.77488 497.146 9.66228L496.983 9.52294ZM490.133 10.4698C491.724 10.4698 493.251 10.9975 494.495 11.9749L494.671 12.113C494.811 12.2231 494.824 12.4306 494.697 12.5564L493.567 13.6841C493.462 13.7884 493.297 13.8003 493.178 13.7122L493.04 13.6098C492.2 12.9852 491.186 12.6501 490.133 12.6501C489.073 12.6501 488.053 12.9893 487.21 13.6211L487.072 13.7245C486.954 13.8133 486.787 13.8016 486.683 13.697L485.552 12.5698C485.426 12.4442 485.438 12.2373 485.578 12.1269L485.753 11.9887C487 11.0027 488.534 10.4698 490.133 10.4698ZM490.133 13.9396C490.772 13.9396 491.394 14.1076 491.941 14.4281L492.163 14.5579C492.331 14.6563 492.361 14.8867 492.223 15.0242L490.329 16.913C490.212 17.029 490.024 17.029 489.907 16.913L488.026 15.0363C487.888 14.8994 487.917 14.6702 488.084 14.5711L488.303 14.4406C488.856 14.1121 489.485 13.9396 490.133 13.9396Z" fill="black"/>
<mask id="path-42-inside-1" fill="white">
<path fill-rule="evenodd" clip-rule="evenodd" d="M745 368H463C455.268 368 449 374.268 449 382V392C449 399.732 455.268 406 463 406H745C752.732 406 759 399.732 759 392V382C759 374.268 752.732 368 745 368ZM463 367C454.716 367 448 373.716 448 382V392C448 400.284 454.716 407 463 407H745C753.284 407 760 400.284 760 392V382C760 373.716 753.284 367 745 367H463Z"/>
</mask>
<path fill-rule="evenodd" clip-rule="evenodd" d="M745 368H463C455.268 368 449 374.268 449 382V392C449 399.732 455.268 406 463 406H745C752.732 406 759 399.732 759 392V382C759 374.268 752.732 368 745 368ZM463 367C454.716 367 448 373.716 448 382V392C448 400.284 454.716 407 463 407H745C753.284 407 760 400.284 760 392V382C760 373.716 753.284 367 745 367H463Z" fill="#C9C9C9"/>
<path d="M463 369H745V367H463V369ZM450 382C450 374.82 455.82 369 463 369V367C454.716 367 448 373.716 448 382H450ZM450 392V382H448V392H450ZM463 405C455.82 405 450 399.18 450 392H448C448 400.284 454.716 407 463 407V405ZM745 405H463V407H745V405ZM758 392C758 399.18 752.18 405 745 405V407C753.284 407 760 400.284 760 392H758ZM758 382V392H760V382H758ZM745 369C752.18 369 758 374.82 758 382H760C760 373.716 753.284 367 745 367V369ZM449 382C449 374.268 455.268 368 463 368V366C454.163 366 447 373.163 447 382H449ZM449 392V382H447V392H449ZM463 406C455.268 406 449 399.732 449 392H447C447 400.837 454.163 408 463 408V406ZM745 406H463V408H745V406ZM759 392C759 399.732 752.732 406 745 406V408C753.837 408 761 400.837 761 392H759ZM759 382V392H761V382H759ZM745 368C752.732 368 759 374.268 759 382H761C761 373.163 753.837 366 745 366V368ZM463 368H745V366H463V368Z" fill="#FF7556" mask="url(#path-42-inside-1)"/>
<mask id="path-44-inside-2" fill="white">
<path fill-rule="evenodd" clip-rule="evenodd" d="M745 432H463C455.268 432 449 438.268 449 446V456C449 463.732 455.268 470 463 470H745C752.732 470 759 463.732 759 456V446C759 438.268 752.732 432 745 432ZM463 431C454.716 431 448 437.716 448 446V456C448 464.284 454.716 471 463 471H745C753.284 471 760 464.284 760 456V446C760 437.716 753.284 431 745 431H463Z"/>
</mask>
<path fill-rule="evenodd" clip-rule="evenodd" d="M745 432H463C455.268 432 449 438.268 449 446V456C449 463.732 455.268 470 463 470H745C752.732 470 759 463.732 759 456V446C759 438.268 752.732 432 745 432ZM463 431C454.716 431 448 437.716 448 446V456C448 464.284 454.716 471 463 471H745C753.284 471 760 464.284 760 456V446C760 437.716 753.284 431 745 431H463Z" fill="#C9C9C9"/>
<path d="M463 433H745V431H463V433ZM450 446C450 438.82 455.82 433 463 433V431C454.716 431 448 437.716 448 446H450ZM450 456V446H448V456H450ZM463 469C455.82 469 450 463.18 450 456H448C448 464.284 454.716 471 463 471V469ZM745 469H463V471H745V469ZM758 456C758 463.18 752.18 469 745 469V471C753.284 471 760 464.284 760 456H758ZM758 446V456H760V446H758ZM745 433C752.18 433 758 438.82 758 446H760C760 437.716 753.284 431 745 431V433ZM449 446C449 438.268 455.268 432 463 432V430C454.163 430 447 437.163 447 446H449ZM449 456V446H447V456H449ZM463 470C455.268 470 449 463.732 449 456H447C447 464.837 454.163 472 463 472V470ZM745 470H463V472H745V470ZM759 456C759 463.732 752.732 470 745 470V472C753.837 472 761 464.837 761 456H759ZM759 446V456H761V446H759ZM745 432C752.732 432 759 438.268 759 446H761C761 437.163 753.837 430 745 430V432ZM463 432H745V430H463V432Z" fill="#FF7556" mask="url(#path-44-inside-2)"/>
<path d="M706.26 344.044H708.648V343.228H702.828V344.044H705.288V345.412C705.288 347.236 703.992 349.276 702.456 350.044L703.032 350.824C704.244 350.2 705.288 348.832 705.78 347.26C706.272 348.7 707.28 349.96 708.48 350.56L709.044 349.768C707.484 349.036 706.26 347.128 706.26 345.412V344.044ZM712.692 346.468H710.916V342.136H709.932V352.888H710.916V347.296H712.692V346.468ZM718.547 352.12C716.843 352.12 715.847 351.7 715.847 350.944C715.847 350.188 716.843 349.768 718.547 349.768C720.227 349.768 721.223 350.188 721.223 350.944C721.223 351.7 720.227 352.12 718.547 352.12ZM718.547 349C716.243 349 714.851 349.696 714.851 350.944C714.851 352.192 716.243 352.888 718.547 352.888C720.827 352.888 722.219 352.192 722.219 350.944C722.219 349.696 720.827 349 718.547 349ZM719.039 347.44V346.192H722.279V345.4H715.883V343.408H722.207V342.616H714.899V346.192H718.055V347.44H713.675V348.232H723.419V347.44H719.039ZM730.078 350.752V348.724H733.522V347.932H726.898V346.192H733.27V342.916H725.902V343.72H732.31V345.4H725.926V348.724H729.082V350.752H724.702V351.556H734.482V350.752H730.078ZM743.217 344.344C743.217 345.676 743.217 347.284 742.785 349.48L743.769 349.588C744.189 347.26 744.189 345.712 744.189 344.344V343.264H736.809V344.068H743.217V344.344ZM735.765 350.5V351.316H745.497V350.5H735.765ZM755.624 342.136H754.64V349.996H755.624V342.136ZM748.004 345.52C748.004 344.476 748.796 343.732 749.84 343.732C750.908 343.732 751.7 344.476 751.7 345.52C751.7 346.588 750.908 347.332 749.84 347.332C748.796 347.332 748.004 346.588 748.004 345.52ZM752.66 345.52C752.66 343.972 751.448 342.88 749.84 342.88C748.244 342.88 747.044 343.972 747.044 345.52C747.044 347.08 748.244 348.184 749.84 348.184C751.448 348.184 752.66 347.08 752.66 345.52ZM749.684 351.844V349.192H748.7V352.648H755.948V351.844H749.684Z" fill="#C9C9C9"/>
<path d="M563.492 497.42C562.544 497.42 561.896 496.4 561.896 494.708C561.896 493.016 562.544 491.996 563.492 491.996C564.428 491.996 565.088 493.016 565.088 494.708C565.088 496.4 564.428 497.42 563.492 497.42ZM563.492 490.88C561.872 490.88 560.708 492.368 560.708 494.708C560.708 497.048 561.872 498.524 563.492 498.524C565.112 498.524 566.276 497.048 566.276 494.708C566.276 492.368 565.112 490.88 563.492 490.88ZM570.692 494.324H569V490.088H567.764V500.936H569V495.344H570.692V494.324ZM579.319 490.076V500.948H580.567V490.076H579.319ZM574.795 490.88C573.187 490.88 572.011 492.368 572.011 494.696C572.011 497.048 573.187 498.524 574.795 498.524C576.415 498.524 577.591 497.048 577.591 494.696C577.591 492.368 576.415 490.88 574.795 490.88ZM574.795 491.996C575.743 491.996 576.403 493.016 576.403 494.696C576.403 496.4 575.743 497.42 574.795 497.42C573.859 497.42 573.199 496.4 573.199 494.696C573.199 493.016 573.859 491.996 574.795 491.996ZM584.586 492.104H588.522V491.084H583.362V498.296H584.262C586.506 498.296 587.91 498.236 589.482 497.948L589.35 496.916C587.898 497.192 586.602 497.252 584.586 497.264V492.104ZM590.358 490.076V500.948H591.606V490.076H590.358ZM602.821 495.116C601.177 494.672 600.241 493.52 600.241 492.32V492.236H602.521V491.252H600.253V490.052H599.005V491.252H596.725V492.236H599.005V492.32C599.005 493.628 598.057 494.84 596.389 495.308L596.965 496.268C598.249 495.896 599.161 495.092 599.653 494.06C600.121 494.996 601.021 495.728 602.257 496.076L602.821 495.116ZM605.041 497.84V496.856H597.889V497.84H600.781C600.565 498.824 599.281 499.7 597.433 499.94L597.901 500.888C599.557 500.636 600.853 499.916 601.477 498.908C602.089 499.904 603.385 500.66 605.029 500.9L605.473 499.964C603.661 499.7 602.377 498.8 602.148 497.84H605.041ZM604.885 492.656V490.088H603.649V496.328H604.885V493.676H606.421V492.656H604.885ZM608.076 491.228V492.236H611.94C611.724 494.732 610.38 496.64 607.536 498.008L608.196 498.992C611.916 497.192 613.212 494.456 613.212 491.228H608.076ZM615.168 490.088V500.924H616.404V490.088H615.168Z" fill="#C9C9C9"/>
<path d="M505.44 491.348H502.788V490.112H501.552V491.348H498.888V492.344H505.44V491.348ZM500.7 494.888C500.7 494.228 501.3 493.82 502.176 493.82C503.04 493.82 503.64 494.228 503.64 494.888C503.64 495.56 503.04 495.968 502.176 495.968C501.3 495.968 500.7 495.56 500.7 494.888ZM502.788 496.868C504.012 496.676 504.816 495.944 504.816 494.888C504.816 493.676 503.736 492.872 502.176 492.872C500.604 492.872 499.524 493.676 499.524 494.888C499.524 495.932 500.328 496.676 501.552 496.868V497.924C500.532 497.96 499.536 497.96 498.672 497.96L498.828 498.98C500.796 498.98 503.364 498.944 505.752 498.536L505.668 497.636C504.744 497.768 503.76 497.828 502.788 497.888V496.868ZM506.28 490.076V500.924H507.528V490.076H506.28ZM515.267 496.448V497.312H517.391V498.32H518.627V490.076H517.391V496.448H515.267ZM513.107 491.408C513.995 491.408 514.607 491.792 514.607 492.404C514.607 493.016 513.995 493.4 513.107 493.4C512.207 493.4 511.595 493.016 511.595 492.404C511.595 491.792 512.207 491.408 513.107 491.408ZM513.107 494.312C514.691 494.312 515.783 493.556 515.783 492.404C515.783 491.252 514.691 490.496 513.107 490.496C511.511 490.496 510.419 491.252 510.419 492.404C510.419 493.556 511.511 494.312 513.107 494.312ZM512.615 497.972H513.851V495.884C514.775 495.824 515.723 495.728 516.635 495.572L516.539 494.684C514.247 494.972 511.583 494.996 509.591 495.008L509.747 496.016C510.611 496.016 511.583 496.004 512.615 495.956V497.972ZM512.291 499.712V497.516H511.055V500.72H518.879V499.712H512.291ZM521.218 491.228V492.236H525.01C524.758 494.732 523.33 496.64 520.678 497.996L521.362 498.944C524.902 497.156 526.246 494.372 526.246 491.228H521.218ZM530.722 494.36H529.078V490.076H527.842V500.912H529.078V495.392H530.722V494.36ZM539.421 490.088V495.908H540.657V490.088H539.421ZM533.577 496.412V500.792H540.657V496.412H539.433V497.612H534.801V496.412H533.577ZM534.801 498.572H539.433V499.796H534.801V498.572ZM534.813 490.58C533.157 490.58 531.933 491.612 531.933 493.1C531.933 494.588 533.157 495.62 534.813 495.62C536.469 495.62 537.681 494.588 537.681 493.1C537.681 491.612 536.469 490.58 534.813 490.58ZM534.813 491.6C535.785 491.6 536.481 492.2 536.481 493.1C536.481 494.012 535.785 494.6 534.813 494.6C533.829 494.6 533.145 494.012 533.145 493.1C533.145 492.2 533.829 491.6 534.813 491.6Z" fill="#C9C9C9"/>
<path d="M645.28 490.076V500.948H646.528V490.076H645.28ZM638.188 490.976V498.368H643.396V490.976H642.16V493.736H639.412V490.976H638.188ZM639.412 494.72H642.16V497.372H639.412V494.72ZM657.579 490.088H656.331V495.62H657.579V490.088ZM653.139 494.18H650.415V491.648H653.139V494.18ZM654.339 490.664H649.203V495.164H654.339V490.664ZM651.711 499.856V498.896H657.579V496.136H650.463V497.096H656.355V497.984H650.487V500.828H657.903V499.856H651.711ZM663.962 495.332H661.406V493.568H663.962V495.332ZM665.174 494.072H667.43V498.116H668.666V490.088H667.43V493.064H665.174V490.808H663.962V492.596H661.406V490.808H660.182V496.34H665.174V494.072ZM662.858 499.712V497.324H661.61V500.72H668.918V499.712H662.858ZM680.041 491.564H676.237V490.232H675.001V491.564H671.173V492.56H680.041V491.564ZM673.261 495.26C673.261 494.552 674.125 494.144 675.601 494.144C677.089 494.144 677.953 494.552 677.953 495.26C677.953 495.98 677.089 496.388 675.601 496.388C674.125 496.388 673.261 495.98 673.261 495.26ZM676.237 498.728V497.336C678.097 497.192 679.213 496.46 679.213 495.26C679.213 493.952 677.821 493.184 675.601 493.184C673.393 493.184 672.001 493.952 672.001 495.26C672.001 496.46 673.141 497.204 675.001 497.336V498.728H670.717V499.748H680.545V498.728H676.237ZM690.86 495.116C689.216 494.672 688.28 493.52 688.28 492.32V492.236H690.56V491.252H688.292V490.052H687.044V491.252H684.764V492.236H687.044V492.32C687.044 493.628 686.096 494.84 684.428 495.308L685.004 496.268C686.288 495.896 687.2 495.092 687.692 494.06C688.16 494.996 689.06 495.728 690.296 496.076L690.86 495.116ZM693.08 497.84V496.856H685.928V497.84H688.82C688.604 498.824 687.32 499.7 685.472 499.94L685.94 500.888C687.596 500.636 688.892 499.916 689.516 498.908C690.128 499.904 691.424 500.66 693.068 500.9L693.512 499.964C691.7 499.7 690.416 498.8 690.188 497.84H693.08ZM692.924 492.656V490.088H691.688V496.328H692.924V493.676H694.46V492.656H692.924ZM696.115 491.228V492.236H699.979C699.763 494.732 698.419 496.64 695.575 498.008L696.235 498.992C699.955 497.192 701.251 494.456 701.251 491.228H696.115ZM703.207 490.088V500.924H704.443V490.088H703.207Z" fill="#C9C9C9"/>
<rect x="445" y="563" width="315" height="60" rx="15" fill="#FF7556"/>
<path d="M554.09 588.084H557.834V593.088H554.09V588.084ZM556.88 597.93V594.582H562.028V593.088H559.67V588.084H562.064V586.59H549.842V588.084H552.236V593.088H549.896V594.582H555.026V597.93H548.618V599.46H563.378V597.93H556.88ZM568.65 587.904H576.39V592.728H568.65V587.904ZM573.456 597.876V594.204H578.208V586.428H566.832V594.204H571.602V597.876H565.194V599.388H579.918V597.876H573.456ZM595.847 593.07C592.643 592.494 590.033 589.992 590.033 587.4V586.176H588.071V587.4C588.071 589.974 585.461 592.476 582.257 593.07L583.049 594.6C585.695 594.06 587.981 592.368 589.043 590.136C590.105 592.368 592.391 594.06 595.037 594.6L595.847 593.07ZM581.753 597.768V599.298H596.477V597.768H581.753ZM611.398 593.718H602.02V591.486H610.912V590.028H602.02V587.94H611.272V586.446H600.13V595.212H611.398V593.718ZM598.312 597.876V599.388H613.054V597.876H598.312ZM630.451 585.132V593.862H632.305V585.132H630.451ZM621.685 594.618V601.188H632.305V594.618H630.469V596.418H623.521V594.618H621.685ZM623.521 597.858H630.469V599.694H623.521V597.858ZM623.539 585.87C621.055 585.87 619.219 587.418 619.219 589.65C619.219 591.882 621.055 593.43 623.539 593.43C626.023 593.43 627.841 591.882 627.841 589.65C627.841 587.418 626.023 585.87 623.539 585.87ZM623.539 587.4C624.997 587.4 626.041 588.3 626.041 589.65C626.041 591.018 624.997 591.9 623.539 591.9C622.063 591.9 621.037 591.018 621.037 589.65C621.037 588.3 622.063 587.4 623.539 587.4ZM645.012 592.782C642.528 591.99 641.178 590.1 641.178 588.084V587.778H644.58V586.284H635.85V587.778H639.306V588.102C639.306 590.316 637.884 592.404 635.328 593.286L636.264 594.744C638.208 594.078 639.576 592.692 640.296 590.964C640.998 592.476 642.294 593.646 644.112 594.222L645.012 592.782ZM642.924 599.928C640.656 599.928 639.342 599.352 639.342 598.308C639.342 597.246 640.656 596.688 642.924 596.688C645.192 596.688 646.506 597.246 646.506 598.308C646.506 599.352 645.192 599.928 642.924 599.928ZM642.924 595.23C639.576 595.23 637.506 596.364 637.506 598.308C637.506 600.234 639.576 601.386 642.924 601.386C646.272 601.386 648.342 600.234 648.342 598.308C648.342 596.364 646.272 595.23 642.924 595.23ZM648.162 589.092V585.132H646.308V594.852H648.162V590.622H650.466V589.092H648.162ZM653.506 595.77H654.892L655.18 588.57L655.252 586.428H653.164L653.218 588.57L653.506 595.77ZM654.19 600.234C654.982 600.234 655.594 599.64 655.594 598.794C655.594 597.93 654.982 597.318 654.19 597.318C653.416 597.318 652.822 597.93 652.822 598.794C652.822 599.64 653.416 600.234 654.19 600.234Z" fill="white"/>
<rect x="628" y="487" width="1" height="16" fill="#C9C9C9"/>
<rect x="551" y="487" width="1" height="16" fill="#C9C9C9"/>
<path d="M465.38 388.76L467.384 385.82C467.636 385.4 467.876 385.028 468.092 384.62H468.14C468.116 385.076 468.08 385.808 468.08 386.252V388.76H465.38ZM468.08 392H469.112V389.636H470.276V388.76H469.112V383.444H467.9L464.24 388.916V389.636H468.08V392ZM471.76 392H472.852V387.272C473.452 386.6 474.004 386.276 474.496 386.276C475.324 386.276 475.708 386.792 475.708 388.016V392H476.8V387.272C477.412 386.6 477.94 386.276 478.444 386.276C479.272 386.276 479.656 386.792 479.656 388.016V392H480.748V387.872C480.748 386.204 480.112 385.316 478.768 385.316C477.976 385.316 477.292 385.832 476.62 386.564C476.356 385.796 475.816 385.316 474.82 385.316C474.04 385.316 473.356 385.808 472.792 386.432H472.756L472.66 385.484H471.76V392ZM485.402 392.156C486.998 392.156 488.426 390.908 488.426 388.748C488.426 386.576 486.998 385.316 485.402 385.316C483.806 385.316 482.378 386.576 482.378 388.748C482.378 390.908 483.806 392.156 485.402 392.156ZM485.402 391.244C484.274 391.244 483.518 390.248 483.518 388.748C483.518 387.248 484.274 386.228 485.402 386.228C486.53 386.228 487.298 387.248 487.298 388.748C487.298 390.248 486.53 391.244 485.402 391.244ZM491.851 392.156C493.387 392.156 494.227 391.28 494.227 390.224C494.227 388.988 493.183 388.604 492.235 388.244C491.503 387.968 490.831 387.74 490.831 387.116C490.831 386.612 491.215 386.18 492.043 386.18C492.619 386.18 493.075 386.42 493.519 386.756L494.047 386.048C493.543 385.652 492.835 385.316 492.031 385.316C490.615 385.316 489.775 386.132 489.775 387.164C489.775 388.268 490.771 388.712 491.683 389.048C492.403 389.324 493.171 389.612 493.171 390.284C493.171 390.848 492.751 391.304 491.887 391.304C491.107 391.304 490.519 390.992 489.955 390.536L489.415 391.256C490.039 391.772 490.927 392.156 491.851 392.156ZM497.543 392.156C497.939 392.156 498.371 392.036 498.743 391.916L498.527 391.1C498.311 391.184 498.011 391.268 497.783 391.268C497.027 391.268 496.775 390.812 496.775 390.008V386.372H498.539V385.484H496.775V383.648H495.863L495.731 385.484L494.711 385.544V386.372H495.683V389.984C495.683 391.28 496.151 392.156 497.543 392.156ZM499.438 392H504.97V391.052H502.486C502.03 391.052 501.502 391.1 501.046 391.136C503.074 389 504.538 387.404 504.538 385.796C504.538 384.284 503.554 383.288 501.982 383.288C500.866 383.288 500.11 383.804 499.39 384.584L500.026 385.196C500.506 384.632 501.13 384.176 501.85 384.176C502.942 384.176 503.47 384.872 503.47 385.844C503.47 387.248 502.018 388.784 499.438 391.352V392ZM508.902 392.156C510.606 392.156 511.638 390.56 511.638 387.692C511.638 384.836 510.606 383.288 508.902 383.288C507.198 383.288 506.154 384.824 506.154 387.692C506.154 390.56 507.198 392.156 508.902 392.156ZM508.902 391.28C507.894 391.28 507.222 390.2 507.222 387.692C507.222 385.184 507.894 384.164 508.902 384.164C509.898 384.164 510.57 385.184 510.57 387.692C510.57 390.2 509.898 391.28 508.902 391.28ZM513.279 392H518.103V391.088H516.339V383.444H515.499C515.019 383.732 514.455 383.936 513.675 384.068V384.776H515.235V391.088H513.279V392ZM519.407 392H524.939V391.052H522.455C521.999 391.052 521.471 391.1 521.015 391.136C523.043 389 524.507 387.404 524.507 385.796C524.507 384.284 523.523 383.288 521.951 383.288C520.835 383.288 520.079 383.804 519.359 384.584L519.995 385.196C520.475 384.632 521.099 384.176 521.819 384.176C522.911 384.176 523.439 384.872 523.439 385.844C523.439 387.248 521.987 388.784 519.407 391.352V392ZM526.063 392H531.595V391.052H529.111C528.655 391.052 528.127 391.1 527.671 391.136C529.699 389 531.163 387.404 531.163 385.796C531.163 384.284 530.179 383.288 528.607 383.288C527.491 383.288 526.735 383.804 526.015 384.584L526.651 385.196C527.131 384.632 527.755 384.176 528.475 384.176C529.567 384.176 530.095 384.872 530.095 385.844C530.095 387.248 528.643 388.784 526.063 391.352V392ZM535.695 387.596C536.751 387.596 537.279 388.304 537.279 389.408C537.279 390.548 536.631 391.304 535.779 391.304C534.699 391.304 534.039 390.404 533.895 388.736C534.471 387.896 535.143 387.596 535.695 387.596ZM535.791 392.156C537.159 392.156 538.311 391.052 538.311 389.408C538.311 387.668 537.351 386.78 535.875 386.78C535.179 386.78 534.423 387.188 533.871 387.848C533.919 385.124 534.927 384.2 536.139 384.2C536.667 384.2 537.195 384.452 537.543 384.872L538.155 384.188C537.675 383.672 537.015 383.288 536.103 383.288C534.387 383.288 532.839 384.608 532.839 388.052C532.839 390.788 534.099 392.156 535.791 392.156ZM544.248 394.076C545.172 394.076 546.012 393.86 546.792 393.392L546.504 392.744C545.904 393.092 545.136 393.344 544.32 393.344C542.04 393.344 540.336 391.856 540.336 389.24C540.336 386.108 542.64 384.068 545.028 384.068C547.464 384.068 548.748 385.652 548.748 387.824C548.748 389.564 547.788 390.584 546.936 390.584C546.204 390.584 545.952 390.092 546.204 389.012L546.732 386.336H546.012L545.856 386.888H545.832C545.592 386.444 545.22 386.228 544.764 386.228C543.192 386.228 542.184 387.92 542.184 389.336C542.184 390.56 542.88 391.244 543.792 391.244C544.38 391.244 544.992 390.836 545.424 390.32H545.46C545.544 391.004 546.108 391.34 546.84 391.34C548.052 391.34 549.516 390.116 549.516 387.776C549.516 385.136 547.812 383.336 545.112 383.336C542.124 383.336 539.52 385.688 539.52 389.276C539.52 392.396 541.62 394.076 544.248 394.076ZM544.008 390.488C543.468 390.488 543.06 390.14 543.06 389.276C543.06 388.268 543.708 386.996 544.764 386.996C545.136 386.996 545.376 387.14 545.628 387.56L545.256 389.696C544.788 390.248 544.38 390.488 544.008 390.488ZM553.503 395C555.519 395 556.803 393.956 556.803 392.744C556.803 391.676 556.035 391.196 554.523 391.196H553.251C552.375 391.196 552.111 390.908 552.111 390.488C552.111 390.128 552.291 389.912 552.531 389.708C552.819 389.852 553.179 389.936 553.503 389.936C554.823 389.936 555.879 389.06 555.879 387.668C555.879 387.104 555.663 386.624 555.351 386.324H556.683V385.484H554.415C554.187 385.4 553.863 385.316 553.503 385.316C552.183 385.316 551.055 386.216 551.055 387.644C551.055 388.424 551.475 389.048 551.907 389.396V389.444C551.571 389.684 551.175 390.116 551.175 390.656C551.175 391.172 551.427 391.52 551.775 391.724V391.772C551.163 392.168 550.815 392.696 550.815 393.248C550.815 394.376 551.907 395 553.503 395ZM553.503 389.192C552.747 389.192 552.111 388.592 552.111 387.644C552.111 386.684 552.735 386.12 553.503 386.12C554.271 386.12 554.895 386.696 554.895 387.644C554.895 388.592 554.247 389.192 553.503 389.192ZM553.659 394.256C552.483 394.256 551.775 393.8 551.775 393.104C551.775 392.72 551.967 392.336 552.435 392C552.723 392.072 553.035 392.108 553.275 392.108H554.403C555.267 392.108 555.735 392.312 555.735 392.912C555.735 393.596 554.907 394.256 553.659 394.256ZM558.069 392H559.161V387.272C559.761 386.6 560.313 386.276 560.805 386.276C561.633 386.276 562.017 386.792 562.017 388.016V392H563.109V387.272C563.721 386.6 564.249 386.276 564.753 386.276C565.581 386.276 565.965 386.792 565.965 388.016V392H567.057V387.872C567.057 386.204 566.421 385.316 565.077 385.316C564.285 385.316 563.601 385.832 562.929 386.564C562.665 385.796 562.125 385.316 561.129 385.316C560.349 385.316 559.665 385.808 559.101 386.432H559.065L558.969 385.484H558.069V392ZM570.678 392.156C571.482 392.156 572.214 391.736 572.838 391.22H572.874L572.97 392H573.87V387.992C573.87 386.384 573.198 385.316 571.614 385.316C570.57 385.316 569.646 385.784 569.046 386.168L569.478 386.924C569.994 386.576 570.678 386.228 571.434 386.228C572.502 386.228 572.778 387.032 572.778 387.872C570.006 388.184 568.77 388.892 568.77 390.308C568.77 391.484 569.586 392.156 570.678 392.156ZM570.99 391.28C570.342 391.28 569.838 390.98 569.838 390.236C569.838 389.396 570.582 388.856 572.778 388.592V390.416C572.142 390.98 571.626 391.28 570.99 391.28ZM575.952 392H577.044V385.484H575.952V392ZM576.504 384.14C576.936 384.14 577.236 383.852 577.236 383.408C577.236 382.988 576.936 382.7 576.504 382.7C576.072 382.7 575.772 382.988 575.772 383.408C575.772 383.852 576.072 384.14 576.504 384.14ZM580.408 392.156C580.708 392.156 580.888 392.12 581.044 392.06L580.888 391.22C580.768 391.244 580.72 391.244 580.66 391.244C580.492 391.244 580.348 391.112 580.348 390.776V382.448H579.256V390.704C579.256 391.628 579.592 392.156 580.408 392.156ZM583.242 392.156C583.674 392.156 584.034 391.82 584.034 391.328C584.034 390.824 583.674 390.476 583.242 390.476C582.81 390.476 582.45 390.824 582.45 391.328C582.45 391.82 582.81 392.156 583.242 392.156ZM588.434 392.156C589.214 392.156 589.958 391.856 590.546 391.328L590.066 390.596C589.658 390.968 589.13 391.244 588.53 391.244C587.33 391.244 586.514 390.248 586.514 388.748C586.514 387.248 587.378 386.228 588.566 386.228C589.082 386.228 589.478 386.468 589.862 386.804L590.426 386.084C589.958 385.676 589.37 385.316 588.518 385.316C586.85 385.316 585.374 386.576 585.374 388.748C585.374 390.908 586.706 392.156 588.434 392.156ZM594.21 392.156C595.806 392.156 597.234 390.908 597.234 388.748C597.234 386.576 595.806 385.316 594.21 385.316C592.614 385.316 591.186 386.576 591.186 388.748C591.186 390.908 592.614 392.156 594.21 392.156ZM594.21 391.244C593.082 391.244 592.326 390.248 592.326 388.748C592.326 387.248 593.082 386.228 594.21 386.228C595.338 386.228 596.106 387.248 596.106 388.748C596.106 390.248 595.338 391.244 594.21 391.244ZM598.956 392H600.048V387.272C600.648 386.6 601.2 386.276 601.692 386.276C602.52 386.276 602.904 386.792 602.904 388.016V392H603.996V387.272C604.608 386.6 605.136 386.276 605.64 386.276C606.468 386.276 606.852 386.792 606.852 388.016V392H607.944V387.872C607.944 386.204 607.308 385.316 605.964 385.316C605.172 385.316 604.488 385.832 603.816 386.564C603.552 385.796 603.012 385.316 602.016 385.316C601.236 385.316 600.552 385.808 599.988 386.432H599.952L599.856 385.484H598.956V392Z" fill="#333333"/>
<circle cx="467" cy="451" r="3" fill="#333333"/>
<circle cx="523" cy="451" r="3" fill="#333333"/>
<circle cx="495" cy="451" r="3" fill="#333333"/>
<circle cx="551" cy="451" r="3" fill="#333333"/>
<circle cx="593" cy="451" r="3" fill="#333333"/>
<circle cx="481" cy="451" r="3" fill="#333333"/>
<circle cx="537" cy="451" r="3" fill="#333333"/>
<circle cx="579" cy="451" r="3" fill="#333333"/>
<circle cx="509" cy="451" r="3" fill="#333333"/>
<circle cx="565" cy="451" r="3" fill="#333333"/>
<circle cx="607" cy="451" r="3" fill="#333333"/>
<path d="M682 357C687.5 357 692 352.5 692 347C692 341.5 687.5 337 682 337C676.5 337 672 341.5 672 347C672 352.5 676.5 357 682 357Z" fill="#FF7556"/>
<path d="M677 348L680 351L687 344" stroke="white" stroke-linecap="round"/>
<path d="M742 451C742 451 739 457 732 457C725 457 722 451 722 451C722 451 725 445 732 445C739 445 742 451 742 451Z" stroke="#C9C9C9" stroke-linecap="round"/>
<circle cx="732" cy="451" r="3" stroke="#C9C9C9" stroke-linecap="round"/>
<path d="M723 460L740 443" stroke="#C9C9C9" stroke-linecap="round"/>
<g clip-path="url(#clip3)">
<path d="M586.439 206.282V186.733C586.439 180.83 581.213 176 574.842 176C571.599 176 568.623 177.265 566.525 179.258C566.487 179.297 566.487 179.297 566.449 179.258C564.351 177.265 561.375 176 558.132 176C551.723 176 546.535 180.83 546.535 186.733V206.244C546.535 206.282 546.535 206.282 546.535 206.32C546.535 206.359 546.535 206.359 546.535 206.397C546.573 208.16 548.023 209.578 549.778 209.578C551.571 209.578 553.02 208.122 553.02 206.32C553.02 206.32 553.02 206.32 553.02 206.282C553.02 206.244 553.02 206.282 553.02 206.244V187.154C553.02 184.625 555.271 182.516 558.018 182.516H558.209C560.955 182.516 563.206 184.586 563.206 187.154V186.733V187.269V206.282V206.32V206.359C563.206 208.16 564.656 209.578 566.449 209.578C568.204 209.578 569.615 208.198 569.692 206.435C569.692 206.397 569.692 206.359 569.692 206.32V206.282V206.244V187.269C569.692 187.231 569.692 187.193 569.692 187.154C569.692 184.625 571.942 182.555 574.689 182.555H574.88C577.627 182.555 579.877 184.625 579.877 187.193V206.282C579.877 206.32 579.877 206.32 579.877 206.359C579.877 206.397 579.877 206.397 579.877 206.435C579.916 208.467 581.785 210.038 583.883 209.54C585.295 209.233 586.325 207.93 586.401 206.474L586.439 206.282C586.439 206.32 586.439 206.32 586.439 206.282Z" fill="#FF7556"/>
<path d="M609.863 176.153C598.914 174.773 589.72 184.011 591.093 195.012C592.047 202.525 597.998 208.505 605.476 209.463C616.424 210.843 625.618 201.605 624.245 190.604C623.291 183.091 617.34 177.073 609.863 176.153ZM609.252 202.909C602.386 203.943 596.587 198.079 597.617 191.217C598.265 186.809 601.737 183.321 606.124 182.669C612.991 181.635 618.79 187.499 617.76 194.361C617.111 198.769 613.639 202.257 609.252 202.909Z" fill="#FF7556"/>
<path d="M683.758 176.038H659.953C658.465 176.038 657.091 177.035 656.748 178.491C656.252 180.638 657.854 182.554 659.914 182.554H668.46C668.498 182.554 668.498 182.593 668.498 182.593V206.742C668.498 208.237 669.452 210 671.741 210C673.724 210 674.983 208.811 674.983 206.742V182.593C674.983 182.554 675.021 182.554 675.021 182.554H683.719C685.207 182.554 686.581 181.558 686.924 180.101C687.42 177.916 685.818 176.038 683.758 176.038Z" fill="#FF7556"/>
<path d="M655.451 196.085C655.451 196.047 655.451 196.047 655.451 196.085C655.451 196.047 655.413 196.009 655.413 196.009C655.336 195.855 655.26 195.664 655.184 195.51C655.145 195.434 655.145 195.395 655.107 195.319C655.031 195.165 654.955 195.012 654.878 194.859C654.84 194.782 654.802 194.706 654.764 194.667C654.688 194.514 654.611 194.361 654.497 194.246C654.459 194.169 654.421 194.092 654.344 194.054C654.268 193.939 654.154 193.786 654.077 193.671C654.039 193.594 653.963 193.517 653.925 193.479C653.81 193.364 653.734 193.249 653.62 193.096C653.581 193.019 653.505 192.981 653.467 192.904C653.352 192.789 653.238 192.674 653.124 192.559C653.047 192.482 653.009 192.444 652.933 192.367C652.818 192.252 652.704 192.137 652.589 192.022C652.513 191.984 652.475 191.907 652.399 191.869C652.284 191.754 652.132 191.639 651.979 191.562C651.903 191.524 651.865 191.486 651.788 191.409C651.636 191.294 651.521 191.217 651.369 191.141C651.292 191.102 651.254 191.064 651.178 191.026C651.025 190.949 650.873 190.834 650.72 190.757C650.644 190.719 650.606 190.681 650.529 190.642C650.377 190.566 650.224 190.489 650.072 190.412C649.995 190.374 649.919 190.336 649.881 190.336C649.728 190.259 649.538 190.221 649.385 190.144C649.309 190.106 649.232 190.106 649.156 190.067C649.003 190.029 648.813 189.952 648.66 189.914C648.584 189.876 648.508 189.876 648.431 189.876C648.241 189.837 648.088 189.799 647.897 189.761C647.821 189.761 647.745 189.722 647.668 189.722C647.478 189.684 647.287 189.684 647.134 189.646C647.058 189.646 646.982 189.646 646.905 189.607C646.715 189.607 646.524 189.569 646.333 189.569C646.295 189.569 646.257 189.569 646.219 189.569C646.142 189.569 646.104 189.569 646.028 189.569H639.199C637.025 189.531 635.346 187.499 635.88 185.199C636.262 183.628 637.711 182.554 639.276 182.554H650.644C650.682 182.554 650.72 182.554 650.796 182.554C650.835 182.554 650.911 182.554 650.949 182.554C652.666 182.554 654.077 181.06 654.077 179.296C654.077 177.495 652.666 176.038 650.873 176.038C650.835 176.038 650.835 176.038 650.796 176.038C650.758 176.038 650.758 176.038 650.72 176.038H639.199C633.706 176.038 629.28 180.523 629.28 186.004V186.043C629.28 187.269 629.509 188.457 629.891 189.531C631.302 193.326 634.927 196.047 639.199 196.085H639.237H646.028H646.066C647.439 196.085 648.736 196.929 649.232 198.232C650.148 200.724 648.355 203.062 645.99 203.062H630.692C630.654 203.062 630.616 203.062 630.616 203.062C630.578 203.062 630.578 203.062 630.539 203.062C628.785 203.1 627.373 204.557 627.373 206.358C627.373 208.16 628.823 209.616 630.578 209.655H630.616H630.654H645.875C650.758 209.655 655.031 206.205 655.832 201.375C656.252 199.459 656.061 197.657 655.451 196.085Z" fill="#FF7556"/>
<path d="M539.135 197.772H541.233C542.644 197.772 543.789 198.922 543.789 200.34C543.789 201.759 542.644 202.909 541.233 202.909H539.135C538.906 202.909 538.677 203.1 538.677 203.369V206.665C538.677 208.237 537.418 209.54 535.816 209.54C534.251 209.54 532.954 208.275 532.954 206.665V203.369C532.954 203.139 532.764 202.909 532.497 202.909H522.158C519.869 202.947 518 201.069 518 198.769C518 198.117 518.153 197.466 518.458 196.891L527.079 179.565C528.109 177.495 530.246 176.153 532.573 176.153C535.968 176.153 538.715 178.913 538.715 182.325V197.312C538.677 197.581 538.906 197.772 539.135 197.772ZM532.993 197.312V182.555C532.993 182.095 532.344 181.941 532.153 182.363L524.791 196.737C524.562 197.197 524.905 197.772 525.439 197.772H532.573C532.802 197.772 532.993 197.581 532.993 197.312Z" fill="#FF7556"/>
</g>
</g>
<defs>
<clipPath id="clip0">
<rect width="375" height="667" fill="white"/>
</clipPath>
<clipPath id="clip1">
<rect width="169" height="34" fill="white" transform="translate(103 176)"/>
</clipPath>
<clipPath id="clip2">
<rect width="375" height="667" fill="white" transform="translate(415)"/>
</clipPath>
<clipPath id="clip3">
<rect width="169" height="34" fill="white" transform="translate(518 176)"/>
</clipPath>
</defs>
</svg>
