<svg width="383" height="668" viewBox="0 0 383 668" fill="none" xmlns="http://www.w3.org/2000/svg">
<g filter="url(#filter0_d)">
<rect x="4" y="20.4238" width="375" height="60" fill="white"/>
</g>
<path d="M26.464 474.944H22.944V470.768H26.464V474.944ZM28.08 469.44H21.312V476.272H28.08V469.44ZM24.608 477.76H22.944V482.384H32.672V481.04H24.608V477.76ZM32.096 472.496V468.192H30.448V478.784H32.096V473.856H34.144V472.496H32.096ZM36.7508 474.176C39.2948 473.888 41.2788 472.832 42.0628 471.328C42.8308 472.832 44.8148 473.888 47.3428 474.176L47.9348 472.88C45.2628 472.608 43.3908 471.424 43.1667 470.096H47.4068V468.768H36.7348V470.096H40.9428C40.7028 471.424 38.8468 472.592 36.1748 472.88L36.7508 474.176ZM36.9748 479.28H45.3428V482.672H46.9908V477.952H36.9748V479.28ZM42.8628 475.36V473.312H41.2148V475.36H35.5188V476.688H48.6228V475.36H42.8628ZM57.5975 479.568V476.16H61.8695V474.832H53.5015V470.624H61.7415V469.296H51.8535V476.16H55.9495V479.568H50.2535V480.928H63.3415V479.568H57.5975ZM74.7803 470.672H66.6363V473.92H76.6683V472.768H68.2523V471.744H76.4123V468.56H66.6043V469.696H74.7803V470.672ZM68.1403 480.256H76.4603V477.024H66.4763V478.16H74.8283V479.184H66.5082V482.496H76.8923V481.36H68.1403V480.256ZM64.9563 474.832V476.048H78.0603V474.832H64.9563ZM93.6048 477.088H95.2528V468.208H93.6048V470.672H91.5087V472H93.6048V473.312H91.5087V474.64H93.6048V477.088ZM86.5648 470.576H88.4048V474.928C87.7808 474.96 87.1727 474.976 86.5648 474.992V470.576ZM91.6208 474.672C91.0928 474.736 90.5487 474.8 89.9888 474.816V470.576H91.2847V469.232H83.6688V470.576H84.9808V475.024C84.3888 475.024 83.8128 475.024 83.2848 475.024L83.4768 476.384C85.7968 476.384 88.9968 476.336 91.7168 475.872L91.6208 474.672ZM90.4368 481.392C88.3728 481.392 87.2208 480.896 87.2208 480.016C87.2208 479.104 88.3728 478.624 90.4368 478.624C92.5008 478.624 93.6688 479.104 93.6688 480.016C93.6688 480.896 92.5008 481.392 90.4368 481.392ZM90.4368 477.344C87.4128 477.344 85.5728 478.32 85.5728 480.016C85.5728 481.68 87.4128 482.656 90.4368 482.656C93.4608 482.656 95.3168 481.68 95.3168 480.016C95.3168 478.32 93.4608 477.344 90.4368 477.344ZM98.7075 469.728V471.072H103.764C103.428 474.4 101.524 476.944 97.9875 478.752L98.8995 480.016C103.62 477.632 105.411 473.92 105.411 469.728H98.7075ZM111.38 473.904H109.188V468.192H107.54V482.64H109.188V475.28H111.38V473.904ZM116.242 478.048C115.266 478.048 114.578 477.264 114.578 476.064C114.578 474.864 115.266 474.064 116.242 474.064C117.218 474.064 117.906 474.864 117.906 476.064C117.906 477.264 117.218 478.048 116.242 478.048ZM116.242 472.704C114.418 472.704 113.106 474.064 113.106 476.064C113.106 478.048 114.418 479.424 116.242 479.424C118.066 479.424 119.378 478.048 119.378 476.064C119.378 474.064 118.066 472.704 116.242 472.704ZM117.058 468.624H115.426V470.56H112.69V471.888H119.762V470.56H117.058V468.624ZM123.458 468.208V474.192H121.922V468.512H120.386V481.984H121.922V475.552H123.458V482.656H125.026V468.208H123.458ZM128.753 475.28C131.137 474.928 133.089 473.744 133.969 472.144C134.849 473.744 136.817 474.928 139.201 475.28L139.793 473.984C137.041 473.616 135.009 472.032 134.913 470.352H139.281V469.024H128.641V470.352H133.041C132.945 472.032 130.913 473.616 128.161 473.984L128.753 475.28ZM140.513 476.336H127.441V477.664H133.105V482.672H134.753V477.664H140.497L140.513 476.336ZM146.592 469.536H144.992V472.144C144.992 474.608 144 477.2 141.952 478.416L142.96 479.664C144.352 478.816 145.296 477.296 145.808 475.52C146.304 477.136 147.168 478.544 148.48 479.344L149.408 478.064C147.472 476.848 146.592 474.4 146.592 472.064V469.536ZM149.984 473.264H147.856V474.608H149.984V481.984H151.536V468.48H149.984V473.264ZM152.928 468.208V482.656H154.496V468.208H152.928ZM161.583 476.4C162.143 476.528 162.767 476.592 163.407 476.592C164.047 476.592 164.671 476.528 165.231 476.384V479.536H161.583V476.4ZM163.407 470.336C165.583 470.336 167.103 471.296 167.103 472.816C167.103 474.352 165.583 475.312 163.407 475.312C161.215 475.312 159.695 474.352 159.695 472.816C159.695 471.296 161.215 470.336 163.407 470.336ZM166.879 479.536V475.776C168.031 475.12 168.719 474.096 168.719 472.816C168.719 470.512 166.479 469.04 163.407 469.04C160.319 469.04 158.095 470.512 158.095 472.816C158.095 474.096 158.783 475.136 159.935 475.776V479.536H156.879V480.88H169.967V479.536H166.879ZM172.909 477.664H174.141L174.397 471.264L174.461 469.376H172.605L172.653 471.264L172.909 477.664ZM173.517 481.632C174.221 481.632 174.765 481.104 174.765 480.352C174.765 479.6 174.221 479.04 173.517 479.04C172.829 479.04 172.301 479.6 172.301 480.352C172.301 481.104 172.829 481.632 173.517 481.632Z" fill="#333333"/>
<path d="M342.56 481.648C344.848 481.648 346.864 480.096 346.864 477.424C346.864 474.848 345.168 473.664 343.152 473.664C342.704 473.664 342.352 473.728 341.92 473.904L342.096 471.888H346.336V469.504H339.648L339.344 475.408L340.592 476.224C341.296 475.776 341.616 475.648 342.272 475.648C343.296 475.648 344.016 476.288 344.016 477.488C344.016 478.72 343.296 479.344 342.144 479.344C341.2 479.344 340.368 478.848 339.696 478.208L338.4 480C339.344 480.928 340.656 481.648 342.56 481.648ZM357.478 474.416C355.254 473.68 354.39 472.128 354.246 470.608H356.918V468.576H348.822V470.608H351.542C351.398 472.24 350.502 473.888 348.15 474.64L349.446 476.688C351.158 476.128 352.278 475.056 352.934 473.696C353.574 474.928 354.614 475.92 356.214 476.416L357.478 474.416ZM353.382 479.088H358.47V480.784H353.382V479.088ZM350.838 482.784H360.998V477.088H350.838V482.784ZM358.406 467.936V471.232H356.502V473.296H358.406V476.544H360.998V467.936H358.406Z" fill="#C9C9C9"/>
<rect x="20" y="245.424" width="343" height="168" rx="15" fill="#F2F2F2"/>
<path d="M323.973 435.58C325.641 435.58 326.709 434.056 326.709 430.996C326.709 427.948 325.641 426.46 323.973 426.46C322.293 426.46 321.225 427.936 321.225 430.996C321.225 434.056 322.293 435.58 323.973 435.58ZM323.973 434.704C322.965 434.704 322.293 433.588 322.293 430.996C322.293 428.428 322.965 427.336 323.973 427.336C324.969 427.336 325.641 428.428 325.641 430.996C325.641 433.588 324.969 434.704 323.973 434.704Z" fill="#FF7556"/>
<path d="M327.425 437.572H328.229L331.817 425.896H331.025L327.425 437.572ZM335.124 435.58C336.612 435.58 338.004 434.488 338.004 432.556C338.004 430.624 336.816 429.76 335.352 429.76C334.824 429.76 334.44 429.892 334.044 430.108L334.26 427.564H337.584V426.616H333.3L333.024 430.744L333.612 431.104C334.116 430.768 334.488 430.588 335.076 430.588C336.18 430.588 336.9 431.332 336.9 432.592C336.9 433.876 336.06 434.668 335.028 434.668C334.008 434.668 333.372 434.2 332.868 433.696L332.328 434.416C332.916 435.004 333.756 435.58 335.124 435.58ZM341.984 435.58C343.652 435.58 344.72 434.056 344.72 430.996C344.72 427.948 343.652 426.46 341.984 426.46C340.304 426.46 339.236 427.936 339.236 430.996C339.236 434.056 340.304 435.58 341.984 435.58ZM341.984 434.704C340.976 434.704 340.304 433.588 340.304 430.996C340.304 428.428 340.976 427.336 341.984 427.336C342.98 427.336 343.652 428.428 343.652 430.996C343.652 433.588 342.98 434.704 341.984 434.704ZM348.641 435.58C350.309 435.58 351.377 434.056 351.377 430.996C351.377 427.948 350.309 426.46 348.641 426.46C346.961 426.46 345.893 427.936 345.893 430.996C345.893 434.056 346.961 435.58 348.641 435.58ZM348.641 434.704C347.633 434.704 346.961 433.588 346.961 430.996C346.961 428.428 347.633 427.336 348.641 427.336C349.637 427.336 350.309 428.428 350.309 430.996C350.309 433.588 349.637 434.704 348.641 434.704ZM356.221 427.468H358.609V426.652H352.789V427.468H355.249V428.836C355.249 430.66 353.953 432.7 352.417 433.468L352.993 434.248C354.205 433.624 355.249 432.256 355.741 430.684C356.233 432.124 357.241 433.384 358.441 433.984L359.005 433.192C357.445 432.46 356.221 430.552 356.221 428.836V427.468ZM362.653 429.892H360.877V425.56H359.893V436.312H360.877V430.72H362.653V429.892Z" fill="#C9C9C9"/>
<rect x="20" y="574.424" width="343" height="60" rx="15" fill="#FF7556"/>
<rect x="28" y="529.424" width="323" height="3" fill="#FEC7BA"/>
<circle cx="32" cy="530.424" r="12" fill="#FF7556"/>
<circle cx="351" cy="530.424" r="12" fill="#FF7556"/>
<circle cx="271" cy="530.424" r="12" fill="#FF7556"/>
<ellipse cx="191.5" cy="530.424" rx="11.5" ry="12" fill="#FF7556"/>
<circle cx="112" cy="530.424" r="12" fill="#FF7556"/>
<path d="M171.279 5.75781C169.445 5.75781 168.139 7.01172 168.139 8.72852V8.74023C168.139 10.3457 169.275 11.5293 170.898 11.5293C172.059 11.5293 172.797 10.9375 173.107 10.2695H173.225C173.225 10.334 173.219 10.3984 173.219 10.4629C173.154 12.0801 172.586 13.3926 171.244 13.3926C170.5 13.3926 169.979 13.0059 169.756 12.4141L169.738 12.3555H168.25L168.262 12.4199C168.531 13.7148 169.691 14.6348 171.244 14.6348C173.371 14.6348 174.654 12.9473 174.654 10.0996V10.0879C174.654 7.04102 173.084 5.75781 171.279 5.75781ZM171.273 10.3691C170.312 10.3691 169.615 9.66602 169.615 8.6875V8.67578C169.615 7.73242 170.359 6.98828 171.291 6.98828C172.229 6.98828 172.961 7.74414 172.961 8.71094V8.72266C172.961 9.67773 172.229 10.3691 171.273 10.3691ZM177.314 8.94531C177.854 8.94531 178.246 8.53516 178.246 8.01953C178.246 7.49805 177.854 7.09375 177.314 7.09375C176.781 7.09375 176.383 7.49805 176.383 8.01953C176.383 8.53516 176.781 8.94531 177.314 8.94531ZM177.314 13.293C177.854 13.293 178.246 12.8887 178.246 12.3672C178.246 11.8457 177.854 11.4414 177.314 11.4414C176.781 11.4414 176.383 11.8457 176.383 12.3672C176.383 12.8887 176.781 13.293 177.314 13.293ZM184.076 14.4238H185.523V12.8008H186.66V11.5527H185.523V5.96875H183.385C182.236 7.71484 181.035 9.66016 179.939 11.5645V12.8008H184.076V14.4238ZM181.346 11.5879V11.5C182.166 10.0645 183.145 8.5 184.012 7.17578H184.1V11.5879H181.346ZM190.164 14.4238H191.676V5.96875H190.17L187.961 7.52148V8.94531L190.064 7.45703H190.164V14.4238ZM196.756 14.4238H198.338L199.041 12.2383H202.17L202.879 14.4238H204.461L201.461 5.96875H199.756L196.756 14.4238ZM200.559 7.53906H200.658L201.795 11.0723H199.422L200.559 7.53906ZM205.914 14.4238H207.279V8.41211H207.379L209.723 14.4238H210.754L213.098 8.41211H213.203V14.4238H214.562V5.96875H212.828L210.291 12.4727H210.191L207.648 5.96875H205.914V14.4238Z" fill="black"/>
<path opacity="0.35" fill-rule="evenodd" clip-rule="evenodd" d="M349.5 4.92383H368.5C369.881 4.92383 371 6.04312 371 7.42383V13.9238C371 15.3045 369.881 16.4238 368.5 16.4238H349.5C348.119 16.4238 347 15.3045 347 13.9238V7.42383C347 6.04312 348.119 4.92383 349.5 4.92383ZM349.5 5.92383C348.672 5.92383 348 6.5954 348 7.42383V13.9238C348 14.7523 348.672 15.4238 349.5 15.4238H368.5C369.328 15.4238 370 14.7523 370 13.9238V7.42383C370 6.5954 369.328 5.92383 368.5 5.92383H349.5Z" fill="black"/>
<path opacity="0.4" fill-rule="evenodd" clip-rule="evenodd" d="M372 8.22363C372.89 8.67881 373.5 9.60511 373.5 10.6738C373.5 11.7424 372.89 12.6687 372 13.1239V8.22363Z" fill="black"/>
<path fill-rule="evenodd" clip-rule="evenodd" d="M350 6.92383H368C368.552 6.92383 369 7.37154 369 7.92383V13.4238C369 13.9761 368.552 14.4238 368 14.4238H350C349.448 14.4238 349 13.9761 349 13.4238V7.92383C349 7.37154 349.448 6.92383 350 6.92383Z" fill="black"/>
<path d="M315.219 14.7239H316.273V6.2688H315.225L312.975 7.88599V8.99927L315.125 7.44067H315.219V14.7239ZM321.547 14.9231C323.416 14.9231 324.541 13.218 324.541 10.4993V10.4875C324.541 7.7688 323.416 6.06958 321.547 6.06958C319.678 6.06958 318.564 7.7688 318.564 10.4875V10.4993C318.564 13.218 319.678 14.9231 321.547 14.9231ZM321.547 14.0032C320.334 14.0032 319.625 12.6555 319.625 10.4993V10.4875C319.625 8.3313 320.334 6.99536 321.547 6.99536C322.76 6.99536 323.48 8.3313 323.48 10.4875V10.4993C323.48 12.6555 322.76 14.0032 321.547 14.0032ZM329.105 14.9231C330.975 14.9231 332.1 13.218 332.1 10.4993V10.4875C332.1 7.7688 330.975 6.06958 329.105 6.06958C327.236 6.06958 326.123 7.7688 326.123 10.4875V10.4993C326.123 13.218 327.236 14.9231 329.105 14.9231ZM329.105 14.0032C327.893 14.0032 327.184 12.6555 327.184 10.4993V10.4875C327.184 8.3313 327.893 6.99536 329.105 6.99536C330.318 6.99536 331.039 8.3313 331.039 10.4875V10.4993C331.039 12.6555 330.318 14.0032 329.105 14.0032ZM335.41 10.7161C336.488 10.7161 337.145 9.83716 337.145 8.43677V8.43091C337.145 7.03052 336.488 6.15747 335.41 6.15747C334.332 6.15747 333.682 7.03052 333.682 8.43091V8.43677C333.682 9.83716 334.332 10.7161 335.41 10.7161ZM336.043 14.7239L341.797 6.2688H340.848L335.094 14.7239H336.043ZM335.41 10.0188C334.83 10.0188 334.496 9.427 334.496 8.43677V8.43091C334.496 7.44067 334.83 6.85474 335.41 6.85474C335.99 6.85474 336.33 7.44067 336.33 8.43091V8.43677C336.33 9.427 335.99 10.0188 335.41 10.0188ZM341.469 14.8352C342.547 14.8352 343.203 13.9563 343.203 12.5559V12.55C343.203 11.1497 342.547 10.2766 341.469 10.2766C340.391 10.2766 339.74 11.1497 339.74 12.55V12.5559C339.74 13.9563 340.391 14.8352 341.469 14.8352ZM341.469 14.1379C340.889 14.1379 340.555 13.5461 340.555 12.5559V12.55C340.555 11.5598 340.889 10.9739 341.469 10.9739C342.049 10.9739 342.389 11.5598 342.389 12.55V12.5559C342.389 13.5461 342.049 14.1379 341.469 14.1379Z" fill="black"/>
<path fill-rule="evenodd" clip-rule="evenodd" d="M285.269 8.11608C285.1 7.88761 285 7.6049 285 7.29883C285 6.53944 285.616 5.92383 286.375 5.92383C286.647 5.92383 286.901 6.00305 287.115 6.13972C286.344 6.62978 285.707 7.31076 285.269 8.11608ZM294.37 10.6788C294.37 13.0951 292.411 15.0538 289.995 15.0538C287.579 15.0538 285.62 13.0951 285.62 10.6788C285.62 8.26258 287.579 6.30383 289.995 6.30383C292.411 6.30383 294.37 8.26258 294.37 10.6788ZM290.38 11.2988H288.25V10.5438H289.63V7.92383H290.38V11.2988ZM293.625 5.92383C293.35 5.92383 293.095 6.00429 292.88 6.14292C293.651 6.63432 294.288 7.31688 294.725 8.12384C294.898 7.89403 295 7.60837 295 7.29883C295 6.53944 294.384 5.92383 293.625 5.92383Z" fill="black"/>
<path fill-rule="evenodd" clip-rule="evenodd" d="M304 10.4072V10.395L301.044 7.70749L301.717 6.96755L304 9.04358V4.54358L307.994 8.17386L305.519 10.4239L307.994 12.6739L304 16.3041V11.7587L301.717 13.8347L301.044 13.0948L304 10.4072ZM305 9.54358L306.507 8.17385L305 6.80413V9.54358ZM306.507 12.6739L305 14.0436V11.3041L306.507 12.6739Z" fill="black"/>
<g clip-path="url(#clip0)">
<path opacity="0.25" fill-rule="evenodd" clip-rule="evenodd" d="M24.5 5.42383H25.5C26.0523 5.42383 26.5 5.87154 26.5 6.42383V14.4238C26.5 14.9761 26.0523 15.4238 25.5 15.4238H24.5C23.9477 15.4238 23.5 14.9761 23.5 14.4238V6.42383C23.5 5.87154 23.9477 5.42383 24.5 5.42383Z" fill="black"/>
<path fill-rule="evenodd" clip-rule="evenodd" d="M21 7.42383H20C19.4477 7.42383 19 7.87154 19 8.42383V14.4238C19 14.9761 19.4477 15.4238 20 15.4238H21C21.5523 15.4238 22 14.9761 22 14.4238V8.42383C22 7.87154 21.5523 7.42383 21 7.42383ZM15.5 9.42383H16.5C17.0523 9.42383 17.5 9.87154 17.5 10.4238V14.4238C17.5 14.9761 17.0523 15.4238 16.5 15.4238H15.5C14.9477 15.4238 14.5 14.9761 14.5 14.4238V10.4238C14.5 9.87154 14.9477 9.42383 15.5 9.42383ZM11 10.9238H12C12.5523 10.9238 13 11.3715 13 11.9238V14.4238C13 14.9761 12.5523 15.4238 12 15.4238H11C10.4477 15.4238 10 14.9761 10 14.4238V11.9238C10 11.3715 10.4477 10.9238 11 10.9238Z" fill="black"/>
<path d="M34.0781 14.4238H35.1328V10.7617H38.877V9.82422H35.1328V6.91797H39.2109V5.96875H34.0781V14.4238ZM41.3055 6.88867C41.6922 6.88867 42.0086 6.57227 42.0086 6.18555C42.0086 5.79883 41.6922 5.48242 41.3055 5.48242C40.9187 5.48242 40.6023 5.79883 40.6023 6.18555C40.6023 6.57227 40.9187 6.88867 41.3055 6.88867ZM40.7898 14.4238H41.8094V8.10742H40.7898V14.4238ZM46.2828 16.6504C48.0055 16.6504 49.0953 15.748 49.0953 14.3359V8.10742H48.0758V9.15039H48.0055C47.6187 8.43555 46.9273 7.99609 46.0367 7.99609C44.3844 7.99609 43.3648 9.2793 43.3648 11.0488V11.0605C43.3648 12.8301 44.3785 14.0957 46.0133 14.0957C46.8805 14.0957 47.5953 13.7031 47.9937 13.0059H48.0875V14.2832C48.0875 15.2148 47.4137 15.748 46.2828 15.748C45.3746 15.748 44.8121 15.4082 44.7008 14.9277L44.6949 14.9219H43.6402L43.6285 14.9277C43.7867 15.9648 44.7594 16.6504 46.2828 16.6504ZM46.2359 13.1934C45.0641 13.1934 44.4078 12.3145 44.4078 11.0605V11.0488C44.4078 9.79492 45.0641 8.89844 46.2359 8.89844C47.402 8.89844 48.1109 9.79492 48.1109 11.0488V11.0605C48.1109 12.3145 47.4078 13.1934 46.2359 13.1934ZM50.9438 14.4238H51.9633V10.5098C51.9633 9.61914 52.5902 8.89844 53.4164 8.89844C54.2133 8.89844 54.7289 9.38477 54.7289 10.1348V14.4238H55.7484V10.3633C55.7484 9.56055 56.3285 8.89844 57.2074 8.89844C58.098 8.89844 58.5258 9.36133 58.5258 10.293V14.4238H59.5453V10.0586C59.5453 8.73438 58.8246 7.99609 57.5355 7.99609C56.6625 7.99609 55.9418 8.43555 55.602 9.10352H55.5082C55.2152 8.44727 54.6176 7.99609 53.7621 7.99609C52.9359 7.99609 52.3383 8.38867 52.057 9.06836H51.9633V8.10742H50.9438V14.4238ZM63.0695 14.5352C63.9191 14.5352 64.5812 14.166 64.9797 13.4922H65.0734V14.4238H66.093V10.0996C66.093 8.78711 65.2316 7.99609 63.6906 7.99609C62.343 7.99609 61.382 8.66406 61.218 9.6543L61.2121 9.68945H62.2316L62.2375 9.67188C62.4016 9.17969 62.8996 8.89844 63.6555 8.89844C64.5988 8.89844 65.0734 9.32031 65.0734 10.0996V10.6738L63.2629 10.7852C61.7922 10.873 60.9602 11.5234 60.9602 12.6484V12.6602C60.9602 13.8086 61.8684 14.5352 63.0695 14.5352ZM62.0031 12.6367V12.625C62.0031 11.998 62.425 11.6582 63.3859 11.5996L65.0734 11.4941V12.0684C65.0734 12.9707 64.3176 13.6504 63.2805 13.6504C62.548 13.6504 62.0031 13.2754 62.0031 12.6367Z" fill="black"/>
<path fill-rule="evenodd" clip-rule="evenodd" d="M84.9828 7.94677C83.0717 6.3144 80.6574 5.42383 78.1327 5.42383C75.6006 5.42383 73.1795 6.31972 71.2661 7.96091L71.1036 8.10029C70.9722 8.21301 70.9647 8.41336 71.0873 8.53559L72.2142 9.6594C72.3236 9.76848 72.4985 9.77593 72.6168 9.67653L72.7564 9.55924C74.2633 8.29326 76.1552 7.60418 78.1327 7.60418C80.1035 7.60418 81.9894 8.28855 83.494 9.54666L83.6336 9.66335C83.7519 9.7623 83.9264 9.75467 84.0356 9.64578L85.1627 8.5218C85.2855 8.39941 85.2777 8.19871 85.1459 8.08611L84.9828 7.94677ZM78.1327 8.89362C79.7236 8.89362 81.251 9.42136 82.4953 10.3987L82.6711 10.5368C82.8113 10.6469 82.8236 10.8544 82.6974 10.9803L81.5667 12.1079C81.4621 12.2122 81.2966 12.2242 81.178 12.136L81.0401 12.0336C80.1997 11.409 79.1864 11.074 78.1327 11.074C77.0726 11.074 76.0533 11.4132 75.2101 12.0449L75.0721 12.1483C74.9535 12.2372 74.7874 12.2255 74.6825 12.1209L73.5522 10.9936C73.4262 10.8681 73.4382 10.6611 73.5777 10.5508L73.7526 10.4125C74.9998 9.4265 76.5342 8.89362 78.1327 8.89362ZM78.1327 12.3634C78.7722 12.3634 79.3936 12.5315 79.9411 12.8519L80.163 12.9817C80.3311 13.0801 80.3607 13.3105 80.2228 13.448L78.3287 15.3368C78.2124 15.4528 78.0238 15.4528 77.9074 15.3368L76.0255 13.4601C75.8882 13.3232 75.9169 13.094 76.0836 12.9949L76.303 12.8645C76.8555 12.5359 77.4848 12.3634 78.1327 12.3634Z" fill="black"/>
</g>
<path d="M21.6 218.424H23.088V206.68H21.6V218.424ZM28.7355 218.424H30.2235V207.944H33.7755V206.68H25.1835V207.944H28.7355V218.424ZM39.5398 206.808V207.864H44.9318C44.6598 211.272 42.7398 214.024 38.8838 215.864L39.5878 216.936C44.3558 214.6 46.2598 210.952 46.2598 206.808H39.5398ZM49.1558 205.256V219.608H50.4678V205.256H49.1558ZM65.6825 209.304C63.0745 209.016 60.5785 207.608 60.5785 205.864V205.32H59.2345V205.864C59.2345 207.608 56.7065 209.016 54.0985 209.304L54.5465 210.296C56.8345 210.008 58.9945 209 59.9065 207.464C60.8025 209 62.9625 210.008 65.2345 210.296L65.6825 209.304ZM66.3865 212.296V211.24H53.3945V212.296H59.2345V213.72H54.9625V214.728H63.4265V216.04H55.0105V219.448H65.1545V218.424H56.2905V217H64.7225V213.72H60.5465V212.296H66.3865ZM71.3773 215.24C70.2253 215.24 69.5053 213.784 69.5053 211.432C69.5053 209.128 70.2253 207.672 71.3773 207.672C72.4973 207.672 73.2333 209.128 73.2333 211.432C73.2333 213.784 72.4973 215.24 71.3773 215.24ZM76.2253 210.84H74.4173C74.2573 208.136 73.1053 206.456 71.3773 206.456C69.5053 206.456 68.3053 208.376 68.3053 211.432C68.3053 214.536 69.5053 216.456 71.3773 216.456C73.1373 216.456 74.3053 214.728 74.4173 211.912H76.2253V218.904H77.4733V205.576H76.2253V210.84ZM79.0733 205.256V219.608H80.3213V205.256H79.0733ZM94.8684 211.384C95.2364 209.496 95.2364 208.072 95.2364 207.128V206.376H88.1004V207.448H93.9564C93.9564 208.36 93.9084 209.592 93.5724 211.24L94.8684 211.384ZM96.2284 212.248C94.7724 212.44 93.1404 212.568 91.5724 212.632V209.576H90.2764V212.68C89.1884 212.696 88.1484 212.712 87.2364 212.712L87.3644 213.784C89.9084 213.784 93.3484 213.704 96.3244 213.208L96.2284 212.248ZM90.7404 215.08H89.4284V219.288H98.9644V218.216H90.7404V215.08ZM98.5004 209.928V205.256H97.1884V216.072H98.5004V211.016H100.548V209.928H98.5004ZM110.563 207.016H106.979V205.256H105.667V207.016H102.099V208.072H110.563V207.016ZM104.147 211.528C104.147 210.536 105.027 209.896 106.323 209.896C107.619 209.896 108.515 210.536 108.515 211.528C108.515 212.536 107.619 213.176 106.323 213.176C105.027 213.176 104.147 212.536 104.147 211.528ZM109.763 211.528C109.763 209.928 108.355 208.872 106.323 208.872C104.291 208.872 102.899 209.928 102.899 211.528C102.899 213.144 104.291 214.2 106.323 214.2C108.355 214.2 109.763 213.144 109.763 211.528ZM105.571 215.176H104.259V219.288H113.827V218.216H105.571V215.176ZM113.187 209.992V205.256H111.875V216.024H113.187V211.096H115.299V209.992H113.187ZM125.078 215.208C123.686 215.208 122.71 213.704 122.71 211.368C122.71 209.048 123.686 207.544 125.078 207.544C126.454 207.544 127.43 209.048 127.43 211.368C127.43 213.704 126.454 215.208 125.078 215.208ZM125.078 206.36C122.966 206.36 121.462 208.312 121.462 211.368C121.462 214.424 122.966 216.376 125.078 216.376C127.19 216.376 128.678 214.424 128.678 211.368C128.678 208.312 127.19 206.36 125.078 206.36ZM134.662 210.984H132.294V205.272H130.982V219.608H132.294V212.088H134.662V210.984ZM138.181 211.64H143.317V210.584H138.181V207.624H143.845V206.552H136.885V216.152H138.021C140.757 216.152 142.677 216.056 144.917 215.672L144.789 214.6C142.645 214.984 140.789 215.08 138.181 215.08V211.64ZM146.437 205.256V219.592H147.749V205.256H146.437ZM153.556 216.888H162.116V213.544H152.228V214.568H160.836V215.912H152.26V219.416H162.628V218.392H153.556V216.888ZM161.7 211.128C162.036 209.432 162.036 208.152 162.036 207.032V205.944H152.356V206.984H160.74V207.032C160.74 207.448 160.74 207.896 160.724 208.376L152.004 208.648L152.164 209.688L160.66 209.304C160.596 209.848 160.516 210.456 160.372 211.128H150.724V212.184H163.652V211.128H161.7ZM177.559 208.984V210.056H180.391V213.816H181.719V205.272H180.391V208.984H177.559ZM178.359 212.248C176.279 211.512 174.871 209.704 174.871 207.864V207.368H178.023V206.312H170.359V207.368H173.559V207.864C173.559 209.928 172.087 211.864 169.943 212.648L170.631 213.688C172.311 213.048 173.639 211.704 174.247 210.04C174.871 211.512 176.103 212.696 177.703 213.272L178.359 212.248ZM176.983 218.584C174.823 218.584 173.511 217.976 173.511 216.936C173.511 215.896 174.823 215.272 176.983 215.272C179.143 215.272 180.455 215.896 180.455 216.936C180.455 217.976 179.143 218.584 176.983 218.584ZM176.983 214.264C174.039 214.264 172.199 215.24 172.199 216.936C172.199 218.632 174.039 219.608 176.983 219.608C179.927 219.608 181.767 218.632 181.767 216.936C181.767 215.24 179.927 214.264 176.983 214.264ZM186.758 211.704H192.054V206.584H185.398V207.656H190.726V210.648H185.446V216.152H186.63C189.094 216.152 191.27 216.056 193.862 215.624L193.734 214.552C191.222 214.952 189.11 215.064 186.758 215.064V211.704ZM195.078 205.24V219.624H196.39V205.24H195.078ZM203.54 215.32C202.244 215.32 201.3 214.392 201.3 213.112C201.3 211.816 202.244 210.888 203.54 210.888C204.852 210.888 205.796 211.816 205.796 213.112C205.796 214.392 204.852 215.32 203.54 215.32ZM203.54 209.8C201.524 209.8 200.068 211.176 200.068 213.112C200.068 215.064 201.524 216.408 203.54 216.408C205.588 216.408 207.044 215.064 207.044 213.112C207.044 211.176 205.588 209.8 203.54 209.8ZM204.18 205.432H202.868V207.56H199.252V208.616H207.716V207.56H204.18V205.432ZM212.74 211.16H210.388V205.272H209.076V219.608H210.388V212.264H212.74V211.16ZM214.899 206.808V207.864H220.291C220.019 211.272 218.099 214.024 214.243 215.864L214.947 216.936C219.715 214.6 221.619 210.952 221.619 206.808H214.899ZM224.515 205.256V219.608H225.827V205.256H224.515Z" fill="#333333"/>
<rect x="20" y="228.424" width="343" height="1" fill="#FF7556"/>
<path d="M330.629 218.58C332.297 218.58 333.365 217.056 333.365 213.996C333.365 210.948 332.297 209.46 330.629 209.46C328.949 209.46 327.881 210.936 327.881 213.996C327.881 217.056 328.949 218.58 330.629 218.58ZM330.629 217.704C329.621 217.704 328.949 216.588 328.949 213.996C328.949 211.428 329.621 210.336 330.629 210.336C331.625 210.336 332.297 211.428 332.297 213.996C332.297 216.588 331.625 217.704 330.629 217.704Z" fill="#FF7556"/>
<path d="M334.081 220.572H334.885L338.473 208.896H337.681L334.081 220.572ZM339.176 218.424H344.708V217.476H342.272C341.828 217.476 341.288 217.524 340.832 217.56C342.896 215.604 344.276 213.816 344.276 212.064C344.276 210.492 343.292 209.46 341.72 209.46C340.604 209.46 339.848 209.976 339.128 210.756L339.764 211.38C340.244 210.804 340.868 210.36 341.588 210.36C342.68 210.36 343.208 211.092 343.208 212.1C343.208 213.612 341.936 215.364 339.176 217.776V218.424ZM348.641 218.58C350.309 218.58 351.377 217.056 351.377 213.996C351.377 210.948 350.309 209.46 348.641 209.46C346.961 209.46 345.893 210.936 345.893 213.996C345.893 217.056 346.961 218.58 348.641 218.58ZM348.641 217.704C347.633 217.704 346.961 216.588 346.961 213.996C346.961 211.428 347.633 210.336 348.641 210.336C349.637 210.336 350.309 211.428 350.309 213.996C350.309 216.588 349.637 217.704 348.641 217.704ZM356.221 210.468H358.609V209.652H352.789V210.468H355.249V211.836C355.249 213.66 353.953 215.7 352.417 216.468L352.993 217.248C354.205 216.624 355.249 215.256 355.741 213.684C356.233 215.124 357.241 216.384 358.441 216.984L359.005 216.192C357.445 215.46 356.221 213.552 356.221 211.836V210.468ZM362.653 212.892H360.877V208.56H359.893V219.312H360.877V213.72H362.653V212.892Z" fill="#C9C9C9"/>
<path d="M176.642 44.8038V46.4838H183.082C182.722 50.6438 180.482 53.8238 175.742 56.1038L176.842 57.7438C183.042 54.7438 185.202 50.1838 185.202 44.8038H176.642ZM188.462 42.9038V60.9638H190.522V42.9038H188.462ZM195.84 57.2638H206.36V60.8638H208.42V55.6038H195.84V57.2638ZM203.22 52.7238V51.0838H208.68V49.5038H198.12V47.9038H208.32V43.3238H196.06V44.9038H206.28V46.4238H196.1V51.0838H201.16V52.7238H194V54.3838H210.38V52.7238H203.22Z" fill="#333333"/>
<path d="M41 50.4238H23" stroke="#333333" stroke-linecap="round"/>
<path d="M29 44.4238L23 50.4238L29 56.4238" stroke="#333333" stroke-linecap="round"/>
<path d="M47.46 275.694H39.24V271.134H47.325V270.459H38.46V276.369H47.46V275.694ZM36.84 279.864V280.539H48.93V279.864H36.84ZM51.9738 278.514V274.989H57.1038V270.444H51.1488V271.134H56.3238V274.299H51.1938V279.189H52.2138C54.8988 279.189 56.6238 279.084 58.7388 278.694L58.6638 278.004C56.5938 278.409 54.8538 278.514 52.2138 278.514H51.9738ZM63.1038 274.614H60.7788V269.154H59.9838V282.489H60.7788V275.289H63.1038V274.614ZM65.8327 271.194H70.2427V278.334H65.8327V271.194ZM65.0527 278.994H71.0077V270.534H65.0527V278.994ZM76.9027 274.644H74.5777V269.154H73.7827V282.459H74.5777V275.319H76.9027V274.644ZM92.9317 276.069C91.0417 275.694 87.9667 273.684 87.9667 271.224V270.159H87.1417V271.224C87.1417 273.699 84.1117 275.679 82.2067 276.069L82.5817 276.744C84.3517 276.279 86.7367 274.809 87.5617 272.724C88.3867 274.809 90.8017 276.294 92.5567 276.744L92.9317 276.069ZM81.5617 279.894V280.569H93.6517V279.894H81.5617ZM96.7705 278.469V274.854H101.796V274.179H96.7705V271.089H102.156V270.414H95.9755V279.144H96.9805C99.5905 279.144 101.286 279.054 103.371 278.679L103.266 278.004C101.256 278.379 99.5605 278.469 96.9805 278.469H96.7705ZM107.826 274.674H105.501V269.139H104.706V282.474H105.501V275.349H107.826V274.674ZM119.809 276.519H111.604V274.059H119.389V273.399H111.604V271.059H119.674V270.384H110.794V277.194H119.809V276.519ZM109.159 279.969V280.644H121.249V279.969H109.159ZM133.023 281.604H126.288V279.594H133.023V281.604ZM133.023 278.934H126.288V276.999H125.493V282.264H133.818V276.999H133.023V278.934ZM126.573 275.184C125.058 275.184 123.963 274.164 123.963 272.829C123.963 271.464 125.058 270.474 126.573 270.474C128.088 270.474 129.183 271.464 129.183 272.829C129.183 274.164 128.088 275.184 126.573 275.184ZM133.023 269.154V272.454H129.933C129.738 270.849 128.403 269.799 126.573 269.799C124.593 269.799 123.198 271.014 123.198 272.829C123.198 274.629 124.593 275.859 126.573 275.859C128.433 275.859 129.768 274.779 129.933 273.144H133.023V276.294H133.818V269.154H133.023ZM141.342 271.269H143.892V270.594H140.562V278.844H141.102C141.747 278.844 142.827 278.829 144.162 278.529L144.072 277.854C142.977 278.109 141.972 278.154 141.342 278.169V271.269ZM145.467 271.269H148.182V270.594H144.687V278.844H145.287C146.517 278.844 147.552 278.799 148.842 278.499L148.737 277.824C147.582 278.109 146.562 278.169 145.467 278.169V271.269ZM152.532 274.539H150.402V269.139H149.607V282.474H150.402V275.214H152.532V274.539ZM155.216 278.514V274.989H160.346V270.444H154.391V271.134H159.566V274.299H154.436V279.189H155.456C158.141 279.189 159.866 279.084 161.981 278.694L161.906 278.004C159.836 278.409 158.096 278.514 155.456 278.514H155.216ZM166.346 274.614H164.021V269.154H163.226V282.489H164.021V275.289H166.346V274.614ZM175.3 275.664C173.455 275.034 171.955 273.444 171.955 271.599V270.789H175.09V270.129H167.995V270.789H171.16V271.614C171.16 273.624 169.57 275.289 167.71 275.949L168.1 276.579C169.69 275.994 171.025 274.764 171.58 273.174C172.12 274.629 173.38 275.769 174.91 276.294L175.3 275.664ZM177.16 281.589H170.515V279.639H177.16V281.589ZM177.16 278.979H170.515V277.119H169.735V282.264H177.955V277.119H177.16V278.979ZM180.04 272.379H177.955V269.154H177.16V276.444H177.955V273.069H180.04V272.379ZM182.304 270.624V271.299H187.629C187.419 274.584 185.394 277.419 181.734 279.189L182.169 279.849C186.459 277.734 188.424 274.344 188.424 270.624H182.304ZM191.529 269.154V282.474H192.324V269.154H191.529ZM196.613 278.514V274.989H201.743V270.444H195.788V271.134H200.963V274.299H195.833V279.189H196.853C199.538 279.189 201.263 279.084 203.378 278.694L203.303 278.004C201.233 278.409 199.493 278.514 196.853 278.514H196.613ZM207.743 274.614H205.418V269.154H204.623V282.489H205.418V275.289H207.743V274.614ZM219.741 273.399H211.581V269.634H210.786V274.074H219.741V273.399ZM211.521 278.274H210.726V282.129H219.816V281.454H211.521V278.274ZM209.076 276.099V276.774H221.166V276.099H209.076ZM228.495 279.654H236.73V276.519H227.685V277.179H235.95V279.009H227.715V282.264H237.06V281.604H228.495V279.654ZM236.325 274.269C236.64 272.679 236.64 271.464 236.64 270.564V269.724H227.775V270.399H235.875V270.564C235.875 271.479 235.875 272.634 235.545 274.269H226.2V274.944H238.29V274.269H236.325ZM246.029 270.024C248.354 270.024 249.824 270.669 249.824 271.719C249.824 272.784 248.354 273.429 246.029 273.429C243.704 273.429 242.234 272.784 242.234 271.719C242.234 270.669 243.704 270.024 246.029 270.024ZM246.029 274.059C248.924 274.059 250.634 273.234 250.634 271.719C250.634 270.219 248.924 269.394 246.029 269.394C243.134 269.394 241.424 270.219 241.424 271.719C241.424 273.234 243.134 274.059 246.029 274.059ZM242.324 279.909H250.454V277.164H241.514V277.809H249.674V279.294H241.544V282.279H250.889V281.619H242.324V279.909ZM239.999 275.109V275.784H252.044V275.109H239.999ZM259.433 273.399H266.903V276.204H259.433V273.399ZM263.543 280.014V276.879H267.683V270.144H266.903V272.724H259.433V270.144H258.638V276.879H262.748V280.014H257.123V280.689H269.228V280.014H263.543ZM280.567 271.959C280.567 273.564 280.567 275.379 280.087 277.869L280.897 277.989C281.362 275.379 281.362 273.579 281.362 271.959V270.624H272.242V271.284H280.567V271.959ZM276.652 279.759V274.884H275.872V279.759H270.937V280.434H282.982V279.759H276.652ZM290.386 275.049C290.821 273.774 291.196 272.619 291.571 271.299H291.631C292.021 272.619 292.381 273.774 292.831 275.049L293.491 277.029H289.711L290.386 275.049ZM287.326 281.424H288.226L289.471 277.749H293.731L294.946 281.424H295.906L292.081 270.489H291.151L287.326 281.424ZM297.6 281.424H298.5V270.489H297.6V281.424ZM305.287 270.174C303.217 270.174 301.777 271.404 301.777 273.219C301.777 275.034 303.217 276.264 305.287 276.264C307.357 276.264 308.797 275.034 308.797 273.219C308.797 271.404 307.357 270.174 305.287 270.174ZM305.287 270.864C306.877 270.864 308.032 271.854 308.032 273.219C308.032 274.584 306.877 275.574 305.287 275.574C303.697 275.574 302.542 274.584 302.542 273.219C302.542 271.854 303.697 270.864 305.287 270.864ZM310.837 269.154V282.489H311.632V269.154H310.837ZM301.162 279.414C303.592 279.414 306.907 279.414 309.967 278.859L309.892 278.244C306.922 278.709 303.517 278.724 301.027 278.724L301.162 279.414ZM318.886 270.519V279.009H324.856V270.519H318.886ZM324.076 271.179V278.349H319.666V271.179H324.076ZM328.081 269.154V282.474H328.876V269.154H328.081ZM333.135 278.454V275.064H337.275V270.669H332.325V271.359H336.51V274.389H332.355V279.144H333.195C334.875 279.144 336.405 279.069 338.355 278.724L338.265 278.049C336.375 278.394 334.845 278.454 333.195 278.454H333.135ZM342.33 269.139V274.554H340.035V269.469H339.27V281.754H340.035V275.229H342.33V282.474H343.11V269.139H342.33ZM39.855 304.664C38.625 304.664 37.785 303.104 37.785 300.869C37.785 298.649 38.625 297.074 39.855 297.074C41.1 297.074 41.925 298.649 41.925 300.869C41.925 303.104 41.1 304.664 39.855 304.664ZM44.73 300.494H42.675C42.57 297.959 41.49 296.354 39.855 296.354C38.16 296.354 37.05 298.109 37.05 300.869C37.05 303.629 38.16 305.384 39.855 305.384C41.505 305.384 42.585 303.764 42.675 301.169H44.73V307.754H45.495V295.469H44.73V300.494ZM47.34 295.139V308.474H48.105V295.139H47.34ZM55.299 304.319V297.494H59.484V296.804H54.519V305.009H55.344C57.534 305.009 58.824 304.934 60.399 304.589L60.294 303.899C58.794 304.259 57.504 304.319 55.344 304.319H55.299ZM64.434 295.154V300.629H62.139V295.484H61.374V307.739H62.139V301.304H64.434V308.459H65.214V295.154H64.434ZM75.7129 296.924H72.1729V295.169H71.3779V296.924H67.8229V297.584H75.7129V296.924ZM69.3679 300.914C69.3679 299.849 70.3429 299.114 71.7679 299.114C73.1929 299.114 74.1529 299.849 74.1529 300.914C74.1529 301.949 73.1929 302.699 71.7679 302.699C70.3429 302.699 69.3679 301.949 69.3679 300.914ZM74.9029 300.914C74.9029 299.429 73.6579 298.469 71.7679 298.469C69.8779 298.469 68.6179 299.429 68.6179 300.914C68.6179 302.384 69.8779 303.344 71.7679 303.344C73.6579 303.344 74.9029 302.384 74.9029 300.914ZM70.7029 304.349H69.9079V308.144H78.6979V307.469H70.7029V304.349ZM78.0379 299.729V295.169H77.2429V305.174H78.0379V300.404H80.1229V299.729H78.0379ZM85.5019 296.204V296.879H90.7369C90.5269 299.534 88.2469 301.604 84.9919 302.684L85.3369 303.344C89.0569 302.099 91.5919 299.549 91.5919 296.204H85.5019ZM87.8269 304.004H87.0319V308.144H95.8219V307.469H87.8269V304.004ZM95.1469 299.384V295.154H94.3519V305.024H95.1469V300.074H97.2469V299.384H95.1469ZM106.531 301.184C104.626 301.559 103.021 301.649 100.366 301.649H100.171V297.014H105.226V296.339H99.3757V302.339H100.366C103.066 302.339 104.686 302.234 106.621 301.859L106.531 301.184ZM101.626 303.869H100.831V308.144H109.621V307.469H101.626V303.869ZM108.961 299.279V295.124H108.166V304.799H108.961V299.969H111.046V299.279H108.961ZM120.435 296.924H116.895V295.169H116.1V296.924H112.545V297.584H120.435V296.924ZM114.09 300.914C114.09 299.849 115.065 299.114 116.49 299.114C117.915 299.114 118.875 299.849 118.875 300.914C118.875 301.949 117.915 302.699 116.49 302.699C115.065 302.699 114.09 301.949 114.09 300.914ZM119.625 300.914C119.625 299.429 118.38 298.469 116.49 298.469C114.6 298.469 113.34 299.429 113.34 300.914C113.34 302.384 114.6 303.344 116.49 303.344C118.38 303.344 119.625 302.384 119.625 300.914ZM115.425 304.349H114.63V308.144H123.42V307.469H115.425V304.349ZM122.76 299.729V295.169H121.965V305.174H122.76V300.404H124.845V299.729H122.76ZM139.254 297.959C139.254 299.564 139.254 301.379 138.774 303.869L139.584 303.989C140.049 301.379 140.049 299.579 140.049 297.959V296.624H130.929V297.284H139.254V297.959ZM135.339 305.759V300.884H134.559V305.759H129.624V306.434H141.669V305.759H135.339ZM151.177 301.154C149.347 300.629 147.742 299.309 147.742 297.719V297.314H150.877V296.639H147.757V295.064H146.962V296.639H143.797V297.314H146.962V297.719C146.962 299.489 145.267 300.884 143.437 301.409L143.812 302.054C145.387 301.559 146.812 300.494 147.367 299.069C147.937 300.344 149.272 301.334 150.832 301.769L151.177 301.154ZM146.227 305.849H153.682V302.969H145.417V303.629H152.902V305.219H145.447V308.279H154.222V307.619H146.227V305.849ZM153.682 298.289V295.139H152.887V302.234H153.682V298.964H155.752V298.289H153.682ZM163.236 296.024C165.561 296.024 167.031 296.669 167.031 297.719C167.031 298.784 165.561 299.429 163.236 299.429C160.911 299.429 159.441 298.784 159.441 297.719C159.441 296.669 160.911 296.024 163.236 296.024ZM163.236 300.059C166.131 300.059 167.841 299.234 167.841 297.719C167.841 296.219 166.131 295.394 163.236 295.394C160.341 295.394 158.631 296.219 158.631 297.719C158.631 299.234 160.341 300.059 163.236 300.059ZM159.531 305.909H167.661V303.164H158.721V303.809H166.881V305.294H158.751V308.279H168.096V307.619H159.531V305.909ZM157.206 301.109V301.784H169.251V301.109H157.206ZM182.28 296.489H178.74V294.974H177.945V296.489H174.39V297.134H182.28V296.489ZM175.935 300.089C175.935 299.144 176.895 298.514 178.335 298.514C179.775 298.514 180.72 299.144 180.72 300.089C180.72 301.034 179.775 301.664 178.335 301.664C176.895 301.664 175.935 301.034 175.935 300.089ZM181.47 300.089C181.47 298.709 180.225 297.899 178.335 297.899C176.43 297.899 175.185 298.709 175.185 300.089C175.185 301.454 176.43 302.279 178.335 302.279C180.225 302.279 181.47 301.454 181.47 300.089ZM177.15 306.029H184.605V303.299H176.34V303.944H183.825V305.399H176.37V308.279H185.145V307.634H177.15V306.029ZM184.605 298.499V295.079H183.81V302.534H184.605V299.189H186.69V298.499H184.605ZM202.794 300.419C200.799 300.089 197.904 298.529 197.904 296.489V295.664H197.079V296.489C197.079 298.589 194.214 300.089 192.174 300.419L192.519 301.079C194.394 300.719 196.704 299.564 197.499 297.794C198.294 299.534 200.619 300.719 202.464 301.079L202.794 300.419ZM203.514 302.804H191.454V303.479H197.064V308.459H197.859V303.479H203.499L203.514 302.804ZM219.423 295.154H218.628V302.804H219.423V295.154ZM212.328 296.654C213.858 296.654 214.953 297.659 214.953 299.039C214.953 300.404 213.858 301.409 212.328 301.409C210.828 301.409 209.733 300.404 209.733 299.039C209.733 297.659 210.828 296.654 212.328 296.654ZM212.328 302.084C214.323 302.084 215.718 300.854 215.718 299.039C215.718 297.209 214.323 295.979 212.328 295.979C210.363 295.979 208.968 297.209 208.968 299.039C208.968 300.854 210.363 302.084 212.328 302.084ZM217.848 303.404H217.083V304.289C217.083 305.339 216.318 306.809 214.968 307.604C213.618 306.899 212.883 305.534 212.883 304.289V303.404H212.118V304.289C212.118 305.564 210.963 307.049 209.328 307.679L209.733 308.294C211.023 307.769 211.998 306.779 212.478 305.669C212.838 306.824 213.678 307.874 214.983 308.399C216.228 307.829 217.068 306.734 217.458 305.639C217.908 306.794 218.898 307.784 220.248 308.294L220.653 307.679C218.988 307.094 217.848 305.669 217.848 304.289V303.404ZM225.992 296.609C227.492 296.609 228.587 297.644 228.587 299.024C228.587 300.374 227.492 301.409 225.992 301.409C224.507 301.409 223.412 300.374 223.412 299.024C223.412 297.644 224.507 296.609 225.992 296.609ZM232.442 299.309V302.819H233.237V295.139H232.442V298.634H229.322C229.142 297.014 227.792 295.934 225.992 295.934C224.057 295.934 222.647 297.194 222.647 299.024C222.647 300.839 224.057 302.084 225.992 302.084C227.837 302.084 229.187 300.959 229.337 299.309H232.442ZM231.677 303.344H230.912V304.289C230.912 305.339 230.147 306.824 228.797 307.619C227.447 306.914 226.712 305.534 226.712 304.289V303.344H225.962V304.289C225.962 305.564 224.792 307.064 223.157 307.694L223.562 308.309C224.852 307.799 225.842 306.794 226.307 305.684C226.682 306.854 227.522 307.889 228.812 308.414C230.072 307.844 230.897 306.734 231.287 305.639C231.737 306.794 232.727 307.799 234.077 308.309L234.482 307.694C232.817 307.094 231.677 305.669 231.677 304.289V303.344ZM237.586 304.394V297.149H242.956V296.474H236.791V305.084H237.796C240.406 305.084 242.116 304.994 244.186 304.604L244.081 303.914C242.086 304.289 240.376 304.394 237.796 304.394H237.586ZM248.641 300.614H246.316V295.154H245.521V308.489H246.316V301.289H248.641V300.614ZM251.01 307.619C251.415 307.619 251.775 307.304 251.775 306.809C251.775 306.299 251.415 305.984 251.01 305.984C250.605 305.984 250.245 306.299 250.245 306.809C250.245 307.304 250.605 307.619 251.01 307.619ZM46.86 321.154V334.474H47.655V321.154H46.86ZM40.725 322.234C38.775 322.234 37.41 324.034 37.41 326.809C37.41 329.599 38.775 331.384 40.725 331.384C42.66 331.384 44.025 329.599 44.025 326.809C44.025 324.034 42.66 322.234 40.725 322.234ZM40.725 322.939C42.21 322.939 43.26 324.529 43.26 326.809C43.26 329.089 42.21 330.694 40.725 330.694C39.225 330.694 38.175 329.089 38.175 326.809C38.175 324.529 39.225 322.939 40.725 322.939ZM56.259 331.654H64.494V328.519H55.449V329.179H63.714V331.009H55.479V334.264H64.824V333.604H56.259V331.654ZM64.089 326.269C64.404 324.679 64.404 323.464 64.404 322.564V321.724H55.539V322.399H63.639V322.564C63.639 323.479 63.639 324.634 63.309 326.269H53.964V326.944H66.054V326.269H64.089ZM73.7929 322.024C76.1179 322.024 77.5879 322.669 77.5879 323.719C77.5879 324.784 76.1179 325.429 73.7929 325.429C71.4679 325.429 69.9979 324.784 69.9979 323.719C69.9979 322.669 71.4679 322.024 73.7929 322.024ZM73.7929 326.059C76.6879 326.059 78.3979 325.234 78.3979 323.719C78.3979 322.219 76.6879 321.394 73.7929 321.394C70.8979 321.394 69.1879 322.219 69.1879 323.719C69.1879 325.234 70.8979 326.059 73.7929 326.059ZM70.0879 331.909H78.2179V329.164H69.2779V329.809H77.4379V331.294H69.3079V334.279H78.6529V333.619H70.0879V331.909ZM67.7629 327.109V327.784H79.8079V327.109H67.7629ZM87.1969 325.399H94.6669V328.204H87.1969V325.399ZM91.3069 332.014V328.879H95.4469V322.144H94.6669V324.724H87.1969V322.144H86.4019V328.879H90.5119V332.014H84.8869V332.689H96.9919V332.014H91.3069ZM108.331 323.959C108.331 325.564 108.331 327.379 107.851 329.869L108.661 329.989C109.126 327.379 109.126 325.579 109.126 323.959V322.624H100.006V323.284H108.331V323.959ZM104.416 331.759V326.884H103.636V331.759H98.7007V332.434H110.746V331.759H104.416ZM118.15 327.049C118.585 325.774 118.96 324.619 119.335 323.299H119.395C119.785 324.619 120.145 325.774 120.595 327.049L121.255 329.029H117.475L118.15 327.049ZM115.09 333.424H115.99L117.235 329.749H121.495L122.71 333.424H123.67L119.845 322.489H118.915L115.09 333.424ZM125.363 333.424H126.263V322.489H125.363V333.424ZM138.941 326.809C139.316 325.009 139.316 323.674 139.316 322.849V322.234H132.836V322.894H138.536C138.536 323.719 138.536 324.949 138.146 326.734L138.941 326.809ZM140.456 327.754C139.001 327.949 137.396 328.069 135.851 328.129V325.114H135.056V328.159C133.961 328.189 132.926 328.189 132.011 328.189L132.116 328.894C134.486 328.879 137.726 328.819 140.516 328.369L140.456 327.754ZM134.906 330.274H134.111V334.144H142.676V333.469H134.906V330.274ZM142.241 325.639V321.154H141.446V331.219H142.241V326.329H144.341V325.639H142.241ZM155.889 330.934H156.684V321.169H155.889V323.524H153.024V324.199H155.889V326.509H153.024V327.184H155.889V330.934ZM153.039 328.039C151.374 328.324 150.024 328.384 147.354 328.384H147.204V325.774H152.049V322.114H146.379V322.774H151.254V325.114H146.409V329.059H147.354C150.039 329.059 151.404 328.999 153.129 328.714L153.039 328.039ZM149.034 333.379V330.259H148.254V334.054H157.134V333.379H149.034ZM165.243 331.654H173.478V328.519H164.433V329.179H172.698V331.009H164.463V334.264H173.808V333.604H165.243V331.654ZM173.073 326.269C173.388 324.679 173.388 323.464 173.388 322.564V321.724H164.523V322.399H172.623V322.564C172.623 323.479 172.623 324.634 172.293 326.269H162.948V326.944H175.038V326.269H173.073ZM182.777 322.024C185.102 322.024 186.572 322.669 186.572 323.719C186.572 324.784 185.102 325.429 182.777 325.429C180.452 325.429 178.982 324.784 178.982 323.719C178.982 322.669 180.452 322.024 182.777 322.024ZM182.777 326.059C185.672 326.059 187.382 325.234 187.382 323.719C187.382 322.219 185.672 321.394 182.777 321.394C179.882 321.394 178.172 322.219 178.172 323.719C178.172 325.234 179.882 326.059 182.777 326.059ZM179.072 331.909H187.202V329.164H178.262V329.809H186.422V331.294H178.292V334.279H187.637V333.619H179.072V331.909ZM176.747 327.109V327.784H188.792V327.109H176.747ZM195.371 330.454V323.164H200.651V322.459H194.576V331.144H195.551C198.146 331.144 199.781 331.054 201.776 330.664L201.656 329.989C199.736 330.364 198.101 330.454 195.551 330.454H195.371ZM203.951 321.154V326.119H199.796V326.794H203.951V334.489H204.746V321.154H203.951ZM218.705 327.799C216.875 327.229 215.33 325.714 215.33 323.944V323.524H218.48V322.864H215.345V321.064H214.55V322.864H211.385V323.524H214.55V323.944C214.55 325.864 212.93 327.454 211.085 328.084L211.475 328.714C213.05 328.144 214.4 326.989 214.955 325.459C215.525 326.854 216.8 327.934 218.315 328.444L218.705 327.799ZM221.525 330.469V329.794H212.915V330.469H216.815C216.74 332.134 214.385 333.424 212.435 333.799L212.75 334.414C214.535 334.054 216.5 333.049 217.22 331.594C217.955 333.034 219.92 334.069 221.69 334.429L222.005 333.799C220.055 333.424 217.7 332.119 217.625 330.469H221.525ZM221.27 324.619V321.154H220.475V328.969H221.27V325.294H223.355V324.619H221.27ZM228.334 330.694C226.864 330.694 225.829 329.074 225.829 326.809C225.829 324.529 226.864 322.939 228.334 322.939C229.804 322.939 230.839 324.529 230.839 326.809C230.839 329.074 229.804 330.694 228.334 330.694ZM228.334 322.234C226.414 322.234 225.079 324.034 225.079 326.809C225.079 329.599 226.414 331.384 228.334 331.384C230.254 331.384 231.589 329.599 231.589 326.809C231.589 324.034 230.254 322.234 228.334 322.234ZM237.259 326.644H234.934V321.154H234.139V334.474H234.934V327.319H237.259V326.644ZM240.903 325.399H248.373V328.204H240.903V325.399ZM245.013 332.014V328.879H249.153V322.144H248.373V324.724H240.903V322.144H240.108V328.879H244.218V332.014H238.593V332.689H250.698V332.014H245.013ZM262.037 323.959C262.037 325.564 262.037 327.379 261.557 329.869L262.367 329.989C262.832 327.379 262.832 325.579 262.832 323.959V322.624H253.712V323.284H262.037V323.959ZM258.122 331.759V326.884H257.342V331.759H252.407V332.434H264.452V331.759H258.122ZM276.581 324.754V325.429H279.581V329.089H280.376V321.154H279.581V324.754H276.581ZM277.271 327.874C275.456 327.214 273.911 325.534 273.911 323.719V322.894H277.031V322.219H269.951V322.894H273.131V323.734C273.131 325.759 271.511 327.559 269.666 328.264L270.071 328.909C271.646 328.279 273.011 326.944 273.551 325.264C274.091 326.734 275.366 327.934 276.866 328.504L277.271 327.874ZM276.071 333.799C273.896 333.799 272.501 333.124 272.501 332.014C272.501 330.904 273.896 330.229 276.071 330.229C278.246 330.229 279.656 330.904 279.656 332.014C279.656 333.124 278.246 333.799 276.071 333.799ZM276.071 329.584C273.356 329.584 271.706 330.454 271.706 332.014C271.706 333.574 273.356 334.444 276.071 334.444C278.771 334.444 280.436 333.574 280.436 332.014C280.436 330.454 278.771 329.584 276.071 329.584ZM284.92 330.514V326.959H290.17V322.444H284.08V323.134H289.39V326.284H284.125V331.189H285.19C287.38 331.189 289.435 331.099 291.985 330.694L291.91 330.019C289.39 330.409 287.335 330.514 285.19 330.514H284.92ZM293.35 321.154V334.489H294.145V321.154H293.35ZM305.408 325.639H307.508V329.419H308.273V321.169H307.508V324.949H305.408V321.364H304.643V329.194H305.408V325.639ZM303.983 322.819H300.923V321.184H300.128V322.819H297.053V323.479H303.983V322.819ZM300.518 324.919C301.778 324.919 302.618 325.594 302.618 326.539C302.618 327.499 301.778 328.174 300.518 328.174C299.273 328.174 298.433 327.499 298.433 326.539C298.433 325.594 299.273 324.919 300.518 324.919ZM300.518 328.804C302.213 328.804 303.353 327.934 303.353 326.539C303.353 325.159 302.213 324.304 300.518 324.304C298.853 324.304 297.713 325.159 297.713 326.539C297.713 327.934 298.853 328.804 300.518 328.804ZM306.548 329.794H305.783V330.379C305.783 331.414 305.018 332.854 303.668 333.619C302.333 332.929 301.583 331.594 301.583 330.379V329.794H300.818V330.379C300.818 331.624 299.648 333.094 298.028 333.694L298.418 334.309C299.708 333.799 300.698 332.809 301.178 331.729C301.538 332.869 302.378 333.904 303.683 334.414C304.928 333.874 305.768 332.779 306.158 331.699C306.608 332.824 307.613 333.814 308.948 334.309L309.338 333.694C307.703 333.124 306.548 331.729 306.548 330.379V329.794ZM312.322 330.394V323.149H317.692V322.474H311.527V331.084H312.532C315.142 331.084 316.852 330.994 318.922 330.604L318.817 329.914C316.822 330.289 315.112 330.394 312.532 330.394H312.322ZM323.377 326.614H321.052V321.154H320.257V334.489H321.052V327.289H323.377V326.614ZM325.746 333.619C326.151 333.619 326.511 333.304 326.511 332.809C326.511 332.299 326.151 331.984 325.746 331.984C325.341 331.984 324.981 332.299 324.981 332.809C324.981 333.304 325.341 333.619 325.746 333.619Z" fill="#333333"/>
<path d="M168.859 605.278C166.375 604.45 165.007 602.452 165.007 600.4V600.112H168.409V598.6H159.679V600.112H163.135V600.4C163.135 602.632 161.713 604.702 159.139 605.566L160.111 607.024C162.019 606.358 163.369 605.026 164.089 603.316C164.791 604.864 166.087 606.106 167.905 606.7L168.859 605.278ZM161.299 609.634H170.137V613.81H171.991V608.14H161.299V609.634ZM174.295 601.696H171.991V597.538H170.137V607.348H171.991V603.226H174.295V601.696ZM187.469 607.132H189.323V597.538H187.469V600.796H184.175V602.308H187.469V607.132ZM185.507 605.026C183.041 604.216 181.691 602.182 181.691 599.932V598.42H179.819V600.022C179.819 602.398 178.397 604.594 175.787 605.476L176.759 606.97C178.721 606.268 180.089 604.846 180.809 603.046C181.511 604.63 182.771 605.854 184.517 606.484L185.507 605.026ZM183.905 612.352C181.601 612.352 180.287 611.758 180.287 610.696C180.287 609.634 181.601 609.04 183.905 609.04C186.209 609.04 187.541 609.634 187.541 610.696C187.541 611.758 186.209 612.352 183.905 612.352ZM183.905 607.582C180.521 607.582 178.433 608.734 178.433 610.696C178.433 612.658 180.521 613.81 183.905 613.81C187.307 613.81 189.395 612.658 189.395 610.696C189.395 608.734 187.307 607.582 183.905 607.582ZM194.992 601.498C194.992 600.382 195.946 599.662 197.296 599.662C198.664 599.662 199.582 600.382 199.582 601.498C199.582 602.632 198.664 603.352 197.296 603.352C195.946 603.352 194.992 602.632 194.992 601.498ZM202.336 605.692C201.04 605.89 199.636 605.998 198.25 606.088V604.684C200.086 604.378 201.31 603.154 201.31 601.498C201.31 599.572 199.654 598.258 197.296 598.258C194.938 598.258 193.264 599.572 193.264 601.498C193.264 603.172 194.524 604.396 196.396 604.684V606.16C194.938 606.214 193.552 606.214 192.382 606.214L192.616 607.726C195.334 607.726 199.114 607.672 202.462 607.042L202.336 605.692ZM196.486 608.932H194.632V613.486H205.702V611.992H196.486V608.932ZM205.144 602.884V597.574H203.29V609.994H205.144V604.414H207.376V602.884H205.144ZM214.755 607.564H218.085V610.372H214.755V607.564ZM219.921 610.372V607.564H222.315V606.07H212.577V603.82H221.955V598.69H210.723V600.184H220.119V602.344H210.759V607.564H212.919V610.372H208.977V611.902H223.701V610.372H219.921Z" fill="white"/>
<path d="M27.175 119.174C25.725 119.174 24.775 117.649 24.775 114.349C24.775 111.049 25.725 109.524 27.175 109.524C28.65 109.524 29.6 111.049 29.6 114.349C29.6 117.649 28.65 119.174 27.175 119.174ZM27.175 105.849C23.575 105.849 20.875 109.099 20.875 114.349C20.875 119.599 23.575 122.849 27.175 122.849C30.8 122.849 33.5 119.599 33.5 114.349C33.5 109.099 30.8 105.849 27.175 105.849ZM42.6 112.899H39.45V104.324H35.4V127.799H39.45V116.199H42.6V112.899ZM54.498 107.524C57.448 107.524 58.948 107.974 58.948 108.999C58.948 110.049 57.448 110.499 54.498 110.499C51.573 110.499 50.048 110.049 50.048 108.999C50.048 107.974 51.573 107.524 54.498 107.524ZM54.498 113.524C59.723 113.524 63.123 111.824 63.123 108.999C63.123 106.224 59.723 104.499 54.498 104.499C49.273 104.499 45.873 106.224 45.873 108.999C45.873 111.824 49.273 113.524 54.498 113.524ZM56.523 120.449H52.348V120.699C52.348 122.124 50.748 124.274 45.148 124.724L46.448 127.724C50.448 127.399 52.998 126.124 54.423 124.449C55.823 126.149 58.398 127.374 62.423 127.724L63.723 124.724C57.998 124.299 56.523 122.274 56.523 120.699V120.449ZM43.873 114.424V117.599H52.423V119.599H56.473V117.599H65.098V114.424H43.873ZM79.5711 110.674H75.3711V107.999H79.5711V110.674ZM71.3461 110.674H68.8711V113.824H86.0461V110.674H83.5961V107.999H86.2961V104.849H68.6461V107.999H71.3461V110.674ZM79.5211 120.849H75.3461V121.124C75.3461 122.424 73.7461 124.374 68.1711 124.774L69.3961 127.724C73.4211 127.449 75.9961 126.249 77.4211 124.649C78.8211 126.274 81.4211 127.424 85.4711 127.724L86.6961 124.774C81.0211 124.399 79.5211 122.549 79.5211 121.124V120.849ZM66.8711 114.949V118.124H75.4211V120.074H79.4711V118.124H88.1211V114.949H66.8711ZM95.3441 120.124C93.7941 120.124 92.8441 118.099 92.8441 114.524C92.8441 110.949 93.7941 108.949 95.3441 108.949C96.8941 108.949 97.8441 110.949 97.8441 114.524C97.8441 118.099 96.8941 120.124 95.3441 120.124ZM102.569 113.324H100.144C99.8691 109.099 98.0441 106.524 95.3441 106.524C92.4191 106.524 90.4941 109.574 90.4941 114.524C90.4941 119.474 92.4191 122.549 95.3441 122.549C98.0941 122.549 99.9441 119.849 100.169 115.449H102.569V126.274H104.969V105.199H102.569V113.324ZM107.094 104.774V127.324H109.544V104.774H107.094ZM130.807 114.449C131.357 111.524 131.357 109.299 131.357 107.774V106.474H120.007V108.574H128.832C128.807 109.974 128.732 111.749 128.282 114.174L130.807 114.449ZM132.682 115.574C130.457 115.924 128.032 116.074 125.682 116.174V111.624H123.132V116.249C121.532 116.299 119.982 116.299 118.632 116.299L118.907 118.399C122.832 118.399 128.157 118.274 132.857 117.449L132.682 115.574ZM124.632 120.224H122.032V126.924H137.382V124.824H124.632V120.224ZM136.657 111.924V104.774H134.057V121.724H136.657V114.049H139.657V111.924H136.657ZM155.23 107.349H149.855V104.774H147.28V107.349H141.905V109.399H155.23V107.349ZM145.555 114.724C145.555 113.299 146.78 112.449 148.555 112.449C150.355 112.449 151.58 113.299 151.58 114.724C151.58 116.149 150.355 116.999 148.555 116.999C146.78 116.999 145.555 116.149 145.555 114.724ZM154.03 114.724C154.03 112.174 151.805 110.449 148.555 110.449C145.33 110.449 143.08 112.174 143.08 114.724C143.08 117.299 145.33 118.999 148.555 118.999C151.805 118.999 154.03 117.299 154.03 114.724ZM147.805 120.399H145.205V126.924H160.405V124.824H147.805V120.399ZM159.505 111.974V104.774H156.93V121.699H159.505V114.099H162.705V111.974H159.505ZM35.575 148.774H37.925V154.999H40.375V140.749H37.925V146.649H35.575V141.199H33.175V154.224H35.575V148.774ZM32.4 143.299H28.05V140.974H25.525V143.299H21.15V145.324H32.4V143.299ZM24.275 150.199C24.275 148.974 25.275 148.174 26.8 148.174C28.325 148.174 29.35 148.974 29.35 150.199C29.35 151.424 28.325 152.224 26.8 152.224C25.275 152.224 24.275 151.424 24.275 150.199ZM31.65 150.199C31.65 147.874 29.65 146.299 26.8 146.299C23.975 146.299 21.975 147.874 21.975 150.199C21.975 152.549 23.975 154.099 26.8 154.099C29.65 154.099 31.65 152.549 31.65 150.199ZM32.875 161.399C29.65 161.399 27.8 160.674 27.8 159.324C27.8 157.974 29.65 157.274 32.875 157.274C36.125 157.274 37.925 157.974 37.925 159.324C37.925 160.674 36.125 161.399 32.875 161.399ZM32.875 155.324C28.1 155.324 25.225 156.774 25.225 159.324C25.225 161.874 28.1 163.349 32.875 163.349C37.625 163.349 40.5 161.874 40.5 159.324C40.5 156.774 37.625 155.324 32.875 155.324ZM54.423 161.374C51.123 161.374 49.273 160.649 49.273 159.249C49.273 157.874 51.123 157.124 54.423 157.124C57.723 157.124 59.598 157.874 59.598 159.249C59.598 160.649 57.723 161.374 54.423 161.374ZM54.423 155.149C49.598 155.149 46.648 156.649 46.648 159.249C46.648 161.874 49.598 163.374 54.423 163.374C59.273 163.374 62.198 161.874 62.198 159.249C62.198 156.649 59.273 155.149 54.423 155.149ZM55.773 151.674V149.424H62.348V147.349H49.373V143.824H62.198V141.774H46.823V149.424H53.198V151.674H44.298V153.774H64.698V151.674H55.773ZM77.4711 143.049C80.9711 143.049 82.8461 143.724 82.8461 145.024C82.8461 146.299 80.9711 146.974 77.4711 146.974C73.9711 146.974 72.0961 146.299 72.0961 145.024C72.0961 143.724 73.9711 143.049 77.4711 143.049ZM77.4711 148.899C82.5211 148.899 85.5211 147.524 85.5211 145.024C85.5211 142.499 82.5211 141.124 77.4711 141.124C72.3961 141.124 69.4211 142.499 69.4211 145.024C69.4211 147.524 72.3961 148.899 77.4711 148.899ZM72.2711 159.299H85.1211V153.899H69.6711V155.849H82.5961V157.474H69.7211V163.149H85.7711V161.174H72.2711V159.299ZM67.2461 150.224V152.274H87.6961V150.224H67.2461ZM97.1594 143.149V145.249H105.209C104.759 150.449 101.959 154.424 96.0344 157.274L97.4094 159.324C105.159 155.574 107.859 149.874 107.859 143.149H97.1594ZM111.934 140.774V163.349H114.509V140.774H111.934ZM121.157 158.724H134.307V163.224H136.882V156.649H121.157V158.724ZM130.382 153.049V150.999H137.207V149.024H124.007V147.024H136.757V141.299H121.432V143.274H134.207V145.174H121.482V150.999H127.807V153.049H118.857V155.124H139.332V153.049H130.382ZM147.38 156.149C145.855 156.149 144.78 154.924 144.78 153.049C144.78 151.174 145.855 149.924 147.38 149.924C148.905 149.924 149.98 151.174 149.98 153.049C149.98 154.924 148.905 156.149 147.38 156.149ZM147.38 147.799C144.53 147.799 142.48 149.924 142.48 153.049C142.48 156.149 144.53 158.299 147.38 158.299C150.23 158.299 152.28 156.149 152.28 153.049C152.28 149.924 150.23 147.799 147.38 147.799ZM148.655 141.424H146.105V144.449H141.83V146.524H152.88V144.449H148.655V141.424ZM158.655 140.774V150.124H156.255V141.249H153.855V162.299H156.255V152.249H158.655V163.349H161.105V140.774H158.655ZM166.929 151.824C170.654 151.274 173.704 149.424 175.079 146.924C176.454 149.424 179.529 151.274 183.254 151.824L184.179 149.799C179.879 149.224 176.704 146.749 176.554 144.124H183.379V142.049H166.754V144.124H173.629C173.479 146.749 170.304 149.224 166.004 149.799L166.929 151.824ZM185.304 153.474H164.879V155.549H173.729V163.374H176.304V155.549H185.279L185.304 153.474ZM194.802 142.849H192.302V146.924C192.302 150.774 190.752 154.824 187.552 156.724L189.127 158.674C191.302 157.349 192.777 154.974 193.577 152.199C194.352 154.724 195.702 156.924 197.752 158.174L199.202 156.174C196.177 154.274 194.802 150.449 194.802 146.799V142.849ZM200.102 148.674H196.777V150.774H200.102V162.299H202.527V141.199H200.102V148.674ZM204.702 140.774V163.349H207.152V140.774H204.702ZM218.225 153.574C219.1 153.774 220.075 153.874 221.075 153.874C222.075 153.874 223.05 153.774 223.925 153.549V158.474H218.225V153.574ZM221.075 144.099C224.475 144.099 226.85 145.599 226.85 147.974C226.85 150.374 224.475 151.874 221.075 151.874C217.65 151.874 215.275 150.374 215.275 147.974C215.275 145.599 217.65 144.099 221.075 144.099ZM226.5 158.474V152.599C228.3 151.574 229.375 149.974 229.375 147.974C229.375 144.374 225.875 142.074 221.075 142.074C216.25 142.074 212.775 144.374 212.775 147.974C212.775 149.974 213.85 151.599 215.65 152.599V158.474H210.875V160.574H231.325V158.474H226.5Z" fill="#333333"/>
<defs>
<filter id="filter0_d" x="0" y="20.4238" width="383" height="68" filterUnits="userSpaceOnUse" color-interpolation-filters="sRGB">
<feFlood flood-opacity="0" result="BackgroundImageFix"/>
<feColorMatrix in="SourceAlpha" type="matrix" values="0 0 0 0 0 0 0 0 0 0 0 0 0 0 0 0 0 0 127 0"/>
<feOffset dy="4"/>
<feGaussianBlur stdDeviation="2"/>
<feColorMatrix type="matrix" values="0 0 0 0 0.788235 0 0 0 0 0.788235 0 0 0 0 0.788235 0 0 0 0.2 0"/>
<feBlend mode="normal" in2="BackgroundImageFix" result="effect1_dropShadow"/>
<feBlend mode="normal" in="SourceGraphic" in2="effect1_dropShadow" result="shape"/>
</filter>
<clipPath id="clip0">
<rect width="78" height="16" fill="white" transform="translate(8 3.42383)"/>
</clipPath>
</defs>
</svg>
