<svg width="375" height="668" viewBox="0 0 375 668" fill="none" xmlns="http://www.w3.org/2000/svg">
<g clip-path="url(#clip0)">
<rect width="375" height="667" transform="translate(0 0.610352)" fill="white"/>
<rect y="0.610352" width="375" height="80" fill="#FF7556"/>
<path fill-rule="evenodd" clip-rule="evenodd" d="M89.9958 9.13123C91.9355 9.13123 93.7034 9.8458 95.0589 11.0175L96 9.97846C94.3946 8.58482 92.2979 7.61035 89.9958 7.61035C87.6971 7.61035 85.6034 8.58186 84 9.97106L84.9391 11.0116C86.2936 9.84334 88.0585 9.13123 89.9958 9.13123V9.13123Z" fill="#FCFCFC"/>
<path fill-rule="evenodd" clip-rule="evenodd" d="M89.9954 12.1307C91.158 12.1307 92.2201 12.5529 93.0393 13.2482L94.0349 12.1485C92.9513 11.2184 91.5418 10.6108 89.9954 10.6108C88.452 10.6108 87.0435 11.2169 85.9609 12.144L86.9551 13.2453C87.7738 12.5514 88.8344 12.1307 89.9954 12.1307V12.1307Z" fill="#FCFCFC"/>
<path fill-rule="evenodd" clip-rule="evenodd" d="M92.0432 14.348C91.4889 13.8879 90.7752 13.5693 89.995 13.5693C89.2162 13.5693 88.5035 13.8874 87.9492 14.3456L89.995 16.6106L92.0432 14.348V14.348Z" fill="#FCFCFC"/>
<path fill-rule="evenodd" clip-rule="evenodd" d="M8.75 15.1104C10.2688 15.1104 11.5 13.8791 11.5 12.3604C11.5 10.8416 10.2688 9.61035 8.75 9.61035C7.23122 9.61035 6 10.8416 6 12.3604C6 13.8791 7.23122 15.1104 8.75 15.1104Z" fill="white"/>
<path fill-rule="evenodd" clip-rule="evenodd" d="M15.75 15.1104C17.2688 15.1104 18.5 13.8791 18.5 12.3604C18.5 10.8416 17.2688 9.61035 15.75 9.61035C14.2312 9.61035 13 10.8416 13 12.3604C13 13.8791 14.2312 15.1104 15.75 15.1104Z" fill="white"/>
<path fill-rule="evenodd" clip-rule="evenodd" d="M22.75 15.1104C24.2688 15.1104 25.5 13.8791 25.5 12.3604C25.5 10.8416 24.2688 9.61035 22.75 9.61035C21.2312 9.61035 20 10.8416 20 12.3604C20 13.8791 21.2312 15.1104 22.75 15.1104Z" fill="white"/>
<path fill-rule="evenodd" clip-rule="evenodd" d="M29.75 14.6104V14.6104C30.9926 14.6104 32 13.603 32 12.3604C32 11.1177 30.9926 10.1104 29.75 10.1104C28.5074 10.1104 27.5 11.1177 27.5 12.3604C27.5 13.603 28.5074 14.6104 29.75 14.6104V14.6104ZM29.75 15.1104V15.1104C28.2312 15.1104 27 13.8791 27 12.3604C27 10.8416 28.2312 9.61035 29.75 9.61035C31.2688 9.61035 32.5 10.8416 32.5 12.3604C32.5 13.8791 31.2688 15.1104 29.75 15.1104V15.1104Z" fill="white"/>
<path fill-rule="evenodd" clip-rule="evenodd" d="M36.75 14.6104V14.6104C37.9926 14.6104 39 13.603 39 12.3604C39 11.1177 37.9926 10.1104 36.75 10.1104C35.5074 10.1104 34.5 11.1177 34.5 12.3604C34.5 13.603 35.5074 14.6104 36.75 14.6104V14.6104ZM36.75 15.1104V15.1104C35.2312 15.1104 34 13.8791 34 12.3604C34 10.8416 35.2312 9.61035 36.75 9.61035C38.2688 9.61035 39.5 10.8416 39.5 12.3604C39.5 13.8791 38.2688 15.1104 36.75 15.1104V15.1104Z" fill="white"/>
<path d="M43.5254 7.50293H49.4961V8.55762H44.6914V11.1709H48.916V12.1963H44.6914V16.1104H43.5254V7.50293ZM50.6094 9.86426H51.6816V16.1104H50.6094V9.86426ZM50.6094 7.50293H51.6816V8.69824H50.6094V7.50293ZM55.4961 9.72363C55.9883 9.72363 56.418 9.84473 56.7852 10.0869C56.9844 10.2236 57.1875 10.4229 57.3945 10.6846V9.89355H58.3672V15.6006C58.3672 16.3975 58.25 17.0264 58.0156 17.4873C57.5781 18.3389 56.752 18.7646 55.5371 18.7646C54.8613 18.7646 54.293 18.6123 53.832 18.3076C53.3711 18.0068 53.1133 17.5342 53.0586 16.8896H54.1309C54.1816 17.1709 54.2832 17.3877 54.4355 17.54C54.6738 17.7744 55.0488 17.8916 55.5605 17.8916C56.3691 17.8916 56.8984 17.6064 57.1484 17.0361C57.2969 16.7002 57.3652 16.1006 57.3535 15.2373C57.1426 15.5576 56.8887 15.7959 56.5918 15.9521C56.2949 16.1084 55.9023 16.1865 55.4141 16.1865C54.7344 16.1865 54.1387 15.9463 53.627 15.4658C53.1191 14.9814 52.8652 14.1826 52.8652 13.0693C52.8652 12.0186 53.1211 11.1982 53.6328 10.6084C54.1484 10.0186 54.7695 9.72363 55.4961 9.72363ZM57.3945 12.9463C57.3945 12.1689 57.2344 11.5928 56.9141 11.2178C56.5938 10.8428 56.1855 10.6553 55.6895 10.6553C54.9473 10.6553 54.4395 11.0029 54.166 11.6982C54.0215 12.0693 53.9492 12.5557 53.9492 13.1572C53.9492 13.8643 54.0918 14.4033 54.377 14.7744C54.666 15.1416 55.0527 15.3252 55.5371 15.3252C56.2949 15.3252 56.8281 14.9834 57.1367 14.2998C57.3086 13.9131 57.3945 13.4619 57.3945 12.9463ZM59.9609 9.83496H61.0039V10.7256C61.2539 10.417 61.4805 10.1924 61.6836 10.0518C62.0312 9.81348 62.4258 9.69434 62.8672 9.69434C63.3672 9.69434 63.7695 9.81738 64.0742 10.0635C64.2461 10.2041 64.4023 10.4111 64.543 10.6846C64.7773 10.3486 65.0527 10.1006 65.3691 9.94043C65.6855 9.77637 66.041 9.69434 66.4355 9.69434C67.2793 9.69434 67.8535 9.99902 68.1582 10.6084C68.3223 10.9365 68.4043 11.3779 68.4043 11.9326V16.1104H67.3086V11.751C67.3086 11.333 67.2031 11.0459 66.9922 10.8896C66.7852 10.7334 66.5312 10.6553 66.2305 10.6553C65.8164 10.6553 65.459 10.7939 65.1582 11.0713C64.8613 11.3486 64.7129 11.8115 64.7129 12.46V16.1104H63.6406V12.0146C63.6406 11.5889 63.5898 11.2783 63.4883 11.083C63.3281 10.79 63.0293 10.6436 62.5918 10.6436C62.1934 10.6436 61.8301 10.7979 61.502 11.1064C61.1777 11.415 61.0156 11.9736 61.0156 12.7822V16.1104H59.9609V9.83496ZM70.7656 14.4404C70.7656 14.7451 70.877 14.9854 71.0996 15.1611C71.3223 15.3369 71.5859 15.4248 71.8906 15.4248C72.2617 15.4248 72.6211 15.3389 72.9688 15.167C73.5547 14.8818 73.8477 14.415 73.8477 13.7666V12.917C73.7188 12.999 73.5527 13.0674 73.3496 13.1221C73.1465 13.1768 72.9473 13.2158 72.752 13.2393L72.1133 13.3213C71.7305 13.3721 71.4434 13.4521 71.252 13.5615C70.9277 13.7451 70.7656 14.0381 70.7656 14.4404ZM73.3203 12.3076C73.5625 12.2764 73.7246 12.1748 73.8066 12.0029C73.8535 11.9092 73.877 11.7744 73.877 11.5986C73.877 11.2393 73.748 10.9795 73.4902 10.8193C73.2363 10.6553 72.8711 10.5732 72.3945 10.5732C71.8438 10.5732 71.4531 10.7217 71.2227 11.0186C71.0938 11.1826 71.0098 11.4268 70.9707 11.751H69.9863C70.0059 10.9775 70.2559 10.4404 70.7363 10.1396C71.2207 9.83496 71.7812 9.68262 72.418 9.68262C73.1562 9.68262 73.7559 9.82324 74.2168 10.1045C74.6738 10.3857 74.9023 10.8232 74.9023 11.417V15.0322C74.9023 15.1416 74.9238 15.2295 74.9668 15.2959C75.0137 15.3623 75.1094 15.3955 75.2539 15.3955C75.3008 15.3955 75.3535 15.3936 75.4121 15.3896C75.4707 15.3818 75.5332 15.3721 75.5996 15.3604V16.1396C75.4355 16.1865 75.3105 16.2158 75.2246 16.2275C75.1387 16.2393 75.0215 16.2451 74.873 16.2451C74.5098 16.2451 74.2461 16.1162 74.082 15.8584C73.9961 15.7217 73.9355 15.5283 73.9004 15.2783C73.6855 15.5596 73.377 15.8037 72.9746 16.0107C72.5723 16.2178 72.1289 16.3213 71.6445 16.3213C71.0625 16.3213 70.5859 16.1455 70.2148 15.7939C69.8477 15.4385 69.6641 14.9951 69.6641 14.4639C69.6641 13.8818 69.8457 13.4307 70.209 13.1104C70.5723 12.79 71.0488 12.5928 71.6387 12.5186L73.3203 12.3076Z" fill="white"/>
<path fill-rule="evenodd" clip-rule="evenodd" d="M346.002 7.63667V7.63667C345.447 7.63667 345 8.10589 345 8.68936V15.5313C345 16.1122 345.449 16.584 346.002 16.584H365.498C366.053 16.584 366.5 16.1148 366.5 15.5313V8.68936C366.5 8.10846 366.051 7.63667 365.498 7.63667H346.002ZM346.002 7.11035V7.11035H365.498C366.327 7.11035 367 7.8173 367 8.68936V15.5313C367 16.4072 366.327 17.1104 365.498 17.1104H346.002C345.173 17.1104 344.5 16.4034 344.5 15.5313V8.68936C344.5 7.81353 345.173 7.11035 346.002 7.11035V7.11035Z" fill="white"/>
<path fill-rule="evenodd" clip-rule="evenodd" d="M346 8.11035C345.724 8.11035 345.5 8.33421 345.5 8.61035V15.6104C345.5 15.8865 345.724 16.1104 346 16.1104H354.5V8.11035H346Z" fill="white"/>
<path fill-rule="evenodd" clip-rule="evenodd" d="M369 12.3426C369 13.2242 368.348 13.9536 367.5 14.0749V10.6104C368.348 10.7317 369 11.461 369 12.3426Z" fill="white"/>
<path d="M318.467 13.1396V9.33691L315.777 13.1396H318.467ZM318.484 16.1104V14.0596H314.805V13.0283L318.648 7.69629H319.539V13.1396H320.775V14.0596H319.539V16.1104H318.484ZM321.555 16.1104C321.594 15.3877 321.742 14.7588 322 14.2236C322.262 13.6885 322.77 13.2021 323.523 12.7646L324.648 12.1143C325.152 11.8213 325.506 11.5713 325.709 11.3643C326.029 11.04 326.189 10.6689 326.189 10.251C326.189 9.7627 326.043 9.37598 325.75 9.09082C325.457 8.80176 325.066 8.65723 324.578 8.65723C323.855 8.65723 323.355 8.93066 323.078 9.47754C322.93 9.77051 322.848 10.1768 322.832 10.6963H321.76C321.771 9.96582 321.906 9.37012 322.164 8.90918C322.621 8.09668 323.428 7.69043 324.584 7.69043C325.545 7.69043 326.246 7.9502 326.688 8.46973C327.133 8.98926 327.355 9.56738 327.355 10.2041C327.355 10.876 327.119 11.4502 326.646 11.9268C326.373 12.2041 325.883 12.54 325.176 12.9346L324.373 13.3799C323.99 13.5908 323.689 13.792 323.471 13.9834C323.08 14.3232 322.834 14.7002 322.732 15.1143H327.314V16.1104H321.555ZM336.039 12.0322C336.602 12.0322 337.082 12.2314 337.48 12.6299C337.879 13.0283 338.078 13.5088 338.078 14.0713C338.078 14.6338 337.879 15.1143 337.48 15.5127C337.082 15.9111 336.602 16.1104 336.039 16.1104C335.473 16.1104 334.99 15.9111 334.592 15.5127C334.193 15.1143 333.994 14.6338 333.994 14.0713C333.994 13.5088 334.193 13.0283 334.592 12.6299C334.99 12.2314 335.473 12.0322 336.039 12.0322ZM335.189 7.75488H335.84L331.146 16.333H330.496L335.189 7.75488ZM330.285 11.2236C330.621 11.2236 330.906 11.1064 331.141 10.8721C331.379 10.6338 331.498 10.3486 331.498 10.0166C331.498 9.68457 331.379 9.40137 331.141 9.16699C330.906 8.92871 330.621 8.80957 330.285 8.80957C329.953 8.80957 329.668 8.92676 329.43 9.16113C329.195 9.39551 329.078 9.68066 329.078 10.0166C329.078 10.3486 329.195 10.6338 329.43 10.8721C329.668 11.1064 329.953 11.2236 330.285 11.2236ZM330.285 7.97168C330.852 7.97168 331.334 8.17285 331.732 8.5752C332.131 8.97363 332.33 9.4541 332.33 10.0166C332.33 10.5791 332.131 11.0596 331.732 11.458C331.334 11.8564 330.852 12.0557 330.285 12.0557C329.723 12.0557 329.242 11.8564 328.844 11.458C328.445 11.0596 328.246 10.5791 328.246 10.0166C328.246 9.4541 328.445 8.97363 328.844 8.5752C329.242 8.17285 329.723 7.97168 330.285 7.97168ZM336.039 15.2783C336.371 15.2783 336.654 15.1611 336.889 14.9268C337.127 14.6885 337.246 14.4033 337.246 14.0713C337.246 13.7393 337.127 13.4561 336.889 13.2217C336.654 12.9834 336.371 12.8643 336.039 12.8643C335.703 12.8643 335.416 12.9834 335.178 13.2217C334.943 13.4561 334.826 13.7393 334.826 14.0713C334.826 14.4033 334.943 14.6885 335.178 14.9268C335.416 15.1611 335.703 15.2783 336.039 15.2783Z" fill="white"/>
<path d="M304.5 9.61035L309.5 14.6104L307.357 17.1104V7.11035L309.5 9.61035L304.5 14.6104" stroke="#FCFCFC" stroke-linecap="square"/>
<path d="M165.094 14.083C165.125 14.665 165.35 15.0674 165.768 15.29C165.982 15.4072 166.225 15.4658 166.494 15.4658C166.998 15.4658 167.428 15.2568 167.783 14.8389C168.139 14.417 168.391 13.5635 168.539 12.2783C168.305 12.6494 168.014 12.9111 167.666 13.0635C167.322 13.2119 166.951 13.2861 166.553 13.2861C165.744 13.2861 165.104 13.0342 164.631 12.5303C164.162 12.0264 163.928 11.3779 163.928 10.585C163.928 9.82324 164.16 9.15332 164.625 8.5752C165.09 7.99707 165.775 7.70801 166.682 7.70801C167.904 7.70801 168.748 8.25879 169.213 9.36035C169.471 9.96582 169.6 10.7236 169.6 11.6338C169.6 12.6611 169.445 13.5713 169.137 14.3643C168.625 15.6846 167.758 16.3447 166.535 16.3447C165.715 16.3447 165.092 16.1299 164.666 15.7002C164.24 15.2705 164.027 14.7314 164.027 14.083H165.094ZM166.693 12.3604C167.111 12.3604 167.492 12.2236 167.836 11.9502C168.184 11.6729 168.357 11.1904 168.357 10.5029C168.357 9.88574 168.201 9.42676 167.889 9.12598C167.58 8.82129 167.186 8.66895 166.705 8.66895C166.189 8.66895 165.779 8.84277 165.475 9.19043C165.174 9.53418 165.023 9.99512 165.023 10.5732C165.023 11.1201 165.156 11.5557 165.422 11.8799C165.688 12.2002 166.111 12.3604 166.693 12.3604ZM171.51 9.91699H172.734V11.1943H171.51V9.91699ZM171.51 14.833H172.734V16.1104H171.51V14.833ZM177.486 13.1396V9.33691L174.797 13.1396H177.486ZM177.504 16.1104V14.0596H173.824V13.0283L177.668 7.69629H178.559V13.1396H179.795V14.0596H178.559V16.1104H177.504ZM180.574 16.1104C180.613 15.3877 180.762 14.7588 181.02 14.2236C181.281 13.6885 181.789 13.2021 182.543 12.7646L183.668 12.1143C184.172 11.8213 184.525 11.5713 184.729 11.3643C185.049 11.04 185.209 10.6689 185.209 10.251C185.209 9.7627 185.062 9.37598 184.77 9.09082C184.477 8.80176 184.086 8.65723 183.598 8.65723C182.875 8.65723 182.375 8.93066 182.098 9.47754C181.949 9.77051 181.867 10.1768 181.852 10.6963H180.779C180.791 9.96582 180.926 9.37012 181.184 8.90918C181.641 8.09668 182.447 7.69043 183.604 7.69043C184.564 7.69043 185.266 7.9502 185.707 8.46973C186.152 8.98926 186.375 9.56738 186.375 10.2041C186.375 10.876 186.139 11.4502 185.666 11.9268C185.393 12.2041 184.902 12.54 184.195 12.9346L183.393 13.3799C183.01 13.5908 182.709 13.792 182.49 13.9834C182.1 14.3232 181.854 14.7002 181.752 15.1143H186.334V16.1104H180.574ZM195.551 12.583L194.244 8.78027L192.855 12.583H195.551ZM193.635 7.50293H194.953L198.076 16.1104H196.799L195.926 13.5322H192.521L191.59 16.1104H190.395L193.635 7.50293ZM199.107 7.50293H200.777L203.25 14.7803L205.705 7.50293H207.357V16.1104H206.25V11.0303C206.25 10.8545 206.254 10.5635 206.262 10.1572C206.27 9.75098 206.273 9.31543 206.273 8.85059L203.818 16.1104H202.664L200.191 8.85059V9.11426C200.191 9.3252 200.195 9.64746 200.203 10.0811C200.215 10.5107 200.221 10.8271 200.221 11.0303V16.1104H199.107V7.50293Z" fill="white"/>
<path d="M145.359 43.0704V61.1904H147.439V43.0704H145.359ZM133.539 44.5704V56.8904H142.219V44.5704H140.159V49.1704H135.579V44.5704H133.539ZM135.579 50.8104H140.159V55.2304H135.579V50.8104ZM165.857 43.0904H163.777V52.3104H165.857V43.0904ZM158.457 49.9104H153.917V45.6904H158.457V49.9104ZM160.457 44.0504H151.897V51.5504H160.457V44.0504ZM156.077 59.3704V57.7704H165.857V53.1704H153.997V54.7704H163.817V56.2504H154.037V60.9904H166.397V59.3704H156.077ZM176.495 51.8304H172.235V48.8904H176.495V51.8304ZM178.515 49.7304H182.275V56.4704H184.335V43.0904H182.275V48.0504H178.515V44.2904H176.495V47.2704H172.235V44.2904H170.195V53.5104H178.515V49.7304ZM174.655 59.1304V55.1504H172.575V60.8104H184.755V59.1304H174.655ZM203.294 45.5504H196.954V43.3304H194.894V45.5504H188.514V47.2104H203.294V45.5504ZM191.994 51.7104C191.994 50.5304 193.434 49.8504 195.894 49.8504C198.374 49.8504 199.814 50.5304 199.814 51.7104C199.814 52.9104 198.374 53.5904 195.894 53.5904C193.434 53.5904 191.994 52.9104 191.994 51.7104ZM196.954 57.4904V55.1704C200.054 54.9304 201.914 53.7104 201.914 51.7104C201.914 49.5304 199.594 48.2504 195.894 48.2504C192.214 48.2504 189.894 49.5304 189.894 51.7104C189.894 53.7104 191.794 54.9504 194.894 55.1704V57.4904H187.754V59.1904H204.134V57.4904H196.954ZM223.565 47.9304V50.1504H219.805V47.9304H223.565ZM217.785 51.8304H213.525V48.8904H217.785V51.8304ZM219.805 51.8304H223.565V56.4504H225.625V43.1104H223.565V46.2704H219.805V44.2904H217.785V47.2704H213.525V44.2904H211.485V53.5104H219.805V51.8304ZM215.945 59.1304V55.1504H213.865V60.8104H226.045V59.1304H215.945ZM241.963 47.8704V49.9504H237.583V51.6304H241.963V53.7104H244.023V43.0904H241.963V46.1904H238.243C238.343 45.6304 238.403 45.0304 238.403 44.3904H230.203V46.0504H236.203C235.843 48.8704 233.503 51.0904 229.263 52.2704L230.083 53.9104C233.983 52.7704 236.643 50.7504 237.763 47.8704H241.963ZM238.103 59.4504C235.663 59.4504 234.123 58.7504 234.123 57.4904C234.123 56.2504 235.663 55.5504 238.103 55.5504C240.563 55.5504 242.103 56.2504 242.103 57.4904C242.103 58.7504 240.563 59.4504 238.103 59.4504ZM238.103 53.9304C234.443 53.9304 232.083 55.2904 232.083 57.4904C232.083 59.7104 234.443 61.0704 238.103 61.0704C241.763 61.0704 244.143 59.7104 244.143 57.4904C244.143 55.2904 241.763 53.9304 238.103 53.9304Z" fill="white"/>
<path d="M352.656 56.2674L341.343 44.9537" stroke="white" stroke-linecap="round"/>
<path d="M352.657 44.9537L341.344 56.2674" stroke="white" stroke-linecap="round"/>
<path d="M24.912 126.266V127.338H27.328V129.274H24.912V130.346H27.328V133.386H28.656V122.458H27.328V126.266H24.912ZM24.912 124.202H21.616V122.426H20.304V124.202H16.88V125.258H24.912V124.202ZM18.944 128.778C18.944 127.77 19.76 127.082 20.944 127.082C22.128 127.082 22.944 127.77 22.944 128.778C22.944 129.802 22.128 130.506 20.944 130.506C19.76 130.506 18.944 129.802 18.944 128.778ZM24.192 128.778C24.192 127.146 22.848 126.058 20.944 126.058C19.04 126.058 17.696 127.146 17.696 128.778C17.696 130.426 19.04 131.53 20.944 131.53C22.848 131.53 24.192 130.426 24.192 128.778ZM20.752 135.402V132.458H19.44V136.474H28.992V135.402H20.752ZM35.8068 125.21H38.4148V124.138H31.7588V125.21H34.5428V126.33C34.5428 129.242 33.4708 131.69 31.4228 132.842L32.2228 133.834C33.7108 132.97 34.7188 131.418 35.1988 129.466C35.7108 131.162 36.7028 132.554 38.1108 133.338L38.8788 132.33C36.8468 131.274 35.8068 128.954 35.8068 126.33V125.21ZM42.5428 122.426V128.234H40.6548V122.762H39.4228V136.09H40.6548V129.322H42.5428V136.794H43.8068V122.426H42.5428ZM60.2956 122.442V136.81H61.6076V122.442H60.2956ZM50.6796 123.658V133.338H57.4316V123.658H56.1356V127.45H51.9756V123.658H50.6796ZM51.9756 128.49H56.1356V132.266H51.9756V128.49ZM76.3424 122.458H75.0304V129.834H76.3424V122.458ZM70.7584 128.058H66.6144V124.282H70.7584V128.058ZM72.0384 123.242H65.3344V129.098H72.0384V123.242ZM68.3744 135.594V134.01H76.3424V130.554H67.0464V131.578H75.0464V133.034H67.0944V136.634H76.8384V135.594H68.3744ZM85.1891 129.562H81.3171V126.97H85.1891V129.562ZM86.4851 127.562H89.7971V133.066H91.1251V122.442H89.7971V126.49H86.4851V123.402H85.1891V125.93H81.3171V123.402H80.0211V130.618H86.4851V127.562ZM83.2051 135.402V132.026H81.8931V136.474H91.4611V135.402H83.2051ZM106.308 124.538H101.172V122.666H99.8599V124.538H94.6599V125.61H106.308V124.538ZM97.1239 129.306C97.1239 128.25 98.4199 127.61 100.516 127.61C102.58 127.61 103.86 128.25 103.86 129.306C103.86 130.378 102.58 131.018 100.516 131.018C98.4199 131.018 97.1239 130.378 97.1239 129.306ZM101.172 134.042V132.026C103.668 131.866 105.188 130.906 105.188 129.306C105.188 127.578 103.38 126.586 100.516 126.586C97.6039 126.586 95.7959 127.578 95.7959 129.306C95.7959 130.906 97.3319 131.882 99.8599 132.026V134.042H94.0199V135.114H107.028V134.042H101.172ZM118.787 124.954H110.403V128.026H120.339V127.082H111.699V125.85H120.083V122.858H110.371V123.786H118.787V124.954ZM111.619 134.33H120.131V131.274H110.291V132.218H118.835V133.418H110.323V136.602H120.579V135.658H111.619V134.33ZM108.739 129.114V130.106H121.747V129.114H108.739ZM137.5 122.458V130.154H138.812V122.458H137.5ZM129.564 130.858V136.602H138.812V130.858H137.516V132.618H130.86V130.858H129.564ZM130.86 133.642H137.516V135.546H130.86V133.642ZM131.1 123.13C128.94 123.13 127.372 124.474 127.372 126.426C127.372 128.41 128.94 129.738 131.1 129.738C133.276 129.738 134.86 128.41 134.86 126.426C134.86 124.474 133.276 123.13 131.1 123.13ZM131.1 124.218C132.556 124.218 133.58 125.13 133.58 126.426C133.58 127.738 132.556 128.65 131.1 128.65C129.676 128.65 128.652 127.738 128.652 126.426C128.652 125.13 129.676 124.218 131.1 124.218ZM149.338 129.21C147.674 129.482 146.298 129.546 143.642 129.546V127.37H148.506V123.306H142.314V124.378H147.226V126.362H142.362V130.618H143.386C146.25 130.618 147.706 130.57 149.466 130.266L149.338 129.21ZM143.962 133.114H152.25V136.81H153.578V132.042H143.962V133.114ZM152.25 122.458V124.57H149.45V125.642H152.25V127.562H149.45V128.618H152.25V131.274H153.578V122.458H152.25ZM160.025 132.378C158.905 132.378 158.121 131.466 158.121 130.186C158.121 128.938 158.905 128.026 160.025 128.026C161.129 128.026 161.929 128.938 161.929 130.186C161.929 131.466 161.129 132.378 160.025 132.378ZM160.025 126.922C158.249 126.922 156.953 128.266 156.953 130.186C156.953 132.138 158.249 133.466 160.025 133.466C161.801 133.466 163.097 132.138 163.097 130.186C163.097 128.266 161.801 126.922 160.025 126.922ZM160.665 122.858H159.369V124.89H156.457V125.962H163.577V124.89H160.665V122.858ZM167.369 122.426V128.49H165.529V122.762H164.297V136.09H165.529V129.562H167.369V136.778H168.633V122.426H167.369ZM176.05 129.418C178.274 129.034 180.386 127.834 181.266 126.138C182.13 127.834 184.258 129.034 186.482 129.418L186.994 128.378C184.466 128.01 181.986 126.362 181.986 124.474V124.394H186.482V123.338H176.002V124.394H180.53V124.474C180.53 126.362 178.05 128.01 175.554 128.378L176.05 129.418ZM187.746 130.618H174.786V131.69H180.578V136.794H181.89V131.69H187.762L187.746 130.618ZM193.745 123.802H192.481V126.538C192.481 129.002 191.297 131.578 189.329 132.73L190.145 133.706C191.569 132.826 192.609 131.21 193.121 129.306C193.633 131.05 194.593 132.57 195.953 133.402L196.705 132.378C194.817 131.226 193.745 128.794 193.745 126.49V123.802ZM197.521 127.594H195.153V128.682H197.521V136.09H198.753V122.762H197.521V127.594ZM200.433 122.442V136.794H201.681V122.442H200.433ZM208.703 130.49C209.295 130.634 209.983 130.714 210.687 130.714C211.407 130.714 212.095 130.634 212.703 130.49V133.866H208.703V130.49ZM210.687 124.378C212.991 124.378 214.655 125.434 214.655 127.034C214.655 128.634 212.991 129.69 210.687 129.69C208.383 129.69 206.735 128.634 206.735 127.034C206.735 125.434 208.383 124.378 210.687 124.378ZM214.015 133.866V129.978C215.199 129.354 215.903 128.33 215.903 127.034C215.903 124.794 213.743 123.354 210.687 123.354C207.647 123.354 205.471 124.794 205.471 127.034C205.471 128.33 206.191 129.37 207.391 129.994V133.866H204.191V134.954H217.231V133.866H214.015ZM220.302 135.818C220.878 135.818 221.358 135.37 221.358 134.714C221.358 134.042 220.878 133.578 220.302 133.578C219.726 133.578 219.246 134.042 219.246 134.714C219.246 135.37 219.726 135.818 220.302 135.818Z" fill="#333333"/>
<path d="M21.136 251.786H19.872V254.522C19.872 257.002 18.672 259.562 16.688 260.714L17.52 261.706C18.928 260.842 19.984 259.226 20.496 257.354C21.008 259.066 22 260.538 23.36 261.338L24.144 260.298C22.24 259.242 21.136 256.81 21.136 254.474V251.786ZM27.792 250.442V256.218H25.888V250.762H24.64V264.074H25.888V257.29H27.792V264.794H29.04V250.442H27.792ZM38.7188 261.946V259.242H43.3108V258.186H34.4788V255.866H42.9748V251.498H33.1508V252.57H41.6948V254.81H33.1828V259.242H37.3908V261.946H31.5508V263.018H44.5908V261.946H38.7188ZM52.7655 251.866C54.9735 251.866 56.4135 252.554 56.4135 253.69C56.4135 254.81 54.9735 255.498 52.7655 255.498C50.5735 255.498 49.1175 254.81 49.1175 253.69C49.1175 252.554 50.5735 251.866 52.7655 251.866ZM52.7655 256.57C55.8055 256.57 57.7895 255.466 57.7895 253.69C57.7895 251.914 55.8055 250.81 52.7655 250.81C49.7255 250.81 47.7415 251.914 47.7415 253.69C47.7415 255.466 49.7255 256.57 52.7655 256.57ZM49.2455 260.282H47.9335V264.474H57.8535V263.386H49.2455V260.282ZM46.2695 257.722V258.794H52.2215V261.69H53.5495V258.794H59.2775V257.722H46.2695ZM75.0144 250.442V264.81H76.3264V250.442H75.0144ZM65.3984 251.658V261.338H72.1504V251.658H70.8544V255.45H66.6944V251.658H65.3984ZM66.6944 256.49H70.8544V260.266H66.6944V256.49ZM91.0611 250.458H89.7491V257.834H91.0611V250.458ZM85.4771 256.058H81.3331V252.282H85.4771V256.058ZM86.7571 251.242H80.0531V257.098H86.7571V251.242ZM83.0931 263.594V262.01H91.0611V258.554H81.7651V259.578H89.7651V261.034H81.8131V264.634H91.5571V263.594H83.0931ZM99.9079 257.562H96.0359V254.97H99.9079V257.562ZM101.204 255.562H104.516V261.066H105.844V250.442H104.516V254.49H101.204V251.402H99.9079V253.93H96.0359V251.402H94.7399V258.618H101.204V255.562ZM97.9239 263.402V260.026H96.6119V264.474H106.18V263.402H97.9239ZM121.027 252.538H115.891V250.666H114.579V252.538H109.379V253.61H121.027V252.538ZM111.843 257.306C111.843 256.25 113.139 255.61 115.235 255.61C117.299 255.61 118.579 256.25 118.579 257.306C118.579 258.378 117.299 259.018 115.235 259.018C113.139 259.018 111.843 258.378 111.843 257.306ZM115.891 262.042V260.026C118.387 259.866 119.907 258.906 119.907 257.306C119.907 255.578 118.099 254.586 115.235 254.586C112.323 254.586 110.515 255.578 110.515 257.306C110.515 258.906 112.051 259.882 114.579 260.026V262.042H108.739V263.114H121.747V262.042H115.891ZM133.505 252.954H125.121V256.026H135.057V255.082H126.417V253.85H134.801V250.858H125.089V251.786H133.505V252.954ZM126.337 262.33H134.849V259.274H125.009V260.218H133.553V261.418H125.041V264.602H135.297V263.658H126.337V262.33ZM123.457 257.114V258.106H136.465V257.114H123.457ZM152.218 250.458V258.154H153.53V250.458H152.218ZM144.282 258.858V264.602H153.53V258.858H152.234V260.618H145.578V258.858H144.282ZM145.578 261.642H152.234V263.546H145.578V261.642ZM145.818 251.13C143.658 251.13 142.09 252.474 142.09 254.426C142.09 256.41 143.658 257.738 145.818 257.738C147.994 257.738 149.578 256.41 149.578 254.426C149.578 252.474 147.994 251.13 145.818 251.13ZM145.818 252.218C147.274 252.218 148.298 253.13 148.298 254.426C148.298 255.738 147.274 256.65 145.818 256.65C144.394 256.65 143.37 255.738 143.37 254.426C143.37 253.13 144.394 252.218 145.818 252.218ZM164.057 257.21C162.393 257.482 161.017 257.546 158.361 257.546V255.37H163.225V251.306H157.033V252.378H161.945V254.362H157.081V258.618H158.105C160.969 258.618 162.425 258.57 164.185 258.266L164.057 257.21ZM158.681 261.114H166.969V264.81H168.297V260.042H158.681V261.114ZM166.969 250.458V252.57H164.169V253.642H166.969V255.562H164.169V256.618H166.969V259.274H168.297V250.458H166.969ZM174.744 260.378C173.624 260.378 172.84 259.466 172.84 258.186C172.84 256.938 173.624 256.026 174.744 256.026C175.848 256.026 176.648 256.938 176.648 258.186C176.648 259.466 175.848 260.378 174.744 260.378ZM174.744 254.922C172.968 254.922 171.672 256.266 171.672 258.186C171.672 260.138 172.968 261.466 174.744 261.466C176.52 261.466 177.816 260.138 177.816 258.186C177.816 256.266 176.52 254.922 174.744 254.922ZM175.384 250.858H174.088V252.89H171.176V253.962H178.296V252.89H175.384V250.858ZM182.088 250.426V256.49H180.248V250.762H179.016V264.09H180.248V257.562H182.088V264.778H183.352V250.426H182.088ZM190.769 257.418C192.993 257.034 195.105 255.834 195.985 254.138C196.849 255.834 198.977 257.034 201.201 257.418L201.713 256.378C199.185 256.01 196.705 254.362 196.705 252.474V252.394H201.201V251.338H190.721V252.394H195.249V252.474C195.249 254.362 192.769 256.01 190.273 256.378L190.769 257.418ZM202.465 258.618H189.505V259.69H195.297V264.794H196.609V259.69H202.481L202.465 258.618ZM208.463 251.802H207.199V254.538C207.199 257.002 206.015 259.578 204.047 260.73L204.863 261.706C206.287 260.826 207.327 259.21 207.839 257.306C208.351 259.05 209.311 260.57 210.671 261.402L211.423 260.378C209.535 259.226 208.463 256.794 208.463 254.49V251.802ZM212.239 255.594H209.871V256.682H212.239V264.09H213.471V250.762H212.239V255.594ZM215.151 250.442V264.794H216.399V250.442H215.151ZM223.422 258.49C224.014 258.634 224.702 258.714 225.406 258.714C226.126 258.714 226.814 258.634 227.422 258.49V261.866H223.422V258.49ZM225.406 252.378C227.71 252.378 229.374 253.434 229.374 255.034C229.374 256.634 227.71 257.69 225.406 257.69C223.102 257.69 221.454 256.634 221.454 255.034C221.454 253.434 223.102 252.378 225.406 252.378ZM228.734 261.866V257.978C229.918 257.354 230.622 256.33 230.622 255.034C230.622 252.794 228.462 251.354 225.406 251.354C222.366 251.354 220.19 252.794 220.19 255.034C220.19 256.33 220.91 257.37 222.11 257.994V261.866H218.91V262.954H231.95V261.866H228.734ZM235.021 263.818C235.597 263.818 236.077 263.37 236.077 262.714C236.077 262.042 235.597 261.578 235.021 261.578C234.445 261.578 233.965 262.042 233.965 262.714C233.965 263.37 234.445 263.818 235.021 263.818Z" fill="#333333"/>
<rect x="16" y="183.61" width="251" height="1" fill="#C9C9C9"/>
<rect x="16" y="311.61" width="343" height="1" fill="#C9C9C9"/>
<rect x="16" y="351.61" width="343" height="1" fill="#C9C9C9"/>
<rect x="275" y="152.61" width="84" height="32" rx="5" fill="#FF8A7B"/>
<path d="M311.657 163.754H308.201V162.346H306.889V163.754H303.417V164.746H311.657V163.754ZM305.433 167.402C305.433 166.65 306.249 166.186 307.545 166.186C308.809 166.186 309.641 166.65 309.641 167.402C309.641 168.154 308.809 168.634 307.545 168.634C306.249 168.634 305.433 168.154 305.433 167.402ZM312.089 170.154C310.841 170.346 309.513 170.442 308.201 170.506V169.514C309.849 169.338 310.889 168.57 310.889 167.402C310.889 166.09 309.545 165.274 307.545 165.274C305.513 165.274 304.185 166.09 304.185 167.402C304.185 168.586 305.225 169.354 306.889 169.514V170.554C305.513 170.602 304.201 170.602 303.065 170.602L303.209 171.658C305.721 171.642 309.113 171.626 312.185 171.098L312.089 170.154ZM304.809 173.834H312.937V176.794H314.249V172.794H304.809V173.834ZM316.345 166.794H314.249V162.458H312.937V172.074H314.249V167.882H316.345V166.794ZM329.624 162.458H328.312V172.938H329.624V162.458ZM319.464 166.97C319.464 165.578 320.52 164.586 321.912 164.586C323.336 164.586 324.392 165.578 324.392 166.97C324.392 168.394 323.336 169.386 321.912 169.386C320.52 169.386 319.464 168.394 319.464 166.97ZM325.672 166.97C325.672 164.906 324.056 163.45 321.912 163.45C319.784 163.45 318.184 164.906 318.184 166.97C318.184 169.05 319.784 170.522 321.912 170.522C324.056 170.522 325.672 169.05 325.672 166.97ZM321.704 175.402V171.866H320.392V176.474H330.056V175.402H321.704Z" fill="white"/>
<path d="M24.46 372.734V383.51H25.444V372.734H24.46ZM17.248 373.646V380.906H22.312V373.646H21.34V376.49H18.22V373.646H17.248ZM18.22 377.27H21.34V380.102H18.22V377.27ZM36.4951 372.746H35.5111V378.278H36.4951V372.746ZM32.3071 376.946H29.1991V374.114H32.3071V376.946ZM33.2671 373.334H28.2391V377.726H33.2671V373.334ZM30.5191 382.598V381.41H36.4951V378.818H29.5231V379.586H35.5231V380.678H29.5591V383.378H36.8671V382.598H30.5191ZM43.1301 378.074H40.2261V376.13H43.1301V378.074ZM44.1021 376.574H46.5861V380.702H47.5821V372.734H46.5861V375.77H44.1021V373.454H43.1301V375.35H40.2261V373.454H39.2541V378.866H44.1021V376.574ZM41.6421 382.454V379.922H40.6581V383.258H47.8341V382.454H41.6421ZM58.9692 374.306H55.1172V372.902H54.1332V374.306H50.2332V375.11H58.9692V374.306ZM52.0812 377.882C52.0812 377.09 53.0532 376.61 54.6252 376.61C56.1732 376.61 57.1332 377.09 57.1332 377.882C57.1332 378.686 56.1732 379.166 54.6252 379.166C53.0532 379.166 52.0812 378.686 52.0812 377.882ZM55.1172 381.434V379.922C56.9892 379.802 58.1292 379.082 58.1292 377.882C58.1292 376.586 56.7732 375.842 54.6252 375.842C52.4412 375.842 51.0852 376.586 51.0852 377.882C51.0852 379.082 52.2372 379.814 54.1332 379.922V381.434H49.7532V382.238H59.5092V381.434H55.1172ZM69.4203 375.974H63.0843V373.13H62.1003V376.778H69.4203V375.974ZM63.0123 380.09H62.0283V383.234H69.4803V382.43H63.0123V380.09ZM60.7803 378.218V379.01H70.5363V378.218H60.7803ZM77.3949 377.966C78.4629 377.966 78.9909 378.722 78.9909 379.91C78.9909 381.11 78.3309 381.914 77.4909 381.914C76.3869 381.914 75.7269 380.918 75.5949 379.094C76.1349 378.29 76.8429 377.966 77.3949 377.966ZM77.4909 382.766C78.8589 382.766 80.0109 381.614 80.0109 379.91C80.0109 378.074 79.0629 377.15 77.5749 377.15C76.8789 377.15 76.1109 377.558 75.5709 378.218C75.6189 375.482 76.6389 374.558 77.8389 374.558C78.3789 374.558 78.9069 374.81 79.2549 375.23L79.8549 374.546C79.3749 374.03 78.7149 373.646 77.8029 373.646C76.0989 373.646 74.5509 374.966 74.5509 378.41C74.5509 381.314 75.7989 382.766 77.4909 382.766ZM84.7952 374.654H87.1832V373.838H81.3632V374.654H83.8232V376.022C83.8232 377.846 82.5272 379.886 80.9912 380.654L81.5672 381.434C82.7792 380.81 83.8232 379.442 84.3152 377.87C84.8072 379.31 85.8152 380.57 87.0152 381.17L87.5792 380.378C86.0192 379.646 84.7952 377.738 84.7952 376.022V374.654ZM91.2272 377.078H89.4512V372.746H88.4672V383.498H89.4512V377.906H91.2272V377.078ZM93.8182 377.57H97.7902V373.73H92.7982V374.534H96.7942V376.778H92.8342V380.906H93.7222C95.5702 380.906 97.2022 380.834 99.1462 380.51L99.0502 379.706C97.1662 380.006 95.5822 380.09 93.8182 380.09V377.57ZM100.058 372.722V383.51H101.042V372.722H100.058ZM113.757 372.734V383.522H114.741V372.734H113.757ZM109.065 373.562C107.469 373.562 106.329 375.026 106.329 377.318C106.329 379.61 107.469 381.074 109.065 381.074C110.661 381.074 111.801 379.61 111.801 377.318C111.801 375.026 110.661 373.562 109.065 373.562ZM109.065 374.45C110.109 374.45 110.853 375.578 110.853 377.318C110.853 379.07 110.109 380.198 109.065 380.198C108.009 380.198 107.265 379.07 107.265 377.318C107.265 375.578 108.009 374.45 109.065 374.45ZM123.188 377.798C121.64 377.27 120.584 375.926 120.584 374.474V373.286H119.6V374.39C119.6 376.034 118.556 377.498 116.924 378.086L117.44 378.866C118.7 378.386 119.66 377.402 120.104 376.142C120.584 377.246 121.508 378.134 122.672 378.566L123.188 377.798ZM121.904 382.718C120.308 382.718 119.336 382.274 119.336 381.53C119.336 380.774 120.308 380.33 121.904 380.33C123.488 380.33 124.46 380.774 124.46 381.53C124.46 382.274 123.488 382.718 121.904 382.718ZM121.904 379.562C119.708 379.562 118.352 380.27 118.352 381.53C118.352 382.778 119.708 383.486 121.904 383.486C124.088 383.486 125.444 382.778 125.444 381.53C125.444 380.27 124.088 379.562 121.904 379.562ZM125.324 375.518V372.746H124.34V379.262H125.324V376.334H126.92V375.518H125.324ZM131.799 375.926C131.799 374.93 132.591 374.21 133.635 374.21C134.691 374.21 135.459 374.93 135.459 375.926C135.459 376.934 134.691 377.654 133.635 377.654C132.591 377.654 131.799 376.934 131.799 375.926ZM138.567 375.086V376.766H136.251C136.347 376.502 136.395 376.226 136.395 375.926C136.395 375.614 136.347 375.338 136.263 375.086H138.567ZM138.567 377.57V379.106H139.563V372.734H138.567V374.282H135.807C135.315 373.73 134.547 373.382 133.635 373.382C132.039 373.382 130.863 374.426 130.863 375.926C130.863 377.438 132.039 378.494 133.635 378.494C134.547 378.494 135.315 378.146 135.807 377.57H138.567ZM135.999 382.706C134.379 382.706 133.395 382.226 133.395 381.422C133.395 380.606 134.379 380.126 135.999 380.126C137.643 380.126 138.627 380.606 138.627 381.422C138.627 382.226 137.643 382.706 135.999 382.706ZM135.999 379.358C133.791 379.358 132.423 380.114 132.423 381.422C132.423 382.73 133.791 383.486 135.999 383.486C138.219 383.486 139.599 382.73 139.599 381.422C139.599 380.114 138.219 379.358 135.999 379.358ZM144.614 380.198C143.582 380.198 142.862 379.07 142.862 377.318C142.862 375.578 143.582 374.45 144.614 374.45C145.634 374.45 146.354 375.578 146.354 377.318C146.354 379.07 145.634 380.198 144.614 380.198ZM149.618 372.734V376.838H147.278C147.122 374.822 146.066 373.562 144.614 373.562C143.042 373.562 141.926 375.026 141.926 377.318C141.926 379.61 143.042 381.074 144.614 381.074C146.114 381.074 147.182 379.754 147.278 377.642H149.618V383.522H150.602V372.734H149.618ZM153.037 384.89C154.117 384.434 154.789 383.534 154.789 382.382C154.789 381.578 154.441 381.086 153.865 381.086C153.421 381.086 153.037 381.386 153.037 381.854C153.037 382.358 153.421 382.622 153.841 382.622C153.889 382.622 153.925 382.622 153.973 382.61C153.973 383.318 153.529 383.906 152.773 384.242L153.037 384.89ZM167.988 376.082C166.08 375.842 164.172 374.678 164.172 373.358V372.866H163.164V373.358C163.164 374.702 161.268 375.842 159.348 376.082L159.708 376.85C161.388 376.61 162.996 375.782 163.668 374.594C164.352 375.77 165.972 376.61 167.628 376.85L167.988 376.082ZM164.16 380.138H163.152V380.474C163.152 381.626 161.46 382.502 159.516 382.706L159.84 383.462C161.52 383.27 163.008 382.61 163.656 381.602C164.292 382.622 165.78 383.258 167.472 383.462L167.796 382.706C165.828 382.514 164.16 381.65 164.16 380.474V380.138ZM158.808 377.642V378.434H163.164V379.646H164.136V378.434H168.564V377.642H158.808ZM173.459 374.654H175.847V373.838H170.027V374.654H172.487V376.022C172.487 377.846 171.191 379.886 169.655 380.654L170.231 381.434C171.443 380.81 172.487 379.442 172.979 377.87C173.471 379.31 174.479 380.57 175.679 381.17L176.243 380.378C174.683 379.646 173.459 377.738 173.459 376.022V374.654ZM179.891 377.078H178.115V372.746H177.131V383.498H178.115V377.906H179.891V377.078ZM188.41 374.618H182.122V376.922H189.574V376.214H183.094V375.29H189.382V373.046H182.098V373.742H188.41V374.618ZM183.034 381.65H189.418V379.358H182.038V380.066H188.446V380.966H182.062V383.354H189.754V382.646H183.034V381.65ZM180.874 377.738V378.482H190.63V377.738H180.874ZM195.485 379.082C197.105 378.734 198.797 377.666 199.481 376.178C200.165 377.654 201.869 378.71 203.513 379.034L203.909 378.242C202.037 377.942 199.985 376.466 199.985 374.75V374.522H203.549V373.718H195.401V374.522H198.965V374.75C198.965 376.466 196.925 377.966 195.065 378.278L195.485 379.082ZM199.973 381.302V378.698H198.989V381.302H194.597V382.118H204.365V381.302H199.973ZM212.02 373.838H209.332V372.626H208.348V373.838H205.672V374.63H212.02V373.838ZM207.208 377.018C207.208 376.322 207.856 375.878 208.84 375.878C209.824 375.878 210.484 376.322 210.484 377.018C210.484 377.726 209.824 378.158 208.84 378.158C207.856 378.158 207.208 377.726 207.208 377.018ZM211.42 377.018C211.42 375.878 210.376 375.146 208.84 375.146C207.304 375.146 206.272 375.878 206.272 377.018C206.272 378.17 207.304 378.902 208.84 378.902C210.376 378.902 211.42 378.17 211.42 377.018ZM213.016 382.562H208.192V381.374H213.016V382.562ZM213.016 380.606H208.192V379.466H207.22V383.354H213.988V379.466H213.016V380.606ZM215.584 375.47H213.988V372.734H213.004V378.986H213.988V376.298H215.584V375.47ZM219.831 380.282C218.859 380.282 218.151 379.586 218.151 378.626C218.151 377.654 218.859 376.958 219.831 376.958C220.815 376.958 221.523 377.654 221.523 378.626C221.523 379.586 220.815 380.282 219.831 380.282ZM219.831 376.142C218.319 376.142 217.227 377.174 217.227 378.626C217.227 380.09 218.319 381.098 219.831 381.098C221.367 381.098 222.459 380.09 222.459 378.626C222.459 377.174 221.367 376.142 219.831 376.142ZM220.311 372.866H219.327V374.462H216.615V375.254H222.963V374.462H220.311V372.866ZM226.731 377.162H224.967V372.746H223.983V383.498H224.967V377.99H226.731V377.162ZM233.15 378.542C233.222 378.17 233.27 377.762 233.27 377.318C233.27 376.826 233.21 376.37 233.114 375.95H235.598V378.542H233.15ZM230.594 380.198C229.562 380.198 228.842 379.07 228.842 377.318C228.842 375.578 229.562 374.45 230.594 374.45C231.614 374.45 232.346 375.578 232.346 377.318C232.346 379.07 231.614 380.198 230.594 380.198ZM235.598 372.734V375.146H232.838C232.382 374.138 231.59 373.562 230.594 373.562C229.022 373.562 227.906 375.026 227.906 377.318C227.906 379.61 229.022 381.074 230.594 381.074C231.626 381.074 232.466 380.438 232.91 379.346H235.598V383.522H236.582V372.734H235.598ZM249.309 378.302H250.305V372.746H249.309V374.69H246.969V375.494H249.309V378.302ZM247.725 377.306C246.177 376.79 245.085 375.482 245.085 374.078V373.082H244.113V374.078C244.113 375.638 243.045 376.994 241.425 377.546L241.941 378.326C243.201 377.858 244.173 376.922 244.629 375.71C245.097 376.802 246.033 377.654 247.221 378.074L247.725 377.306ZM244.365 382.574V381.422H250.305V378.842H243.369V379.622H249.333V380.678H243.393V383.354H250.713V382.574H244.365ZM258.224 375.53V376.334H260.348V379.154H261.344V372.746H260.348V375.53H258.224ZM258.824 377.978C257.264 377.426 256.208 376.07 256.208 374.69V374.318H258.572V373.526H252.824V374.318H255.224V374.69C255.224 376.238 254.12 377.69 252.512 378.278L253.028 379.058C254.288 378.578 255.284 377.57 255.74 376.322C256.208 377.426 257.132 378.314 258.332 378.746L258.824 377.978ZM257.792 382.73C256.172 382.73 255.188 382.274 255.188 381.494C255.188 380.714 256.172 380.246 257.792 380.246C259.412 380.246 260.396 380.714 260.396 381.494C260.396 382.274 259.412 382.73 257.792 382.73ZM257.792 379.49C255.584 379.49 254.204 380.222 254.204 381.494C254.204 382.766 255.584 383.498 257.792 383.498C260 383.498 261.38 382.766 261.38 381.494C261.38 380.222 260 379.49 257.792 379.49ZM268.863 380.186C268.023 380.186 267.435 379.502 267.435 378.542C267.435 377.606 268.023 376.922 268.863 376.922C269.691 376.922 270.291 377.606 270.291 378.542C270.291 379.502 269.691 380.186 268.863 380.186ZM268.863 376.094C267.531 376.094 266.559 377.102 266.559 378.542C266.559 380.006 267.531 381.002 268.863 381.002C270.195 381.002 271.167 380.006 271.167 378.542C271.167 377.102 270.195 376.094 268.863 376.094ZM269.343 373.046H268.371V374.57H266.187V375.374H271.527V374.57H269.343V373.046ZM274.371 372.722V377.27H272.991V372.974H272.067V382.97H272.991V378.074H274.371V383.486H275.319V372.722H274.371ZM280.881 377.966C282.549 377.678 284.133 376.778 284.793 375.506C285.441 376.778 287.037 377.678 288.705 377.966L289.089 377.186C287.193 376.91 285.333 375.674 285.333 374.258V374.198H288.705V373.406H280.845V374.198H284.241V374.258C284.241 375.674 282.381 376.91 280.509 377.186L280.881 377.966ZM289.653 378.866H279.933V379.67H284.277V383.498H285.261V379.67H289.665L289.653 378.866ZM294.152 373.754H293.204V375.806C293.204 377.654 292.316 379.586 290.84 380.45L291.452 381.182C292.52 380.522 293.3 379.31 293.684 377.882C294.068 379.19 294.788 380.33 295.808 380.954L296.372 380.186C294.956 379.322 294.152 377.498 294.152 375.77V373.754ZM296.984 376.598H295.208V377.414H296.984V382.97H297.908V372.974H296.984V376.598ZM299.168 372.734V383.498H300.104V372.734H299.168ZM305.371 378.77C305.815 378.878 306.331 378.938 306.859 378.938C307.399 378.938 307.915 378.878 308.371 378.77V381.302H305.371V378.77ZM306.859 374.186C308.587 374.186 309.835 374.978 309.835 376.178C309.835 377.378 308.587 378.17 306.859 378.17C305.131 378.17 303.895 377.378 303.895 376.178C303.895 374.978 305.131 374.186 306.859 374.186ZM309.355 381.302V378.386C310.243 377.918 310.771 377.15 310.771 376.178C310.771 374.498 309.151 373.418 306.859 373.418C304.579 373.418 302.947 374.498 302.947 376.178C302.947 377.15 303.487 377.93 304.387 378.398V381.302H301.987V382.118H311.767V381.302H309.355ZM314.07 382.766C314.502 382.766 314.862 382.43 314.862 381.938C314.862 381.434 314.502 381.086 314.07 381.086C313.638 381.086 313.278 381.434 313.278 381.938C313.278 382.43 313.638 382.766 314.07 382.766Z" fill="#C9C9C9"/>
<path d="M17.8 401.142C17.8 400.086 18.592 399.342 19.648 399.342C20.704 399.342 21.496 400.086 21.496 401.142C21.496 402.198 20.704 402.942 19.648 402.942C18.592 402.942 17.8 402.198 17.8 401.142ZM22.456 401.142C22.456 399.582 21.256 398.49 19.648 398.49C18.04 398.49 16.84 399.582 16.84 401.142C16.84 402.702 18.04 403.794 19.648 403.794C21.256 403.794 22.456 402.702 22.456 401.142ZM19.276 404.85H18.292V408.258H25.468V407.454H19.276V404.85ZM24.988 401.01V397.734H24.004V405.654H24.988V401.826H26.572V401.01H24.988ZM33.3871 400.71V401.514H35.5471V405.63H36.5431V397.746H35.5471V400.71H33.3871ZM34.0231 403.242C32.4631 402.69 31.4071 401.346 31.4071 399.942V399.414H33.7711V398.61H28.0231V399.414H30.4231V399.954C30.4231 401.478 29.3071 402.906 27.7111 403.482L28.2271 404.25C29.4871 403.794 30.4711 402.798 30.9391 401.574C31.4071 402.678 32.3311 403.578 33.5311 404.01L34.0231 403.242ZM30.6511 407.454V404.934H29.6551V408.258H36.8431V407.454H30.6511ZM45.0981 398.946H42.4101V397.638H41.4261V398.946H38.7501V399.738H45.0981V398.946ZM40.2861 402.174C40.2861 401.478 40.9341 401.022 41.9181 401.022C42.9021 401.022 43.5621 401.478 43.5621 402.174C43.5621 402.882 42.9021 403.338 41.9181 403.338C40.9341 403.338 40.2861 402.882 40.2861 402.174ZM44.4981 402.174C44.4981 401.022 43.4541 400.278 41.9181 400.278C40.3821 400.278 39.3501 401.022 39.3501 402.174C39.3501 403.338 40.3821 404.082 41.9181 404.082C43.4541 404.082 44.4981 403.338 44.4981 402.174ZM43.6941 407.73C42.1221 407.73 41.1621 407.322 41.1621 406.626C41.1621 405.93 42.1221 405.522 43.6941 405.522C45.2661 405.522 46.2261 405.93 46.2261 406.626C46.2261 407.322 45.2661 407.73 43.6941 407.73ZM43.6941 404.766C41.5221 404.766 40.1901 405.438 40.1901 406.626C40.1901 407.802 41.5221 408.486 43.6941 408.486C45.8541 408.486 47.1981 407.802 47.1981 406.626C47.1981 405.438 45.8541 404.766 43.6941 404.766ZM47.0661 400.722V397.734H46.0821V404.658H47.0661V401.538H48.6501V400.722H47.0661ZM58.4848 400.734H56.8888C56.9848 400.194 57.0328 399.654 57.0328 399.102H52.9048V399.906H56.0608C55.8928 402.162 54.7408 404.094 52.4248 405.474L53.0008 406.17C55.0408 404.958 56.2048 403.338 56.7088 401.526H58.4848V403.422H56.5408V404.226H58.4848V407.946H59.4208V398.022H58.4848V400.734ZM60.6448 397.734V408.486H61.5808V397.734H60.6448ZM69.2238 400.53V401.334H71.3478V404.154H72.3438V397.746H71.3478V400.53H69.2238ZM69.8238 402.978C68.2638 402.426 67.2078 401.07 67.2078 399.69V399.318H69.5718V398.526H63.8238V399.318H66.2238V399.69C66.2238 401.238 65.1198 402.69 63.5118 403.278L64.0278 404.058C65.2878 403.578 66.2838 402.57 66.7398 401.322C67.2078 402.426 68.1318 403.314 69.3318 403.746L69.8238 402.978ZM68.7918 407.73C67.1718 407.73 66.1878 407.274 66.1878 406.494C66.1878 405.714 67.1718 405.246 68.7918 405.246C70.4118 405.246 71.3958 405.714 71.3958 406.494C71.3958 407.274 70.4118 407.73 68.7918 407.73ZM68.7918 404.49C66.5838 404.49 65.2038 405.222 65.2038 406.494C65.2038 407.766 66.5838 408.498 68.7918 408.498C70.9998 408.498 72.3798 407.766 72.3798 406.494C72.3798 405.222 70.9998 404.49 68.7918 404.49ZM80.8105 398.67H79.8385V400.602C79.8385 402.558 78.6145 404.622 77.0665 405.414L77.6545 406.206C78.8665 405.558 79.8625 404.214 80.3305 402.642C80.8225 404.118 81.7945 405.378 82.9345 405.99L83.5465 405.21C82.0345 404.454 80.8105 402.498 80.8105 400.602V398.67ZM87.2545 402.102H85.4785V397.746H84.4945V408.498H85.4785V402.918H87.2545V402.102ZM93.0976 407.73C91.4056 407.73 90.4096 407.31 90.4096 406.578C90.4096 405.846 91.4056 405.426 93.0976 405.426C94.7776 405.426 95.7856 405.846 95.7856 406.578C95.7856 407.31 94.7776 407.73 93.0976 407.73ZM93.0976 404.658C90.7936 404.658 89.4136 405.342 89.4136 406.578C89.4136 407.814 90.7936 408.486 93.0976 408.486C95.4136 408.486 96.7816 407.814 96.7816 406.578C96.7816 405.342 95.4136 404.658 93.0976 404.658ZM91.6096 401.802C92.0536 401.874 92.5576 401.922 93.0976 401.922C93.6496 401.922 94.1536 401.874 94.5976 401.802V403.062H91.6096V401.802ZM90.3256 399.93C90.3256 399.15 91.3816 398.694 93.0976 398.694C94.8136 398.694 95.8696 399.15 95.8696 399.93C95.8696 400.698 94.8136 401.166 93.0976 401.166C91.3816 401.166 90.3256 400.698 90.3256 399.93ZM95.5696 403.062V401.538C96.3976 401.202 96.8776 400.65 96.8776 399.93C96.8776 398.67 95.4376 397.926 93.0976 397.926C90.7696 397.926 89.3176 398.67 89.3176 399.93C89.3176 400.662 89.7856 401.202 90.6376 401.55V403.062H88.2256V403.854H97.9696V403.062H95.5696ZM104.137 398.658C105.901 398.658 106.909 399.066 106.909 399.786C106.909 400.506 105.901 400.914 104.137 400.914C102.373 400.914 101.365 400.506 101.365 399.786C101.365 399.066 102.373 398.658 104.137 398.658ZM104.137 401.646C106.501 401.646 107.917 400.998 107.917 399.786C107.917 398.574 106.501 397.914 104.137 397.914C101.773 397.914 100.357 398.574 100.357 399.786C100.357 400.998 101.773 401.646 104.137 401.646ZM101.437 406.518H107.761V404.094H100.441V404.838H106.789V405.798H100.477V408.378H108.085V407.61H101.437V406.518ZM99.2646 402.378V403.17H109.009V402.378H99.2646ZM116.527 399.054C117.571 399.054 118.315 399.618 118.315 400.458C118.315 401.298 117.571 401.862 116.527 401.862C115.471 401.862 114.727 401.298 114.727 400.458C114.727 399.618 115.471 399.054 116.527 399.054ZM116.527 402.666C118.123 402.666 119.263 401.766 119.263 400.458C119.263 399.138 118.123 398.238 116.527 398.238C114.919 398.238 113.779 399.138 113.779 400.458C113.779 401.766 114.919 402.666 116.527 402.666ZM120.067 403.194C117.703 403.554 114.979 403.578 112.975 403.578L113.107 404.406C113.995 404.406 115.015 404.394 116.083 404.346V408.162H117.067V404.286C118.087 404.226 119.131 404.106 120.151 403.926L120.067 403.194ZM120.847 397.746V408.51H121.831V397.746H120.847ZM126.702 405.186C125.862 405.186 125.274 404.502 125.274 403.542C125.274 402.606 125.862 401.922 126.702 401.922C127.53 401.922 128.13 402.606 128.13 403.542C128.13 404.502 127.53 405.186 126.702 405.186ZM126.702 401.094C125.37 401.094 124.398 402.102 124.398 403.542C124.398 405.006 125.37 406.002 126.702 406.002C128.034 406.002 129.006 405.006 129.006 403.542C129.006 402.102 128.034 401.094 126.702 401.094ZM127.182 398.046H126.21V399.57H124.026V400.374H129.366V399.57H127.182V398.046ZM132.21 397.722V402.27H130.83V397.974H129.906V407.97H130.83V403.074H132.21V408.486H133.158V397.722H132.21ZM145.585 397.734V408.51H146.569V397.734H145.585ZM138.373 398.646V405.906H143.437V398.646H142.465V401.49H139.345V398.646H138.373ZM139.345 402.27H142.465V405.102H139.345V402.27ZM157.62 397.746H156.636V403.278H157.62V397.746ZM153.432 401.946H150.324V399.114H153.432V401.946ZM154.392 398.334H149.364V402.726H154.392V398.334ZM151.644 407.598V406.41H157.62V403.818H150.648V404.586H156.648V405.678H150.684V408.378H157.992V407.598H151.644ZM164.255 403.074H161.351V401.13H164.255V403.074ZM165.227 401.574H167.711V405.702H168.707V397.734H167.711V400.77H165.227V398.454H164.255V400.35H161.351V398.454H160.379V403.866H165.227V401.574ZM162.767 407.454V404.922H161.783V408.258H168.959V407.454H162.767ZM180.094 399.306H176.242V397.902H175.258V399.306H171.358V400.11H180.094V399.306ZM173.206 402.882C173.206 402.09 174.178 401.61 175.75 401.61C177.298 401.61 178.258 402.09 178.258 402.882C178.258 403.686 177.298 404.166 175.75 404.166C174.178 404.166 173.206 403.686 173.206 402.882ZM176.242 406.434V404.922C178.114 404.802 179.254 404.082 179.254 402.882C179.254 401.586 177.898 400.842 175.75 400.842C173.566 400.842 172.21 401.586 172.21 402.882C172.21 404.082 173.362 404.814 175.258 404.922V406.434H170.878V407.238H180.634V406.434H176.242ZM190.545 400.974H184.209V398.13H183.225V401.778H190.545V400.974ZM184.137 405.09H183.153V408.234H190.605V407.43H184.137V405.09ZM181.905 403.218V404.01H191.661V403.218H181.905ZM196.6 402.966C198.268 402.678 199.852 401.778 200.512 400.506C201.16 401.778 202.756 402.678 204.424 402.966L204.808 402.186C202.912 401.91 201.052 400.674 201.052 399.258V399.198H204.424V398.406H196.564V399.198H199.96V399.258C199.96 400.674 198.1 401.91 196.228 402.186L196.6 402.966ZM205.372 403.866H195.652V404.67H199.996V408.498H200.98V404.67H205.384L205.372 403.866ZM207.315 398.898V399.69H211.359C211.155 402.246 209.715 404.31 206.823 405.69L207.351 406.494C210.927 404.742 212.355 402.006 212.355 398.898H207.315ZM214.527 397.734V408.498H215.511V397.734H214.527ZM224.066 402.99C222.506 402.438 221.45 401.082 221.45 399.702V399.27H223.814V398.466H218.066V399.27H220.466V399.702C220.466 401.226 219.35 402.666 217.754 403.23L218.27 404.01C219.53 403.542 220.514 402.558 220.97 401.322C221.45 402.438 222.374 403.326 223.574 403.758L224.066 402.99ZM219.386 405.558H225.59V408.51H226.586V404.766H219.386V405.558ZM225.59 397.734V400.542H223.49V401.346H225.59V404.178H226.586V397.734H225.59ZM233.617 398.406C231.385 398.406 229.705 399.594 229.705 401.382C229.705 403.182 231.385 404.358 233.617 404.358C235.849 404.358 237.529 403.182 237.529 401.382C237.529 399.594 235.849 398.406 233.617 398.406ZM233.617 399.21C235.321 399.21 236.593 400.086 236.593 401.382C236.593 402.69 235.321 403.554 233.617 403.554C231.925 403.554 230.641 402.69 230.641 401.382C230.641 400.086 231.925 399.21 233.617 399.21ZM228.745 406.254V407.07H238.525V406.254H228.745ZM245.16 406.362V404.334H248.604V403.542H241.98V401.802H248.352V398.526H240.984V399.33H247.392V401.01H241.008V404.334H244.164V406.362H239.784V407.166H249.564V406.362H245.16ZM261.391 400.506V402.03H258.907V400.506H261.391ZM257.935 403.074H255.031V401.13H257.935V403.074ZM258.907 402.834H261.391V405.702H262.387V397.746H261.391V399.714H258.907V398.454H257.935V400.35H255.031V398.454H254.059V403.866H258.907V402.834ZM256.447 407.454V404.922H255.463V408.258H262.639V407.454H256.447ZM272.43 400.518V401.958H269.61V402.762H272.43V404.178H273.426V397.746H272.43V399.714H269.994C270.066 399.342 270.114 398.946 270.114 398.55H265.254V399.342H269.046C268.866 401.202 267.27 402.63 264.702 403.398L265.098 404.178C267.414 403.506 269.046 402.246 269.742 400.518H272.43ZM269.91 407.682C268.326 407.682 267.318 407.19 267.318 406.374C267.318 405.57 268.326 405.078 269.91 405.078C271.494 405.078 272.502 405.57 272.502 406.374C272.502 407.19 271.494 407.682 269.91 407.682ZM269.91 404.298C267.738 404.298 266.346 405.078 266.346 406.374C266.346 407.67 267.738 408.45 269.91 408.45C272.082 408.45 273.474 407.67 273.474 406.374C273.474 405.078 272.082 404.298 269.91 404.298ZM280.945 405.186C280.105 405.186 279.517 404.502 279.517 403.542C279.517 402.606 280.105 401.922 280.945 401.922C281.773 401.922 282.373 402.606 282.373 403.542C282.373 404.502 281.773 405.186 280.945 405.186ZM280.945 401.094C279.613 401.094 278.641 402.102 278.641 403.542C278.641 405.006 279.613 406.002 280.945 406.002C282.277 406.002 283.249 405.006 283.249 403.542C283.249 402.102 282.277 401.094 280.945 401.094ZM281.425 398.046H280.453V399.57H278.269V400.374H283.609V399.57H281.425V398.046ZM286.453 397.722V402.27H285.073V397.974H284.149V407.97H285.073V403.074H286.453V408.486H287.401V397.722H286.453ZM292.963 402.966C294.631 402.678 296.215 401.778 296.875 400.506C297.523 401.778 299.119 402.678 300.787 402.966L301.171 402.186C299.275 401.91 297.415 400.674 297.415 399.258V399.198H300.787V398.406H292.927V399.198H296.323V399.258C296.323 400.674 294.463 401.91 292.591 402.186L292.963 402.966ZM301.735 403.866H292.015V404.67H296.359V408.498H297.343V404.67H301.747L301.735 403.866ZM306.234 398.754H305.286V400.806C305.286 402.654 304.398 404.586 302.922 405.45L303.534 406.182C304.602 405.522 305.382 404.31 305.766 402.882C306.15 404.19 306.87 405.33 307.89 405.954L308.454 405.186C307.038 404.322 306.234 402.498 306.234 400.77V398.754ZM309.066 401.598H307.29V402.414H309.066V407.97H309.99V397.974H309.066V401.598ZM311.25 397.734V408.498H312.186V397.734H311.25ZM317.453 403.77C317.897 403.878 318.413 403.938 318.941 403.938C319.481 403.938 319.997 403.878 320.453 403.77V406.302H317.453V403.77ZM318.941 399.186C320.669 399.186 321.917 399.978 321.917 401.178C321.917 402.378 320.669 403.17 318.941 403.17C317.213 403.17 315.977 402.378 315.977 401.178C315.977 399.978 317.213 399.186 318.941 399.186ZM321.437 406.302V403.386C322.325 402.918 322.853 402.15 322.853 401.178C322.853 399.498 321.233 398.418 318.941 398.418C316.661 398.418 315.029 399.498 315.029 401.178C315.029 402.15 315.569 402.93 316.469 403.398V406.302H314.069V407.118H323.849V406.302H321.437ZM326.152 407.766C326.584 407.766 326.944 407.43 326.944 406.938C326.944 406.434 326.584 406.086 326.152 406.086C325.72 406.086 325.36 406.434 325.36 406.938C325.36 407.43 325.72 407.766 326.152 407.766Z" fill="#C9C9C9"/>
<rect x="16" y="591.61" width="343" height="60" rx="15" fill="#FF7556"/>
<path d="M161.745 625.668H157.713V621.69H161.745V625.668ZM161.745 620.214H157.713V616.074H155.859V627.162H163.581V616.074H161.745V620.214ZM170.421 620.988H167.883V614.742H166.029V631.014H167.883V622.536H170.421V620.988ZM186.601 621.942V620.448H184.351C184.837 618.468 184.837 616.974 184.837 616.02V615.282H179.599V616.776H183.037C183.001 617.676 182.911 618.882 182.497 620.448H177.961C178.501 618.54 178.501 617.028 178.501 616.056V615.282H173.227V616.776H176.701C176.665 617.694 176.557 618.864 176.089 620.448H171.841V621.942H178.267V623.652H173.569V625.11H182.875V626.532H173.605V630.852H185.197V629.394H175.459V627.9H184.729V623.652H180.121V621.942H186.601ZM190.704 622.392H194.988V616.416H188.886V617.928H193.206V620.898H188.922V627.234H190.02C192.018 627.234 193.818 627.18 195.996 626.802L195.834 625.29C193.98 625.596 192.396 625.686 190.704 625.704V622.392ZM200.514 614.742V621.024H198.588V615.066H196.842V630.186H198.588V622.536H200.514V630.978H202.278V614.742H200.514ZM210.269 623.958C210.899 624.102 211.601 624.174 212.321 624.174C213.041 624.174 213.743 624.102 214.373 623.94V627.486H210.269V623.958ZM212.321 617.136C214.769 617.136 216.479 618.216 216.479 619.926C216.479 621.654 214.769 622.734 212.321 622.734C209.855 622.734 208.145 621.654 208.145 619.926C208.145 618.216 209.855 617.136 212.321 617.136ZM216.227 627.486V623.256C217.523 622.518 218.297 621.366 218.297 619.926C218.297 617.334 215.777 615.678 212.321 615.678C208.847 615.678 206.345 617.334 206.345 619.926C206.345 621.366 207.119 622.536 208.415 623.256V627.486H204.977V628.998H219.701V627.486H216.227Z" fill="white"/>
<circle cx="35" cy="168.61" r="3" fill="#333333"/>
<circle cx="91" cy="168.61" r="3" fill="#333333"/>
<circle cx="63" cy="168.61" r="3" fill="#333333"/>
<circle cx="119" cy="168.61" r="3" fill="#333333"/>
<circle cx="161" cy="168.61" r="3" fill="#333333"/>
<circle cx="49" cy="168.61" r="3" fill="#333333"/>
<circle cx="105" cy="168.61" r="3" fill="#333333"/>
<circle cx="147" cy="168.61" r="3" fill="#333333"/>
<circle cx="77" cy="168.61" r="3" fill="#333333"/>
<circle cx="133" cy="168.61" r="3" fill="#333333"/>
<circle cx="175" cy="168.61" r="3" fill="#333333"/>
<path d="M33.38 298.37L35.384 295.43C35.636 295.01 35.876 294.638 36.092 294.23H36.14C36.116 294.686 36.08 295.418 36.08 295.862V298.37H33.38ZM36.08 301.61H37.112V299.246H38.276V298.37H37.112V293.054H35.9L32.24 298.526V299.246H36.08V301.61ZM39.7603 301.61H40.8523V296.882C41.4523 296.21 42.0043 295.886 42.4963 295.886C43.3243 295.886 43.7083 296.402 43.7083 297.626V301.61H44.8003V296.882C45.4123 296.21 45.9403 295.886 46.4443 295.886C47.2723 295.886 47.6563 296.402 47.6563 297.626V301.61H48.7483V297.482C48.7483 295.814 48.1123 294.926 46.7683 294.926C45.9763 294.926 45.2923 295.442 44.6203 296.174C44.3563 295.406 43.8163 294.926 42.8203 294.926C42.0403 294.926 41.3563 295.418 40.7923 296.042H40.7563L40.6603 295.094H39.7603V301.61ZM53.4016 301.766C54.9976 301.766 56.4256 300.518 56.4256 298.358C56.4256 296.186 54.9976 294.926 53.4016 294.926C51.8056 294.926 50.3776 296.186 50.3776 298.358C50.3776 300.518 51.8056 301.766 53.4016 301.766ZM53.4016 300.854C52.2736 300.854 51.5176 299.858 51.5176 298.358C51.5176 296.858 52.2736 295.838 53.4016 295.838C54.5296 295.838 55.2976 296.858 55.2976 298.358C55.2976 299.858 54.5296 300.854 53.4016 300.854ZM59.851 301.766C61.387 301.766 62.227 300.89 62.227 299.834C62.227 298.598 61.183 298.214 60.235 297.854C59.503 297.578 58.831 297.35 58.831 296.726C58.831 296.222 59.215 295.79 60.043 295.79C60.619 295.79 61.075 296.03 61.519 296.366L62.047 295.658C61.543 295.262 60.835 294.926 60.031 294.926C58.615 294.926 57.775 295.742 57.775 296.774C57.775 297.878 58.771 298.322 59.683 298.658C60.403 298.934 61.171 299.222 61.171 299.894C61.171 300.458 60.751 300.914 59.887 300.914C59.107 300.914 58.519 300.602 57.955 300.146L57.415 300.866C58.039 301.382 58.927 301.766 59.851 301.766ZM65.5427 301.766C65.9387 301.766 66.3707 301.646 66.7427 301.526L66.5267 300.71C66.3107 300.794 66.0107 300.878 65.7827 300.878C65.0267 300.878 64.7747 300.422 64.7747 299.618V295.982H66.5387V295.094H64.7747V293.258H63.8627L63.7307 295.094L62.7107 295.154V295.982H63.6827V299.594C63.6827 300.89 64.1507 301.766 65.5427 301.766ZM67.4382 301.61H72.9702V300.662H70.4862C70.0302 300.662 69.5022 300.71 69.0462 300.746C71.0742 298.61 72.5382 297.014 72.5382 295.406C72.5382 293.894 71.5542 292.898 69.9822 292.898C68.8662 292.898 68.1102 293.414 67.3902 294.194L68.0262 294.806C68.5062 294.242 69.1302 293.786 69.8502 293.786C70.9422 293.786 71.4702 294.482 71.4702 295.454C71.4702 296.858 70.0182 298.394 67.4382 300.962V301.61ZM76.9024 301.766C78.6064 301.766 79.6384 300.17 79.6384 297.302C79.6384 294.446 78.6064 292.898 76.9024 292.898C75.1984 292.898 74.1544 294.434 74.1544 297.302C74.1544 300.17 75.1984 301.766 76.9024 301.766ZM76.9024 300.89C75.8944 300.89 75.2224 299.81 75.2224 297.302C75.2224 294.794 75.8944 293.774 76.9024 293.774C77.8984 293.774 78.5704 294.794 78.5704 297.302C78.5704 299.81 77.8984 300.89 76.9024 300.89ZM80.7507 301.61H86.2827V300.662H83.7987C83.3427 300.662 82.8147 300.71 82.3587 300.746C84.3867 298.61 85.8507 297.014 85.8507 295.406C85.8507 293.894 84.8667 292.898 83.2947 292.898C82.1787 292.898 81.4227 293.414 80.7027 294.194L81.3387 294.806C81.8187 294.242 82.4427 293.786 83.1627 293.786C84.2547 293.786 84.7827 294.482 84.7827 295.454C84.7827 296.858 83.3307 298.394 80.7507 300.962V301.61ZM87.9349 301.61H92.7589V300.698H90.9949V293.054H90.1549C89.6749 293.342 89.1109 293.546 88.3309 293.678V294.386H89.8909V300.698H87.9349V301.61Z" fill="#333333"/>
<circle cx="35" cy="338.61" r="3" fill="#333333"/>
<circle cx="91" cy="338.61" r="3" fill="#333333"/>
<circle cx="63" cy="338.61" r="3" fill="#333333"/>
<circle cx="119" cy="338.61" r="3" fill="#333333"/>
<circle cx="161" cy="338.61" r="3" fill="#333333"/>
<circle cx="49" cy="338.61" r="3" fill="#333333"/>
<circle cx="105" cy="338.61" r="3" fill="#333333"/>
<circle cx="147" cy="338.61" r="3" fill="#333333"/>
<circle cx="77" cy="338.61" r="3" fill="#333333"/>
<circle cx="133" cy="338.61" r="3" fill="#333333"/>
<circle cx="175" cy="338.61" r="3" fill="#333333"/>
<g clip-path="url(#clip1)">
<path d="M341 299.61C341 299.61 338 305.61 331 305.61C324 305.61 321 299.61 321 299.61C321 299.61 324 293.61 331 293.61C338 293.61 341 299.61 341 299.61Z" stroke="#C9C9C9" stroke-linecap="round"/>
<circle cx="331" cy="299.61" r="3" stroke="#C9C9C9" stroke-linecap="round"/>
<path d="M322 308.61L339 291.61" stroke="#C9C9C9" stroke-linecap="round"/>
</g>
<path d="M341 339.61C341 339.61 338 345.61 331 345.61C324 345.61 321 339.61 321 339.61C321 339.61 324 333.61 331 333.61C338 333.61 341 339.61 341 339.61Z" stroke="#C9C9C9" stroke-linecap="round"/>
<circle cx="331" cy="339.61" r="3" stroke="#C9C9C9" stroke-linecap="round"/>
</g>
<defs>
<clipPath id="clip0">
<rect width="375" height="667" fill="white" transform="translate(0 0.610352)"/>
</clipPath>
<clipPath id="clip1">
<rect width="24" height="24" fill="white" transform="translate(319 287.61)"/>
</clipPath>
</defs>
</svg>
