<svg width="375" height="668" viewBox="0 0 375 668" fill="none" xmlns="http://www.w3.org/2000/svg">
<g clip-path="url(#clip0)">
<rect width="375" height="667" transform="translate(0 0.423828)" fill="white"/>
<g filter="url(#filter0_d)">
<rect y="20.4238" width="375" height="60" fill="white"/>
</g>
<path d="M37 50.4238H19" stroke="#333333" stroke-linecap="round"/>
<path d="M25 44.4238L19 50.4238L25 56.4238" stroke="#333333" stroke-linecap="round"/>
<path d="M168.279 7.75781C166.445 7.75781 165.139 9.01172 165.139 10.7285V10.7402C165.139 12.3457 166.275 13.5293 167.898 13.5293C169.059 13.5293 169.797 12.9375 170.107 12.2695H170.225C170.225 12.334 170.219 12.3984 170.219 12.4629C170.154 14.0801 169.586 15.3926 168.244 15.3926C167.5 15.3926 166.979 15.0059 166.756 14.4141L166.738 14.3555H165.25L165.262 14.4199C165.531 15.7148 166.691 16.6348 168.244 16.6348C170.371 16.6348 171.654 14.9473 171.654 12.0996V12.0879C171.654 9.04102 170.084 7.75781 168.279 7.75781ZM168.273 12.3691C167.312 12.3691 166.615 11.666 166.615 10.6875V10.6758C166.615 9.73242 167.359 8.98828 168.291 8.98828C169.229 8.98828 169.961 9.74414 169.961 10.7109V10.7227C169.961 11.6777 169.229 12.3691 168.273 12.3691ZM174.314 10.9453C174.854 10.9453 175.246 10.5352 175.246 10.0195C175.246 9.49805 174.854 9.09375 174.314 9.09375C173.781 9.09375 173.383 9.49805 173.383 10.0195C173.383 10.5352 173.781 10.9453 174.314 10.9453ZM174.314 15.293C174.854 15.293 175.246 14.8887 175.246 14.3672C175.246 13.8457 174.854 13.4414 174.314 13.4414C173.781 13.4414 173.383 13.8457 173.383 14.3672C173.383 14.8887 173.781 15.293 174.314 15.293ZM181.076 16.4238H182.523V14.8008H183.66V13.5527H182.523V7.96875H180.385C179.236 9.71484 178.035 11.6602 176.939 13.5645V14.8008H181.076V16.4238ZM178.346 13.5879V13.5C179.166 12.0645 180.145 10.5 181.012 9.17578H181.1V13.5879H178.346ZM187.164 16.4238H188.676V7.96875H187.17L184.961 9.52148V10.9453L187.064 9.45703H187.164V16.4238ZM193.756 16.4238H195.338L196.041 14.2383H199.17L199.879 16.4238H201.461L198.461 7.96875H196.756L193.756 16.4238ZM197.559 9.53906H197.658L198.795 13.0723H196.422L197.559 9.53906ZM202.914 16.4238H204.279V10.4121H204.379L206.723 16.4238H207.754L210.098 10.4121H210.203V16.4238H211.562V7.96875H209.828L207.291 14.4727H207.191L204.648 7.96875H202.914V16.4238Z" fill="black"/>
<path opacity="0.35" fill-rule="evenodd" clip-rule="evenodd" d="M346.5 6.92383H365.5C366.881 6.92383 368 8.04312 368 9.42383V15.9238C368 17.3045 366.881 18.4238 365.5 18.4238H346.5C345.119 18.4238 344 17.3045 344 15.9238V9.42383C344 8.04312 345.119 6.92383 346.5 6.92383ZM346.5 7.92383C345.672 7.92383 345 8.5954 345 9.42383V15.9238C345 16.7523 345.672 17.4238 346.5 17.4238H365.5C366.328 17.4238 367 16.7523 367 15.9238V9.42383C367 8.5954 366.328 7.92383 365.5 7.92383H346.5Z" fill="black"/>
<path opacity="0.4" fill-rule="evenodd" clip-rule="evenodd" d="M369 10.2236C369.89 10.6788 370.5 11.6051 370.5 12.6738C370.5 13.7424 369.89 14.6687 369 15.1239V10.2236Z" fill="black"/>
<path fill-rule="evenodd" clip-rule="evenodd" d="M347 8.92383H365C365.552 8.92383 366 9.37154 366 9.92383V15.4238C366 15.9761 365.552 16.4238 365 16.4238H347C346.448 16.4238 346 15.9761 346 15.4238V9.92383C346 9.37154 346.448 8.92383 347 8.92383Z" fill="black"/>
<path d="M312.219 16.7239H313.273V8.2688H312.225L309.975 9.88599V10.9993L312.125 9.44067H312.219V16.7239ZM318.547 16.9231C320.416 16.9231 321.541 15.218 321.541 12.4993V12.4875C321.541 9.7688 320.416 8.06958 318.547 8.06958C316.678 8.06958 315.564 9.7688 315.564 12.4875V12.4993C315.564 15.218 316.678 16.9231 318.547 16.9231ZM318.547 16.0032C317.334 16.0032 316.625 14.6555 316.625 12.4993V12.4875C316.625 10.3313 317.334 8.99536 318.547 8.99536C319.76 8.99536 320.48 10.3313 320.48 12.4875V12.4993C320.48 14.6555 319.76 16.0032 318.547 16.0032ZM326.105 16.9231C327.975 16.9231 329.1 15.218 329.1 12.4993V12.4875C329.1 9.7688 327.975 8.06958 326.105 8.06958C324.236 8.06958 323.123 9.7688 323.123 12.4875V12.4993C323.123 15.218 324.236 16.9231 326.105 16.9231ZM326.105 16.0032C324.893 16.0032 324.184 14.6555 324.184 12.4993V12.4875C324.184 10.3313 324.893 8.99536 326.105 8.99536C327.318 8.99536 328.039 10.3313 328.039 12.4875V12.4993C328.039 14.6555 327.318 16.0032 326.105 16.0032ZM332.41 12.7161C333.488 12.7161 334.145 11.8372 334.145 10.4368V10.4309C334.145 9.03052 333.488 8.15747 332.41 8.15747C331.332 8.15747 330.682 9.03052 330.682 10.4309V10.4368C330.682 11.8372 331.332 12.7161 332.41 12.7161ZM333.043 16.7239L338.797 8.2688H337.848L332.094 16.7239H333.043ZM332.41 12.0188C331.83 12.0188 331.496 11.427 331.496 10.4368V10.4309C331.496 9.44067 331.83 8.85474 332.41 8.85474C332.99 8.85474 333.33 9.44067 333.33 10.4309V10.4368C333.33 11.427 332.99 12.0188 332.41 12.0188ZM338.469 16.8352C339.547 16.8352 340.203 15.9563 340.203 14.5559V14.55C340.203 13.1497 339.547 12.2766 338.469 12.2766C337.391 12.2766 336.74 13.1497 336.74 14.55V14.5559C336.74 15.9563 337.391 16.8352 338.469 16.8352ZM338.469 16.1379C337.889 16.1379 337.555 15.5461 337.555 14.5559V14.55C337.555 13.5598 337.889 12.9739 338.469 12.9739C339.049 12.9739 339.389 13.5598 339.389 14.55V14.5559C339.389 15.5461 339.049 16.1379 338.469 16.1379Z" fill="black"/>
<path fill-rule="evenodd" clip-rule="evenodd" d="M282.269 10.1161C282.1 9.88761 282 9.6049 282 9.29883C282 8.53944 282.616 7.92383 283.375 7.92383C283.647 7.92383 283.901 8.00305 284.115 8.13972C283.344 8.62978 282.707 9.31076 282.269 10.1161ZM291.37 12.6788C291.37 15.0951 289.411 17.0538 286.995 17.0538C284.579 17.0538 282.62 15.0951 282.62 12.6788C282.62 10.2626 284.579 8.30383 286.995 8.30383C289.411 8.30383 291.37 10.2626 291.37 12.6788ZM287.38 13.2988H285.25V12.5438H286.63V9.92383H287.38V13.2988ZM290.625 7.92383C290.35 7.92383 290.095 8.00429 289.88 8.14292C290.651 8.63432 291.288 9.31688 291.725 10.1238C291.898 9.89403 292 9.60837 292 9.29883C292 8.53944 291.384 7.92383 290.625 7.92383Z" fill="black"/>
<path fill-rule="evenodd" clip-rule="evenodd" d="M301 12.4071V12.3949L298.044 9.70737L298.717 8.96743L301 11.0435V6.54346L304.994 10.1737L302.519 12.4237L304.994 14.6737L301 18.304V13.7586L298.717 15.8346L298.044 15.0946L301 12.4071ZM302 11.5435L303.507 10.1737L302 8.80401V11.5435ZM303.507 14.6737L302 16.0435V13.304L303.507 14.6737Z" fill="black"/>
<g clip-path="url(#clip1)">
<path opacity="0.25" fill-rule="evenodd" clip-rule="evenodd" d="M21.5 7.42383H22.5C23.0523 7.42383 23.5 7.87154 23.5 8.42383V16.4238C23.5 16.9761 23.0523 17.4238 22.5 17.4238H21.5C20.9477 17.4238 20.5 16.9761 20.5 16.4238V8.42383C20.5 7.87154 20.9477 7.42383 21.5 7.42383Z" fill="black"/>
<path fill-rule="evenodd" clip-rule="evenodd" d="M18 9.42383H17C16.4477 9.42383 16 9.87154 16 10.4238V16.4238C16 16.9761 16.4477 17.4238 17 17.4238H18C18.5523 17.4238 19 16.9761 19 16.4238V10.4238C19 9.87154 18.5523 9.42383 18 9.42383ZM12.5 11.4238H13.5C14.0523 11.4238 14.5 11.8715 14.5 12.4238V16.4238C14.5 16.9761 14.0523 17.4238 13.5 17.4238H12.5C11.9477 17.4238 11.5 16.9761 11.5 16.4238V12.4238C11.5 11.8715 11.9477 11.4238 12.5 11.4238ZM8 12.9238H9C9.55228 12.9238 10 13.3715 10 13.9238V16.4238C10 16.9761 9.55228 17.4238 9 17.4238H8C7.44772 17.4238 7 16.9761 7 16.4238V13.9238C7 13.3715 7.44772 12.9238 8 12.9238Z" fill="black"/>
<path d="M31.0781 16.4238H32.1328V12.7617H35.877V11.8242H32.1328V8.91797H36.2109V7.96875H31.0781V16.4238ZM38.3055 8.88867C38.6922 8.88867 39.0086 8.57227 39.0086 8.18555C39.0086 7.79883 38.6922 7.48242 38.3055 7.48242C37.9187 7.48242 37.6023 7.79883 37.6023 8.18555C37.6023 8.57227 37.9187 8.88867 38.3055 8.88867ZM37.7898 16.4238H38.8094V10.1074H37.7898V16.4238ZM43.2828 18.6504C45.0055 18.6504 46.0953 17.748 46.0953 16.3359V10.1074H45.0758V11.1504H45.0055C44.6187 10.4355 43.9273 9.99609 43.0367 9.99609C41.3844 9.99609 40.3648 11.2793 40.3648 13.0488V13.0605C40.3648 14.8301 41.3785 16.0957 43.0133 16.0957C43.8805 16.0957 44.5953 15.7031 44.9937 15.0059H45.0875V16.2832C45.0875 17.2148 44.4137 17.748 43.2828 17.748C42.3746 17.748 41.8121 17.4082 41.7008 16.9277L41.6949 16.9219H40.6402L40.6285 16.9277C40.7867 17.9648 41.7594 18.6504 43.2828 18.6504ZM43.2359 15.1934C42.0641 15.1934 41.4078 14.3145 41.4078 13.0605V13.0488C41.4078 11.7949 42.0641 10.8984 43.2359 10.8984C44.402 10.8984 45.1109 11.7949 45.1109 13.0488V13.0605C45.1109 14.3145 44.4078 15.1934 43.2359 15.1934ZM47.9438 16.4238H48.9633V12.5098C48.9633 11.6191 49.5902 10.8984 50.4164 10.8984C51.2133 10.8984 51.7289 11.3848 51.7289 12.1348V16.4238H52.7484V12.3633C52.7484 11.5605 53.3285 10.8984 54.2074 10.8984C55.098 10.8984 55.5258 11.3613 55.5258 12.293V16.4238H56.5453V12.0586C56.5453 10.7344 55.8246 9.99609 54.5355 9.99609C53.6625 9.99609 52.9418 10.4355 52.602 11.1035H52.5082C52.2152 10.4473 51.6176 9.99609 50.7621 9.99609C49.9359 9.99609 49.3383 10.3887 49.057 11.0684H48.9633V10.1074H47.9438V16.4238ZM60.0695 16.5352C60.9191 16.5352 61.5812 16.166 61.9797 15.4922H62.0734V16.4238H63.093V12.0996C63.093 10.7871 62.2316 9.99609 60.6906 9.99609C59.343 9.99609 58.382 10.6641 58.218 11.6543L58.2121 11.6895H59.2316L59.2375 11.6719C59.4016 11.1797 59.8996 10.8984 60.6555 10.8984C61.5988 10.8984 62.0734 11.3203 62.0734 12.0996V12.6738L60.2629 12.7852C58.7922 12.873 57.9602 13.5234 57.9602 14.6484V14.6602C57.9602 15.8086 58.8684 16.5352 60.0695 16.5352ZM59.0031 14.6367V14.625C59.0031 13.998 59.425 13.6582 60.3859 13.5996L62.0734 13.4941V14.0684C62.0734 14.9707 61.3176 15.6504 60.2805 15.6504C59.548 15.6504 59.0031 15.2754 59.0031 14.6367Z" fill="black"/>
<path fill-rule="evenodd" clip-rule="evenodd" d="M81.9828 9.94677C80.0717 8.3144 77.6574 7.42383 75.1327 7.42383C72.6006 7.42383 70.1795 8.31972 68.2661 9.96091L68.1036 10.1003C67.9722 10.213 67.9647 10.4134 68.0873 10.5356L69.2142 11.6594C69.3236 11.7685 69.4985 11.7759 69.6168 11.6765L69.7564 11.5592C71.2633 10.2933 73.1552 9.60418 75.1327 9.60418C77.1035 9.60418 78.9894 10.2885 80.494 11.5467L80.6336 11.6634C80.7519 11.7623 80.9264 11.7547 81.0356 11.6458L82.1627 10.5218C82.2855 10.3994 82.2777 10.1987 82.1459 10.0861L81.9828 9.94677ZM75.1327 10.8936C76.7236 10.8936 78.251 11.4214 79.4953 12.3987L79.6711 12.5368C79.8113 12.6469 79.8236 12.8544 79.6974 12.9803L78.5667 14.1079C78.4621 14.2122 78.2966 14.2242 78.178 14.136L78.0401 14.0336C77.1997 13.409 76.1864 13.074 75.1327 13.074C74.0726 13.074 73.0533 13.4132 72.2101 14.0449L72.0721 14.1483C71.9535 14.2372 71.7874 14.2255 71.6825 14.1209L70.5522 12.9936C70.4262 12.8681 70.4382 12.6611 70.5777 12.5508L70.7526 12.4125C71.9998 11.4265 73.5342 10.8936 75.1327 10.8936ZM75.1327 14.3634C75.7722 14.3634 76.3936 14.5315 76.9411 14.8519L77.163 14.9817C77.3311 15.0801 77.3607 15.3105 77.2228 15.448L75.3287 17.3368C75.2124 17.4528 75.0238 17.4528 74.9074 17.3368L73.0255 15.4601C72.8882 15.3232 72.9169 15.094 73.0836 14.9949L73.303 14.8645C73.8555 14.5359 74.4848 14.3634 75.1327 14.3634Z" fill="black"/>
</g>
<path d="M142.058 45.7038V47.3838H148.398C148.318 48.3838 148.158 49.3238 147.898 50.2038L141.138 50.6238L141.418 52.4038L147.258 51.8638C146.158 54.0838 144.198 55.9638 141.018 57.5438L142.138 59.1638C148.738 55.8638 150.458 51.0838 150.458 45.7038H142.058ZM153.618 43.9038V61.9638H155.678V43.9038H153.618ZM164.976 46.3038C166.516 46.3038 167.596 47.1038 167.596 48.3438C167.596 49.6038 166.516 50.3838 164.976 50.3838C163.416 50.3838 162.336 49.6038 162.336 48.3438C162.336 47.1038 163.416 46.3038 164.976 46.3038ZM164.976 51.9838C167.636 51.9838 169.536 50.5238 169.536 48.3438C169.536 46.2038 167.636 44.7438 164.976 44.7438C162.296 44.7438 160.396 46.2038 160.396 48.3438C160.396 50.5238 162.296 51.9838 164.976 51.9838ZM170.876 52.6838C166.976 53.2238 162.496 53.2638 159.096 53.2638L159.356 54.9638C160.716 54.9638 162.236 54.9438 163.836 54.8838V61.4038H165.896V54.7838C167.596 54.6838 169.316 54.5038 170.996 54.2038L170.876 52.6838ZM172.136 43.9038V56.1438H168.276V57.7238H172.136V61.9638H174.216V43.9038H172.136ZM192.095 52.4238H181.635V47.1638H191.955V45.4838H179.575V54.0838H192.095V52.4238ZM177.575 57.9438V59.6438H193.955V57.9438H177.575ZM210.165 48.4438V50.1238H213.365V54.6638H215.425V43.9038H213.365V48.4438H210.165ZM211.205 52.4638C208.505 51.5238 206.965 49.2838 206.965 47.0238V46.7838H210.725V45.1238H201.065V46.7838H204.885V47.0438C204.885 49.5238 203.265 51.9238 200.465 52.9238L201.525 54.5638C203.665 53.8038 205.185 52.2038 205.985 50.2238C206.745 51.9638 208.185 53.3838 210.185 54.0838L211.205 52.4638ZM209.425 60.3838C206.845 60.3838 205.385 59.7438 205.385 58.5638C205.385 57.3838 206.845 56.7438 209.425 56.7438C211.965 56.7438 213.445 57.3838 213.445 58.5638C213.445 59.7438 211.965 60.3838 209.425 60.3838ZM209.425 55.1438C205.645 55.1438 203.325 56.4238 203.325 58.5638C203.325 60.7238 205.645 61.9838 209.425 61.9838C213.185 61.9838 215.505 60.7238 215.505 58.5638C215.505 56.4238 213.185 55.1438 209.425 55.1438ZM224.684 45.1638C221.864 45.1638 219.784 46.9438 219.784 49.5038C219.784 52.0638 221.864 53.8438 224.684 53.8438C227.504 53.8438 229.604 52.0638 229.604 49.5038C229.604 46.9438 227.504 45.1638 224.684 45.1638ZM224.684 46.9238C226.364 46.9238 227.584 47.9238 227.584 49.5038C227.584 51.0638 226.364 52.0838 224.684 52.0838C223.024 52.0838 221.804 51.0638 221.804 49.5038C221.804 47.9238 223.024 46.9238 224.684 46.9238ZM231.644 43.8838V61.9838H233.724V43.8838H231.644ZM219.204 58.1638C222.404 58.1638 226.724 58.1238 230.704 57.3638L230.564 55.8638C226.684 56.4438 222.184 56.4638 218.944 56.4638L219.204 58.1638Z" fill="#333333"/>
<path d="M18.375 115.474V118.649H25.675C25.6 119.549 25.45 120.424 25.25 121.224L17.15 121.649L17.625 124.999L23.975 124.424C22.625 126.724 20.425 128.624 16.875 130.399L18.975 133.549C27.975 129.049 29.7 122.924 29.7 115.474H18.375ZM32.55 113.324V136.749H36.6V113.324H32.55ZM47.348 117.224C48.698 117.224 49.598 117.849 49.598 119.099C49.598 120.374 48.698 120.974 47.348 120.974C46.023 120.974 45.123 120.374 45.123 119.099C45.123 117.849 46.023 117.224 47.348 117.224ZM47.348 124.024C50.823 124.024 53.373 121.974 53.373 119.099C53.373 116.249 50.823 114.199 47.348 114.199C43.898 114.199 41.348 116.249 41.348 119.099C41.348 121.974 43.898 124.024 47.348 124.024ZM54.723 124.324C49.798 124.974 44.123 124.999 39.798 124.999L40.273 128.224C41.798 128.224 43.423 128.224 45.173 128.149V136.124H49.223V127.949C51.098 127.774 53.048 127.574 54.948 127.224L54.723 124.324ZM56.048 113.324V128.974H51.698V131.999H56.048V136.774H60.098V113.324H56.048ZM81.9711 123.924H69.2711V118.349H81.8211V115.124H65.2461V127.099H81.9711V123.924ZM62.8961 130.899V134.149H84.1461V130.899H62.8961ZM91.1441 128.424C90.1691 128.424 89.6691 126.999 89.6691 123.524C89.6691 120.049 90.1691 118.624 91.1441 118.624C92.1441 118.624 92.6441 120.049 92.6441 123.524C92.6441 126.999 92.1441 128.424 91.1441 128.424ZM97.4691 121.699H96.2191C95.7941 117.349 93.9191 114.799 91.1441 114.799C88.0191 114.799 86.0191 118.049 86.0191 123.524C86.0191 128.999 88.0191 132.249 91.1441 132.249C94.0191 132.249 95.9191 129.524 96.2441 124.924H97.4691V135.799H101.219V113.624H97.4691V121.699ZM102.319 113.299V136.749H106.144V113.299H102.319ZM119.13 119.199H123.78V115.974H115.155V131.749H116.855C119.58 131.749 122.105 131.674 125.005 131.174L124.705 127.924C122.73 128.249 120.905 128.399 119.13 128.449V119.199ZM131.03 113.324V122.174H129.555V113.699H125.805V135.724H129.555V125.374H131.03V136.749H134.855V113.324H131.03ZM151.353 115.574H146.478V113.299H142.428V115.574H137.553V118.699H151.353V115.574ZM142.478 123.899C142.478 122.849 143.303 122.349 144.453 122.349C145.603 122.349 146.428 122.849 146.428 123.899C146.428 124.974 145.603 125.474 144.453 125.474C143.303 125.474 142.478 124.974 142.478 123.899ZM150.303 123.899C150.303 121.224 147.853 119.299 144.453 119.299C141.053 119.299 138.603 121.224 138.603 123.899C138.603 126.624 141.053 128.524 144.453 128.524C147.853 128.524 150.303 126.624 150.303 123.899ZM144.828 129.599H140.778V136.449H156.903V133.274H144.828V129.599ZM156.203 120.199V113.349H152.153V130.874H156.203V123.499H159.128V120.199H156.203ZM27.45 154.224C30.25 154.224 31.925 154.924 31.925 156.374C31.925 157.849 30.25 158.549 27.45 158.549C24.675 158.549 22.975 157.849 22.975 156.374C22.975 154.924 24.675 154.224 27.45 154.224ZM27.45 161.724C32.525 161.724 36.075 159.649 36.075 156.374C36.075 153.149 32.525 151.049 27.45 151.049C22.375 151.049 18.825 153.149 18.825 156.374C18.825 159.649 22.375 161.724 27.45 161.724ZM38.125 163.274H16.9V166.499H25.4V173.824H29.45V166.499H38.125V163.274ZM55.648 167.524H59.698V150.349H55.648V155.024H51.823V158.249H55.648V167.524ZM54.073 161.274C50.223 159.974 49.073 156.999 49.073 154.124V151.799H44.948V154.124C44.948 157.299 43.723 160.499 39.623 161.799L41.773 164.949C44.373 164.049 46.098 162.299 47.073 160.099C48.048 162.024 49.623 163.524 51.948 164.349L54.073 161.274ZM47.973 170.274V165.899H43.923V173.449H60.198V170.274H47.973ZM83.1461 157.524C77.3961 156.774 75.5711 153.799 75.5711 151.474V150.974H71.4211V151.474C71.4211 153.849 69.6211 156.849 63.8211 157.599L65.3211 160.774C69.3961 160.174 72.0711 158.499 73.4961 156.249C74.9711 158.449 77.6211 160.099 81.6711 160.674L83.1461 157.524ZM69.2461 166.524H65.1961V173.449H81.7961V170.274H69.2461V166.524ZM62.8711 161.674V164.824H71.8211V168.349H75.8711V164.824H84.0961V161.674H62.8711ZM93.4691 154.424C94.8691 154.424 95.8191 155.024 95.8191 156.274C95.8191 157.524 94.8691 158.124 93.4691 158.124C92.0691 158.124 91.0941 157.524 91.0941 156.274C91.0941 155.024 92.0691 154.424 93.4691 154.424ZM93.4691 161.374C97.0191 161.374 99.6941 159.249 99.6941 156.274C99.6941 153.299 97.0191 151.174 93.4691 151.174C89.8941 151.174 87.2191 153.299 87.2191 156.274C87.2191 159.249 89.8941 161.374 93.4691 161.374ZM100.569 161.674C95.6941 162.424 89.9941 162.474 86.0191 162.474L86.4941 165.699C87.9691 165.699 89.6691 165.674 91.5191 165.599V173.074H95.5691V165.349C97.3441 165.174 99.0941 164.974 100.844 164.599L100.569 161.674ZM101.719 150.324V173.749H105.769V150.324H101.719ZM123.617 153.999H111.442V159.924H128.042V157.249H115.442V156.474H127.617V150.574H111.442V153.249H123.617V153.999ZM115.217 170.199H127.667V164.324H111.192V166.999H123.667V167.724H111.217V173.674H128.242V170.999H115.217V170.199ZM108.892 160.649V163.524H130.117V160.649H108.892ZM145.378 152.299H141.453V155.949C141.453 159.899 140.628 164.099 137.053 166.299L139.453 169.324C141.378 168.124 142.628 166.224 143.403 163.924C144.128 165.974 145.253 167.699 147.053 168.799L149.203 165.649C145.953 163.449 145.378 159.599 145.378 155.749V152.299ZM149.253 157.974H146.828V161.199H149.253V172.824H153.003V150.649H149.253V157.974ZM154.028 150.324V173.774H157.853V150.324H154.028ZM168.051 154.224C169.401 154.224 170.301 154.849 170.301 156.099C170.301 157.374 169.401 157.974 168.051 157.974C166.726 157.974 165.826 157.374 165.826 156.099C165.826 154.849 166.726 154.224 168.051 154.224ZM168.051 161.024C171.526 161.024 174.076 158.974 174.076 156.099C174.076 153.249 171.526 151.199 168.051 151.199C164.601 151.199 162.051 153.249 162.051 156.099C162.051 158.974 164.601 161.024 168.051 161.024ZM175.426 161.324C170.501 161.974 164.826 161.999 160.501 161.999L160.976 165.224C162.501 165.224 164.126 165.224 165.876 165.149V173.124H169.926V164.949C171.801 164.774 173.751 164.574 175.651 164.224L175.426 161.324ZM176.751 150.324V165.974H172.401V168.999H176.751V173.774H180.801V150.324H176.751ZM189.699 158.149H198.649V160.874H189.699V158.149ZM196.224 167.974V164.049H202.649V151.724H198.649V155.024H189.699V151.724H185.699V164.049H192.174V167.974H183.599V171.199H204.824V167.974H196.224ZM214.372 152.299H210.447V155.949C210.447 159.899 209.622 164.099 206.047 166.299L208.447 169.324C210.372 168.124 211.622 166.224 212.397 163.924C213.122 165.974 214.247 167.699 216.047 168.799L218.197 165.649C214.947 163.449 214.372 159.599 214.372 155.749V152.299ZM218.247 157.974H215.822V161.199H218.247V172.824H221.997V150.649H218.247V157.974ZM223.022 150.324V173.774H226.847V150.324H223.022ZM237.995 163.999C238.695 164.124 239.445 164.174 240.195 164.174C240.945 164.174 241.695 164.124 242.395 163.999V167.974H237.995V163.999ZM240.195 154.424C243.195 154.424 245.095 155.574 245.095 157.749C245.095 159.899 243.195 161.074 240.195 161.074C237.195 161.074 235.295 159.899 235.295 157.749C235.295 155.574 237.195 154.424 240.195 154.424ZM246.42 167.974V162.524C248.095 161.399 249.095 159.749 249.095 157.749C249.095 153.824 245.295 151.299 240.195 151.299C235.095 151.299 231.295 153.824 231.295 157.749C231.295 159.749 232.295 161.399 233.97 162.524V167.974H229.595V171.199H250.82V167.974H246.42ZM255.218 164.674H258.093L258.743 156.224L258.893 152.274H254.418L254.568 156.224L255.218 164.674ZM256.643 171.774C258.193 171.774 259.293 170.549 259.293 168.999C259.293 167.474 258.193 166.249 256.643 166.249C255.118 166.249 254.018 167.474 254.018 168.999C254.018 170.549 255.118 171.774 256.643 171.774Z" fill="#333333"/>
<path d="M50.898 247.786C50.898 246.454 51.942 245.572 53.382 245.572C54.786 245.572 55.83 246.454 55.83 247.786C55.83 249.118 54.786 250 53.382 250C51.942 250 50.898 249.118 50.898 247.786ZM60.51 246.814V248.704H57.486C57.558 248.416 57.594 248.092 57.594 247.786C57.594 247.444 57.558 247.12 57.468 246.814H60.51ZM60.51 250.162V251.8H62.382V243.538H60.51V245.356H56.676C55.92 244.528 54.75 244.042 53.382 244.042C50.934 244.042 49.134 245.59 49.134 247.786C49.134 249.964 50.934 251.53 53.382 251.53C54.768 251.53 55.974 251.008 56.712 250.162H60.51ZM53.652 258.154V256.714H62.382V252.574H51.798V254.014H60.546V255.346H51.816V259.612H62.922V258.154H53.652ZM74.2066 247.642V249.154H77.0866V253.24H78.9406V243.556H77.0866V247.642H74.2066ZM75.1426 251.26C72.7126 250.414 71.3266 248.398 71.3266 246.364V246.148H74.7106V244.654H66.0166V246.148H69.4546V246.382C69.4546 248.614 67.9966 250.774 65.4766 251.674L66.4306 253.15C68.3566 252.466 69.7246 251.026 70.4446 249.244C71.1286 250.81 72.4246 252.088 74.2246 252.718L75.1426 251.26ZM73.5406 258.388C71.2186 258.388 69.9046 257.812 69.9046 256.75C69.9046 255.688 71.2186 255.112 73.5406 255.112C75.8266 255.112 77.1586 255.688 77.1586 256.75C77.1586 257.812 75.8266 258.388 73.5406 258.388ZM73.5406 253.672C70.1386 253.672 68.0506 254.824 68.0506 256.75C68.0506 258.694 70.1386 259.828 73.5406 259.828C76.9246 259.828 79.0126 258.694 79.0126 256.75C79.0126 254.824 76.9246 253.672 73.5406 253.672Z" fill="#333333"/>
<path d="M60.528 304.652H62.382V292.556H60.528V296.21H57.234V297.74H60.528V304.652ZM58.512 300.656C56.082 299.774 54.714 297.668 54.714 295.472V293.546H52.824V295.436C52.824 297.848 51.42 300.134 48.882 301.034L49.872 302.474C51.744 301.754 53.094 300.314 53.814 298.496C54.498 300.134 55.776 301.448 57.522 302.096L58.512 300.656ZM53.67 306.992V303.374H51.798V308.504H62.76V306.992H53.67ZM75.0886 294.41H71.2186V292.538H69.3646V294.41H65.4946V295.886H75.0886V294.41ZM68.1226 299.72C68.1226 298.694 69.0046 298.082 70.2826 298.082C71.5786 298.082 72.4606 298.694 72.4606 299.72C72.4606 300.746 71.5786 301.358 70.2826 301.358C69.0046 301.358 68.1226 300.746 68.1226 299.72ZM74.2246 299.72C74.2246 297.884 72.6226 296.642 70.2826 296.642C67.9606 296.642 66.3406 297.884 66.3406 299.72C66.3406 301.574 67.9606 302.798 70.2826 302.798C72.6226 302.798 74.2246 301.574 74.2246 299.72ZM69.7426 303.806H67.8706V308.504H78.8146V306.992H69.7426V303.806ZM78.1666 297.74V292.556H76.3126V304.742H78.1666V299.27H80.4706V297.74H78.1666ZM84.0152 297.398C84.0152 295.976 85.0592 295.04 86.4992 295.04C87.9032 295.04 88.9472 295.976 88.9472 297.398C88.9472 298.802 87.9032 299.738 86.4992 299.738C85.0592 299.738 84.0152 298.802 84.0152 297.398ZM93.6452 296.3V298.496H90.5492C90.6572 298.154 90.7112 297.794 90.7112 297.398C90.7112 297.002 90.6572 296.642 90.5672 296.3H93.6452ZM93.6452 299.99V302.132H95.4992V292.538H93.6452V294.788H89.7212C88.9652 293.978 87.8312 293.474 86.4992 293.474C84.0692 293.474 82.2512 295.094 82.2512 297.398C82.2512 299.684 84.0692 301.304 86.4992 301.304C87.8132 301.304 88.9652 300.818 89.7212 299.99H93.6452ZM90.0812 307.352C87.7772 307.352 86.4272 306.758 86.4272 305.642C86.4272 304.562 87.7772 303.95 90.0812 303.95C92.4032 303.95 93.7352 304.562 93.7352 305.642C93.7352 306.758 92.4032 307.352 90.0812 307.352ZM90.0812 302.492C86.6972 302.492 84.6092 303.662 84.6092 305.642C84.6092 307.64 86.6972 308.81 90.0812 308.81C93.4652 308.81 95.5712 307.64 95.5712 305.642C95.5712 303.662 93.4652 302.492 90.0812 302.492ZM108.206 294.266H104.336V292.43H102.482V294.266H98.6118V295.742H108.206V294.266ZM101.24 299.324C101.24 298.37 102.104 297.794 103.4 297.794C104.696 297.794 105.578 298.37 105.578 299.324C105.578 300.26 104.696 300.836 103.4 300.836C102.104 300.836 101.24 300.26 101.24 299.324ZM107.342 299.324C107.342 297.56 105.758 296.426 103.4 296.426C101.06 296.426 99.4578 297.56 99.4578 299.324C99.4578 301.07 101.06 302.204 103.4 302.204C105.758 302.204 107.342 301.07 107.342 299.324ZM106.1 307.388C103.868 307.388 102.572 306.902 102.572 305.948C102.572 305.012 103.868 304.526 106.1 304.526C108.332 304.526 109.628 305.012 109.628 305.948C109.628 306.902 108.332 307.388 106.1 307.388ZM106.1 303.104C102.788 303.104 100.736 304.166 100.736 305.948C100.736 307.748 102.788 308.81 106.1 308.81C109.412 308.81 111.464 307.748 111.464 305.948C111.464 304.166 109.412 303.104 106.1 303.104ZM113.534 296.696V295.166H111.284V292.556H109.43V302.96H111.284V300.188H113.534V298.658H111.284V296.696H113.534ZM123.594 300.08C121.83 300.386 120.336 300.458 117.618 300.458V298.352H122.82V293.492H115.764V294.986H120.984V296.93H115.8V301.97H116.988C120.174 301.97 121.83 301.916 123.792 301.574L123.594 300.08ZM117.618 304.886H126.762V308.846H128.616V303.374H117.618V304.886ZM126.762 292.556V294.896H123.846V296.39H126.762V298.298H123.846V299.792H126.762V302.564H128.616V292.556H126.762Z" fill="#333333"/>
<path d="M53.238 352.554C51.816 352.554 50.844 351.024 50.844 348.486C50.844 345.948 51.816 344.418 53.238 344.418C54.642 344.418 55.632 345.948 55.632 348.486C55.632 351.024 54.642 352.554 53.238 352.554ZM53.238 342.744C50.808 342.744 49.062 344.976 49.062 348.486C49.062 351.996 50.808 354.21 53.238 354.21C55.668 354.21 57.414 351.996 57.414 348.486C57.414 344.976 55.668 342.744 53.238 342.744ZM64.038 347.91H61.5V341.556H59.646V357.828H61.5V349.44H64.038V347.91ZM72.8206 343.176C75.2506 343.176 76.6906 343.752 76.6906 344.778C76.6906 345.822 75.2506 346.398 72.8206 346.398C70.3906 346.398 68.9326 345.822 68.9326 344.778C68.9326 343.752 70.3906 343.176 72.8206 343.176ZM72.8206 347.82C76.3846 347.82 78.6166 346.686 78.6166 344.778C78.6166 342.888 76.3846 341.754 72.8206 341.754C69.2566 341.754 67.0246 342.888 67.0246 344.778C67.0246 346.686 69.2566 347.82 72.8206 347.82ZM73.7386 352.752H71.8126V353.166C71.8126 354.678 69.6706 356.046 66.4666 356.352L67.0786 357.756C69.7066 357.486 71.7766 356.514 72.7666 355.11C73.7566 356.55 75.8446 357.486 78.4906 357.756L79.0846 356.352C75.8446 356.064 73.7386 354.732 73.7386 353.166V352.752ZM65.4586 348.864V350.358H71.8666V352.032H73.7206V350.358H80.2006V348.864H65.4586ZM91.2332 346.398H87.4892V343.482H91.2332V346.398ZM85.6352 346.398H83.4212V347.892H95.2832V346.398H93.0872V343.482H95.3732V341.988H83.3312V343.482H85.6352V346.398ZM90.2972 352.968H88.3712V353.328C88.3712 354.804 86.2292 356.1 83.0432 356.37L83.6192 357.756C86.2652 357.504 88.3352 356.586 89.3432 355.218C90.3332 356.586 92.4212 357.486 95.0672 357.756L95.6432 356.37C92.4032 356.118 90.2972 354.84 90.2972 353.328V352.968ZM81.9992 349.206V350.7H88.4252V352.356H90.2792V350.7H96.7772V349.206H81.9992Z" fill="#333333"/>
<path d="M60.528 394.858V396.73H56.586V398.242H60.528V400.114H62.382V390.556H60.528V393.346H57.18C57.27 392.842 57.324 392.302 57.324 391.726H49.944V393.22H55.344C55.02 395.758 52.914 397.756 49.098 398.818L49.836 400.294C53.346 399.268 55.74 397.45 56.748 394.858H60.528ZM57.054 405.28C54.858 405.28 53.472 404.65 53.472 403.516C53.472 402.4 54.858 401.77 57.054 401.77C59.268 401.77 60.654 402.4 60.654 403.516C60.654 404.65 59.268 405.28 57.054 405.28ZM57.054 400.312C53.76 400.312 51.636 401.536 51.636 403.516C51.636 405.514 53.76 406.738 57.054 406.738C60.348 406.738 62.49 405.514 62.49 403.516C62.49 401.536 60.348 400.312 57.054 400.312ZM74.1526 395.038V396.568H77.0866V400.384H78.9406V390.538H77.0866V395.038H74.1526ZM75.1606 398.35C72.6766 397.63 71.2006 395.866 71.2006 394.012V393.868H74.6206V392.392H71.2186V390.466H69.3466V392.392H65.9266V393.868H69.3466V394.012C69.3466 396.046 67.9426 397.972 65.4406 398.746L66.3406 400.186C68.2486 399.592 69.6166 398.314 70.3366 396.694C71.0746 398.116 72.4426 399.25 74.2966 399.772L75.1606 398.35ZM73.5226 405.37C71.2186 405.37 69.9046 404.794 69.9046 403.768C69.9046 402.742 71.2186 402.184 73.5226 402.184C75.8446 402.184 77.1586 402.742 77.1586 403.768C77.1586 404.794 75.8446 405.37 73.5226 405.37ZM73.5226 400.744C70.1206 400.744 68.0506 401.86 68.0506 403.768C68.0506 405.676 70.1206 406.81 73.5226 406.81C76.9246 406.81 79.0126 405.676 79.0126 403.768C79.0126 401.86 76.9246 400.744 73.5226 400.744Z" fill="#333333"/>
<rect x="16" y="274.424" width="343" height="1" fill="#F2F2F2"/>
<rect x="16" y="225.424" width="343" height="1" fill="#C9C9C9"/>
<rect x="16" y="323.424" width="343" height="1" fill="#F2F2F2"/>
<rect x="16" y="372.424" width="343" height="1" fill="#F2F2F2"/>
<rect x="16" y="421.424" width="343" height="1" fill="#C9C9C9"/>
<rect x="16" y="591.424" width="343" height="60" rx="15" fill="#FF7556"/>
<path d="M344.474 254.174H325.526C325.211 254.174 325 253.924 325 253.549C325 253.174 325.211 252.924 325.526 252.924H344.474C344.789 252.924 345 253.174 345 253.549C345 253.924 344.789 254.174 344.474 254.174Z" fill="#C9C9C9"/>
<path d="M344.474 247.924H325.526C325.211 247.924 325 247.674 325 247.299C325 246.924 325.211 246.674 325.526 246.674H344.474C344.789 246.674 345 246.924 345 247.299C345 247.674 344.789 247.924 344.474 247.924Z" fill="#C9C9C9"/>
<path d="M344.474 303.174H325.526C325.211 303.174 325 302.924 325 302.549C325 302.174 325.211 301.924 325.526 301.924H344.474C344.789 301.924 345 302.174 345 302.549C345 302.924 344.789 303.174 344.474 303.174Z" fill="#C9C9C9"/>
<path d="M344.474 296.924H325.526C325.211 296.924 325 296.674 325 296.299C325 295.924 325.211 295.674 325.526 295.674H344.474C344.789 295.674 345 295.924 345 296.299C345 296.674 344.789 296.924 344.474 296.924Z" fill="#C9C9C9"/>
<path d="M344.474 352.174H325.526C325.211 352.174 325 351.924 325 351.549C325 351.174 325.211 350.924 325.526 350.924H344.474C344.789 350.924 345 351.174 345 351.549C345 351.924 344.789 352.174 344.474 352.174Z" fill="#C9C9C9"/>
<path d="M344.474 345.924H325.526C325.211 345.924 325 345.674 325 345.299C325 344.924 325.211 344.674 325.526 344.674H344.474C344.789 344.674 345 344.924 345 345.299C345 345.674 344.789 345.924 344.474 345.924Z" fill="#C9C9C9"/>
<path d="M344.474 401.174H325.526C325.211 401.174 325 400.924 325 400.549C325 400.174 325.211 399.924 325.526 399.924H344.474C344.789 399.924 345 400.174 345 400.549C345 400.924 344.789 401.174 344.474 401.174Z" fill="#C9C9C9"/>
<path d="M344.474 394.924H325.526C325.211 394.924 325 394.674 325 394.299C325 393.924 325.211 393.674 325.526 393.674H344.474C344.789 393.674 345 393.924 345 394.299C345 394.674 344.789 394.924 344.474 394.924Z" fill="#C9C9C9"/>
<path d="M127.488 616.644C129.81 616.644 131.34 617.436 131.34 618.75C131.34 620.082 129.81 620.874 127.488 620.874C125.148 620.874 123.618 620.082 123.618 618.75C123.618 617.436 125.148 616.644 127.488 616.644ZM127.488 622.368C130.908 622.368 133.248 620.964 133.248 618.75C133.248 616.554 130.908 615.15 127.488 615.15C124.05 615.15 121.71 616.554 121.71 618.75C121.71 620.964 124.05 622.368 127.488 622.368ZM134.886 623.754H120.144V625.284H126.534V630.81H128.388V625.284H134.886V623.754ZM148.331 626.652H150.185V614.556H148.331V618.21H145.037V619.74H148.331V626.652ZM146.315 622.656C143.885 621.774 142.517 619.668 142.517 617.472V615.546H140.627V617.436C140.627 619.848 139.223 622.134 136.685 623.034L137.675 624.474C139.547 623.754 140.897 622.314 141.617 620.496C142.301 622.134 143.579 623.448 145.325 624.096L146.315 622.656ZM141.473 628.992V625.374H139.601V630.504H150.563V628.992H141.473ZM167.157 620.046C163.971 619.596 161.577 617.634 161.577 615.636V614.97H159.669V615.636C159.669 617.688 157.293 619.632 154.089 620.082L154.809 621.558C157.437 621.144 159.597 619.812 160.623 618.012C161.667 619.794 163.845 621.108 166.455 621.504L167.157 620.046ZM156.915 625.77H155.061V630.504H166.365V628.992H156.915V625.77ZM153.261 622.71V624.204H159.849V627.246H161.703V624.204H168.003V622.71H153.261ZM175.13 616.788C176.552 616.788 177.542 617.526 177.542 618.66C177.542 619.812 176.552 620.55 175.13 620.55C173.726 620.55 172.718 619.812 172.718 618.66C172.718 617.526 173.726 616.788 175.13 616.788ZM175.13 622.08C177.56 622.08 179.324 620.676 179.324 618.66C179.324 616.662 177.56 615.258 175.13 615.258C172.7 615.258 170.936 616.662 170.936 618.66C170.936 620.676 172.7 622.08 175.13 622.08ZM180.368 622.692C176.858 623.214 172.772 623.268 169.838 623.268L170.054 624.798C171.314 624.798 172.754 624.78 174.284 624.726V630.324H176.138V624.618C177.578 624.51 179.072 624.348 180.494 624.06L180.368 622.692ZM181.43 614.556V630.828H183.284V614.556H181.43ZM196.433 617.706H200.051V616.176H190.943V617.706H194.561V619.254C194.561 622.044 192.887 625.068 190.367 626.238L191.429 627.714C193.337 626.796 194.795 624.87 195.515 622.602C196.271 624.708 197.729 626.472 199.619 627.3L200.645 625.842C198.107 624.762 196.433 621.954 196.433 619.254V617.706ZM201.941 614.556V630.81H203.813V614.556H201.941ZM215.728 618.642V620.154H218.608V624.24H220.462V614.556H218.608V618.642H215.728ZM216.664 622.26C214.234 621.414 212.848 619.398 212.848 617.364V617.148H216.232V615.654H207.538V617.148H210.976V617.382C210.976 619.614 209.518 621.774 206.998 622.674L207.952 624.15C209.878 623.466 211.246 622.026 211.966 620.244C212.65 621.81 213.946 623.088 215.746 623.718L216.664 622.26ZM215.062 629.388C212.74 629.388 211.426 628.812 211.426 627.75C211.426 626.688 212.74 626.112 215.062 626.112C217.348 626.112 218.68 626.688 218.68 627.75C218.68 628.812 217.348 629.388 215.062 629.388ZM215.062 624.672C211.66 624.672 209.572 625.824 209.572 627.75C209.572 629.694 211.66 630.828 215.062 630.828C218.446 630.828 220.534 629.694 220.534 627.75C220.534 625.824 218.446 624.672 215.062 624.672ZM226.131 618.498C226.131 617.382 227.085 616.662 228.435 616.662C229.803 616.662 230.721 617.382 230.721 618.498C230.721 619.632 229.803 620.352 228.435 620.352C227.085 620.352 226.131 619.632 226.131 618.498ZM233.475 622.692C232.179 622.89 230.775 622.998 229.389 623.088V621.684C231.225 621.378 232.449 620.154 232.449 618.498C232.449 616.572 230.793 615.258 228.435 615.258C226.077 615.258 224.403 616.572 224.403 618.498C224.403 620.172 225.663 621.396 227.535 621.684V623.16C226.077 623.214 224.691 623.214 223.521 623.214L223.755 624.726C226.473 624.726 230.253 624.672 233.601 624.042L233.475 622.692ZM227.625 625.932H225.771V630.486H236.841V628.992H227.625V625.932ZM236.283 619.884V614.574H234.429V626.994H236.283V621.414H238.515V619.884H236.283ZM245.893 624.564H249.223V627.372H245.893V624.564ZM251.059 627.372V624.564H253.453V623.07H243.715V620.82H253.093V615.69H241.861V617.184H251.257V619.344H241.897V624.564H244.057V627.372H240.115V628.902H254.839V627.372H251.059Z" fill="white"/>
</g>
<defs>
<filter id="filter0_d" x="-4" y="20.4238" width="383" height="68" filterUnits="userSpaceOnUse" color-interpolation-filters="sRGB">
<feFlood flood-opacity="0" result="BackgroundImageFix"/>
<feColorMatrix in="SourceAlpha" type="matrix" values="0 0 0 0 0 0 0 0 0 0 0 0 0 0 0 0 0 0 127 0"/>
<feOffset dy="4"/>
<feGaussianBlur stdDeviation="2"/>
<feColorMatrix type="matrix" values="0 0 0 0 0.788235 0 0 0 0 0.788235 0 0 0 0 0.788235 0 0 0 0.2 0"/>
<feBlend mode="normal" in2="BackgroundImageFix" result="effect1_dropShadow"/>
<feBlend mode="normal" in="SourceGraphic" in2="effect1_dropShadow" result="shape"/>
</filter>
<clipPath id="clip0">
<rect width="375" height="667" fill="white" transform="translate(0 0.423828)"/>
</clipPath>
<clipPath id="clip1">
<rect width="78" height="16" fill="white" transform="translate(5 5.42383)"/>
</clipPath>
</defs>
</svg>
