<svg width="383" height="667" viewBox="0 0 383 667" fill="none" xmlns="http://www.w3.org/2000/svg">
<g filter="url(#filter0_d)">
<rect x="4" y="20" width="375" height="60" fill="white"/>
</g>
<path d="M26.464 474.52H22.944V470.344H26.464V474.52ZM28.08 469.016H21.312V475.848H28.08V469.016ZM24.608 477.336H22.944V481.96H32.672V480.616H24.608V477.336ZM32.096 472.072V467.768H30.448V478.36H32.096V473.432H34.144V472.072H32.096ZM36.7508 473.752C39.2948 473.464 41.2788 472.408 42.0628 470.904C42.8308 472.408 44.8148 473.464 47.3428 473.752L47.9348 472.456C45.2628 472.184 43.3908 471 43.1667 469.672H47.4068V468.344H36.7348V469.672H40.9428C40.7028 471 38.8468 472.168 36.1748 472.456L36.7508 473.752ZM36.9748 478.856H45.3428V482.248H46.9908V477.528H36.9748V478.856ZM42.8628 474.936V472.888H41.2148V474.936H35.5188V476.264H48.6228V474.936H42.8628ZM57.5975 479.144V475.736H61.8695V474.408H53.5015V470.2H61.7415V468.872H51.8535V475.736H55.9495V479.144H50.2535V480.504H63.3415V479.144H57.5975ZM74.7803 470.248H66.6363V473.496H76.6683V472.344H68.2523V471.32H76.4123V468.136H66.6043V469.272H74.7803V470.248ZM68.1403 479.832H76.4603V476.6H66.4763V477.736H74.8283V478.76H66.5082V482.072H76.8923V480.936H68.1403V479.832ZM64.9563 474.408V475.624H78.0603V474.408H64.9563ZM93.6048 476.664H95.2528V467.784H93.6048V470.248H91.5087V471.576H93.6048V472.888H91.5087V474.216H93.6048V476.664ZM86.5648 470.152H88.4048V474.504C87.7808 474.536 87.1727 474.552 86.5648 474.568V470.152ZM91.6208 474.248C91.0928 474.312 90.5487 474.376 89.9888 474.392V470.152H91.2847V468.808H83.6688V470.152H84.9808V474.6C84.3888 474.6 83.8128 474.6 83.2848 474.6L83.4768 475.96C85.7968 475.96 88.9968 475.912 91.7168 475.448L91.6208 474.248ZM90.4368 480.968C88.3728 480.968 87.2208 480.472 87.2208 479.592C87.2208 478.68 88.3728 478.2 90.4368 478.2C92.5008 478.2 93.6688 478.68 93.6688 479.592C93.6688 480.472 92.5008 480.968 90.4368 480.968ZM90.4368 476.92C87.4128 476.92 85.5728 477.896 85.5728 479.592C85.5728 481.256 87.4128 482.232 90.4368 482.232C93.4608 482.232 95.3168 481.256 95.3168 479.592C95.3168 477.896 93.4608 476.92 90.4368 476.92ZM98.7075 469.304V470.648H103.764C103.428 473.976 101.524 476.52 97.9875 478.328L98.8995 479.592C103.62 477.208 105.411 473.496 105.411 469.304H98.7075ZM111.38 473.48H109.188V467.768H107.54V482.216H109.188V474.856H111.38V473.48ZM116.242 477.624C115.266 477.624 114.578 476.84 114.578 475.64C114.578 474.44 115.266 473.64 116.242 473.64C117.218 473.64 117.906 474.44 117.906 475.64C117.906 476.84 117.218 477.624 116.242 477.624ZM116.242 472.28C114.418 472.28 113.106 473.64 113.106 475.64C113.106 477.624 114.418 479 116.242 479C118.066 479 119.378 477.624 119.378 475.64C119.378 473.64 118.066 472.28 116.242 472.28ZM117.058 468.2H115.426V470.136H112.69V471.464H119.762V470.136H117.058V468.2ZM123.458 467.784V473.768H121.922V468.088H120.386V481.56H121.922V475.128H123.458V482.232H125.026V467.784H123.458ZM128.753 474.856C131.137 474.504 133.089 473.32 133.969 471.72C134.849 473.32 136.817 474.504 139.201 474.856L139.793 473.56C137.041 473.192 135.009 471.608 134.913 469.928H139.281V468.6H128.641V469.928H133.041C132.945 471.608 130.913 473.192 128.161 473.56L128.753 474.856ZM140.513 475.912H127.441V477.24H133.105V482.248H134.753V477.24H140.497L140.513 475.912ZM146.592 469.112H144.992V471.72C144.992 474.184 144 476.776 141.952 477.992L142.96 479.24C144.352 478.392 145.296 476.872 145.808 475.096C146.304 476.712 147.168 478.12 148.48 478.92L149.408 477.64C147.472 476.424 146.592 473.976 146.592 471.64V469.112ZM149.984 472.84H147.856V474.184H149.984V481.56H151.536V468.056H149.984V472.84ZM152.928 467.784V482.232H154.496V467.784H152.928ZM161.583 475.976C162.143 476.104 162.767 476.168 163.407 476.168C164.047 476.168 164.671 476.104 165.231 475.96V479.112H161.583V475.976ZM163.407 469.912C165.583 469.912 167.103 470.872 167.103 472.392C167.103 473.928 165.583 474.888 163.407 474.888C161.215 474.888 159.695 473.928 159.695 472.392C159.695 470.872 161.215 469.912 163.407 469.912ZM166.879 479.112V475.352C168.031 474.696 168.719 473.672 168.719 472.392C168.719 470.088 166.479 468.616 163.407 468.616C160.319 468.616 158.095 470.088 158.095 472.392C158.095 473.672 158.783 474.712 159.935 475.352V479.112H156.879V480.456H169.967V479.112H166.879ZM172.909 477.24H174.141L174.397 470.84L174.461 468.952H172.605L172.653 470.84L172.909 477.24ZM173.517 481.208C174.221 481.208 174.765 480.68 174.765 479.928C174.765 479.176 174.221 478.616 173.517 478.616C172.829 478.616 172.301 479.176 172.301 479.928C172.301 480.68 172.829 481.208 173.517 481.208Z" fill="#333333"/>
<path d="M342.56 481.224C344.848 481.224 346.864 479.672 346.864 477C346.864 474.424 345.168 473.24 343.152 473.24C342.704 473.24 342.352 473.304 341.92 473.48L342.096 471.464H346.336V469.08H339.648L339.344 474.984L340.592 475.8C341.296 475.352 341.616 475.224 342.272 475.224C343.296 475.224 344.016 475.864 344.016 477.064C344.016 478.296 343.296 478.92 342.144 478.92C341.2 478.92 340.368 478.424 339.696 477.784L338.4 479.576C339.344 480.504 340.656 481.224 342.56 481.224ZM357.478 473.992C355.254 473.256 354.39 471.704 354.246 470.184H356.918V468.152H348.822V470.184H351.542C351.398 471.816 350.502 473.464 348.15 474.216L349.446 476.264C351.158 475.704 352.278 474.632 352.934 473.272C353.574 474.504 354.614 475.496 356.214 475.992L357.478 473.992ZM353.382 478.664H358.47V480.36H353.382V478.664ZM350.838 482.36H360.998V476.664H350.838V482.36ZM358.406 467.512V470.808H356.502V472.872H358.406V476.12H360.998V467.512H358.406Z" fill="#C9C9C9"/>
<rect x="20" y="245" width="343" height="168" rx="15" fill="#F2F2F2"/>
<path d="M323.973 435.156C325.641 435.156 326.709 433.632 326.709 430.572C326.709 427.524 325.641 426.036 323.973 426.036C322.293 426.036 321.225 427.512 321.225 430.572C321.225 433.632 322.293 435.156 323.973 435.156ZM323.973 434.28C322.965 434.28 322.293 433.164 322.293 430.572C322.293 428.004 322.965 426.912 323.973 426.912C324.969 426.912 325.641 428.004 325.641 430.572C325.641 433.164 324.969 434.28 323.973 434.28Z" fill="#FF7556"/>
<path d="M327.425 437.148H328.229L331.817 425.472H331.025L327.425 437.148ZM335.124 435.156C336.612 435.156 338.004 434.064 338.004 432.132C338.004 430.2 336.816 429.336 335.352 429.336C334.824 429.336 334.44 429.468 334.044 429.684L334.26 427.14H337.584V426.192H333.3L333.024 430.32L333.612 430.68C334.116 430.344 334.488 430.164 335.076 430.164C336.18 430.164 336.9 430.908 336.9 432.168C336.9 433.452 336.06 434.244 335.028 434.244C334.008 434.244 333.372 433.776 332.868 433.272L332.328 433.992C332.916 434.58 333.756 435.156 335.124 435.156ZM341.984 435.156C343.652 435.156 344.72 433.632 344.72 430.572C344.72 427.524 343.652 426.036 341.984 426.036C340.304 426.036 339.236 427.512 339.236 430.572C339.236 433.632 340.304 435.156 341.984 435.156ZM341.984 434.28C340.976 434.28 340.304 433.164 340.304 430.572C340.304 428.004 340.976 426.912 341.984 426.912C342.98 426.912 343.652 428.004 343.652 430.572C343.652 433.164 342.98 434.28 341.984 434.28ZM348.641 435.156C350.309 435.156 351.377 433.632 351.377 430.572C351.377 427.524 350.309 426.036 348.641 426.036C346.961 426.036 345.893 427.512 345.893 430.572C345.893 433.632 346.961 435.156 348.641 435.156ZM348.641 434.28C347.633 434.28 346.961 433.164 346.961 430.572C346.961 428.004 347.633 426.912 348.641 426.912C349.637 426.912 350.309 428.004 350.309 430.572C350.309 433.164 349.637 434.28 348.641 434.28ZM356.221 427.044H358.609V426.228H352.789V427.044H355.249V428.412C355.249 430.236 353.953 432.276 352.417 433.044L352.993 433.824C354.205 433.2 355.249 431.832 355.741 430.26C356.233 431.7 357.241 432.96 358.441 433.56L359.005 432.768C357.445 432.036 356.221 430.128 356.221 428.412V427.044ZM362.653 429.468H360.877V425.136H359.893V435.888H360.877V430.296H362.653V429.468Z" fill="#C9C9C9"/>
<rect x="20" y="574" width="343" height="60" rx="15" fill="#FF7556"/>
<rect x="28" y="529" width="323" height="3" fill="#FEC7BA"/>
<circle cx="32" cy="530" r="12" fill="#FF7556"/>
<circle cx="351" cy="530" r="12" fill="#FF7556"/>
<circle cx="271" cy="530" r="12" fill="#FF7556"/>
<ellipse cx="191.5" cy="530" rx="11.5" ry="12" fill="#FF7556"/>
<circle cx="112" cy="530" r="12" fill="#FF7556"/>
<path d="M171.279 5.33398C169.445 5.33398 168.139 6.58789 168.139 8.30469V8.31641C168.139 9.92188 169.275 11.1055 170.898 11.1055C172.059 11.1055 172.797 10.5137 173.107 9.8457H173.225C173.225 9.91016 173.219 9.97461 173.219 10.0391C173.154 11.6562 172.586 12.9688 171.244 12.9688C170.5 12.9688 169.979 12.582 169.756 11.9902L169.738 11.9316H168.25L168.262 11.9961C168.531 13.291 169.691 14.2109 171.244 14.2109C173.371 14.2109 174.654 12.5234 174.654 9.67578V9.66406C174.654 6.61719 173.084 5.33398 171.279 5.33398ZM171.273 9.94531C170.312 9.94531 169.615 9.24219 169.615 8.26367V8.25195C169.615 7.30859 170.359 6.56445 171.291 6.56445C172.229 6.56445 172.961 7.32031 172.961 8.28711V8.29883C172.961 9.25391 172.229 9.94531 171.273 9.94531ZM177.314 8.52148C177.854 8.52148 178.246 8.11133 178.246 7.5957C178.246 7.07422 177.854 6.66992 177.314 6.66992C176.781 6.66992 176.383 7.07422 176.383 7.5957C176.383 8.11133 176.781 8.52148 177.314 8.52148ZM177.314 12.8691C177.854 12.8691 178.246 12.4648 178.246 11.9434C178.246 11.4219 177.854 11.0176 177.314 11.0176C176.781 11.0176 176.383 11.4219 176.383 11.9434C176.383 12.4648 176.781 12.8691 177.314 12.8691ZM184.076 14H185.523V12.377H186.66V11.1289H185.523V5.54492H183.385C182.236 7.29102 181.035 9.23633 179.939 11.1406V12.377H184.076V14ZM181.346 11.1641V11.0762C182.166 9.64062 183.145 8.07617 184.012 6.75195H184.1V11.1641H181.346ZM190.164 14H191.676V5.54492H190.17L187.961 7.09766V8.52148L190.064 7.0332H190.164V14ZM196.756 14H198.338L199.041 11.8145H202.17L202.879 14H204.461L201.461 5.54492H199.756L196.756 14ZM200.559 7.11523H200.658L201.795 10.6484H199.422L200.559 7.11523ZM205.914 14H207.279V7.98828H207.379L209.723 14H210.754L213.098 7.98828H213.203V14H214.562V5.54492H212.828L210.291 12.0488H210.191L207.648 5.54492H205.914V14Z" fill="black"/>
<path opacity="0.35" fill-rule="evenodd" clip-rule="evenodd" d="M349.5 4.5H368.5C369.881 4.5 371 5.61929 371 7V13.5C371 14.8807 369.881 16 368.5 16H349.5C348.119 16 347 14.8807 347 13.5V7C347 5.61929 348.119 4.5 349.5 4.5ZM349.5 5.5C348.672 5.5 348 6.17157 348 7V13.5C348 14.3284 348.672 15 349.5 15H368.5C369.328 15 370 14.3284 370 13.5V7C370 6.17157 369.328 5.5 368.5 5.5H349.5Z" fill="black"/>
<path opacity="0.4" fill-rule="evenodd" clip-rule="evenodd" d="M372 7.7998C372.89 8.25498 373.5 9.18128 373.5 10.2499C373.5 11.3186 372.89 12.2449 372 12.7001V7.7998Z" fill="black"/>
<path fill-rule="evenodd" clip-rule="evenodd" d="M350 6.5H368C368.552 6.5 369 6.94772 369 7.5V13C369 13.5523 368.552 14 368 14H350C349.448 14 349 13.5523 349 13V7.5C349 6.94772 349.448 6.5 350 6.5Z" fill="black"/>
<path d="M315.219 14.3H316.273V5.84497H315.225L312.975 7.46216V8.57544L315.125 7.01685H315.219V14.3ZM321.547 14.4993C323.416 14.4993 324.541 12.7942 324.541 10.0754V10.0637C324.541 7.34497 323.416 5.64575 321.547 5.64575C319.678 5.64575 318.564 7.34497 318.564 10.0637V10.0754C318.564 12.7942 319.678 14.4993 321.547 14.4993ZM321.547 13.5793C320.334 13.5793 319.625 12.2317 319.625 10.0754V10.0637C319.625 7.90747 320.334 6.57153 321.547 6.57153C322.76 6.57153 323.48 7.90747 323.48 10.0637V10.0754C323.48 12.2317 322.76 13.5793 321.547 13.5793ZM329.105 14.4993C330.975 14.4993 332.1 12.7942 332.1 10.0754V10.0637C332.1 7.34497 330.975 5.64575 329.105 5.64575C327.236 5.64575 326.123 7.34497 326.123 10.0637V10.0754C326.123 12.7942 327.236 14.4993 329.105 14.4993ZM329.105 13.5793C327.893 13.5793 327.184 12.2317 327.184 10.0754V10.0637C327.184 7.90747 327.893 6.57153 329.105 6.57153C330.318 6.57153 331.039 7.90747 331.039 10.0637V10.0754C331.039 12.2317 330.318 13.5793 329.105 13.5793ZM335.41 10.2922C336.488 10.2922 337.145 9.41333 337.145 8.01294V8.00708C337.145 6.60669 336.488 5.73364 335.41 5.73364C334.332 5.73364 333.682 6.60669 333.682 8.00708V8.01294C333.682 9.41333 334.332 10.2922 335.41 10.2922ZM336.043 14.3L341.797 5.84497H340.848L335.094 14.3H336.043ZM335.41 9.59497C334.83 9.59497 334.496 9.00317 334.496 8.01294V8.00708C334.496 7.01685 334.83 6.43091 335.41 6.43091C335.99 6.43091 336.33 7.01685 336.33 8.00708V8.01294C336.33 9.00317 335.99 9.59497 335.41 9.59497ZM341.469 14.4114C342.547 14.4114 343.203 13.5325 343.203 12.1321V12.1262C343.203 10.7258 342.547 9.85278 341.469 9.85278C340.391 9.85278 339.74 10.7258 339.74 12.1262V12.1321C339.74 13.5325 340.391 14.4114 341.469 14.4114ZM341.469 13.7141C340.889 13.7141 340.555 13.1223 340.555 12.1321V12.1262C340.555 11.136 340.889 10.55 341.469 10.55C342.049 10.55 342.389 11.136 342.389 12.1262V12.1321C342.389 13.1223 342.049 13.7141 341.469 13.7141Z" fill="black"/>
<path fill-rule="evenodd" clip-rule="evenodd" d="M285.269 7.69225C285.1 7.46378 285 7.18107 285 6.875C285 6.11561 285.616 5.5 286.375 5.5C286.647 5.5 286.901 5.57923 287.115 5.7159C286.344 6.20596 285.707 6.88693 285.269 7.69225ZM294.37 10.255C294.37 12.6712 292.411 14.63 289.995 14.63C287.579 14.63 285.62 12.6712 285.62 10.255C285.62 7.83875 287.579 5.88 289.995 5.88C292.411 5.88 294.37 7.83875 294.37 10.255ZM290.38 10.875H288.25V10.12H289.63V7.5H290.38V10.875ZM293.625 5.5C293.35 5.5 293.095 5.58046 292.88 5.71909C293.651 6.21049 294.288 6.89306 294.725 7.70001C294.898 7.4702 295 7.18455 295 6.875C295 6.11561 294.384 5.5 293.625 5.5Z" fill="black"/>
<path fill-rule="evenodd" clip-rule="evenodd" d="M303.999 9.98327V9.97109L301.043 7.28354L301.716 6.5436L303.999 8.61963V4.11963L307.993 7.7499L305.518 9.9999L307.993 12.2499L303.999 15.8802V11.3347L301.716 13.4108L301.043 12.6708L303.999 9.98327ZM304.999 9.11963L306.506 7.7499L304.999 6.38018V9.11963ZM306.506 12.2499L304.999 13.6196V10.8802L306.506 12.2499Z" fill="black"/>
<path opacity="0.25" fill-rule="evenodd" clip-rule="evenodd" d="M24.5 5H25.5C26.0523 5 26.5 5.44772 26.5 6V14C26.5 14.5523 26.0523 15 25.5 15H24.5C23.9477 15 23.5 14.5523 23.5 14V6C23.5 5.44772 23.9477 5 24.5 5Z" fill="black"/>
<path fill-rule="evenodd" clip-rule="evenodd" d="M21 7H20C19.4477 7 19 7.44772 19 8V14C19 14.5523 19.4477 15 20 15H21C21.5523 15 22 14.5523 22 14V8C22 7.44772 21.5523 7 21 7ZM15.5 9H16.5C17.0523 9 17.5 9.44772 17.5 10V14C17.5 14.5523 17.0523 15 16.5 15H15.5C14.9477 15 14.5 14.5523 14.5 14V10C14.5 9.44772 14.9477 9 15.5 9ZM11 10.5H12C12.5523 10.5 13 10.9477 13 11.5V14C13 14.5523 12.5523 15 12 15H11C10.4477 15 10 14.5523 10 14V11.5C10 10.9477 10.4477 10.5 11 10.5Z" fill="black"/>
<path d="M34.0781 14H35.1328V10.3379H38.877V9.40039H35.1328V6.49414H39.2109V5.54492H34.0781V14ZM41.3055 6.46484C41.6922 6.46484 42.0086 6.14844 42.0086 5.76172C42.0086 5.375 41.6922 5.05859 41.3055 5.05859C40.9187 5.05859 40.6023 5.375 40.6023 5.76172C40.6023 6.14844 40.9187 6.46484 41.3055 6.46484ZM40.7898 14H41.8094V7.68359H40.7898V14ZM46.2828 16.2266C48.0055 16.2266 49.0953 15.3242 49.0953 13.9121V7.68359H48.0758V8.72656H48.0055C47.6187 8.01172 46.9273 7.57227 46.0367 7.57227C44.3844 7.57227 43.3648 8.85547 43.3648 10.625V10.6367C43.3648 12.4062 44.3785 13.6719 46.0133 13.6719C46.8805 13.6719 47.5953 13.2793 47.9937 12.582H48.0875V13.8594C48.0875 14.791 47.4137 15.3242 46.2828 15.3242C45.3746 15.3242 44.8121 14.9844 44.7008 14.5039L44.6949 14.498H43.6402L43.6285 14.5039C43.7867 15.541 44.7594 16.2266 46.2828 16.2266ZM46.2359 12.7695C45.0641 12.7695 44.4078 11.8906 44.4078 10.6367V10.625C44.4078 9.37109 45.0641 8.47461 46.2359 8.47461C47.402 8.47461 48.1109 9.37109 48.1109 10.625V10.6367C48.1109 11.8906 47.4078 12.7695 46.2359 12.7695ZM50.9438 14H51.9633V10.0859C51.9633 9.19531 52.5902 8.47461 53.4164 8.47461C54.2133 8.47461 54.7289 8.96094 54.7289 9.71094V14H55.7484V9.93945C55.7484 9.13672 56.3285 8.47461 57.2074 8.47461C58.098 8.47461 58.5258 8.9375 58.5258 9.86914V14H59.5453V9.63477C59.5453 8.31055 58.8246 7.57227 57.5355 7.57227C56.6625 7.57227 55.9418 8.01172 55.602 8.67969H55.5082C55.2152 8.02344 54.6176 7.57227 53.7621 7.57227C52.9359 7.57227 52.3383 7.96484 52.057 8.64453H51.9633V7.68359H50.9438V14ZM63.0695 14.1113C63.9191 14.1113 64.5812 13.7422 64.9797 13.0684H65.0734V14H66.093V9.67578C66.093 8.36328 65.2316 7.57227 63.6906 7.57227C62.343 7.57227 61.382 8.24023 61.218 9.23047L61.2121 9.26562H62.2316L62.2375 9.24805C62.4016 8.75586 62.8996 8.47461 63.6555 8.47461C64.5988 8.47461 65.0734 8.89648 65.0734 9.67578V10.25L63.2629 10.3613C61.7922 10.4492 60.9602 11.0996 60.9602 12.2246V12.2363C60.9602 13.3848 61.8684 14.1113 63.0695 14.1113ZM62.0031 12.2129V12.2012C62.0031 11.5742 62.425 11.2344 63.3859 11.1758L65.0734 11.0703V11.6445C65.0734 12.5469 64.3176 13.2266 63.2805 13.2266C62.548 13.2266 62.0031 12.8516 62.0031 12.2129Z" fill="black"/>
<path fill-rule="evenodd" clip-rule="evenodd" d="M84.9828 7.52294C83.0717 5.89057 80.6574 5 78.1327 5C75.6006 5 73.1795 5.89589 71.2661 7.53708L71.1036 7.67646C70.9722 7.78918 70.9647 7.98954 71.0873 8.11176L72.2142 9.23557C72.3236 9.34466 72.4985 9.3521 72.6168 9.2527L72.7564 9.13541C74.2633 7.86943 76.1552 7.18035 78.1327 7.18035C80.1035 7.18035 81.9894 7.86472 83.494 9.12283L83.6336 9.23952C83.7519 9.33847 83.9264 9.33084 84.0356 9.22195L85.1627 8.09797C85.2855 7.97558 85.2777 7.77488 85.1459 7.66228L84.9828 7.52294ZM78.1327 8.46979C79.7236 8.46979 81.251 8.99754 82.4953 9.97486L82.6711 10.113C82.8113 10.2231 82.8236 10.4306 82.6974 10.5564L81.5667 11.6841C81.4621 11.7884 81.2966 11.8003 81.178 11.7122L81.0401 11.6098C80.1997 10.9852 79.1864 10.6501 78.1327 10.6501C77.0726 10.6501 76.0533 10.9893 75.2101 11.6211L75.0721 11.7245C74.9535 11.8133 74.7874 11.8016 74.6825 11.697L73.5522 10.5698C73.4262 10.4442 73.4382 10.2373 73.5777 10.1269L73.7526 9.98871C74.9998 9.00267 76.5342 8.46979 78.1327 8.46979ZM78.1327 11.9396C78.7722 11.9396 79.3936 12.1076 79.9411 12.4281L80.163 12.5579C80.3311 12.6563 80.3607 12.8867 80.2228 13.0242L78.3287 14.913C78.2124 15.029 78.0238 15.029 77.9074 14.913L76.0255 13.0363C75.8882 12.8994 75.9169 12.6702 76.0836 12.5711L76.303 12.4406C76.8555 12.1121 77.4848 11.9396 78.1327 11.9396Z" fill="black"/>
<path d="M21.6 218H23.088V206.256H21.6V218ZM28.7355 218H30.2235V207.52H33.7755V206.256H25.1835V207.52H28.7355V218ZM39.5398 206.384V207.44H44.9318C44.6598 210.848 42.7398 213.6 38.8838 215.44L39.5878 216.512C44.3558 214.176 46.2598 210.528 46.2598 206.384H39.5398ZM49.1558 204.832V219.184H50.4678V204.832H49.1558ZM65.6825 208.88C63.0745 208.592 60.5785 207.184 60.5785 205.44V204.896H59.2345V205.44C59.2345 207.184 56.7065 208.592 54.0985 208.88L54.5465 209.872C56.8345 209.584 58.9945 208.576 59.9065 207.04C60.8025 208.576 62.9625 209.584 65.2345 209.872L65.6825 208.88ZM66.3865 211.872V210.816H53.3945V211.872H59.2345V213.296H54.9625V214.304H63.4265V215.616H55.0105V219.024H65.1545V218H56.2905V216.576H64.7225V213.296H60.5465V211.872H66.3865ZM71.3773 214.816C70.2253 214.816 69.5053 213.36 69.5053 211.008C69.5053 208.704 70.2253 207.248 71.3773 207.248C72.4973 207.248 73.2333 208.704 73.2333 211.008C73.2333 213.36 72.4973 214.816 71.3773 214.816ZM76.2253 210.416H74.4173C74.2573 207.712 73.1053 206.032 71.3773 206.032C69.5053 206.032 68.3053 207.952 68.3053 211.008C68.3053 214.112 69.5053 216.032 71.3773 216.032C73.1373 216.032 74.3053 214.304 74.4173 211.488H76.2253V218.48H77.4733V205.152H76.2253V210.416ZM79.0733 204.832V219.184H80.3213V204.832H79.0733ZM94.8684 210.96C95.2364 209.072 95.2364 207.648 95.2364 206.704V205.952H88.1004V207.024H93.9564C93.9564 207.936 93.9084 209.168 93.5724 210.816L94.8684 210.96ZM96.2284 211.824C94.7724 212.016 93.1404 212.144 91.5724 212.208V209.152H90.2764V212.256C89.1884 212.272 88.1484 212.288 87.2364 212.288L87.3644 213.36C89.9084 213.36 93.3484 213.28 96.3244 212.784L96.2284 211.824ZM90.7404 214.656H89.4284V218.864H98.9644V217.792H90.7404V214.656ZM98.5004 209.504V204.832H97.1884V215.648H98.5004V210.592H100.548V209.504H98.5004ZM110.563 206.592H106.979V204.832H105.667V206.592H102.099V207.648H110.563V206.592ZM104.147 211.104C104.147 210.112 105.027 209.472 106.323 209.472C107.619 209.472 108.515 210.112 108.515 211.104C108.515 212.112 107.619 212.752 106.323 212.752C105.027 212.752 104.147 212.112 104.147 211.104ZM109.763 211.104C109.763 209.504 108.355 208.448 106.323 208.448C104.291 208.448 102.899 209.504 102.899 211.104C102.899 212.72 104.291 213.776 106.323 213.776C108.355 213.776 109.763 212.72 109.763 211.104ZM105.571 214.752H104.259V218.864H113.827V217.792H105.571V214.752ZM113.187 209.568V204.832H111.875V215.6H113.187V210.672H115.299V209.568H113.187ZM125.078 214.784C123.686 214.784 122.71 213.28 122.71 210.944C122.71 208.624 123.686 207.12 125.078 207.12C126.454 207.12 127.43 208.624 127.43 210.944C127.43 213.28 126.454 214.784 125.078 214.784ZM125.078 205.936C122.966 205.936 121.462 207.888 121.462 210.944C121.462 214 122.966 215.952 125.078 215.952C127.19 215.952 128.678 214 128.678 210.944C128.678 207.888 127.19 205.936 125.078 205.936ZM134.662 210.56H132.294V204.848H130.982V219.184H132.294V211.664H134.662V210.56ZM138.181 211.216H143.317V210.16H138.181V207.2H143.845V206.128H136.885V215.728H138.021C140.757 215.728 142.677 215.632 144.917 215.248L144.789 214.176C142.645 214.56 140.789 214.656 138.181 214.656V211.216ZM146.437 204.832V219.168H147.749V204.832H146.437ZM153.556 216.464H162.116V213.12H152.228V214.144H160.836V215.488H152.26V218.992H162.628V217.968H153.556V216.464ZM161.7 210.704C162.036 209.008 162.036 207.728 162.036 206.608V205.52H152.356V206.56H160.74V206.608C160.74 207.024 160.74 207.472 160.724 207.952L152.004 208.224L152.164 209.264L160.66 208.88C160.596 209.424 160.516 210.032 160.372 210.704H150.724V211.76H163.652V210.704H161.7ZM177.559 208.56V209.632H180.391V213.392H181.719V204.848H180.391V208.56H177.559ZM178.359 211.824C176.279 211.088 174.871 209.28 174.871 207.44V206.944H178.023V205.888H170.359V206.944H173.559V207.44C173.559 209.504 172.087 211.44 169.943 212.224L170.631 213.264C172.311 212.624 173.639 211.28 174.247 209.616C174.871 211.088 176.103 212.272 177.703 212.848L178.359 211.824ZM176.983 218.16C174.823 218.16 173.511 217.552 173.511 216.512C173.511 215.472 174.823 214.848 176.983 214.848C179.143 214.848 180.455 215.472 180.455 216.512C180.455 217.552 179.143 218.16 176.983 218.16ZM176.983 213.84C174.039 213.84 172.199 214.816 172.199 216.512C172.199 218.208 174.039 219.184 176.983 219.184C179.927 219.184 181.767 218.208 181.767 216.512C181.767 214.816 179.927 213.84 176.983 213.84ZM186.758 211.28H192.054V206.16H185.398V207.232H190.726V210.224H185.446V215.728H186.63C189.094 215.728 191.27 215.632 193.862 215.2L193.734 214.128C191.222 214.528 189.11 214.64 186.758 214.64V211.28ZM195.078 204.816V219.2H196.39V204.816H195.078ZM203.54 214.896C202.244 214.896 201.3 213.968 201.3 212.688C201.3 211.392 202.244 210.464 203.54 210.464C204.852 210.464 205.796 211.392 205.796 212.688C205.796 213.968 204.852 214.896 203.54 214.896ZM203.54 209.376C201.524 209.376 200.068 210.752 200.068 212.688C200.068 214.64 201.524 215.984 203.54 215.984C205.588 215.984 207.044 214.64 207.044 212.688C207.044 210.752 205.588 209.376 203.54 209.376ZM204.18 205.008H202.868V207.136H199.252V208.192H207.716V207.136H204.18V205.008ZM212.74 210.736H210.388V204.848H209.076V219.184H210.388V211.84H212.74V210.736ZM214.899 206.384V207.44H220.291C220.019 210.848 218.099 213.6 214.243 215.44L214.947 216.512C219.715 214.176 221.619 210.528 221.619 206.384H214.899ZM224.515 204.832V219.184H225.827V204.832H224.515Z" fill="#333333"/>
<rect x="20" y="228" width="343" height="1" fill="#FF7556"/>
<path d="M330.629 218.156C332.297 218.156 333.365 216.632 333.365 213.572C333.365 210.524 332.297 209.036 330.629 209.036C328.949 209.036 327.881 210.512 327.881 213.572C327.881 216.632 328.949 218.156 330.629 218.156ZM330.629 217.28C329.621 217.28 328.949 216.164 328.949 213.572C328.949 211.004 329.621 209.912 330.629 209.912C331.625 209.912 332.297 211.004 332.297 213.572C332.297 216.164 331.625 217.28 330.629 217.28Z" fill="#FF7556"/>
<path d="M334.081 220.148H334.885L338.473 208.472H337.681L334.081 220.148ZM339.176 218H344.708V217.052H342.272C341.828 217.052 341.288 217.1 340.832 217.136C342.896 215.18 344.276 213.392 344.276 211.64C344.276 210.068 343.292 209.036 341.72 209.036C340.604 209.036 339.848 209.552 339.128 210.332L339.764 210.956C340.244 210.38 340.868 209.936 341.588 209.936C342.68 209.936 343.208 210.668 343.208 211.676C343.208 213.188 341.936 214.94 339.176 217.352V218ZM348.641 218.156C350.309 218.156 351.377 216.632 351.377 213.572C351.377 210.524 350.309 209.036 348.641 209.036C346.961 209.036 345.893 210.512 345.893 213.572C345.893 216.632 346.961 218.156 348.641 218.156ZM348.641 217.28C347.633 217.28 346.961 216.164 346.961 213.572C346.961 211.004 347.633 209.912 348.641 209.912C349.637 209.912 350.309 211.004 350.309 213.572C350.309 216.164 349.637 217.28 348.641 217.28ZM356.221 210.044H358.609V209.228H352.789V210.044H355.249V211.412C355.249 213.236 353.953 215.276 352.417 216.044L352.993 216.824C354.205 216.2 355.249 214.832 355.741 213.26C356.233 214.7 357.241 215.96 358.441 216.56L359.005 215.768C357.445 215.036 356.221 213.128 356.221 211.412V210.044ZM362.653 212.468H360.877V208.136H359.893V218.888H360.877V213.296H362.653V212.468Z" fill="#C9C9C9"/>
<path d="M176.642 44.38V46.06H183.082C182.722 50.22 180.482 53.4 175.742 55.68L176.842 57.32C183.042 54.32 185.202 49.76 185.202 44.38H176.642ZM188.462 42.48V60.54H190.522V42.48H188.462ZM195.84 56.84H206.36V60.44H208.42V55.18H195.84V56.84ZM203.22 52.3V50.66H208.68V49.08H198.12V47.48H208.32V42.9H196.06V44.48H206.28V46H196.1V50.66H201.16V52.3H194V53.96H210.38V52.3H203.22Z" fill="#333333"/>
<path d="M41 50H23" stroke="#333333" stroke-linecap="round"/>
<path d="M29 44L23 50L29 56" stroke="#333333" stroke-linecap="round"/>
<path d="M47.46 275.27H39.24V270.71H47.325V270.035H38.46V275.945H47.46V275.27ZM36.84 279.44V280.115H48.93V279.44H36.84ZM51.9738 278.09V274.565H57.1038V270.02H51.1488V270.71H56.3238V273.875H51.1938V278.765H52.2138C54.8988 278.765 56.6238 278.66 58.7388 278.27L58.6638 277.58C56.5938 277.985 54.8538 278.09 52.2138 278.09H51.9738ZM63.1038 274.19H60.7788V268.73H59.9838V282.065H60.7788V274.865H63.1038V274.19ZM65.8327 270.77H70.2427V277.91H65.8327V270.77ZM65.0527 278.57H71.0077V270.11H65.0527V278.57ZM76.9027 274.22H74.5777V268.73H73.7827V282.035H74.5777V274.895H76.9027V274.22ZM92.9317 275.645C91.0417 275.27 87.9667 273.26 87.9667 270.8V269.735H87.1417V270.8C87.1417 273.275 84.1117 275.255 82.2067 275.645L82.5817 276.32C84.3517 275.855 86.7367 274.385 87.5617 272.3C88.3867 274.385 90.8017 275.87 92.5567 276.32L92.9317 275.645ZM81.5617 279.47V280.145H93.6517V279.47H81.5617ZM96.7705 278.045V274.43H101.796V273.755H96.7705V270.665H102.156V269.99H95.9755V278.72H96.9805C99.5905 278.72 101.286 278.63 103.371 278.255L103.266 277.58C101.256 277.955 99.5605 278.045 96.9805 278.045H96.7705ZM107.826 274.25H105.501V268.715H104.706V282.05H105.501V274.925H107.826V274.25ZM119.809 276.095H111.604V273.635H119.389V272.975H111.604V270.635H119.674V269.96H110.794V276.77H119.809V276.095ZM109.159 279.545V280.22H121.249V279.545H109.159ZM133.023 281.18H126.288V279.17H133.023V281.18ZM133.023 278.51H126.288V276.575H125.493V281.84H133.818V276.575H133.023V278.51ZM126.573 274.76C125.058 274.76 123.963 273.74 123.963 272.405C123.963 271.04 125.058 270.05 126.573 270.05C128.088 270.05 129.183 271.04 129.183 272.405C129.183 273.74 128.088 274.76 126.573 274.76ZM133.023 268.73V272.03H129.933C129.738 270.425 128.403 269.375 126.573 269.375C124.593 269.375 123.198 270.59 123.198 272.405C123.198 274.205 124.593 275.435 126.573 275.435C128.433 275.435 129.768 274.355 129.933 272.72H133.023V275.87H133.818V268.73H133.023ZM141.342 270.845H143.892V270.17H140.562V278.42H141.102C141.747 278.42 142.827 278.405 144.162 278.105L144.072 277.43C142.977 277.685 141.972 277.73 141.342 277.745V270.845ZM145.467 270.845H148.182V270.17H144.687V278.42H145.287C146.517 278.42 147.552 278.375 148.842 278.075L148.737 277.4C147.582 277.685 146.562 277.745 145.467 277.745V270.845ZM152.532 274.115H150.402V268.715H149.607V282.05H150.402V274.79H152.532V274.115ZM155.216 278.09V274.565H160.346V270.02H154.391V270.71H159.566V273.875H154.436V278.765H155.456C158.141 278.765 159.866 278.66 161.981 278.27L161.906 277.58C159.836 277.985 158.096 278.09 155.456 278.09H155.216ZM166.346 274.19H164.021V268.73H163.226V282.065H164.021V274.865H166.346V274.19ZM175.3 275.24C173.455 274.61 171.955 273.02 171.955 271.175V270.365H175.09V269.705H167.995V270.365H171.16V271.19C171.16 273.2 169.57 274.865 167.71 275.525L168.1 276.155C169.69 275.57 171.025 274.34 171.58 272.75C172.12 274.205 173.38 275.345 174.91 275.87L175.3 275.24ZM177.16 281.165H170.515V279.215H177.16V281.165ZM177.16 278.555H170.515V276.695H169.735V281.84H177.955V276.695H177.16V278.555ZM180.04 271.955H177.955V268.73H177.16V276.02H177.955V272.645H180.04V271.955ZM182.304 270.2V270.875H187.629C187.419 274.16 185.394 276.995 181.734 278.765L182.169 279.425C186.459 277.31 188.424 273.92 188.424 270.2H182.304ZM191.529 268.73V282.05H192.324V268.73H191.529ZM196.613 278.09V274.565H201.743V270.02H195.788V270.71H200.963V273.875H195.833V278.765H196.853C199.538 278.765 201.263 278.66 203.378 278.27L203.303 277.58C201.233 277.985 199.493 278.09 196.853 278.09H196.613ZM207.743 274.19H205.418V268.73H204.623V282.065H205.418V274.865H207.743V274.19ZM219.741 272.975H211.581V269.21H210.786V273.65H219.741V272.975ZM211.521 277.85H210.726V281.705H219.816V281.03H211.521V277.85ZM209.076 275.675V276.35H221.166V275.675H209.076ZM228.495 279.23H236.73V276.095H227.685V276.755H235.95V278.585H227.715V281.84H237.06V281.18H228.495V279.23ZM236.325 273.845C236.64 272.255 236.64 271.04 236.64 270.14V269.3H227.775V269.975H235.875V270.14C235.875 271.055 235.875 272.21 235.545 273.845H226.2V274.52H238.29V273.845H236.325ZM246.029 269.6C248.354 269.6 249.824 270.245 249.824 271.295C249.824 272.36 248.354 273.005 246.029 273.005C243.704 273.005 242.234 272.36 242.234 271.295C242.234 270.245 243.704 269.6 246.029 269.6ZM246.029 273.635C248.924 273.635 250.634 272.81 250.634 271.295C250.634 269.795 248.924 268.97 246.029 268.97C243.134 268.97 241.424 269.795 241.424 271.295C241.424 272.81 243.134 273.635 246.029 273.635ZM242.324 279.485H250.454V276.74H241.514V277.385H249.674V278.87H241.544V281.855H250.889V281.195H242.324V279.485ZM239.999 274.685V275.36H252.044V274.685H239.999ZM259.433 272.975H266.903V275.78H259.433V272.975ZM263.543 279.59V276.455H267.683V269.72H266.903V272.3H259.433V269.72H258.638V276.455H262.748V279.59H257.123V280.265H269.228V279.59H263.543ZM280.567 271.535C280.567 273.14 280.567 274.955 280.087 277.445L280.897 277.565C281.362 274.955 281.362 273.155 281.362 271.535V270.2H272.242V270.86H280.567V271.535ZM276.652 279.335V274.46H275.872V279.335H270.937V280.01H282.982V279.335H276.652ZM290.386 274.625C290.821 273.35 291.196 272.195 291.571 270.875H291.631C292.021 272.195 292.381 273.35 292.831 274.625L293.491 276.605H289.711L290.386 274.625ZM287.326 281H288.226L289.471 277.325H293.731L294.946 281H295.906L292.081 270.065H291.151L287.326 281ZM297.6 281H298.5V270.065H297.6V281ZM305.287 269.75C303.217 269.75 301.777 270.98 301.777 272.795C301.777 274.61 303.217 275.84 305.287 275.84C307.357 275.84 308.797 274.61 308.797 272.795C308.797 270.98 307.357 269.75 305.287 269.75ZM305.287 270.44C306.877 270.44 308.032 271.43 308.032 272.795C308.032 274.16 306.877 275.15 305.287 275.15C303.697 275.15 302.542 274.16 302.542 272.795C302.542 271.43 303.697 270.44 305.287 270.44ZM310.837 268.73V282.065H311.632V268.73H310.837ZM301.162 278.99C303.592 278.99 306.907 278.99 309.967 278.435L309.892 277.82C306.922 278.285 303.517 278.3 301.027 278.3L301.162 278.99ZM318.886 270.095V278.585H324.856V270.095H318.886ZM324.076 270.755V277.925H319.666V270.755H324.076ZM328.081 268.73V282.05H328.876V268.73H328.081ZM333.135 278.03V274.64H337.275V270.245H332.325V270.935H336.51V273.965H332.355V278.72H333.195C334.875 278.72 336.405 278.645 338.355 278.3L338.265 277.625C336.375 277.97 334.845 278.03 333.195 278.03H333.135ZM342.33 268.715V274.13H340.035V269.045H339.27V281.33H340.035V274.805H342.33V282.05H343.11V268.715H342.33ZM39.855 304.24C38.625 304.24 37.785 302.68 37.785 300.445C37.785 298.225 38.625 296.65 39.855 296.65C41.1 296.65 41.925 298.225 41.925 300.445C41.925 302.68 41.1 304.24 39.855 304.24ZM44.73 300.07H42.675C42.57 297.535 41.49 295.93 39.855 295.93C38.16 295.93 37.05 297.685 37.05 300.445C37.05 303.205 38.16 304.96 39.855 304.96C41.505 304.96 42.585 303.34 42.675 300.745H44.73V307.33H45.495V295.045H44.73V300.07ZM47.34 294.715V308.05H48.105V294.715H47.34ZM55.299 303.895V297.07H59.484V296.38H54.519V304.585H55.344C57.534 304.585 58.824 304.51 60.399 304.165L60.294 303.475C58.794 303.835 57.504 303.895 55.344 303.895H55.299ZM64.434 294.73V300.205H62.139V295.06H61.374V307.315H62.139V300.88H64.434V308.035H65.214V294.73H64.434ZM75.7129 296.5H72.1729V294.745H71.3779V296.5H67.8229V297.16H75.7129V296.5ZM69.3679 300.49C69.3679 299.425 70.3429 298.69 71.7679 298.69C73.1929 298.69 74.1529 299.425 74.1529 300.49C74.1529 301.525 73.1929 302.275 71.7679 302.275C70.3429 302.275 69.3679 301.525 69.3679 300.49ZM74.9029 300.49C74.9029 299.005 73.6579 298.045 71.7679 298.045C69.8779 298.045 68.6179 299.005 68.6179 300.49C68.6179 301.96 69.8779 302.92 71.7679 302.92C73.6579 302.92 74.9029 301.96 74.9029 300.49ZM70.7029 303.925H69.9079V307.72H78.6979V307.045H70.7029V303.925ZM78.0379 299.305V294.745H77.2429V304.75H78.0379V299.98H80.1229V299.305H78.0379ZM85.5019 295.78V296.455H90.7369C90.5269 299.11 88.2469 301.18 84.9919 302.26L85.3369 302.92C89.0569 301.675 91.5919 299.125 91.5919 295.78H85.5019ZM87.8269 303.58H87.0319V307.72H95.8219V307.045H87.8269V303.58ZM95.1469 298.96V294.73H94.3519V304.6H95.1469V299.65H97.2469V298.96H95.1469ZM106.531 300.76C104.626 301.135 103.021 301.225 100.366 301.225H100.171V296.59H105.226V295.915H99.3757V301.915H100.366C103.066 301.915 104.686 301.81 106.621 301.435L106.531 300.76ZM101.626 303.445H100.831V307.72H109.621V307.045H101.626V303.445ZM108.961 298.855V294.7H108.166V304.375H108.961V299.545H111.046V298.855H108.961ZM120.435 296.5H116.895V294.745H116.1V296.5H112.545V297.16H120.435V296.5ZM114.09 300.49C114.09 299.425 115.065 298.69 116.49 298.69C117.915 298.69 118.875 299.425 118.875 300.49C118.875 301.525 117.915 302.275 116.49 302.275C115.065 302.275 114.09 301.525 114.09 300.49ZM119.625 300.49C119.625 299.005 118.38 298.045 116.49 298.045C114.6 298.045 113.34 299.005 113.34 300.49C113.34 301.96 114.6 302.92 116.49 302.92C118.38 302.92 119.625 301.96 119.625 300.49ZM115.425 303.925H114.63V307.72H123.42V307.045H115.425V303.925ZM122.76 299.305V294.745H121.965V304.75H122.76V299.98H124.845V299.305H122.76ZM139.254 297.535C139.254 299.14 139.254 300.955 138.774 303.445L139.584 303.565C140.049 300.955 140.049 299.155 140.049 297.535V296.2H130.929V296.86H139.254V297.535ZM135.339 305.335V300.46H134.559V305.335H129.624V306.01H141.669V305.335H135.339ZM151.177 300.73C149.347 300.205 147.742 298.885 147.742 297.295V296.89H150.877V296.215H147.757V294.64H146.962V296.215H143.797V296.89H146.962V297.295C146.962 299.065 145.267 300.46 143.437 300.985L143.812 301.63C145.387 301.135 146.812 300.07 147.367 298.645C147.937 299.92 149.272 300.91 150.832 301.345L151.177 300.73ZM146.227 305.425H153.682V302.545H145.417V303.205H152.902V304.795H145.447V307.855H154.222V307.195H146.227V305.425ZM153.682 297.865V294.715H152.887V301.81H153.682V298.54H155.752V297.865H153.682ZM163.236 295.6C165.561 295.6 167.031 296.245 167.031 297.295C167.031 298.36 165.561 299.005 163.236 299.005C160.911 299.005 159.441 298.36 159.441 297.295C159.441 296.245 160.911 295.6 163.236 295.6ZM163.236 299.635C166.131 299.635 167.841 298.81 167.841 297.295C167.841 295.795 166.131 294.97 163.236 294.97C160.341 294.97 158.631 295.795 158.631 297.295C158.631 298.81 160.341 299.635 163.236 299.635ZM159.531 305.485H167.661V302.74H158.721V303.385H166.881V304.87H158.751V307.855H168.096V307.195H159.531V305.485ZM157.206 300.685V301.36H169.251V300.685H157.206ZM182.28 296.065H178.74V294.55H177.945V296.065H174.39V296.71H182.28V296.065ZM175.935 299.665C175.935 298.72 176.895 298.09 178.335 298.09C179.775 298.09 180.72 298.72 180.72 299.665C180.72 300.61 179.775 301.24 178.335 301.24C176.895 301.24 175.935 300.61 175.935 299.665ZM181.47 299.665C181.47 298.285 180.225 297.475 178.335 297.475C176.43 297.475 175.185 298.285 175.185 299.665C175.185 301.03 176.43 301.855 178.335 301.855C180.225 301.855 181.47 301.03 181.47 299.665ZM177.15 305.605H184.605V302.875H176.34V303.52H183.825V304.975H176.37V307.855H185.145V307.21H177.15V305.605ZM184.605 298.075V294.655H183.81V302.11H184.605V298.765H186.69V298.075H184.605ZM202.794 299.995C200.799 299.665 197.904 298.105 197.904 296.065V295.24H197.079V296.065C197.079 298.165 194.214 299.665 192.174 299.995L192.519 300.655C194.394 300.295 196.704 299.14 197.499 297.37C198.294 299.11 200.619 300.295 202.464 300.655L202.794 299.995ZM203.514 302.38H191.454V303.055H197.064V308.035H197.859V303.055H203.499L203.514 302.38ZM219.423 294.73H218.628V302.38H219.423V294.73ZM212.328 296.23C213.858 296.23 214.953 297.235 214.953 298.615C214.953 299.98 213.858 300.985 212.328 300.985C210.828 300.985 209.733 299.98 209.733 298.615C209.733 297.235 210.828 296.23 212.328 296.23ZM212.328 301.66C214.323 301.66 215.718 300.43 215.718 298.615C215.718 296.785 214.323 295.555 212.328 295.555C210.363 295.555 208.968 296.785 208.968 298.615C208.968 300.43 210.363 301.66 212.328 301.66ZM217.848 302.98H217.083V303.865C217.083 304.915 216.318 306.385 214.968 307.18C213.618 306.475 212.883 305.11 212.883 303.865V302.98H212.118V303.865C212.118 305.14 210.963 306.625 209.328 307.255L209.733 307.87C211.023 307.345 211.998 306.355 212.478 305.245C212.838 306.4 213.678 307.45 214.983 307.975C216.228 307.405 217.068 306.31 217.458 305.215C217.908 306.37 218.898 307.36 220.248 307.87L220.653 307.255C218.988 306.67 217.848 305.245 217.848 303.865V302.98ZM225.992 296.185C227.492 296.185 228.587 297.22 228.587 298.6C228.587 299.95 227.492 300.985 225.992 300.985C224.507 300.985 223.412 299.95 223.412 298.6C223.412 297.22 224.507 296.185 225.992 296.185ZM232.442 298.885V302.395H233.237V294.715H232.442V298.21H229.322C229.142 296.59 227.792 295.51 225.992 295.51C224.057 295.51 222.647 296.77 222.647 298.6C222.647 300.415 224.057 301.66 225.992 301.66C227.837 301.66 229.187 300.535 229.337 298.885H232.442ZM231.677 302.92H230.912V303.865C230.912 304.915 230.147 306.4 228.797 307.195C227.447 306.49 226.712 305.11 226.712 303.865V302.92H225.962V303.865C225.962 305.14 224.792 306.64 223.157 307.27L223.562 307.885C224.852 307.375 225.842 306.37 226.307 305.26C226.682 306.43 227.522 307.465 228.812 307.99C230.072 307.42 230.897 306.31 231.287 305.215C231.737 306.37 232.727 307.375 234.077 307.885L234.482 307.27C232.817 306.67 231.677 305.245 231.677 303.865V302.92ZM237.586 303.97V296.725H242.956V296.05H236.791V304.66H237.796C240.406 304.66 242.116 304.57 244.186 304.18L244.081 303.49C242.086 303.865 240.376 303.97 237.796 303.97H237.586ZM248.641 300.19H246.316V294.73H245.521V308.065H246.316V300.865H248.641V300.19ZM251.01 307.195C251.415 307.195 251.775 306.88 251.775 306.385C251.775 305.875 251.415 305.56 251.01 305.56C250.605 305.56 250.245 305.875 250.245 306.385C250.245 306.88 250.605 307.195 251.01 307.195ZM46.86 320.73V334.05H47.655V320.73H46.86ZM40.725 321.81C38.775 321.81 37.41 323.61 37.41 326.385C37.41 329.175 38.775 330.96 40.725 330.96C42.66 330.96 44.025 329.175 44.025 326.385C44.025 323.61 42.66 321.81 40.725 321.81ZM40.725 322.515C42.21 322.515 43.26 324.105 43.26 326.385C43.26 328.665 42.21 330.27 40.725 330.27C39.225 330.27 38.175 328.665 38.175 326.385C38.175 324.105 39.225 322.515 40.725 322.515ZM56.259 331.23H64.494V328.095H55.449V328.755H63.714V330.585H55.479V333.84H64.824V333.18H56.259V331.23ZM64.089 325.845C64.404 324.255 64.404 323.04 64.404 322.14V321.3H55.539V321.975H63.639V322.14C63.639 323.055 63.639 324.21 63.309 325.845H53.964V326.52H66.054V325.845H64.089ZM73.7929 321.6C76.1179 321.6 77.5879 322.245 77.5879 323.295C77.5879 324.36 76.1179 325.005 73.7929 325.005C71.4679 325.005 69.9979 324.36 69.9979 323.295C69.9979 322.245 71.4679 321.6 73.7929 321.6ZM73.7929 325.635C76.6879 325.635 78.3979 324.81 78.3979 323.295C78.3979 321.795 76.6879 320.97 73.7929 320.97C70.8979 320.97 69.1879 321.795 69.1879 323.295C69.1879 324.81 70.8979 325.635 73.7929 325.635ZM70.0879 331.485H78.2179V328.74H69.2779V329.385H77.4379V330.87H69.3079V333.855H78.6529V333.195H70.0879V331.485ZM67.7629 326.685V327.36H79.8079V326.685H67.7629ZM87.1969 324.975H94.6669V327.78H87.1969V324.975ZM91.3069 331.59V328.455H95.4469V321.72H94.6669V324.3H87.1969V321.72H86.4019V328.455H90.5119V331.59H84.8869V332.265H96.9919V331.59H91.3069ZM108.331 323.535C108.331 325.14 108.331 326.955 107.851 329.445L108.661 329.565C109.126 326.955 109.126 325.155 109.126 323.535V322.2H100.006V322.86H108.331V323.535ZM104.416 331.335V326.46H103.636V331.335H98.7007V332.01H110.746V331.335H104.416ZM118.15 326.625C118.585 325.35 118.96 324.195 119.335 322.875H119.395C119.785 324.195 120.145 325.35 120.595 326.625L121.255 328.605H117.475L118.15 326.625ZM115.09 333H115.99L117.235 329.325H121.495L122.71 333H123.67L119.845 322.065H118.915L115.09 333ZM125.363 333H126.263V322.065H125.363V333ZM138.941 326.385C139.316 324.585 139.316 323.25 139.316 322.425V321.81H132.836V322.47H138.536C138.536 323.295 138.536 324.525 138.146 326.31L138.941 326.385ZM140.456 327.33C139.001 327.525 137.396 327.645 135.851 327.705V324.69H135.056V327.735C133.961 327.765 132.926 327.765 132.011 327.765L132.116 328.47C134.486 328.455 137.726 328.395 140.516 327.945L140.456 327.33ZM134.906 329.85H134.111V333.72H142.676V333.045H134.906V329.85ZM142.241 325.215V320.73H141.446V330.795H142.241V325.905H144.341V325.215H142.241ZM155.889 330.51H156.684V320.745H155.889V323.1H153.024V323.775H155.889V326.085H153.024V326.76H155.889V330.51ZM153.039 327.615C151.374 327.9 150.024 327.96 147.354 327.96H147.204V325.35H152.049V321.69H146.379V322.35H151.254V324.69H146.409V328.635H147.354C150.039 328.635 151.404 328.575 153.129 328.29L153.039 327.615ZM149.034 332.955V329.835H148.254V333.63H157.134V332.955H149.034ZM165.243 331.23H173.478V328.095H164.433V328.755H172.698V330.585H164.463V333.84H173.808V333.18H165.243V331.23ZM173.073 325.845C173.388 324.255 173.388 323.04 173.388 322.14V321.3H164.523V321.975H172.623V322.14C172.623 323.055 172.623 324.21 172.293 325.845H162.948V326.52H175.038V325.845H173.073ZM182.777 321.6C185.102 321.6 186.572 322.245 186.572 323.295C186.572 324.36 185.102 325.005 182.777 325.005C180.452 325.005 178.982 324.36 178.982 323.295C178.982 322.245 180.452 321.6 182.777 321.6ZM182.777 325.635C185.672 325.635 187.382 324.81 187.382 323.295C187.382 321.795 185.672 320.97 182.777 320.97C179.882 320.97 178.172 321.795 178.172 323.295C178.172 324.81 179.882 325.635 182.777 325.635ZM179.072 331.485H187.202V328.74H178.262V329.385H186.422V330.87H178.292V333.855H187.637V333.195H179.072V331.485ZM176.747 326.685V327.36H188.792V326.685H176.747ZM195.371 330.03V322.74H200.651V322.035H194.576V330.72H195.551C198.146 330.72 199.781 330.63 201.776 330.24L201.656 329.565C199.736 329.94 198.101 330.03 195.551 330.03H195.371ZM203.951 320.73V325.695H199.796V326.37H203.951V334.065H204.746V320.73H203.951ZM218.705 327.375C216.875 326.805 215.33 325.29 215.33 323.52V323.1H218.48V322.44H215.345V320.64H214.55V322.44H211.385V323.1H214.55V323.52C214.55 325.44 212.93 327.03 211.085 327.66L211.475 328.29C213.05 327.72 214.4 326.565 214.955 325.035C215.525 326.43 216.8 327.51 218.315 328.02L218.705 327.375ZM221.525 330.045V329.37H212.915V330.045H216.815C216.74 331.71 214.385 333 212.435 333.375L212.75 333.99C214.535 333.63 216.5 332.625 217.22 331.17C217.955 332.61 219.92 333.645 221.69 334.005L222.005 333.375C220.055 333 217.7 331.695 217.625 330.045H221.525ZM221.27 324.195V320.73H220.475V328.545H221.27V324.87H223.355V324.195H221.27ZM228.334 330.27C226.864 330.27 225.829 328.65 225.829 326.385C225.829 324.105 226.864 322.515 228.334 322.515C229.804 322.515 230.839 324.105 230.839 326.385C230.839 328.65 229.804 330.27 228.334 330.27ZM228.334 321.81C226.414 321.81 225.079 323.61 225.079 326.385C225.079 329.175 226.414 330.96 228.334 330.96C230.254 330.96 231.589 329.175 231.589 326.385C231.589 323.61 230.254 321.81 228.334 321.81ZM237.259 326.22H234.934V320.73H234.139V334.05H234.934V326.895H237.259V326.22ZM240.903 324.975H248.373V327.78H240.903V324.975ZM245.013 331.59V328.455H249.153V321.72H248.373V324.3H240.903V321.72H240.108V328.455H244.218V331.59H238.593V332.265H250.698V331.59H245.013ZM262.037 323.535C262.037 325.14 262.037 326.955 261.557 329.445L262.367 329.565C262.832 326.955 262.832 325.155 262.832 323.535V322.2H253.712V322.86H262.037V323.535ZM258.122 331.335V326.46H257.342V331.335H252.407V332.01H264.452V331.335H258.122ZM276.581 324.33V325.005H279.581V328.665H280.376V320.73H279.581V324.33H276.581ZM277.271 327.45C275.456 326.79 273.911 325.11 273.911 323.295V322.47H277.031V321.795H269.951V322.47H273.131V323.31C273.131 325.335 271.511 327.135 269.666 327.84L270.071 328.485C271.646 327.855 273.011 326.52 273.551 324.84C274.091 326.31 275.366 327.51 276.866 328.08L277.271 327.45ZM276.071 333.375C273.896 333.375 272.501 332.7 272.501 331.59C272.501 330.48 273.896 329.805 276.071 329.805C278.246 329.805 279.656 330.48 279.656 331.59C279.656 332.7 278.246 333.375 276.071 333.375ZM276.071 329.16C273.356 329.16 271.706 330.03 271.706 331.59C271.706 333.15 273.356 334.02 276.071 334.02C278.771 334.02 280.436 333.15 280.436 331.59C280.436 330.03 278.771 329.16 276.071 329.16ZM284.92 330.09V326.535H290.17V322.02H284.08V322.71H289.39V325.86H284.125V330.765H285.19C287.38 330.765 289.435 330.675 291.985 330.27L291.91 329.595C289.39 329.985 287.335 330.09 285.19 330.09H284.92ZM293.35 320.73V334.065H294.145V320.73H293.35ZM305.408 325.215H307.508V328.995H308.273V320.745H307.508V324.525H305.408V320.94H304.643V328.77H305.408V325.215ZM303.983 322.395H300.923V320.76H300.128V322.395H297.053V323.055H303.983V322.395ZM300.518 324.495C301.778 324.495 302.618 325.17 302.618 326.115C302.618 327.075 301.778 327.75 300.518 327.75C299.273 327.75 298.433 327.075 298.433 326.115C298.433 325.17 299.273 324.495 300.518 324.495ZM300.518 328.38C302.213 328.38 303.353 327.51 303.353 326.115C303.353 324.735 302.213 323.88 300.518 323.88C298.853 323.88 297.713 324.735 297.713 326.115C297.713 327.51 298.853 328.38 300.518 328.38ZM306.548 329.37H305.783V329.955C305.783 330.99 305.018 332.43 303.668 333.195C302.333 332.505 301.583 331.17 301.583 329.955V329.37H300.818V329.955C300.818 331.2 299.648 332.67 298.028 333.27L298.418 333.885C299.708 333.375 300.698 332.385 301.178 331.305C301.538 332.445 302.378 333.48 303.683 333.99C304.928 333.45 305.768 332.355 306.158 331.275C306.608 332.4 307.613 333.39 308.948 333.885L309.338 333.27C307.703 332.7 306.548 331.305 306.548 329.955V329.37ZM312.322 329.97V322.725H317.692V322.05H311.527V330.66H312.532C315.142 330.66 316.852 330.57 318.922 330.18L318.817 329.49C316.822 329.865 315.112 329.97 312.532 329.97H312.322ZM323.377 326.19H321.052V320.73H320.257V334.065H321.052V326.865H323.377V326.19ZM325.746 333.195C326.151 333.195 326.511 332.88 326.511 332.385C326.511 331.875 326.151 331.56 325.746 331.56C325.341 331.56 324.981 331.875 324.981 332.385C324.981 332.88 325.341 333.195 325.746 333.195Z" fill="#333333"/>
<path d="M168.859 604.854C166.375 604.026 165.007 602.028 165.007 599.976V599.688H168.409V598.176H159.679V599.688H163.135V599.976C163.135 602.208 161.713 604.278 159.139 605.142L160.111 606.6C162.019 605.934 163.369 604.602 164.089 602.892C164.791 604.44 166.087 605.682 167.905 606.276L168.859 604.854ZM161.299 609.21H170.137V613.386H171.991V607.716H161.299V609.21ZM174.295 601.272H171.991V597.114H170.137V606.924H171.991V602.802H174.295V601.272ZM187.469 606.708H189.323V597.114H187.469V600.372H184.175V601.884H187.469V606.708ZM185.507 604.602C183.041 603.792 181.691 601.758 181.691 599.508V597.996H179.819V599.598C179.819 601.974 178.397 604.17 175.787 605.052L176.759 606.546C178.721 605.844 180.089 604.422 180.809 602.622C181.511 604.206 182.771 605.43 184.517 606.06L185.507 604.602ZM183.905 611.928C181.601 611.928 180.287 611.334 180.287 610.272C180.287 609.21 181.601 608.616 183.905 608.616C186.209 608.616 187.541 609.21 187.541 610.272C187.541 611.334 186.209 611.928 183.905 611.928ZM183.905 607.158C180.521 607.158 178.433 608.31 178.433 610.272C178.433 612.234 180.521 613.386 183.905 613.386C187.307 613.386 189.395 612.234 189.395 610.272C189.395 608.31 187.307 607.158 183.905 607.158ZM194.992 601.074C194.992 599.958 195.946 599.238 197.296 599.238C198.664 599.238 199.582 599.958 199.582 601.074C199.582 602.208 198.664 602.928 197.296 602.928C195.946 602.928 194.992 602.208 194.992 601.074ZM202.336 605.268C201.04 605.466 199.636 605.574 198.25 605.664V604.26C200.086 603.954 201.31 602.73 201.31 601.074C201.31 599.148 199.654 597.834 197.296 597.834C194.938 597.834 193.264 599.148 193.264 601.074C193.264 602.748 194.524 603.972 196.396 604.26V605.736C194.938 605.79 193.552 605.79 192.382 605.79L192.616 607.302C195.334 607.302 199.114 607.248 202.462 606.618L202.336 605.268ZM196.486 608.508H194.632V613.062H205.702V611.568H196.486V608.508ZM205.144 602.46V597.15H203.29V609.57H205.144V603.99H207.376V602.46H205.144ZM214.755 607.14H218.085V609.948H214.755V607.14ZM219.921 609.948V607.14H222.315V605.646H212.577V603.396H221.955V598.266H210.723V599.76H220.119V601.92H210.759V607.14H212.919V609.948H208.977V611.478H223.701V609.948H219.921Z" fill="white"/>
<path d="M27.175 118.75C25.725 118.75 24.775 117.225 24.775 113.925C24.775 110.625 25.725 109.1 27.175 109.1C28.65 109.1 29.6 110.625 29.6 113.925C29.6 117.225 28.65 118.75 27.175 118.75ZM27.175 105.425C23.575 105.425 20.875 108.675 20.875 113.925C20.875 119.175 23.575 122.425 27.175 122.425C30.8 122.425 33.5 119.175 33.5 113.925C33.5 108.675 30.8 105.425 27.175 105.425ZM42.6 112.475H39.45V103.9H35.4V127.375H39.45V115.775H42.6V112.475ZM54.498 107.1C57.448 107.1 58.948 107.55 58.948 108.575C58.948 109.625 57.448 110.075 54.498 110.075C51.573 110.075 50.048 109.625 50.048 108.575C50.048 107.55 51.573 107.1 54.498 107.1ZM54.498 113.1C59.723 113.1 63.123 111.4 63.123 108.575C63.123 105.8 59.723 104.075 54.498 104.075C49.273 104.075 45.873 105.8 45.873 108.575C45.873 111.4 49.273 113.1 54.498 113.1ZM56.523 120.025H52.348V120.275C52.348 121.7 50.748 123.85 45.148 124.3L46.448 127.3C50.448 126.975 52.998 125.7 54.423 124.025C55.823 125.725 58.398 126.95 62.423 127.3L63.723 124.3C57.998 123.875 56.523 121.85 56.523 120.275V120.025ZM43.873 114V117.175H52.423V119.175H56.473V117.175H65.098V114H43.873ZM79.5711 110.25H75.3711V107.575H79.5711V110.25ZM71.3461 110.25H68.8711V113.4H86.0461V110.25H83.5961V107.575H86.2961V104.425H68.6461V107.575H71.3461V110.25ZM79.5211 120.425H75.3461V120.7C75.3461 122 73.7461 123.95 68.1711 124.35L69.3961 127.3C73.4211 127.025 75.9961 125.825 77.4211 124.225C78.8211 125.85 81.4211 127 85.4711 127.3L86.6961 124.35C81.0211 123.975 79.5211 122.125 79.5211 120.7V120.425ZM66.8711 114.525V117.7H75.4211V119.65H79.4711V117.7H88.1211V114.525H66.8711ZM95.3441 119.7C93.7941 119.7 92.8441 117.675 92.8441 114.1C92.8441 110.525 93.7941 108.525 95.3441 108.525C96.8941 108.525 97.8441 110.525 97.8441 114.1C97.8441 117.675 96.8941 119.7 95.3441 119.7ZM102.569 112.9H100.144C99.8691 108.675 98.0441 106.1 95.3441 106.1C92.4191 106.1 90.4941 109.15 90.4941 114.1C90.4941 119.05 92.4191 122.125 95.3441 122.125C98.0941 122.125 99.9441 119.425 100.169 115.025H102.569V125.85H104.969V104.775H102.569V112.9ZM107.094 104.35V126.9H109.544V104.35H107.094ZM130.807 114.025C131.357 111.1 131.357 108.875 131.357 107.35V106.05H120.007V108.15H128.832C128.807 109.55 128.732 111.325 128.282 113.75L130.807 114.025ZM132.682 115.15C130.457 115.5 128.032 115.65 125.682 115.75V111.2H123.132V115.825C121.532 115.875 119.982 115.875 118.632 115.875L118.907 117.975C122.832 117.975 128.157 117.85 132.857 117.025L132.682 115.15ZM124.632 119.8H122.032V126.5H137.382V124.4H124.632V119.8ZM136.657 111.5V104.35H134.057V121.3H136.657V113.625H139.657V111.5H136.657ZM155.23 106.925H149.855V104.35H147.28V106.925H141.905V108.975H155.23V106.925ZM145.555 114.3C145.555 112.875 146.78 112.025 148.555 112.025C150.355 112.025 151.58 112.875 151.58 114.3C151.58 115.725 150.355 116.575 148.555 116.575C146.78 116.575 145.555 115.725 145.555 114.3ZM154.03 114.3C154.03 111.75 151.805 110.025 148.555 110.025C145.33 110.025 143.08 111.75 143.08 114.3C143.08 116.875 145.33 118.575 148.555 118.575C151.805 118.575 154.03 116.875 154.03 114.3ZM147.805 119.975H145.205V126.5H160.405V124.4H147.805V119.975ZM159.505 111.55V104.35H156.93V121.275H159.505V113.675H162.705V111.55H159.505ZM35.575 148.35H37.925V154.575H40.375V140.325H37.925V146.225H35.575V140.775H33.175V153.8H35.575V148.35ZM32.4 142.875H28.05V140.55H25.525V142.875H21.15V144.9H32.4V142.875ZM24.275 149.775C24.275 148.55 25.275 147.75 26.8 147.75C28.325 147.75 29.35 148.55 29.35 149.775C29.35 151 28.325 151.8 26.8 151.8C25.275 151.8 24.275 151 24.275 149.775ZM31.65 149.775C31.65 147.45 29.65 145.875 26.8 145.875C23.975 145.875 21.975 147.45 21.975 149.775C21.975 152.125 23.975 153.675 26.8 153.675C29.65 153.675 31.65 152.125 31.65 149.775ZM32.875 160.975C29.65 160.975 27.8 160.25 27.8 158.9C27.8 157.55 29.65 156.85 32.875 156.85C36.125 156.85 37.925 157.55 37.925 158.9C37.925 160.25 36.125 160.975 32.875 160.975ZM32.875 154.9C28.1 154.9 25.225 156.35 25.225 158.9C25.225 161.45 28.1 162.925 32.875 162.925C37.625 162.925 40.5 161.45 40.5 158.9C40.5 156.35 37.625 154.9 32.875 154.9ZM54.423 160.95C51.123 160.95 49.273 160.225 49.273 158.825C49.273 157.45 51.123 156.7 54.423 156.7C57.723 156.7 59.598 157.45 59.598 158.825C59.598 160.225 57.723 160.95 54.423 160.95ZM54.423 154.725C49.598 154.725 46.648 156.225 46.648 158.825C46.648 161.45 49.598 162.95 54.423 162.95C59.273 162.95 62.198 161.45 62.198 158.825C62.198 156.225 59.273 154.725 54.423 154.725ZM55.773 151.25V149H62.348V146.925H49.373V143.4H62.198V141.35H46.823V149H53.198V151.25H44.298V153.35H64.698V151.25H55.773ZM77.4711 142.625C80.9711 142.625 82.8461 143.3 82.8461 144.6C82.8461 145.875 80.9711 146.55 77.4711 146.55C73.9711 146.55 72.0961 145.875 72.0961 144.6C72.0961 143.3 73.9711 142.625 77.4711 142.625ZM77.4711 148.475C82.5211 148.475 85.5211 147.1 85.5211 144.6C85.5211 142.075 82.5211 140.7 77.4711 140.7C72.3961 140.7 69.4211 142.075 69.4211 144.6C69.4211 147.1 72.3961 148.475 77.4711 148.475ZM72.2711 158.875H85.1211V153.475H69.6711V155.425H82.5961V157.05H69.7211V162.725H85.7711V160.75H72.2711V158.875ZM67.2461 149.8V151.85H87.6961V149.8H67.2461ZM97.1594 142.725V144.825H105.209C104.759 150.025 101.959 154 96.0344 156.85L97.4094 158.9C105.159 155.15 107.859 149.45 107.859 142.725H97.1594ZM111.934 140.35V162.925H114.509V140.35H111.934ZM121.157 158.3H134.307V162.8H136.882V156.225H121.157V158.3ZM130.382 152.625V150.575H137.207V148.6H124.007V146.6H136.757V140.875H121.432V142.85H134.207V144.75H121.482V150.575H127.807V152.625H118.857V154.7H139.332V152.625H130.382ZM147.38 155.725C145.855 155.725 144.78 154.5 144.78 152.625C144.78 150.75 145.855 149.5 147.38 149.5C148.905 149.5 149.98 150.75 149.98 152.625C149.98 154.5 148.905 155.725 147.38 155.725ZM147.38 147.375C144.53 147.375 142.48 149.5 142.48 152.625C142.48 155.725 144.53 157.875 147.38 157.875C150.23 157.875 152.28 155.725 152.28 152.625C152.28 149.5 150.23 147.375 147.38 147.375ZM148.655 141H146.105V144.025H141.83V146.1H152.88V144.025H148.655V141ZM158.655 140.35V149.7H156.255V140.825H153.855V161.875H156.255V151.825H158.655V162.925H161.105V140.35H158.655ZM166.929 151.4C170.654 150.85 173.704 149 175.079 146.5C176.454 149 179.529 150.85 183.254 151.4L184.179 149.375C179.879 148.8 176.704 146.325 176.554 143.7H183.379V141.625H166.754V143.7H173.629C173.479 146.325 170.304 148.8 166.004 149.375L166.929 151.4ZM185.304 153.05H164.879V155.125H173.729V162.95H176.304V155.125H185.279L185.304 153.05ZM194.802 142.425H192.302V146.5C192.302 150.35 190.752 154.4 187.552 156.3L189.127 158.25C191.302 156.925 192.777 154.55 193.577 151.775C194.352 154.3 195.702 156.5 197.752 157.75L199.202 155.75C196.177 153.85 194.802 150.025 194.802 146.375V142.425ZM200.102 148.25H196.777V150.35H200.102V161.875H202.527V140.775H200.102V148.25ZM204.702 140.35V162.925H207.152V140.35H204.702ZM218.225 153.15C219.1 153.35 220.075 153.45 221.075 153.45C222.075 153.45 223.05 153.35 223.925 153.125V158.05H218.225V153.15ZM221.075 143.675C224.475 143.675 226.85 145.175 226.85 147.55C226.85 149.95 224.475 151.45 221.075 151.45C217.65 151.45 215.275 149.95 215.275 147.55C215.275 145.175 217.65 143.675 221.075 143.675ZM226.5 158.05V152.175C228.3 151.15 229.375 149.55 229.375 147.55C229.375 143.95 225.875 141.65 221.075 141.65C216.25 141.65 212.775 143.95 212.775 147.55C212.775 149.55 213.85 151.175 215.65 152.175V158.05H210.875V160.15H231.325V158.05H226.5Z" fill="#333333"/>
<defs>
<filter id="filter0_d" x="0" y="20" width="383" height="68" filterUnits="userSpaceOnUse" color-interpolation-filters="sRGB">
<feFlood flood-opacity="0" result="BackgroundImageFix"/>
<feColorMatrix in="SourceAlpha" type="matrix" values="0 0 0 0 0 0 0 0 0 0 0 0 0 0 0 0 0 0 127 0"/>
<feOffset dy="4"/>
<feGaussianBlur stdDeviation="2"/>
<feColorMatrix type="matrix" values="0 0 0 0 0.788235 0 0 0 0 0.788235 0 0 0 0 0.788235 0 0 0 0.2 0"/>
<feBlend mode="normal" in2="BackgroundImageFix" result="effect1_dropShadow"/>
<feBlend mode="normal" in="SourceGraphic" in2="effect1_dropShadow" result="shape"/>
</filter>
</defs>
</svg>
